%FSLAX45Y45*%
G04 Gerber Fmt 4.5, Leading zero omitted, Abs format (unit mm)*
G04 Created by KiCad (PCBNEW (5.0.1-3-g963ef8bb5)) date Montag, 24. Dezember 2018 um 15:41:16*
%MOMM*%
%LPD*%
G01*
G04 APERTURE LIST*
%ADD10C,0.100000*%
%ADD11C,0.200000*%
%ADD12C,0.300000*%
G04 APERTURE END LIST*
D10*
X17600000Y-12800000D02*
G75*
G03X17900000Y-12500000I0J300000D01*
G01*
X11350000Y-12500000D02*
G75*
G03X11650000Y-12800000I300000J0D01*
G01*
X11650000Y-12800000D02*
X17600000Y-12800000D01*
X11650000Y-5150000D02*
G75*
G03X11350000Y-5450000I0J-300000D01*
G01*
X17900000Y-5450000D02*
G75*
G03X17600000Y-5150000I-300000J0D01*
G01*
X11650000Y-5150000D02*
X17600000Y-5150000D01*
X11350000Y-5450000D02*
X11350000Y-12500000D01*
X17900000Y-5450000D02*
X17900000Y-12500000D01*
D11*
X12798000Y-5282000D02*
X13018000Y-5502000D01*
X13018000Y-5282000D02*
X12798000Y-5502000D01*
X12798000Y-7657000D02*
X13018000Y-7877000D01*
X13018000Y-7657000D02*
X12798000Y-7877000D01*
X15148000Y-5282000D02*
X15368000Y-5502000D01*
X15368000Y-5282000D02*
X15148000Y-5502000D01*
X15148000Y-7657000D02*
X15368000Y-7877000D01*
X15368000Y-7657000D02*
X15148000Y-7877000D01*
X17665000Y-10670000D02*
G75*
G03X17665000Y-10670000I-135000J0D01*
G01*
X17665000Y-8370000D02*
G75*
G03X17665000Y-8370000I-135000J0D01*
G01*
X11865000Y-8370000D02*
G75*
G03X11865000Y-8370000I-135000J0D01*
G01*
X11865000Y-10670000D02*
G75*
G03X11865000Y-10670000I-135000J0D01*
G01*
X17624000Y-6020500D02*
X17624000Y-6345500D01*
X17461500Y-6183000D02*
X17786500Y-6183000D01*
X17624000Y-7163500D02*
X17624000Y-7488500D01*
X17461500Y-7326000D02*
X17786500Y-7326000D01*
D12*
X11631428Y-13270714D02*
X11631428Y-12970714D01*
X11702857Y-12970714D01*
X11745714Y-12985000D01*
X11774286Y-13013571D01*
X11788571Y-13042143D01*
X11802857Y-13099286D01*
X11802857Y-13142143D01*
X11788571Y-13199286D01*
X11774286Y-13227857D01*
X11745714Y-13256429D01*
X11702857Y-13270714D01*
X11631428Y-13270714D01*
X11931428Y-13270714D02*
X11931428Y-13070714D01*
X11931428Y-13127857D02*
X11945714Y-13099286D01*
X11960000Y-13085000D01*
X11988571Y-13070714D01*
X12017143Y-13070714D01*
X12117143Y-13270714D02*
X12117143Y-13070714D01*
X12117143Y-12970714D02*
X12102857Y-12985000D01*
X12117143Y-12999286D01*
X12131428Y-12985000D01*
X12117143Y-12970714D01*
X12117143Y-12999286D01*
X12302857Y-13270714D02*
X12274286Y-13256429D01*
X12260000Y-13227857D01*
X12260000Y-12970714D01*
X12460000Y-13270714D02*
X12431428Y-13256429D01*
X12417143Y-13227857D01*
X12417143Y-12970714D01*
X12802857Y-13270714D02*
X12802857Y-12970714D01*
X12902857Y-13185000D01*
X13002857Y-12970714D01*
X13002857Y-13270714D01*
X13274286Y-13270714D02*
X13274286Y-13113571D01*
X13260000Y-13085000D01*
X13231428Y-13070714D01*
X13174286Y-13070714D01*
X13145714Y-13085000D01*
X13274286Y-13256429D02*
X13245714Y-13270714D01*
X13174286Y-13270714D01*
X13145714Y-13256429D01*
X13131428Y-13227857D01*
X13131428Y-13199286D01*
X13145714Y-13170714D01*
X13174286Y-13156429D01*
X13245714Y-13156429D01*
X13274286Y-13142143D01*
X13417143Y-13070714D02*
X13417143Y-13370714D01*
X13417143Y-13085000D02*
X13445714Y-13070714D01*
X13502857Y-13070714D01*
X13531428Y-13085000D01*
X13545714Y-13099286D01*
X13560000Y-13127857D01*
X13560000Y-13213571D01*
X13545714Y-13242143D01*
X13531428Y-13256429D01*
X13502857Y-13270714D01*
X13445714Y-13270714D01*
X13417143Y-13256429D01*
X13688571Y-13242143D02*
X13702857Y-13256429D01*
X13688571Y-13270714D01*
X13674286Y-13256429D01*
X13688571Y-13242143D01*
X13688571Y-13270714D01*
X13688571Y-13085000D02*
X13702857Y-13099286D01*
X13688571Y-13113571D01*
X13674286Y-13099286D01*
X13688571Y-13085000D01*
X13688571Y-13113571D01*
X11125000Y-13655000D02*
X11345000Y-13875000D01*
X11345000Y-13655000D02*
X11125000Y-13875000D01*
X11617143Y-13629286D02*
X11631428Y-13615000D01*
X11660000Y-13600714D01*
X11731428Y-13600714D01*
X11760000Y-13615000D01*
X11774286Y-13629286D01*
X11788571Y-13657857D01*
X11788571Y-13686429D01*
X11774286Y-13729286D01*
X11602857Y-13900714D01*
X11788571Y-13900714D01*
X11917143Y-13872143D02*
X11931428Y-13886429D01*
X11917143Y-13900714D01*
X11902857Y-13886429D01*
X11917143Y-13872143D01*
X11917143Y-13900714D01*
X12045714Y-13629286D02*
X12060000Y-13615000D01*
X12088571Y-13600714D01*
X12160000Y-13600714D01*
X12188571Y-13615000D01*
X12202857Y-13629286D01*
X12217143Y-13657857D01*
X12217143Y-13686429D01*
X12202857Y-13729286D01*
X12031428Y-13900714D01*
X12217143Y-13900714D01*
X12402857Y-13600714D02*
X12431428Y-13600714D01*
X12460000Y-13615000D01*
X12474286Y-13629286D01*
X12488571Y-13657857D01*
X12502857Y-13715000D01*
X12502857Y-13786429D01*
X12488571Y-13843571D01*
X12474286Y-13872143D01*
X12460000Y-13886429D01*
X12431428Y-13900714D01*
X12402857Y-13900714D01*
X12374286Y-13886429D01*
X12360000Y-13872143D01*
X12345714Y-13843571D01*
X12331428Y-13786429D01*
X12331428Y-13715000D01*
X12345714Y-13657857D01*
X12360000Y-13629286D01*
X12374286Y-13615000D01*
X12402857Y-13600714D01*
X12631428Y-13900714D02*
X12631428Y-13700714D01*
X12631428Y-13729286D02*
X12645714Y-13715000D01*
X12674286Y-13700714D01*
X12717143Y-13700714D01*
X12745714Y-13715000D01*
X12760000Y-13743571D01*
X12760000Y-13900714D01*
X12760000Y-13743571D02*
X12774286Y-13715000D01*
X12802857Y-13700714D01*
X12845714Y-13700714D01*
X12874286Y-13715000D01*
X12888571Y-13743571D01*
X12888571Y-13900714D01*
X13031428Y-13900714D02*
X13031428Y-13700714D01*
X13031428Y-13729286D02*
X13045714Y-13715000D01*
X13074286Y-13700714D01*
X13117143Y-13700714D01*
X13145714Y-13715000D01*
X13160000Y-13743571D01*
X13160000Y-13900714D01*
X13160000Y-13743571D02*
X13174286Y-13715000D01*
X13202857Y-13700714D01*
X13245714Y-13700714D01*
X13274286Y-13715000D01*
X13288571Y-13743571D01*
X13288571Y-13900714D01*
X13874286Y-13586429D02*
X13617143Y-13972143D01*
X14260000Y-13600714D02*
X14288571Y-13600714D01*
X14317143Y-13615000D01*
X14331428Y-13629286D01*
X14345714Y-13657857D01*
X14360000Y-13715000D01*
X14360000Y-13786429D01*
X14345714Y-13843571D01*
X14331428Y-13872143D01*
X14317143Y-13886429D01*
X14288571Y-13900714D01*
X14260000Y-13900714D01*
X14231428Y-13886429D01*
X14217143Y-13872143D01*
X14202857Y-13843571D01*
X14188571Y-13786429D01*
X14188571Y-13715000D01*
X14202857Y-13657857D01*
X14217143Y-13629286D01*
X14231428Y-13615000D01*
X14260000Y-13600714D01*
X14488571Y-13872143D02*
X14502857Y-13886429D01*
X14488571Y-13900714D01*
X14474286Y-13886429D01*
X14488571Y-13872143D01*
X14488571Y-13900714D01*
X14688571Y-13600714D02*
X14717143Y-13600714D01*
X14745714Y-13615000D01*
X14760000Y-13629286D01*
X14774286Y-13657857D01*
X14788571Y-13715000D01*
X14788571Y-13786429D01*
X14774286Y-13843571D01*
X14760000Y-13872143D01*
X14745714Y-13886429D01*
X14717143Y-13900714D01*
X14688571Y-13900714D01*
X14660000Y-13886429D01*
X14645714Y-13872143D01*
X14631428Y-13843571D01*
X14617143Y-13786429D01*
X14617143Y-13715000D01*
X14631428Y-13657857D01*
X14645714Y-13629286D01*
X14660000Y-13615000D01*
X14688571Y-13600714D01*
X14960000Y-13729286D02*
X14931428Y-13715000D01*
X14917143Y-13700714D01*
X14902857Y-13672143D01*
X14902857Y-13657857D01*
X14917143Y-13629286D01*
X14931428Y-13615000D01*
X14960000Y-13600714D01*
X15017143Y-13600714D01*
X15045714Y-13615000D01*
X15060000Y-13629286D01*
X15074286Y-13657857D01*
X15074286Y-13672143D01*
X15060000Y-13700714D01*
X15045714Y-13715000D01*
X15017143Y-13729286D01*
X14960000Y-13729286D01*
X14931428Y-13743571D01*
X14917143Y-13757857D01*
X14902857Y-13786429D01*
X14902857Y-13843571D01*
X14917143Y-13872143D01*
X14931428Y-13886429D01*
X14960000Y-13900714D01*
X15017143Y-13900714D01*
X15045714Y-13886429D01*
X15060000Y-13872143D01*
X15074286Y-13843571D01*
X15074286Y-13786429D01*
X15060000Y-13757857D01*
X15045714Y-13743571D01*
X15017143Y-13729286D01*
X15174286Y-13600714D02*
X15374286Y-13600714D01*
X15245714Y-13900714D01*
X15474286Y-13600714D02*
X15474286Y-13657857D01*
X15588571Y-13600714D02*
X15588571Y-13657857D01*
X16031428Y-14015000D02*
X16017143Y-14000714D01*
X15988571Y-13957857D01*
X15974286Y-13929286D01*
X15960000Y-13886429D01*
X15945714Y-13815000D01*
X15945714Y-13757857D01*
X15960000Y-13686429D01*
X15974286Y-13643571D01*
X15988571Y-13615000D01*
X16017143Y-13572143D01*
X16031428Y-13557857D01*
X16274286Y-13700714D02*
X16274286Y-13900714D01*
X16202857Y-13586429D02*
X16131428Y-13800714D01*
X16317143Y-13800714D01*
X16660000Y-13900714D02*
X16660000Y-13600714D01*
X16788571Y-13900714D02*
X16788571Y-13743571D01*
X16774286Y-13715000D01*
X16745714Y-13700714D01*
X16702857Y-13700714D01*
X16674286Y-13715000D01*
X16660000Y-13729286D01*
X16974286Y-13900714D02*
X16945714Y-13886429D01*
X16931428Y-13872143D01*
X16917143Y-13843571D01*
X16917143Y-13757857D01*
X16931428Y-13729286D01*
X16945714Y-13715000D01*
X16974286Y-13700714D01*
X17017143Y-13700714D01*
X17045714Y-13715000D01*
X17060000Y-13729286D01*
X17074286Y-13757857D01*
X17074286Y-13843571D01*
X17060000Y-13872143D01*
X17045714Y-13886429D01*
X17017143Y-13900714D01*
X16974286Y-13900714D01*
X17245714Y-13900714D02*
X17217143Y-13886429D01*
X17202857Y-13857857D01*
X17202857Y-13600714D01*
X17474286Y-13886429D02*
X17445714Y-13900714D01*
X17388571Y-13900714D01*
X17360000Y-13886429D01*
X17345714Y-13857857D01*
X17345714Y-13743571D01*
X17360000Y-13715000D01*
X17388571Y-13700714D01*
X17445714Y-13700714D01*
X17474286Y-13715000D01*
X17488571Y-13743571D01*
X17488571Y-13772143D01*
X17345714Y-13800714D01*
X17602857Y-13886429D02*
X17631428Y-13900714D01*
X17688571Y-13900714D01*
X17717143Y-13886429D01*
X17731428Y-13857857D01*
X17731428Y-13843571D01*
X17717143Y-13815000D01*
X17688571Y-13800714D01*
X17645714Y-13800714D01*
X17617143Y-13786429D01*
X17602857Y-13757857D01*
X17602857Y-13743571D01*
X17617143Y-13715000D01*
X17645714Y-13700714D01*
X17688571Y-13700714D01*
X17717143Y-13715000D01*
X17831428Y-14015000D02*
X17845714Y-14000714D01*
X17874286Y-13957857D01*
X17888571Y-13929286D01*
X17902857Y-13886429D01*
X17917143Y-13815000D01*
X17917143Y-13757857D01*
X17902857Y-13686429D01*
X17888571Y-13643571D01*
X17874286Y-13615000D01*
X17845714Y-13572143D01*
X17831428Y-13557857D01*
X18374286Y-14015000D02*
X18360000Y-14000714D01*
X18331428Y-13957857D01*
X18317143Y-13929286D01*
X18302857Y-13886429D01*
X18288571Y-13815000D01*
X18288571Y-13757857D01*
X18302857Y-13686429D01*
X18317143Y-13643571D01*
X18331428Y-13615000D01*
X18360000Y-13572143D01*
X18374286Y-13557857D01*
X18488571Y-13700714D02*
X18488571Y-13900714D01*
X18488571Y-13729286D02*
X18502857Y-13715000D01*
X18531428Y-13700714D01*
X18574286Y-13700714D01*
X18602857Y-13715000D01*
X18617143Y-13743571D01*
X18617143Y-13900714D01*
X18802857Y-13900714D02*
X18774286Y-13886429D01*
X18760000Y-13872143D01*
X18745714Y-13843571D01*
X18745714Y-13757857D01*
X18760000Y-13729286D01*
X18774286Y-13715000D01*
X18802857Y-13700714D01*
X18845714Y-13700714D01*
X18874286Y-13715000D01*
X18888571Y-13729286D01*
X18902857Y-13757857D01*
X18902857Y-13843571D01*
X18888571Y-13872143D01*
X18874286Y-13886429D01*
X18845714Y-13900714D01*
X18802857Y-13900714D01*
X18988571Y-13700714D02*
X19102857Y-13700714D01*
X19031428Y-13600714D02*
X19031428Y-13857857D01*
X19045714Y-13886429D01*
X19074286Y-13900714D01*
X19102857Y-13900714D01*
X19431428Y-13700714D02*
X19431428Y-14000714D01*
X19431428Y-13715000D02*
X19460000Y-13700714D01*
X19517143Y-13700714D01*
X19545714Y-13715000D01*
X19560000Y-13729286D01*
X19574286Y-13757857D01*
X19574286Y-13843571D01*
X19560000Y-13872143D01*
X19545714Y-13886429D01*
X19517143Y-13900714D01*
X19460000Y-13900714D01*
X19431428Y-13886429D01*
X19745714Y-13900714D02*
X19717143Y-13886429D01*
X19702857Y-13857857D01*
X19702857Y-13600714D01*
X19988571Y-13900714D02*
X19988571Y-13743571D01*
X19974286Y-13715000D01*
X19945714Y-13700714D01*
X19888571Y-13700714D01*
X19860000Y-13715000D01*
X19988571Y-13886429D02*
X19960000Y-13900714D01*
X19888571Y-13900714D01*
X19860000Y-13886429D01*
X19845714Y-13857857D01*
X19845714Y-13829286D01*
X19860000Y-13800714D01*
X19888571Y-13786429D01*
X19960000Y-13786429D01*
X19988571Y-13772143D01*
X20088571Y-13700714D02*
X20202857Y-13700714D01*
X20131428Y-13600714D02*
X20131428Y-13857857D01*
X20145714Y-13886429D01*
X20174286Y-13900714D01*
X20202857Y-13900714D01*
X20417143Y-13886429D02*
X20388571Y-13900714D01*
X20331428Y-13900714D01*
X20302857Y-13886429D01*
X20288571Y-13857857D01*
X20288571Y-13743571D01*
X20302857Y-13715000D01*
X20331428Y-13700714D01*
X20388571Y-13700714D01*
X20417143Y-13715000D01*
X20431428Y-13743571D01*
X20431428Y-13772143D01*
X20288571Y-13800714D01*
X20688571Y-13900714D02*
X20688571Y-13600714D01*
X20688571Y-13886429D02*
X20660000Y-13900714D01*
X20602857Y-13900714D01*
X20574286Y-13886429D01*
X20560000Y-13872143D01*
X20545714Y-13843571D01*
X20545714Y-13757857D01*
X20560000Y-13729286D01*
X20574286Y-13715000D01*
X20602857Y-13700714D01*
X20660000Y-13700714D01*
X20688571Y-13715000D01*
X20802857Y-14015000D02*
X20817143Y-14000714D01*
X20845714Y-13957857D01*
X20860000Y-13929286D01*
X20874286Y-13886429D01*
X20888571Y-13815000D01*
X20888571Y-13757857D01*
X20874286Y-13686429D01*
X20860000Y-13643571D01*
X20845714Y-13615000D01*
X20817143Y-13572143D01*
X20802857Y-13557857D01*
X11345000Y-14161000D02*
G75*
G03X11345000Y-14161000I-135000J0D01*
G01*
X11617143Y-14025286D02*
X11631428Y-14011000D01*
X11660000Y-13996714D01*
X11731428Y-13996714D01*
X11760000Y-14011000D01*
X11774286Y-14025286D01*
X11788571Y-14053857D01*
X11788571Y-14082429D01*
X11774286Y-14125286D01*
X11602857Y-14296714D01*
X11788571Y-14296714D01*
X11917143Y-14268143D02*
X11931428Y-14282429D01*
X11917143Y-14296714D01*
X11902857Y-14282429D01*
X11917143Y-14268143D01*
X11917143Y-14296714D01*
X12031428Y-13996714D02*
X12231428Y-13996714D01*
X12102857Y-14296714D01*
X12402857Y-13996714D02*
X12431428Y-13996714D01*
X12460000Y-14011000D01*
X12474286Y-14025286D01*
X12488571Y-14053857D01*
X12502857Y-14111000D01*
X12502857Y-14182429D01*
X12488571Y-14239571D01*
X12474286Y-14268143D01*
X12460000Y-14282429D01*
X12431428Y-14296714D01*
X12402857Y-14296714D01*
X12374286Y-14282429D01*
X12360000Y-14268143D01*
X12345714Y-14239571D01*
X12331428Y-14182429D01*
X12331428Y-14111000D01*
X12345714Y-14053857D01*
X12360000Y-14025286D01*
X12374286Y-14011000D01*
X12402857Y-13996714D01*
X12631428Y-14296714D02*
X12631428Y-14096714D01*
X12631428Y-14125286D02*
X12645714Y-14111000D01*
X12674286Y-14096714D01*
X12717143Y-14096714D01*
X12745714Y-14111000D01*
X12760000Y-14139571D01*
X12760000Y-14296714D01*
X12760000Y-14139571D02*
X12774286Y-14111000D01*
X12802857Y-14096714D01*
X12845714Y-14096714D01*
X12874286Y-14111000D01*
X12888571Y-14139571D01*
X12888571Y-14296714D01*
X13031428Y-14296714D02*
X13031428Y-14096714D01*
X13031428Y-14125286D02*
X13045714Y-14111000D01*
X13074286Y-14096714D01*
X13117143Y-14096714D01*
X13145714Y-14111000D01*
X13160000Y-14139571D01*
X13160000Y-14296714D01*
X13160000Y-14139571D02*
X13174286Y-14111000D01*
X13202857Y-14096714D01*
X13245714Y-14096714D01*
X13274286Y-14111000D01*
X13288571Y-14139571D01*
X13288571Y-14296714D01*
X13874286Y-13982429D02*
X13617143Y-14368143D01*
X14260000Y-13996714D02*
X14288571Y-13996714D01*
X14317143Y-14011000D01*
X14331428Y-14025286D01*
X14345714Y-14053857D01*
X14360000Y-14111000D01*
X14360000Y-14182429D01*
X14345714Y-14239571D01*
X14331428Y-14268143D01*
X14317143Y-14282429D01*
X14288571Y-14296714D01*
X14260000Y-14296714D01*
X14231428Y-14282429D01*
X14217143Y-14268143D01*
X14202857Y-14239571D01*
X14188571Y-14182429D01*
X14188571Y-14111000D01*
X14202857Y-14053857D01*
X14217143Y-14025286D01*
X14231428Y-14011000D01*
X14260000Y-13996714D01*
X14488571Y-14268143D02*
X14502857Y-14282429D01*
X14488571Y-14296714D01*
X14474286Y-14282429D01*
X14488571Y-14268143D01*
X14488571Y-14296714D01*
X14788571Y-14296714D02*
X14617143Y-14296714D01*
X14702857Y-14296714D02*
X14702857Y-13996714D01*
X14674286Y-14039571D01*
X14645714Y-14068143D01*
X14617143Y-14082429D01*
X14974286Y-13996714D02*
X15002857Y-13996714D01*
X15031428Y-14011000D01*
X15045714Y-14025286D01*
X15060000Y-14053857D01*
X15074286Y-14111000D01*
X15074286Y-14182429D01*
X15060000Y-14239571D01*
X15045714Y-14268143D01*
X15031428Y-14282429D01*
X15002857Y-14296714D01*
X14974286Y-14296714D01*
X14945714Y-14282429D01*
X14931428Y-14268143D01*
X14917143Y-14239571D01*
X14902857Y-14182429D01*
X14902857Y-14111000D01*
X14917143Y-14053857D01*
X14931428Y-14025286D01*
X14945714Y-14011000D01*
X14974286Y-13996714D01*
X15331428Y-13996714D02*
X15274286Y-13996714D01*
X15245714Y-14011000D01*
X15231428Y-14025286D01*
X15202857Y-14068143D01*
X15188571Y-14125286D01*
X15188571Y-14239571D01*
X15202857Y-14268143D01*
X15217143Y-14282429D01*
X15245714Y-14296714D01*
X15302857Y-14296714D01*
X15331428Y-14282429D01*
X15345714Y-14268143D01*
X15360000Y-14239571D01*
X15360000Y-14168143D01*
X15345714Y-14139571D01*
X15331428Y-14125286D01*
X15302857Y-14111000D01*
X15245714Y-14111000D01*
X15217143Y-14125286D01*
X15202857Y-14139571D01*
X15188571Y-14168143D01*
X15474286Y-13996714D02*
X15474286Y-14053857D01*
X15588571Y-13996714D02*
X15588571Y-14053857D01*
X16031428Y-14411000D02*
X16017143Y-14396714D01*
X15988571Y-14353857D01*
X15974286Y-14325286D01*
X15960000Y-14282429D01*
X15945714Y-14211000D01*
X15945714Y-14153857D01*
X15960000Y-14082429D01*
X15974286Y-14039571D01*
X15988571Y-14011000D01*
X16017143Y-13968143D01*
X16031428Y-13953857D01*
X16274286Y-14096714D02*
X16274286Y-14296714D01*
X16202857Y-13982429D02*
X16131428Y-14196714D01*
X16317143Y-14196714D01*
X16660000Y-14296714D02*
X16660000Y-13996714D01*
X16788571Y-14296714D02*
X16788571Y-14139571D01*
X16774286Y-14111000D01*
X16745714Y-14096714D01*
X16702857Y-14096714D01*
X16674286Y-14111000D01*
X16660000Y-14125286D01*
X16974286Y-14296714D02*
X16945714Y-14282429D01*
X16931428Y-14268143D01*
X16917143Y-14239571D01*
X16917143Y-14153857D01*
X16931428Y-14125286D01*
X16945714Y-14111000D01*
X16974286Y-14096714D01*
X17017143Y-14096714D01*
X17045714Y-14111000D01*
X17060000Y-14125286D01*
X17074286Y-14153857D01*
X17074286Y-14239571D01*
X17060000Y-14268143D01*
X17045714Y-14282429D01*
X17017143Y-14296714D01*
X16974286Y-14296714D01*
X17245714Y-14296714D02*
X17217143Y-14282429D01*
X17202857Y-14253857D01*
X17202857Y-13996714D01*
X17474286Y-14282429D02*
X17445714Y-14296714D01*
X17388571Y-14296714D01*
X17360000Y-14282429D01*
X17345714Y-14253857D01*
X17345714Y-14139571D01*
X17360000Y-14111000D01*
X17388571Y-14096714D01*
X17445714Y-14096714D01*
X17474286Y-14111000D01*
X17488571Y-14139571D01*
X17488571Y-14168143D01*
X17345714Y-14196714D01*
X17602857Y-14282429D02*
X17631428Y-14296714D01*
X17688571Y-14296714D01*
X17717143Y-14282429D01*
X17731428Y-14253857D01*
X17731428Y-14239571D01*
X17717143Y-14211000D01*
X17688571Y-14196714D01*
X17645714Y-14196714D01*
X17617143Y-14182429D01*
X17602857Y-14153857D01*
X17602857Y-14139571D01*
X17617143Y-14111000D01*
X17645714Y-14096714D01*
X17688571Y-14096714D01*
X17717143Y-14111000D01*
X17831428Y-14411000D02*
X17845714Y-14396714D01*
X17874286Y-14353857D01*
X17888571Y-14325286D01*
X17902857Y-14282429D01*
X17917143Y-14211000D01*
X17917143Y-14153857D01*
X17902857Y-14082429D01*
X17888571Y-14039571D01*
X17874286Y-14011000D01*
X17845714Y-13968143D01*
X17831428Y-13953857D01*
X18374286Y-14411000D02*
X18360000Y-14396714D01*
X18331428Y-14353857D01*
X18317143Y-14325286D01*
X18302857Y-14282429D01*
X18288571Y-14211000D01*
X18288571Y-14153857D01*
X18302857Y-14082429D01*
X18317143Y-14039571D01*
X18331428Y-14011000D01*
X18360000Y-13968143D01*
X18374286Y-13953857D01*
X18488571Y-14096714D02*
X18488571Y-14296714D01*
X18488571Y-14125286D02*
X18502857Y-14111000D01*
X18531428Y-14096714D01*
X18574286Y-14096714D01*
X18602857Y-14111000D01*
X18617143Y-14139571D01*
X18617143Y-14296714D01*
X18802857Y-14296714D02*
X18774286Y-14282429D01*
X18760000Y-14268143D01*
X18745714Y-14239571D01*
X18745714Y-14153857D01*
X18760000Y-14125286D01*
X18774286Y-14111000D01*
X18802857Y-14096714D01*
X18845714Y-14096714D01*
X18874286Y-14111000D01*
X18888571Y-14125286D01*
X18902857Y-14153857D01*
X18902857Y-14239571D01*
X18888571Y-14268143D01*
X18874286Y-14282429D01*
X18845714Y-14296714D01*
X18802857Y-14296714D01*
X18988571Y-14096714D02*
X19102857Y-14096714D01*
X19031428Y-13996714D02*
X19031428Y-14253857D01*
X19045714Y-14282429D01*
X19074286Y-14296714D01*
X19102857Y-14296714D01*
X19431428Y-14096714D02*
X19431428Y-14396714D01*
X19431428Y-14111000D02*
X19460000Y-14096714D01*
X19517143Y-14096714D01*
X19545714Y-14111000D01*
X19560000Y-14125286D01*
X19574286Y-14153857D01*
X19574286Y-14239571D01*
X19560000Y-14268143D01*
X19545714Y-14282429D01*
X19517143Y-14296714D01*
X19460000Y-14296714D01*
X19431428Y-14282429D01*
X19745714Y-14296714D02*
X19717143Y-14282429D01*
X19702857Y-14253857D01*
X19702857Y-13996714D01*
X19988571Y-14296714D02*
X19988571Y-14139571D01*
X19974286Y-14111000D01*
X19945714Y-14096714D01*
X19888571Y-14096714D01*
X19860000Y-14111000D01*
X19988571Y-14282429D02*
X19960000Y-14296714D01*
X19888571Y-14296714D01*
X19860000Y-14282429D01*
X19845714Y-14253857D01*
X19845714Y-14225286D01*
X19860000Y-14196714D01*
X19888571Y-14182429D01*
X19960000Y-14182429D01*
X19988571Y-14168143D01*
X20088571Y-14096714D02*
X20202857Y-14096714D01*
X20131428Y-13996714D02*
X20131428Y-14253857D01*
X20145714Y-14282429D01*
X20174286Y-14296714D01*
X20202857Y-14296714D01*
X20417143Y-14282429D02*
X20388571Y-14296714D01*
X20331428Y-14296714D01*
X20302857Y-14282429D01*
X20288571Y-14253857D01*
X20288571Y-14139571D01*
X20302857Y-14111000D01*
X20331428Y-14096714D01*
X20388571Y-14096714D01*
X20417143Y-14111000D01*
X20431428Y-14139571D01*
X20431428Y-14168143D01*
X20288571Y-14196714D01*
X20688571Y-14296714D02*
X20688571Y-13996714D01*
X20688571Y-14282429D02*
X20660000Y-14296714D01*
X20602857Y-14296714D01*
X20574286Y-14282429D01*
X20560000Y-14268143D01*
X20545714Y-14239571D01*
X20545714Y-14153857D01*
X20560000Y-14125286D01*
X20574286Y-14111000D01*
X20602857Y-14096714D01*
X20660000Y-14096714D01*
X20688571Y-14111000D01*
X20802857Y-14411000D02*
X20817143Y-14396714D01*
X20845714Y-14353857D01*
X20860000Y-14325286D01*
X20874286Y-14282429D01*
X20888571Y-14211000D01*
X20888571Y-14153857D01*
X20874286Y-14082429D01*
X20860000Y-14039571D01*
X20845714Y-14011000D01*
X20817143Y-13968143D01*
X20802857Y-13953857D01*
X11182500Y-14398500D02*
X11182500Y-14723500D01*
X11020000Y-14561000D02*
X11345000Y-14561000D01*
X11602857Y-14396714D02*
X11788571Y-14396714D01*
X11688571Y-14511000D01*
X11731428Y-14511000D01*
X11760000Y-14525286D01*
X11774286Y-14539571D01*
X11788571Y-14568143D01*
X11788571Y-14639571D01*
X11774286Y-14668143D01*
X11760000Y-14682429D01*
X11731428Y-14696714D01*
X11645714Y-14696714D01*
X11617143Y-14682429D01*
X11602857Y-14668143D01*
X11917143Y-14668143D02*
X11931428Y-14682429D01*
X11917143Y-14696714D01*
X11902857Y-14682429D01*
X11917143Y-14668143D01*
X11917143Y-14696714D01*
X12045714Y-14425286D02*
X12060000Y-14411000D01*
X12088571Y-14396714D01*
X12160000Y-14396714D01*
X12188571Y-14411000D01*
X12202857Y-14425286D01*
X12217143Y-14453857D01*
X12217143Y-14482429D01*
X12202857Y-14525286D01*
X12031428Y-14696714D01*
X12217143Y-14696714D01*
X12488571Y-14396714D02*
X12345714Y-14396714D01*
X12331428Y-14539571D01*
X12345714Y-14525286D01*
X12374286Y-14511000D01*
X12445714Y-14511000D01*
X12474286Y-14525286D01*
X12488571Y-14539571D01*
X12502857Y-14568143D01*
X12502857Y-14639571D01*
X12488571Y-14668143D01*
X12474286Y-14682429D01*
X12445714Y-14696714D01*
X12374286Y-14696714D01*
X12345714Y-14682429D01*
X12331428Y-14668143D01*
X12631428Y-14696714D02*
X12631428Y-14496714D01*
X12631428Y-14525286D02*
X12645714Y-14511000D01*
X12674286Y-14496714D01*
X12717143Y-14496714D01*
X12745714Y-14511000D01*
X12760000Y-14539571D01*
X12760000Y-14696714D01*
X12760000Y-14539571D02*
X12774286Y-14511000D01*
X12802857Y-14496714D01*
X12845714Y-14496714D01*
X12874286Y-14511000D01*
X12888571Y-14539571D01*
X12888571Y-14696714D01*
X13031428Y-14696714D02*
X13031428Y-14496714D01*
X13031428Y-14525286D02*
X13045714Y-14511000D01*
X13074286Y-14496714D01*
X13117143Y-14496714D01*
X13145714Y-14511000D01*
X13160000Y-14539571D01*
X13160000Y-14696714D01*
X13160000Y-14539571D02*
X13174286Y-14511000D01*
X13202857Y-14496714D01*
X13245714Y-14496714D01*
X13274286Y-14511000D01*
X13288571Y-14539571D01*
X13288571Y-14696714D01*
X13874286Y-14382429D02*
X13617143Y-14768143D01*
X14260000Y-14396714D02*
X14288571Y-14396714D01*
X14317143Y-14411000D01*
X14331428Y-14425286D01*
X14345714Y-14453857D01*
X14360000Y-14511000D01*
X14360000Y-14582429D01*
X14345714Y-14639571D01*
X14331428Y-14668143D01*
X14317143Y-14682429D01*
X14288571Y-14696714D01*
X14260000Y-14696714D01*
X14231428Y-14682429D01*
X14217143Y-14668143D01*
X14202857Y-14639571D01*
X14188571Y-14582429D01*
X14188571Y-14511000D01*
X14202857Y-14453857D01*
X14217143Y-14425286D01*
X14231428Y-14411000D01*
X14260000Y-14396714D01*
X14488571Y-14668143D02*
X14502857Y-14682429D01*
X14488571Y-14696714D01*
X14474286Y-14682429D01*
X14488571Y-14668143D01*
X14488571Y-14696714D01*
X14788571Y-14696714D02*
X14617143Y-14696714D01*
X14702857Y-14696714D02*
X14702857Y-14396714D01*
X14674286Y-14439571D01*
X14645714Y-14468143D01*
X14617143Y-14482429D01*
X14902857Y-14425286D02*
X14917143Y-14411000D01*
X14945714Y-14396714D01*
X15017143Y-14396714D01*
X15045714Y-14411000D01*
X15060000Y-14425286D01*
X15074286Y-14453857D01*
X15074286Y-14482429D01*
X15060000Y-14525286D01*
X14888571Y-14696714D01*
X15074286Y-14696714D01*
X15245714Y-14525286D02*
X15217143Y-14511000D01*
X15202857Y-14496714D01*
X15188571Y-14468143D01*
X15188571Y-14453857D01*
X15202857Y-14425286D01*
X15217143Y-14411000D01*
X15245714Y-14396714D01*
X15302857Y-14396714D01*
X15331428Y-14411000D01*
X15345714Y-14425286D01*
X15360000Y-14453857D01*
X15360000Y-14468143D01*
X15345714Y-14496714D01*
X15331428Y-14511000D01*
X15302857Y-14525286D01*
X15245714Y-14525286D01*
X15217143Y-14539571D01*
X15202857Y-14553857D01*
X15188571Y-14582429D01*
X15188571Y-14639571D01*
X15202857Y-14668143D01*
X15217143Y-14682429D01*
X15245714Y-14696714D01*
X15302857Y-14696714D01*
X15331428Y-14682429D01*
X15345714Y-14668143D01*
X15360000Y-14639571D01*
X15360000Y-14582429D01*
X15345714Y-14553857D01*
X15331428Y-14539571D01*
X15302857Y-14525286D01*
X15474286Y-14396714D02*
X15474286Y-14453857D01*
X15588571Y-14396714D02*
X15588571Y-14453857D01*
X16031428Y-14811000D02*
X16017143Y-14796714D01*
X15988571Y-14753857D01*
X15974286Y-14725286D01*
X15960000Y-14682429D01*
X15945714Y-14611000D01*
X15945714Y-14553857D01*
X15960000Y-14482429D01*
X15974286Y-14439571D01*
X15988571Y-14411000D01*
X16017143Y-14368143D01*
X16031428Y-14353857D01*
X16131428Y-14425286D02*
X16145714Y-14411000D01*
X16174286Y-14396714D01*
X16245714Y-14396714D01*
X16274286Y-14411000D01*
X16288571Y-14425286D01*
X16302857Y-14453857D01*
X16302857Y-14482429D01*
X16288571Y-14525286D01*
X16117143Y-14696714D01*
X16302857Y-14696714D01*
X16660000Y-14696714D02*
X16660000Y-14396714D01*
X16788571Y-14696714D02*
X16788571Y-14539571D01*
X16774286Y-14511000D01*
X16745714Y-14496714D01*
X16702857Y-14496714D01*
X16674286Y-14511000D01*
X16660000Y-14525286D01*
X16974286Y-14696714D02*
X16945714Y-14682429D01*
X16931428Y-14668143D01*
X16917143Y-14639571D01*
X16917143Y-14553857D01*
X16931428Y-14525286D01*
X16945714Y-14511000D01*
X16974286Y-14496714D01*
X17017143Y-14496714D01*
X17045714Y-14511000D01*
X17060000Y-14525286D01*
X17074286Y-14553857D01*
X17074286Y-14639571D01*
X17060000Y-14668143D01*
X17045714Y-14682429D01*
X17017143Y-14696714D01*
X16974286Y-14696714D01*
X17245714Y-14696714D02*
X17217143Y-14682429D01*
X17202857Y-14653857D01*
X17202857Y-14396714D01*
X17474286Y-14682429D02*
X17445714Y-14696714D01*
X17388571Y-14696714D01*
X17360000Y-14682429D01*
X17345714Y-14653857D01*
X17345714Y-14539571D01*
X17360000Y-14511000D01*
X17388571Y-14496714D01*
X17445714Y-14496714D01*
X17474286Y-14511000D01*
X17488571Y-14539571D01*
X17488571Y-14568143D01*
X17345714Y-14596714D01*
X17602857Y-14682429D02*
X17631428Y-14696714D01*
X17688571Y-14696714D01*
X17717143Y-14682429D01*
X17731428Y-14653857D01*
X17731428Y-14639571D01*
X17717143Y-14611000D01*
X17688571Y-14596714D01*
X17645714Y-14596714D01*
X17617143Y-14582429D01*
X17602857Y-14553857D01*
X17602857Y-14539571D01*
X17617143Y-14511000D01*
X17645714Y-14496714D01*
X17688571Y-14496714D01*
X17717143Y-14511000D01*
X17831428Y-14811000D02*
X17845714Y-14796714D01*
X17874286Y-14753857D01*
X17888571Y-14725286D01*
X17902857Y-14682429D01*
X17917143Y-14611000D01*
X17917143Y-14553857D01*
X17902857Y-14482429D01*
X17888571Y-14439571D01*
X17874286Y-14411000D01*
X17845714Y-14368143D01*
X17831428Y-14353857D01*
X18374286Y-14811000D02*
X18360000Y-14796714D01*
X18331428Y-14753857D01*
X18317143Y-14725286D01*
X18302857Y-14682429D01*
X18288571Y-14611000D01*
X18288571Y-14553857D01*
X18302857Y-14482429D01*
X18317143Y-14439571D01*
X18331428Y-14411000D01*
X18360000Y-14368143D01*
X18374286Y-14353857D01*
X18488571Y-14496714D02*
X18488571Y-14696714D01*
X18488571Y-14525286D02*
X18502857Y-14511000D01*
X18531428Y-14496714D01*
X18574286Y-14496714D01*
X18602857Y-14511000D01*
X18617143Y-14539571D01*
X18617143Y-14696714D01*
X18802857Y-14696714D02*
X18774286Y-14682429D01*
X18760000Y-14668143D01*
X18745714Y-14639571D01*
X18745714Y-14553857D01*
X18760000Y-14525286D01*
X18774286Y-14511000D01*
X18802857Y-14496714D01*
X18845714Y-14496714D01*
X18874286Y-14511000D01*
X18888571Y-14525286D01*
X18902857Y-14553857D01*
X18902857Y-14639571D01*
X18888571Y-14668143D01*
X18874286Y-14682429D01*
X18845714Y-14696714D01*
X18802857Y-14696714D01*
X18988571Y-14496714D02*
X19102857Y-14496714D01*
X19031428Y-14396714D02*
X19031428Y-14653857D01*
X19045714Y-14682429D01*
X19074286Y-14696714D01*
X19102857Y-14696714D01*
X19431428Y-14496714D02*
X19431428Y-14796714D01*
X19431428Y-14511000D02*
X19460000Y-14496714D01*
X19517143Y-14496714D01*
X19545714Y-14511000D01*
X19560000Y-14525286D01*
X19574286Y-14553857D01*
X19574286Y-14639571D01*
X19560000Y-14668143D01*
X19545714Y-14682429D01*
X19517143Y-14696714D01*
X19460000Y-14696714D01*
X19431428Y-14682429D01*
X19745714Y-14696714D02*
X19717143Y-14682429D01*
X19702857Y-14653857D01*
X19702857Y-14396714D01*
X19988571Y-14696714D02*
X19988571Y-14539571D01*
X19974286Y-14511000D01*
X19945714Y-14496714D01*
X19888571Y-14496714D01*
X19860000Y-14511000D01*
X19988571Y-14682429D02*
X19960000Y-14696714D01*
X19888571Y-14696714D01*
X19860000Y-14682429D01*
X19845714Y-14653857D01*
X19845714Y-14625286D01*
X19860000Y-14596714D01*
X19888571Y-14582429D01*
X19960000Y-14582429D01*
X19988571Y-14568143D01*
X20088571Y-14496714D02*
X20202857Y-14496714D01*
X20131428Y-14396714D02*
X20131428Y-14653857D01*
X20145714Y-14682429D01*
X20174286Y-14696714D01*
X20202857Y-14696714D01*
X20417143Y-14682429D02*
X20388571Y-14696714D01*
X20331428Y-14696714D01*
X20302857Y-14682429D01*
X20288571Y-14653857D01*
X20288571Y-14539571D01*
X20302857Y-14511000D01*
X20331428Y-14496714D01*
X20388571Y-14496714D01*
X20417143Y-14511000D01*
X20431428Y-14539571D01*
X20431428Y-14568143D01*
X20288571Y-14596714D01*
X20688571Y-14696714D02*
X20688571Y-14396714D01*
X20688571Y-14682429D02*
X20660000Y-14696714D01*
X20602857Y-14696714D01*
X20574286Y-14682429D01*
X20560000Y-14668143D01*
X20545714Y-14639571D01*
X20545714Y-14553857D01*
X20560000Y-14525286D01*
X20574286Y-14511000D01*
X20602857Y-14496714D01*
X20660000Y-14496714D01*
X20688571Y-14511000D01*
X20802857Y-14811000D02*
X20817143Y-14796714D01*
X20845714Y-14753857D01*
X20860000Y-14725286D01*
X20874286Y-14682429D01*
X20888571Y-14611000D01*
X20888571Y-14553857D01*
X20874286Y-14482429D01*
X20860000Y-14439571D01*
X20845714Y-14411000D01*
X20817143Y-14368143D01*
X20802857Y-14353857D01*
M02*
