G04 #@! TF.GenerationSoftware,KiCad,Pcbnew,(5.0.1-3-g963ef8bb5)*
G04 #@! TF.CreationDate,2018-12-24T15:41:03+01:00*
G04 #@! TF.ProjectId,heizungsregler,6865697A756E67737265676C65722E6B,rev?*
G04 #@! TF.SameCoordinates,Original*
G04 #@! TF.FileFunction,Legend,Bot*
G04 #@! TF.FilePolarity,Positive*
%FSLAX46Y46*%
G04 Gerber Fmt 4.6, Leading zero omitted, Abs format (unit mm)*
G04 Created by KiCad (PCBNEW (5.0.1-3-g963ef8bb5)) date Montag, 24. Dezember 2018 um 15:41:03*
%MOMM*%
%LPD*%
G01*
G04 APERTURE LIST*
%ADD10C,0.120000*%
%ADD11C,0.150000*%
G04 APERTURE END LIST*
D10*
G04 #@! TO.C,J101*
X120820000Y-81080000D02*
X120820000Y-86380000D01*
X171840000Y-81080000D02*
X120820000Y-81080000D01*
X171840000Y-86380000D02*
X171840000Y-81080000D01*
X120820000Y-86380000D02*
X171840000Y-86380000D01*
G04 #@! TO.C,Q401*
X126610000Y-122490000D02*
X126610000Y-121030000D01*
X123450000Y-122490000D02*
X123450000Y-120330000D01*
X123450000Y-122490000D02*
X124380000Y-122490000D01*
X126610000Y-122490000D02*
X125680000Y-122490000D01*
G04 #@! TO.C,Q402*
X152430000Y-122540000D02*
X152430000Y-121080000D01*
X149270000Y-122540000D02*
X149270000Y-120380000D01*
X149270000Y-122540000D02*
X150200000Y-122540000D01*
X152430000Y-122540000D02*
X151500000Y-122540000D01*
G04 #@! TO.C,Q403*
X145010000Y-122520000D02*
X145010000Y-121060000D01*
X141850000Y-122520000D02*
X141850000Y-120360000D01*
X141850000Y-122520000D02*
X142780000Y-122520000D01*
X145010000Y-122520000D02*
X144080000Y-122520000D01*
G04 #@! TO.C,Q404*
X141310000Y-122520000D02*
X141310000Y-121060000D01*
X138150000Y-122520000D02*
X138150000Y-120360000D01*
X138150000Y-122520000D02*
X139080000Y-122520000D01*
X141310000Y-122520000D02*
X140380000Y-122520000D01*
G04 #@! TO.C,Q405*
X148720000Y-122540000D02*
X148720000Y-121080000D01*
X145560000Y-122540000D02*
X145560000Y-120380000D01*
X145560000Y-122540000D02*
X146490000Y-122540000D01*
X148720000Y-122540000D02*
X147790000Y-122540000D01*
G04 #@! TO.C,Q406*
X137630000Y-122530000D02*
X137630000Y-121070000D01*
X134470000Y-122530000D02*
X134470000Y-120370000D01*
X134470000Y-122530000D02*
X135400000Y-122530000D01*
X137630000Y-122530000D02*
X136700000Y-122530000D01*
G04 #@! TO.C,Q407*
X133980000Y-122520000D02*
X133980000Y-121060000D01*
X130820000Y-122520000D02*
X130820000Y-120360000D01*
X130820000Y-122520000D02*
X131750000Y-122520000D01*
X133980000Y-122520000D02*
X133050000Y-122520000D01*
G04 #@! TO.C,Q408*
X130290000Y-122490000D02*
X130290000Y-121030000D01*
X127130000Y-122490000D02*
X127130000Y-120330000D01*
X127130000Y-122490000D02*
X128060000Y-122490000D01*
X130290000Y-122490000D02*
X129360000Y-122490000D01*
G04 #@! TO.C,R405*
X149420000Y-118562779D02*
X149420000Y-118237221D01*
X150440000Y-118562779D02*
X150440000Y-118237221D01*
G04 #@! TO.C,R406*
X141910000Y-118572779D02*
X141910000Y-118247221D01*
X142930000Y-118572779D02*
X142930000Y-118247221D01*
G04 #@! TO.C,R408*
X138210000Y-118572779D02*
X138210000Y-118247221D01*
X139230000Y-118572779D02*
X139230000Y-118247221D01*
G04 #@! TO.C,R411*
X145690000Y-118592779D02*
X145690000Y-118267221D01*
X146710000Y-118592779D02*
X146710000Y-118267221D01*
G04 #@! TO.C,R412*
X134540000Y-118582779D02*
X134540000Y-118257221D01*
X135560000Y-118582779D02*
X135560000Y-118257221D01*
G04 #@! TO.C,R414*
X130950000Y-118632779D02*
X130950000Y-118307221D01*
X131970000Y-118632779D02*
X131970000Y-118307221D01*
G04 #@! TO.C,R416*
X127230000Y-118562779D02*
X127230000Y-118237221D01*
X128250000Y-118562779D02*
X128250000Y-118237221D01*
G04 #@! TO.C,R402*
X123540000Y-118552779D02*
X123540000Y-118227221D01*
X124560000Y-118552779D02*
X124560000Y-118227221D01*
G04 #@! TO.C,C212*
X169300000Y-98392779D02*
X169300000Y-98067221D01*
X170320000Y-98392779D02*
X170320000Y-98067221D01*
G04 #@! TO.C,J101*
D11*
X147615714Y-86922380D02*
X147615714Y-87636666D01*
X147663333Y-87779523D01*
X147758571Y-87874761D01*
X147901428Y-87922380D01*
X147996666Y-87922380D01*
X146615714Y-87922380D02*
X147187142Y-87922380D01*
X146901428Y-87922380D02*
X146901428Y-86922380D01*
X146996666Y-87065238D01*
X147091904Y-87160476D01*
X147187142Y-87208095D01*
X145996666Y-86922380D02*
X145901428Y-86922380D01*
X145806190Y-86970000D01*
X145758571Y-87017619D01*
X145710952Y-87112857D01*
X145663333Y-87303333D01*
X145663333Y-87541428D01*
X145710952Y-87731904D01*
X145758571Y-87827142D01*
X145806190Y-87874761D01*
X145901428Y-87922380D01*
X145996666Y-87922380D01*
X146091904Y-87874761D01*
X146139523Y-87827142D01*
X146187142Y-87731904D01*
X146234761Y-87541428D01*
X146234761Y-87303333D01*
X146187142Y-87112857D01*
X146139523Y-87017619D01*
X146091904Y-86970000D01*
X145996666Y-86922380D01*
X144710952Y-87922380D02*
X145282380Y-87922380D01*
X144996666Y-87922380D02*
X144996666Y-86922380D01*
X145091904Y-87065238D01*
X145187142Y-87160476D01*
X145282380Y-87208095D01*
G04 #@! TO.C,Q401*
X126238095Y-116861904D02*
X126200000Y-116785714D01*
X126123809Y-116709523D01*
X126009523Y-116595238D01*
X125971428Y-116519047D01*
X125971428Y-116442857D01*
X126161904Y-116480952D02*
X126123809Y-116404761D01*
X126047619Y-116328571D01*
X125895238Y-116290476D01*
X125628571Y-116290476D01*
X125476190Y-116328571D01*
X125400000Y-116404761D01*
X125361904Y-116480952D01*
X125361904Y-116633333D01*
X125400000Y-116709523D01*
X125476190Y-116785714D01*
X125628571Y-116823809D01*
X125895238Y-116823809D01*
X126047619Y-116785714D01*
X126123809Y-116709523D01*
X126161904Y-116633333D01*
X126161904Y-116480952D01*
X125628571Y-117509523D02*
X126161904Y-117509523D01*
X125323809Y-117319047D02*
X125895238Y-117128571D01*
X125895238Y-117623809D01*
X125361904Y-118080952D02*
X125361904Y-118157142D01*
X125400000Y-118233333D01*
X125438095Y-118271428D01*
X125514285Y-118309523D01*
X125666666Y-118347619D01*
X125857142Y-118347619D01*
X126009523Y-118309523D01*
X126085714Y-118271428D01*
X126123809Y-118233333D01*
X126161904Y-118157142D01*
X126161904Y-118080952D01*
X126123809Y-118004761D01*
X126085714Y-117966666D01*
X126009523Y-117928571D01*
X125857142Y-117890476D01*
X125666666Y-117890476D01*
X125514285Y-117928571D01*
X125438095Y-117966666D01*
X125400000Y-118004761D01*
X125361904Y-118080952D01*
X126161904Y-119109523D02*
X126161904Y-118652380D01*
X126161904Y-118880952D02*
X125361904Y-118880952D01*
X125476190Y-118804761D01*
X125552380Y-118728571D01*
X125590476Y-118652380D01*
G04 #@! TO.C,Q402*
X152238095Y-116661904D02*
X152200000Y-116585714D01*
X152123809Y-116509523D01*
X152009523Y-116395238D01*
X151971428Y-116319047D01*
X151971428Y-116242857D01*
X152161904Y-116280952D02*
X152123809Y-116204761D01*
X152047619Y-116128571D01*
X151895238Y-116090476D01*
X151628571Y-116090476D01*
X151476190Y-116128571D01*
X151400000Y-116204761D01*
X151361904Y-116280952D01*
X151361904Y-116433333D01*
X151400000Y-116509523D01*
X151476190Y-116585714D01*
X151628571Y-116623809D01*
X151895238Y-116623809D01*
X152047619Y-116585714D01*
X152123809Y-116509523D01*
X152161904Y-116433333D01*
X152161904Y-116280952D01*
X151628571Y-117309523D02*
X152161904Y-117309523D01*
X151323809Y-117119047D02*
X151895238Y-116928571D01*
X151895238Y-117423809D01*
X151361904Y-117880952D02*
X151361904Y-117957142D01*
X151400000Y-118033333D01*
X151438095Y-118071428D01*
X151514285Y-118109523D01*
X151666666Y-118147619D01*
X151857142Y-118147619D01*
X152009523Y-118109523D01*
X152085714Y-118071428D01*
X152123809Y-118033333D01*
X152161904Y-117957142D01*
X152161904Y-117880952D01*
X152123809Y-117804761D01*
X152085714Y-117766666D01*
X152009523Y-117728571D01*
X151857142Y-117690476D01*
X151666666Y-117690476D01*
X151514285Y-117728571D01*
X151438095Y-117766666D01*
X151400000Y-117804761D01*
X151361904Y-117880952D01*
X151438095Y-118452380D02*
X151400000Y-118490476D01*
X151361904Y-118566666D01*
X151361904Y-118757142D01*
X151400000Y-118833333D01*
X151438095Y-118871428D01*
X151514285Y-118909523D01*
X151590476Y-118909523D01*
X151704761Y-118871428D01*
X152161904Y-118414285D01*
X152161904Y-118909523D01*
G04 #@! TO.C,Q403*
X144838095Y-116661904D02*
X144800000Y-116585714D01*
X144723809Y-116509523D01*
X144609523Y-116395238D01*
X144571428Y-116319047D01*
X144571428Y-116242857D01*
X144761904Y-116280952D02*
X144723809Y-116204761D01*
X144647619Y-116128571D01*
X144495238Y-116090476D01*
X144228571Y-116090476D01*
X144076190Y-116128571D01*
X144000000Y-116204761D01*
X143961904Y-116280952D01*
X143961904Y-116433333D01*
X144000000Y-116509523D01*
X144076190Y-116585714D01*
X144228571Y-116623809D01*
X144495238Y-116623809D01*
X144647619Y-116585714D01*
X144723809Y-116509523D01*
X144761904Y-116433333D01*
X144761904Y-116280952D01*
X144228571Y-117309523D02*
X144761904Y-117309523D01*
X143923809Y-117119047D02*
X144495238Y-116928571D01*
X144495238Y-117423809D01*
X143961904Y-117880952D02*
X143961904Y-117957142D01*
X144000000Y-118033333D01*
X144038095Y-118071428D01*
X144114285Y-118109523D01*
X144266666Y-118147619D01*
X144457142Y-118147619D01*
X144609523Y-118109523D01*
X144685714Y-118071428D01*
X144723809Y-118033333D01*
X144761904Y-117957142D01*
X144761904Y-117880952D01*
X144723809Y-117804761D01*
X144685714Y-117766666D01*
X144609523Y-117728571D01*
X144457142Y-117690476D01*
X144266666Y-117690476D01*
X144114285Y-117728571D01*
X144038095Y-117766666D01*
X144000000Y-117804761D01*
X143961904Y-117880952D01*
X143961904Y-118414285D02*
X143961904Y-118909523D01*
X144266666Y-118642857D01*
X144266666Y-118757142D01*
X144304761Y-118833333D01*
X144342857Y-118871428D01*
X144419047Y-118909523D01*
X144609523Y-118909523D01*
X144685714Y-118871428D01*
X144723809Y-118833333D01*
X144761904Y-118757142D01*
X144761904Y-118528571D01*
X144723809Y-118452380D01*
X144685714Y-118414285D01*
G04 #@! TO.C,Q404*
X140938095Y-116661904D02*
X140900000Y-116585714D01*
X140823809Y-116509523D01*
X140709523Y-116395238D01*
X140671428Y-116319047D01*
X140671428Y-116242857D01*
X140861904Y-116280952D02*
X140823809Y-116204761D01*
X140747619Y-116128571D01*
X140595238Y-116090476D01*
X140328571Y-116090476D01*
X140176190Y-116128571D01*
X140100000Y-116204761D01*
X140061904Y-116280952D01*
X140061904Y-116433333D01*
X140100000Y-116509523D01*
X140176190Y-116585714D01*
X140328571Y-116623809D01*
X140595238Y-116623809D01*
X140747619Y-116585714D01*
X140823809Y-116509523D01*
X140861904Y-116433333D01*
X140861904Y-116280952D01*
X140328571Y-117309523D02*
X140861904Y-117309523D01*
X140023809Y-117119047D02*
X140595238Y-116928571D01*
X140595238Y-117423809D01*
X140061904Y-117880952D02*
X140061904Y-117957142D01*
X140100000Y-118033333D01*
X140138095Y-118071428D01*
X140214285Y-118109523D01*
X140366666Y-118147619D01*
X140557142Y-118147619D01*
X140709523Y-118109523D01*
X140785714Y-118071428D01*
X140823809Y-118033333D01*
X140861904Y-117957142D01*
X140861904Y-117880952D01*
X140823809Y-117804761D01*
X140785714Y-117766666D01*
X140709523Y-117728571D01*
X140557142Y-117690476D01*
X140366666Y-117690476D01*
X140214285Y-117728571D01*
X140138095Y-117766666D01*
X140100000Y-117804761D01*
X140061904Y-117880952D01*
X140328571Y-118833333D02*
X140861904Y-118833333D01*
X140023809Y-118642857D02*
X140595238Y-118452380D01*
X140595238Y-118947619D01*
G04 #@! TO.C,Q405*
X148438095Y-116661904D02*
X148400000Y-116585714D01*
X148323809Y-116509523D01*
X148209523Y-116395238D01*
X148171428Y-116319047D01*
X148171428Y-116242857D01*
X148361904Y-116280952D02*
X148323809Y-116204761D01*
X148247619Y-116128571D01*
X148095238Y-116090476D01*
X147828571Y-116090476D01*
X147676190Y-116128571D01*
X147600000Y-116204761D01*
X147561904Y-116280952D01*
X147561904Y-116433333D01*
X147600000Y-116509523D01*
X147676190Y-116585714D01*
X147828571Y-116623809D01*
X148095238Y-116623809D01*
X148247619Y-116585714D01*
X148323809Y-116509523D01*
X148361904Y-116433333D01*
X148361904Y-116280952D01*
X147828571Y-117309523D02*
X148361904Y-117309523D01*
X147523809Y-117119047D02*
X148095238Y-116928571D01*
X148095238Y-117423809D01*
X147561904Y-117880952D02*
X147561904Y-117957142D01*
X147600000Y-118033333D01*
X147638095Y-118071428D01*
X147714285Y-118109523D01*
X147866666Y-118147619D01*
X148057142Y-118147619D01*
X148209523Y-118109523D01*
X148285714Y-118071428D01*
X148323809Y-118033333D01*
X148361904Y-117957142D01*
X148361904Y-117880952D01*
X148323809Y-117804761D01*
X148285714Y-117766666D01*
X148209523Y-117728571D01*
X148057142Y-117690476D01*
X147866666Y-117690476D01*
X147714285Y-117728571D01*
X147638095Y-117766666D01*
X147600000Y-117804761D01*
X147561904Y-117880952D01*
X147561904Y-118871428D02*
X147561904Y-118490476D01*
X147942857Y-118452380D01*
X147904761Y-118490476D01*
X147866666Y-118566666D01*
X147866666Y-118757142D01*
X147904761Y-118833333D01*
X147942857Y-118871428D01*
X148019047Y-118909523D01*
X148209523Y-118909523D01*
X148285714Y-118871428D01*
X148323809Y-118833333D01*
X148361904Y-118757142D01*
X148361904Y-118566666D01*
X148323809Y-118490476D01*
X148285714Y-118452380D01*
G04 #@! TO.C,Q406*
X137338095Y-116661904D02*
X137300000Y-116585714D01*
X137223809Y-116509523D01*
X137109523Y-116395238D01*
X137071428Y-116319047D01*
X137071428Y-116242857D01*
X137261904Y-116280952D02*
X137223809Y-116204761D01*
X137147619Y-116128571D01*
X136995238Y-116090476D01*
X136728571Y-116090476D01*
X136576190Y-116128571D01*
X136500000Y-116204761D01*
X136461904Y-116280952D01*
X136461904Y-116433333D01*
X136500000Y-116509523D01*
X136576190Y-116585714D01*
X136728571Y-116623809D01*
X136995238Y-116623809D01*
X137147619Y-116585714D01*
X137223809Y-116509523D01*
X137261904Y-116433333D01*
X137261904Y-116280952D01*
X136728571Y-117309523D02*
X137261904Y-117309523D01*
X136423809Y-117119047D02*
X136995238Y-116928571D01*
X136995238Y-117423809D01*
X136461904Y-117880952D02*
X136461904Y-117957142D01*
X136500000Y-118033333D01*
X136538095Y-118071428D01*
X136614285Y-118109523D01*
X136766666Y-118147619D01*
X136957142Y-118147619D01*
X137109523Y-118109523D01*
X137185714Y-118071428D01*
X137223809Y-118033333D01*
X137261904Y-117957142D01*
X137261904Y-117880952D01*
X137223809Y-117804761D01*
X137185714Y-117766666D01*
X137109523Y-117728571D01*
X136957142Y-117690476D01*
X136766666Y-117690476D01*
X136614285Y-117728571D01*
X136538095Y-117766666D01*
X136500000Y-117804761D01*
X136461904Y-117880952D01*
X136461904Y-118833333D02*
X136461904Y-118680952D01*
X136500000Y-118604761D01*
X136538095Y-118566666D01*
X136652380Y-118490476D01*
X136804761Y-118452380D01*
X137109523Y-118452380D01*
X137185714Y-118490476D01*
X137223809Y-118528571D01*
X137261904Y-118604761D01*
X137261904Y-118757142D01*
X137223809Y-118833333D01*
X137185714Y-118871428D01*
X137109523Y-118909523D01*
X136919047Y-118909523D01*
X136842857Y-118871428D01*
X136804761Y-118833333D01*
X136766666Y-118757142D01*
X136766666Y-118604761D01*
X136804761Y-118528571D01*
X136842857Y-118490476D01*
X136919047Y-118452380D01*
G04 #@! TO.C,Q407*
X133738095Y-116761904D02*
X133700000Y-116685714D01*
X133623809Y-116609523D01*
X133509523Y-116495238D01*
X133471428Y-116419047D01*
X133471428Y-116342857D01*
X133661904Y-116380952D02*
X133623809Y-116304761D01*
X133547619Y-116228571D01*
X133395238Y-116190476D01*
X133128571Y-116190476D01*
X132976190Y-116228571D01*
X132900000Y-116304761D01*
X132861904Y-116380952D01*
X132861904Y-116533333D01*
X132900000Y-116609523D01*
X132976190Y-116685714D01*
X133128571Y-116723809D01*
X133395238Y-116723809D01*
X133547619Y-116685714D01*
X133623809Y-116609523D01*
X133661904Y-116533333D01*
X133661904Y-116380952D01*
X133128571Y-117409523D02*
X133661904Y-117409523D01*
X132823809Y-117219047D02*
X133395238Y-117028571D01*
X133395238Y-117523809D01*
X132861904Y-117980952D02*
X132861904Y-118057142D01*
X132900000Y-118133333D01*
X132938095Y-118171428D01*
X133014285Y-118209523D01*
X133166666Y-118247619D01*
X133357142Y-118247619D01*
X133509523Y-118209523D01*
X133585714Y-118171428D01*
X133623809Y-118133333D01*
X133661904Y-118057142D01*
X133661904Y-117980952D01*
X133623809Y-117904761D01*
X133585714Y-117866666D01*
X133509523Y-117828571D01*
X133357142Y-117790476D01*
X133166666Y-117790476D01*
X133014285Y-117828571D01*
X132938095Y-117866666D01*
X132900000Y-117904761D01*
X132861904Y-117980952D01*
X132861904Y-118514285D02*
X132861904Y-119047619D01*
X133661904Y-118704761D01*
G04 #@! TO.C,Q408*
X130138095Y-116861904D02*
X130100000Y-116785714D01*
X130023809Y-116709523D01*
X129909523Y-116595238D01*
X129871428Y-116519047D01*
X129871428Y-116442857D01*
X130061904Y-116480952D02*
X130023809Y-116404761D01*
X129947619Y-116328571D01*
X129795238Y-116290476D01*
X129528571Y-116290476D01*
X129376190Y-116328571D01*
X129300000Y-116404761D01*
X129261904Y-116480952D01*
X129261904Y-116633333D01*
X129300000Y-116709523D01*
X129376190Y-116785714D01*
X129528571Y-116823809D01*
X129795238Y-116823809D01*
X129947619Y-116785714D01*
X130023809Y-116709523D01*
X130061904Y-116633333D01*
X130061904Y-116480952D01*
X129528571Y-117509523D02*
X130061904Y-117509523D01*
X129223809Y-117319047D02*
X129795238Y-117128571D01*
X129795238Y-117623809D01*
X129261904Y-118080952D02*
X129261904Y-118157142D01*
X129300000Y-118233333D01*
X129338095Y-118271428D01*
X129414285Y-118309523D01*
X129566666Y-118347619D01*
X129757142Y-118347619D01*
X129909523Y-118309523D01*
X129985714Y-118271428D01*
X130023809Y-118233333D01*
X130061904Y-118157142D01*
X130061904Y-118080952D01*
X130023809Y-118004761D01*
X129985714Y-117966666D01*
X129909523Y-117928571D01*
X129757142Y-117890476D01*
X129566666Y-117890476D01*
X129414285Y-117928571D01*
X129338095Y-117966666D01*
X129300000Y-118004761D01*
X129261904Y-118080952D01*
X129604761Y-118804761D02*
X129566666Y-118728571D01*
X129528571Y-118690476D01*
X129452380Y-118652380D01*
X129414285Y-118652380D01*
X129338095Y-118690476D01*
X129300000Y-118728571D01*
X129261904Y-118804761D01*
X129261904Y-118957142D01*
X129300000Y-119033333D01*
X129338095Y-119071428D01*
X129414285Y-119109523D01*
X129452380Y-119109523D01*
X129528571Y-119071428D01*
X129566666Y-119033333D01*
X129604761Y-118957142D01*
X129604761Y-118804761D01*
X129642857Y-118728571D01*
X129680952Y-118690476D01*
X129757142Y-118652380D01*
X129909523Y-118652380D01*
X129985714Y-118690476D01*
X130023809Y-118728571D01*
X130061904Y-118804761D01*
X130061904Y-118957142D01*
X130023809Y-119033333D01*
X129985714Y-119071428D01*
X129909523Y-119109523D01*
X129757142Y-119109523D01*
X129680952Y-119071428D01*
X129642857Y-119033333D01*
X129604761Y-118957142D01*
G04 #@! TO.C,R405*
X150171904Y-114074761D02*
X149790952Y-113808095D01*
X150171904Y-113617619D02*
X149371904Y-113617619D01*
X149371904Y-113922380D01*
X149410000Y-113998571D01*
X149448095Y-114036666D01*
X149524285Y-114074761D01*
X149638571Y-114074761D01*
X149714761Y-114036666D01*
X149752857Y-113998571D01*
X149790952Y-113922380D01*
X149790952Y-113617619D01*
X149638571Y-114760476D02*
X150171904Y-114760476D01*
X149333809Y-114570000D02*
X149905238Y-114379523D01*
X149905238Y-114874761D01*
X149371904Y-115331904D02*
X149371904Y-115408095D01*
X149410000Y-115484285D01*
X149448095Y-115522380D01*
X149524285Y-115560476D01*
X149676666Y-115598571D01*
X149867142Y-115598571D01*
X150019523Y-115560476D01*
X150095714Y-115522380D01*
X150133809Y-115484285D01*
X150171904Y-115408095D01*
X150171904Y-115331904D01*
X150133809Y-115255714D01*
X150095714Y-115217619D01*
X150019523Y-115179523D01*
X149867142Y-115141428D01*
X149676666Y-115141428D01*
X149524285Y-115179523D01*
X149448095Y-115217619D01*
X149410000Y-115255714D01*
X149371904Y-115331904D01*
X149371904Y-116322380D02*
X149371904Y-115941428D01*
X149752857Y-115903333D01*
X149714761Y-115941428D01*
X149676666Y-116017619D01*
X149676666Y-116208095D01*
X149714761Y-116284285D01*
X149752857Y-116322380D01*
X149829047Y-116360476D01*
X150019523Y-116360476D01*
X150095714Y-116322380D01*
X150133809Y-116284285D01*
X150171904Y-116208095D01*
X150171904Y-116017619D01*
X150133809Y-115941428D01*
X150095714Y-115903333D01*
G04 #@! TO.C,R406*
X142771904Y-113974761D02*
X142390952Y-113708095D01*
X142771904Y-113517619D02*
X141971904Y-113517619D01*
X141971904Y-113822380D01*
X142010000Y-113898571D01*
X142048095Y-113936666D01*
X142124285Y-113974761D01*
X142238571Y-113974761D01*
X142314761Y-113936666D01*
X142352857Y-113898571D01*
X142390952Y-113822380D01*
X142390952Y-113517619D01*
X142238571Y-114660476D02*
X142771904Y-114660476D01*
X141933809Y-114470000D02*
X142505238Y-114279523D01*
X142505238Y-114774761D01*
X141971904Y-115231904D02*
X141971904Y-115308095D01*
X142010000Y-115384285D01*
X142048095Y-115422380D01*
X142124285Y-115460476D01*
X142276666Y-115498571D01*
X142467142Y-115498571D01*
X142619523Y-115460476D01*
X142695714Y-115422380D01*
X142733809Y-115384285D01*
X142771904Y-115308095D01*
X142771904Y-115231904D01*
X142733809Y-115155714D01*
X142695714Y-115117619D01*
X142619523Y-115079523D01*
X142467142Y-115041428D01*
X142276666Y-115041428D01*
X142124285Y-115079523D01*
X142048095Y-115117619D01*
X142010000Y-115155714D01*
X141971904Y-115231904D01*
X141971904Y-116184285D02*
X141971904Y-116031904D01*
X142010000Y-115955714D01*
X142048095Y-115917619D01*
X142162380Y-115841428D01*
X142314761Y-115803333D01*
X142619523Y-115803333D01*
X142695714Y-115841428D01*
X142733809Y-115879523D01*
X142771904Y-115955714D01*
X142771904Y-116108095D01*
X142733809Y-116184285D01*
X142695714Y-116222380D01*
X142619523Y-116260476D01*
X142429047Y-116260476D01*
X142352857Y-116222380D01*
X142314761Y-116184285D01*
X142276666Y-116108095D01*
X142276666Y-115955714D01*
X142314761Y-115879523D01*
X142352857Y-115841428D01*
X142429047Y-115803333D01*
G04 #@! TO.C,R408*
X139141904Y-114044761D02*
X138760952Y-113778095D01*
X139141904Y-113587619D02*
X138341904Y-113587619D01*
X138341904Y-113892380D01*
X138380000Y-113968571D01*
X138418095Y-114006666D01*
X138494285Y-114044761D01*
X138608571Y-114044761D01*
X138684761Y-114006666D01*
X138722857Y-113968571D01*
X138760952Y-113892380D01*
X138760952Y-113587619D01*
X138608571Y-114730476D02*
X139141904Y-114730476D01*
X138303809Y-114540000D02*
X138875238Y-114349523D01*
X138875238Y-114844761D01*
X138341904Y-115301904D02*
X138341904Y-115378095D01*
X138380000Y-115454285D01*
X138418095Y-115492380D01*
X138494285Y-115530476D01*
X138646666Y-115568571D01*
X138837142Y-115568571D01*
X138989523Y-115530476D01*
X139065714Y-115492380D01*
X139103809Y-115454285D01*
X139141904Y-115378095D01*
X139141904Y-115301904D01*
X139103809Y-115225714D01*
X139065714Y-115187619D01*
X138989523Y-115149523D01*
X138837142Y-115111428D01*
X138646666Y-115111428D01*
X138494285Y-115149523D01*
X138418095Y-115187619D01*
X138380000Y-115225714D01*
X138341904Y-115301904D01*
X138684761Y-116025714D02*
X138646666Y-115949523D01*
X138608571Y-115911428D01*
X138532380Y-115873333D01*
X138494285Y-115873333D01*
X138418095Y-115911428D01*
X138380000Y-115949523D01*
X138341904Y-116025714D01*
X138341904Y-116178095D01*
X138380000Y-116254285D01*
X138418095Y-116292380D01*
X138494285Y-116330476D01*
X138532380Y-116330476D01*
X138608571Y-116292380D01*
X138646666Y-116254285D01*
X138684761Y-116178095D01*
X138684761Y-116025714D01*
X138722857Y-115949523D01*
X138760952Y-115911428D01*
X138837142Y-115873333D01*
X138989523Y-115873333D01*
X139065714Y-115911428D01*
X139103809Y-115949523D01*
X139141904Y-116025714D01*
X139141904Y-116178095D01*
X139103809Y-116254285D01*
X139065714Y-116292380D01*
X138989523Y-116330476D01*
X138837142Y-116330476D01*
X138760952Y-116292380D01*
X138722857Y-116254285D01*
X138684761Y-116178095D01*
G04 #@! TO.C,R411*
X146581904Y-114174761D02*
X146200952Y-113908095D01*
X146581904Y-113717619D02*
X145781904Y-113717619D01*
X145781904Y-114022380D01*
X145820000Y-114098571D01*
X145858095Y-114136666D01*
X145934285Y-114174761D01*
X146048571Y-114174761D01*
X146124761Y-114136666D01*
X146162857Y-114098571D01*
X146200952Y-114022380D01*
X146200952Y-113717619D01*
X146048571Y-114860476D02*
X146581904Y-114860476D01*
X145743809Y-114670000D02*
X146315238Y-114479523D01*
X146315238Y-114974761D01*
X146581904Y-115698571D02*
X146581904Y-115241428D01*
X146581904Y-115470000D02*
X145781904Y-115470000D01*
X145896190Y-115393809D01*
X145972380Y-115317619D01*
X146010476Y-115241428D01*
X146581904Y-116460476D02*
X146581904Y-116003333D01*
X146581904Y-116231904D02*
X145781904Y-116231904D01*
X145896190Y-116155714D01*
X145972380Y-116079523D01*
X146010476Y-116003333D01*
G04 #@! TO.C,R412*
X135401904Y-113944761D02*
X135020952Y-113678095D01*
X135401904Y-113487619D02*
X134601904Y-113487619D01*
X134601904Y-113792380D01*
X134640000Y-113868571D01*
X134678095Y-113906666D01*
X134754285Y-113944761D01*
X134868571Y-113944761D01*
X134944761Y-113906666D01*
X134982857Y-113868571D01*
X135020952Y-113792380D01*
X135020952Y-113487619D01*
X134868571Y-114630476D02*
X135401904Y-114630476D01*
X134563809Y-114440000D02*
X135135238Y-114249523D01*
X135135238Y-114744761D01*
X135401904Y-115468571D02*
X135401904Y-115011428D01*
X135401904Y-115240000D02*
X134601904Y-115240000D01*
X134716190Y-115163809D01*
X134792380Y-115087619D01*
X134830476Y-115011428D01*
X134678095Y-115773333D02*
X134640000Y-115811428D01*
X134601904Y-115887619D01*
X134601904Y-116078095D01*
X134640000Y-116154285D01*
X134678095Y-116192380D01*
X134754285Y-116230476D01*
X134830476Y-116230476D01*
X134944761Y-116192380D01*
X135401904Y-115735238D01*
X135401904Y-116230476D01*
G04 #@! TO.C,R414*
X131871904Y-113974761D02*
X131490952Y-113708095D01*
X131871904Y-113517619D02*
X131071904Y-113517619D01*
X131071904Y-113822380D01*
X131110000Y-113898571D01*
X131148095Y-113936666D01*
X131224285Y-113974761D01*
X131338571Y-113974761D01*
X131414761Y-113936666D01*
X131452857Y-113898571D01*
X131490952Y-113822380D01*
X131490952Y-113517619D01*
X131338571Y-114660476D02*
X131871904Y-114660476D01*
X131033809Y-114470000D02*
X131605238Y-114279523D01*
X131605238Y-114774761D01*
X131871904Y-115498571D02*
X131871904Y-115041428D01*
X131871904Y-115270000D02*
X131071904Y-115270000D01*
X131186190Y-115193809D01*
X131262380Y-115117619D01*
X131300476Y-115041428D01*
X131338571Y-116184285D02*
X131871904Y-116184285D01*
X131033809Y-115993809D02*
X131605238Y-115803333D01*
X131605238Y-116298571D01*
G04 #@! TO.C,R416*
X128001904Y-114004761D02*
X127620952Y-113738095D01*
X128001904Y-113547619D02*
X127201904Y-113547619D01*
X127201904Y-113852380D01*
X127240000Y-113928571D01*
X127278095Y-113966666D01*
X127354285Y-114004761D01*
X127468571Y-114004761D01*
X127544761Y-113966666D01*
X127582857Y-113928571D01*
X127620952Y-113852380D01*
X127620952Y-113547619D01*
X127468571Y-114690476D02*
X128001904Y-114690476D01*
X127163809Y-114500000D02*
X127735238Y-114309523D01*
X127735238Y-114804761D01*
X128001904Y-115528571D02*
X128001904Y-115071428D01*
X128001904Y-115300000D02*
X127201904Y-115300000D01*
X127316190Y-115223809D01*
X127392380Y-115147619D01*
X127430476Y-115071428D01*
X127201904Y-116214285D02*
X127201904Y-116061904D01*
X127240000Y-115985714D01*
X127278095Y-115947619D01*
X127392380Y-115871428D01*
X127544761Y-115833333D01*
X127849523Y-115833333D01*
X127925714Y-115871428D01*
X127963809Y-115909523D01*
X128001904Y-115985714D01*
X128001904Y-116138095D01*
X127963809Y-116214285D01*
X127925714Y-116252380D01*
X127849523Y-116290476D01*
X127659047Y-116290476D01*
X127582857Y-116252380D01*
X127544761Y-116214285D01*
X127506666Y-116138095D01*
X127506666Y-115985714D01*
X127544761Y-115909523D01*
X127582857Y-115871428D01*
X127659047Y-115833333D01*
G04 #@! TO.C,R402*
X124401904Y-114114761D02*
X124020952Y-113848095D01*
X124401904Y-113657619D02*
X123601904Y-113657619D01*
X123601904Y-113962380D01*
X123640000Y-114038571D01*
X123678095Y-114076666D01*
X123754285Y-114114761D01*
X123868571Y-114114761D01*
X123944761Y-114076666D01*
X123982857Y-114038571D01*
X124020952Y-113962380D01*
X124020952Y-113657619D01*
X123868571Y-114800476D02*
X124401904Y-114800476D01*
X123563809Y-114610000D02*
X124135238Y-114419523D01*
X124135238Y-114914761D01*
X123601904Y-115371904D02*
X123601904Y-115448095D01*
X123640000Y-115524285D01*
X123678095Y-115562380D01*
X123754285Y-115600476D01*
X123906666Y-115638571D01*
X124097142Y-115638571D01*
X124249523Y-115600476D01*
X124325714Y-115562380D01*
X124363809Y-115524285D01*
X124401904Y-115448095D01*
X124401904Y-115371904D01*
X124363809Y-115295714D01*
X124325714Y-115257619D01*
X124249523Y-115219523D01*
X124097142Y-115181428D01*
X123906666Y-115181428D01*
X123754285Y-115219523D01*
X123678095Y-115257619D01*
X123640000Y-115295714D01*
X123601904Y-115371904D01*
X123678095Y-115943333D02*
X123640000Y-115981428D01*
X123601904Y-116057619D01*
X123601904Y-116248095D01*
X123640000Y-116324285D01*
X123678095Y-116362380D01*
X123754285Y-116400476D01*
X123830476Y-116400476D01*
X123944761Y-116362380D01*
X124401904Y-115905238D01*
X124401904Y-116400476D01*
G04 #@! TO.C,C212*
X171857142Y-96880952D02*
X171904761Y-96833333D01*
X171952380Y-96690476D01*
X171952380Y-96595238D01*
X171904761Y-96452380D01*
X171809523Y-96357142D01*
X171714285Y-96309523D01*
X171523809Y-96261904D01*
X171380952Y-96261904D01*
X171190476Y-96309523D01*
X171095238Y-96357142D01*
X171000000Y-96452380D01*
X170952380Y-96595238D01*
X170952380Y-96690476D01*
X171000000Y-96833333D01*
X171047619Y-96880952D01*
X171047619Y-97261904D02*
X171000000Y-97309523D01*
X170952380Y-97404761D01*
X170952380Y-97642857D01*
X171000000Y-97738095D01*
X171047619Y-97785714D01*
X171142857Y-97833333D01*
X171238095Y-97833333D01*
X171380952Y-97785714D01*
X171952380Y-97214285D01*
X171952380Y-97833333D01*
X171952380Y-98785714D02*
X171952380Y-98214285D01*
X171952380Y-98500000D02*
X170952380Y-98500000D01*
X171095238Y-98404761D01*
X171190476Y-98309523D01*
X171238095Y-98214285D01*
X171047619Y-99166666D02*
X171000000Y-99214285D01*
X170952380Y-99309523D01*
X170952380Y-99547619D01*
X171000000Y-99642857D01*
X171047619Y-99690476D01*
X171142857Y-99738095D01*
X171238095Y-99738095D01*
X171380952Y-99690476D01*
X171952380Y-99119047D01*
X171952380Y-99738095D01*
G04 #@! TD*
M02*
