G04 #@! TF.GenerationSoftware,KiCad,Pcbnew,(5.0.1-3-g963ef8bb5)*
G04 #@! TF.CreationDate,2018-12-24T15:41:03+01:00*
G04 #@! TF.ProjectId,heizungsregler,6865697A756E67737265676C65722E6B,rev?*
G04 #@! TF.SameCoordinates,Original*
G04 #@! TF.FileFunction,Copper,L2,Bot,Signal*
G04 #@! TF.FilePolarity,Positive*
%FSLAX46Y46*%
G04 Gerber Fmt 4.6, Leading zero omitted, Abs format (unit mm)*
G04 Created by KiCad (PCBNEW (5.0.1-3-g963ef8bb5)) date Montag, 24. Dezember 2018 um 15:41:03*
%MOMM*%
%LPD*%
G01*
G04 APERTURE LIST*
G04 #@! TA.AperFunction,ComponentPad*
%ADD10C,1.310000*%
G04 #@! TD*
G04 #@! TA.AperFunction,Conductor*
%ADD11C,0.100000*%
G04 #@! TD*
G04 #@! TA.AperFunction,ComponentPad*
%ADD12O,1.700000X1.700000*%
G04 #@! TD*
G04 #@! TA.AperFunction,ComponentPad*
%ADD13R,1.700000X1.700000*%
G04 #@! TD*
G04 #@! TA.AperFunction,ComponentPad*
%ADD14O,2.080000X3.600000*%
G04 #@! TD*
G04 #@! TA.AperFunction,ComponentPad*
%ADD15C,2.080000*%
G04 #@! TD*
G04 #@! TA.AperFunction,SMDPad,CuDef*
%ADD16R,0.800000X0.900000*%
G04 #@! TD*
G04 #@! TA.AperFunction,SMDPad,CuDef*
%ADD17C,0.875000*%
G04 #@! TD*
G04 #@! TA.AperFunction,ComponentPad*
%ADD18C,1.900000*%
G04 #@! TD*
G04 #@! TA.AperFunction,ComponentPad*
%ADD19C,2.600000*%
G04 #@! TD*
G04 #@! TA.AperFunction,ComponentPad*
%ADD20C,1.890000*%
G04 #@! TD*
G04 #@! TA.AperFunction,ComponentPad*
%ADD21R,1.900000X1.900000*%
G04 #@! TD*
G04 #@! TA.AperFunction,ComponentPad*
%ADD22C,5.600000*%
G04 #@! TD*
G04 #@! TA.AperFunction,ComponentPad*
%ADD23R,1.500000X1.050000*%
G04 #@! TD*
G04 #@! TA.AperFunction,ComponentPad*
%ADD24O,1.500000X1.050000*%
G04 #@! TD*
G04 #@! TA.AperFunction,ViaPad*
%ADD25C,0.900000*%
G04 #@! TD*
G04 #@! TA.AperFunction,ViaPad*
%ADD26C,0.500000*%
G04 #@! TD*
G04 #@! TA.AperFunction,Conductor*
%ADD27C,0.500000*%
G04 #@! TD*
G04 #@! TA.AperFunction,Conductor*
%ADD28C,1.000000*%
G04 #@! TD*
G04 #@! TA.AperFunction,Conductor*
%ADD29C,0.200000*%
G04 #@! TD*
G04 APERTURE END LIST*
D10*
G04 #@! TO.P,J101,40*
G04 #@! TO.N,/ENC_SCK*
X170460000Y-82460000D03*
G04 #@! TO.P,J101,38*
G04 #@! TO.N,/ENC_SI*
X167920000Y-82460000D03*
G04 #@! TO.P,J101,36*
G04 #@! TO.N,Net-(J101-Pad36)*
X165380000Y-82460000D03*
G04 #@! TO.P,J101,34*
G04 #@! TO.N,GND*
X162840000Y-82460000D03*
G04 #@! TO.P,J101,32*
G04 #@! TO.N,Net-(J101-Pad32)*
X160300000Y-82460000D03*
G04 #@! TO.P,J101,30*
G04 #@! TO.N,GND*
X157760000Y-82460000D03*
G04 #@! TO.P,J101,28*
G04 #@! TO.N,Net-(J101-Pad28)*
X155220000Y-82460000D03*
G04 #@! TO.P,J101,26*
G04 #@! TO.N,Net-(J101-Pad26)*
X152680000Y-82460000D03*
G04 #@! TO.P,J101,24*
G04 #@! TO.N,Net-(J101-Pad24)*
X150140000Y-82460000D03*
G04 #@! TO.P,J101,22*
G04 #@! TO.N,/REL8*
X147600000Y-82460000D03*
G04 #@! TO.P,J101,20*
G04 #@! TO.N,GND*
X145060000Y-82460000D03*
G04 #@! TO.P,J101,18*
G04 #@! TO.N,/REL5*
X142520000Y-82460000D03*
G04 #@! TO.P,J101,16*
G04 #@! TO.N,/REL4*
X139980000Y-82460000D03*
G04 #@! TO.P,J101,14*
G04 #@! TO.N,GND*
X137440000Y-82460000D03*
G04 #@! TO.P,J101,12*
G04 #@! TO.N,/REL1*
X134900000Y-82460000D03*
G04 #@! TO.P,J101,10*
G04 #@! TO.N,/RXD*
X132360000Y-82460000D03*
G04 #@! TO.P,J101,8*
G04 #@! TO.N,/TXD*
X129820000Y-82460000D03*
G04 #@! TO.P,J101,6*
G04 #@! TO.N,GND*
X127280000Y-82460000D03*
G04 #@! TO.P,J101,4*
G04 #@! TO.N,+5V*
X124740000Y-82460000D03*
G04 #@! TO.P,J101,2*
X122200000Y-82460000D03*
G04 #@! TO.P,J101,39*
G04 #@! TO.N,GND*
X170460000Y-85000000D03*
G04 #@! TO.P,J101,37*
G04 #@! TO.N,/ENC_#INT*
X167920000Y-85000000D03*
G04 #@! TO.P,J101,35*
G04 #@! TO.N,/ENC_SO*
X165380000Y-85000000D03*
G04 #@! TO.P,J101,33*
G04 #@! TO.N,/ENC_#CS*
X162840000Y-85000000D03*
G04 #@! TO.P,J101,31*
G04 #@! TO.N,Net-(J101-Pad31)*
X160300000Y-85000000D03*
G04 #@! TO.P,J101,29*
G04 #@! TO.N,Net-(J101-Pad29)*
X157760000Y-85000000D03*
G04 #@! TO.P,J101,27*
G04 #@! TO.N,Net-(J101-Pad27)*
X155220000Y-85000000D03*
G04 #@! TO.P,J101,25*
G04 #@! TO.N,GND*
X152680000Y-85000000D03*
G04 #@! TO.P,J101,23*
G04 #@! TO.N,Net-(J101-Pad23)*
X150140000Y-85000000D03*
G04 #@! TO.P,J101,21*
G04 #@! TO.N,/REL7*
X147600000Y-85000000D03*
G04 #@! TO.P,J101,19*
G04 #@! TO.N,/REL6*
X145060000Y-85000000D03*
G04 #@! TO.P,J101,17*
G04 #@! TO.N,Net-(J101-Pad17)*
X142520000Y-85000000D03*
G04 #@! TO.P,J101,15*
G04 #@! TO.N,/REL3*
X139980000Y-85000000D03*
G04 #@! TO.P,J101,13*
G04 #@! TO.N,/REL2*
X137440000Y-85000000D03*
G04 #@! TO.P,J101,11*
G04 #@! TO.N,/ENC_#RESET*
X134900000Y-85000000D03*
G04 #@! TO.P,J101,9*
G04 #@! TO.N,GND*
X132360000Y-85000000D03*
G04 #@! TO.P,J101,7*
G04 #@! TO.N,/DQ*
X129820000Y-85000000D03*
G04 #@! TO.P,J101,5*
G04 #@! TO.N,/SCL*
X127280000Y-85000000D03*
G04 #@! TO.P,J101,3*
G04 #@! TO.N,/SDA*
X124740000Y-85000000D03*
D11*
G04 #@! TD*
G04 #@! TO.N,+3V3*
G04 #@! TO.C,J101*
G36*
X122629504Y-84346204D02*
X122653773Y-84349804D01*
X122677571Y-84355765D01*
X122700671Y-84364030D01*
X122722849Y-84374520D01*
X122743893Y-84387133D01*
X122763598Y-84401747D01*
X122781777Y-84418223D01*
X122798253Y-84436402D01*
X122812867Y-84456107D01*
X122825480Y-84477151D01*
X122835970Y-84499329D01*
X122844235Y-84522429D01*
X122850196Y-84546227D01*
X122853796Y-84570496D01*
X122855000Y-84595000D01*
X122855000Y-85405000D01*
X122853796Y-85429504D01*
X122850196Y-85453773D01*
X122844235Y-85477571D01*
X122835970Y-85500671D01*
X122825480Y-85522849D01*
X122812867Y-85543893D01*
X122798253Y-85563598D01*
X122781777Y-85581777D01*
X122763598Y-85598253D01*
X122743893Y-85612867D01*
X122722849Y-85625480D01*
X122700671Y-85635970D01*
X122677571Y-85644235D01*
X122653773Y-85650196D01*
X122629504Y-85653796D01*
X122605000Y-85655000D01*
X121795000Y-85655000D01*
X121770496Y-85653796D01*
X121746227Y-85650196D01*
X121722429Y-85644235D01*
X121699329Y-85635970D01*
X121677151Y-85625480D01*
X121656107Y-85612867D01*
X121636402Y-85598253D01*
X121618223Y-85581777D01*
X121601747Y-85563598D01*
X121587133Y-85543893D01*
X121574520Y-85522849D01*
X121564030Y-85500671D01*
X121555765Y-85477571D01*
X121549804Y-85453773D01*
X121546204Y-85429504D01*
X121545000Y-85405000D01*
X121545000Y-84595000D01*
X121546204Y-84570496D01*
X121549804Y-84546227D01*
X121555765Y-84522429D01*
X121564030Y-84499329D01*
X121574520Y-84477151D01*
X121587133Y-84456107D01*
X121601747Y-84436402D01*
X121618223Y-84418223D01*
X121636402Y-84401747D01*
X121656107Y-84387133D01*
X121677151Y-84374520D01*
X121699329Y-84364030D01*
X121722429Y-84355765D01*
X121746227Y-84349804D01*
X121770496Y-84346204D01*
X121795000Y-84345000D01*
X122605000Y-84345000D01*
X122629504Y-84346204D01*
X122629504Y-84346204D01*
G37*
D10*
G04 #@! TO.P,J101,1*
G04 #@! TO.N,+3V3*
X122200000Y-85000000D03*
G04 #@! TD*
D12*
G04 #@! TO.P,U101,4*
G04 #@! TO.N,/SDA*
X144640000Y-53420000D03*
G04 #@! TO.P,U101,3*
G04 #@! TO.N,/SCL*
X142100000Y-53420000D03*
G04 #@! TO.P,U101,2*
G04 #@! TO.N,+3V3*
X139560000Y-53420000D03*
D13*
G04 #@! TO.P,U101,1*
G04 #@! TO.N,GND*
X137020000Y-53420000D03*
G04 #@! TD*
D12*
G04 #@! TO.P,J105,4*
G04 #@! TO.N,/SDA*
X123030000Y-61610000D03*
G04 #@! TO.P,J105,3*
G04 #@! TO.N,/SCL*
X123030000Y-59070000D03*
G04 #@! TO.P,J105,2*
G04 #@! TO.N,+3V3*
X123030000Y-56530000D03*
D13*
G04 #@! TO.P,J105,1*
G04 #@! TO.N,GND*
X123030000Y-53990000D03*
G04 #@! TD*
D12*
G04 #@! TO.P,J104,3*
G04 #@! TO.N,/DQ*
X116850000Y-68010000D03*
G04 #@! TO.P,J104,2*
G04 #@! TO.N,Net-(C101-Pad1)*
X116850000Y-65470000D03*
D13*
G04 #@! TO.P,J104,1*
G04 #@! TO.N,GND*
X116850000Y-62930000D03*
G04 #@! TD*
D14*
G04 #@! TO.P,J103,2*
G04 #@! TO.N,Net-(J103-Pad2)*
X168090000Y-123620000D03*
D11*
G04 #@! TD*
G04 #@! TO.N,GND*
G04 #@! TO.C,J103*
G36*
X163824505Y-121821204D02*
X163848773Y-121824804D01*
X163872572Y-121830765D01*
X163895671Y-121839030D01*
X163917850Y-121849520D01*
X163938893Y-121862132D01*
X163958599Y-121876747D01*
X163976777Y-121893223D01*
X163993253Y-121911401D01*
X164007868Y-121931107D01*
X164020480Y-121952150D01*
X164030970Y-121974329D01*
X164039235Y-121997428D01*
X164045196Y-122021227D01*
X164048796Y-122045495D01*
X164050000Y-122069999D01*
X164050000Y-125170001D01*
X164048796Y-125194505D01*
X164045196Y-125218773D01*
X164039235Y-125242572D01*
X164030970Y-125265671D01*
X164020480Y-125287850D01*
X164007868Y-125308893D01*
X163993253Y-125328599D01*
X163976777Y-125346777D01*
X163958599Y-125363253D01*
X163938893Y-125377868D01*
X163917850Y-125390480D01*
X163895671Y-125400970D01*
X163872572Y-125409235D01*
X163848773Y-125415196D01*
X163824505Y-125418796D01*
X163800001Y-125420000D01*
X162219999Y-125420000D01*
X162195495Y-125418796D01*
X162171227Y-125415196D01*
X162147428Y-125409235D01*
X162124329Y-125400970D01*
X162102150Y-125390480D01*
X162081107Y-125377868D01*
X162061401Y-125363253D01*
X162043223Y-125346777D01*
X162026747Y-125328599D01*
X162012132Y-125308893D01*
X161999520Y-125287850D01*
X161989030Y-125265671D01*
X161980765Y-125242572D01*
X161974804Y-125218773D01*
X161971204Y-125194505D01*
X161970000Y-125170001D01*
X161970000Y-122069999D01*
X161971204Y-122045495D01*
X161974804Y-122021227D01*
X161980765Y-121997428D01*
X161989030Y-121974329D01*
X161999520Y-121952150D01*
X162012132Y-121931107D01*
X162026747Y-121911401D01*
X162043223Y-121893223D01*
X162061401Y-121876747D01*
X162081107Y-121862132D01*
X162102150Y-121849520D01*
X162124329Y-121839030D01*
X162147428Y-121830765D01*
X162171227Y-121824804D01*
X162195495Y-121821204D01*
X162219999Y-121820000D01*
X163800001Y-121820000D01*
X163824505Y-121821204D01*
X163824505Y-121821204D01*
G37*
D15*
G04 #@! TO.P,J103,1*
G04 #@! TO.N,GND*
X163010000Y-123620000D03*
G04 #@! TD*
D16*
G04 #@! TO.P,Q401,3*
G04 #@! TO.N,Net-(J401-Pad3)*
X125030000Y-122730000D03*
G04 #@! TO.P,Q401,2*
G04 #@! TO.N,GND*
X125980000Y-120730000D03*
G04 #@! TO.P,Q401,1*
G04 #@! TO.N,Net-(Q401-Pad1)*
X124080000Y-120730000D03*
G04 #@! TD*
G04 #@! TO.P,Q402,3*
G04 #@! TO.N,Net-(J401-Pad10)*
X150850000Y-122780000D03*
G04 #@! TO.P,Q402,2*
G04 #@! TO.N,GND*
X151800000Y-120780000D03*
G04 #@! TO.P,Q402,1*
G04 #@! TO.N,Net-(Q402-Pad1)*
X149900000Y-120780000D03*
G04 #@! TD*
G04 #@! TO.P,Q403,3*
G04 #@! TO.N,Net-(J401-Pad8)*
X143430000Y-122760000D03*
G04 #@! TO.P,Q403,2*
G04 #@! TO.N,GND*
X144380000Y-120760000D03*
G04 #@! TO.P,Q403,1*
G04 #@! TO.N,Net-(Q403-Pad1)*
X142480000Y-120760000D03*
G04 #@! TD*
G04 #@! TO.P,Q404,3*
G04 #@! TO.N,Net-(J401-Pad7)*
X139730000Y-122760000D03*
G04 #@! TO.P,Q404,2*
G04 #@! TO.N,GND*
X140680000Y-120760000D03*
G04 #@! TO.P,Q404,1*
G04 #@! TO.N,Net-(Q404-Pad1)*
X138780000Y-120760000D03*
G04 #@! TD*
G04 #@! TO.P,Q405,3*
G04 #@! TO.N,Net-(J401-Pad9)*
X147140000Y-122780000D03*
G04 #@! TO.P,Q405,2*
G04 #@! TO.N,GND*
X148090000Y-120780000D03*
G04 #@! TO.P,Q405,1*
G04 #@! TO.N,Net-(Q405-Pad1)*
X146190000Y-120780000D03*
G04 #@! TD*
G04 #@! TO.P,Q406,3*
G04 #@! TO.N,Net-(J401-Pad6)*
X136050000Y-122770000D03*
G04 #@! TO.P,Q406,2*
G04 #@! TO.N,GND*
X137000000Y-120770000D03*
G04 #@! TO.P,Q406,1*
G04 #@! TO.N,Net-(Q406-Pad1)*
X135100000Y-120770000D03*
G04 #@! TD*
G04 #@! TO.P,Q407,3*
G04 #@! TO.N,Net-(J401-Pad5)*
X132400000Y-122760000D03*
G04 #@! TO.P,Q407,2*
G04 #@! TO.N,GND*
X133350000Y-120760000D03*
G04 #@! TO.P,Q407,1*
G04 #@! TO.N,Net-(Q407-Pad1)*
X131450000Y-120760000D03*
G04 #@! TD*
G04 #@! TO.P,Q408,3*
G04 #@! TO.N,Net-(J401-Pad4)*
X128710000Y-122730000D03*
G04 #@! TO.P,Q408,2*
G04 #@! TO.N,GND*
X129660000Y-120730000D03*
G04 #@! TO.P,Q408,1*
G04 #@! TO.N,Net-(Q408-Pad1)*
X127760000Y-120730000D03*
G04 #@! TD*
D11*
G04 #@! TO.N,/REL8*
G04 #@! TO.C,R405*
G36*
X150207691Y-117176053D02*
X150228926Y-117179203D01*
X150249750Y-117184419D01*
X150269962Y-117191651D01*
X150289368Y-117200830D01*
X150307781Y-117211866D01*
X150325024Y-117224654D01*
X150340930Y-117239070D01*
X150355346Y-117254976D01*
X150368134Y-117272219D01*
X150379170Y-117290632D01*
X150388349Y-117310038D01*
X150395581Y-117330250D01*
X150400797Y-117351074D01*
X150403947Y-117372309D01*
X150405000Y-117393750D01*
X150405000Y-117831250D01*
X150403947Y-117852691D01*
X150400797Y-117873926D01*
X150395581Y-117894750D01*
X150388349Y-117914962D01*
X150379170Y-117934368D01*
X150368134Y-117952781D01*
X150355346Y-117970024D01*
X150340930Y-117985930D01*
X150325024Y-118000346D01*
X150307781Y-118013134D01*
X150289368Y-118024170D01*
X150269962Y-118033349D01*
X150249750Y-118040581D01*
X150228926Y-118045797D01*
X150207691Y-118048947D01*
X150186250Y-118050000D01*
X149673750Y-118050000D01*
X149652309Y-118048947D01*
X149631074Y-118045797D01*
X149610250Y-118040581D01*
X149590038Y-118033349D01*
X149570632Y-118024170D01*
X149552219Y-118013134D01*
X149534976Y-118000346D01*
X149519070Y-117985930D01*
X149504654Y-117970024D01*
X149491866Y-117952781D01*
X149480830Y-117934368D01*
X149471651Y-117914962D01*
X149464419Y-117894750D01*
X149459203Y-117873926D01*
X149456053Y-117852691D01*
X149455000Y-117831250D01*
X149455000Y-117393750D01*
X149456053Y-117372309D01*
X149459203Y-117351074D01*
X149464419Y-117330250D01*
X149471651Y-117310038D01*
X149480830Y-117290632D01*
X149491866Y-117272219D01*
X149504654Y-117254976D01*
X149519070Y-117239070D01*
X149534976Y-117224654D01*
X149552219Y-117211866D01*
X149570632Y-117200830D01*
X149590038Y-117191651D01*
X149610250Y-117184419D01*
X149631074Y-117179203D01*
X149652309Y-117176053D01*
X149673750Y-117175000D01*
X150186250Y-117175000D01*
X150207691Y-117176053D01*
X150207691Y-117176053D01*
G37*
D17*
G04 #@! TD*
G04 #@! TO.P,R405,2*
G04 #@! TO.N,/REL8*
X149930000Y-117612500D03*
D11*
G04 #@! TO.N,Net-(Q402-Pad1)*
G04 #@! TO.C,R405*
G36*
X150207691Y-118751053D02*
X150228926Y-118754203D01*
X150249750Y-118759419D01*
X150269962Y-118766651D01*
X150289368Y-118775830D01*
X150307781Y-118786866D01*
X150325024Y-118799654D01*
X150340930Y-118814070D01*
X150355346Y-118829976D01*
X150368134Y-118847219D01*
X150379170Y-118865632D01*
X150388349Y-118885038D01*
X150395581Y-118905250D01*
X150400797Y-118926074D01*
X150403947Y-118947309D01*
X150405000Y-118968750D01*
X150405000Y-119406250D01*
X150403947Y-119427691D01*
X150400797Y-119448926D01*
X150395581Y-119469750D01*
X150388349Y-119489962D01*
X150379170Y-119509368D01*
X150368134Y-119527781D01*
X150355346Y-119545024D01*
X150340930Y-119560930D01*
X150325024Y-119575346D01*
X150307781Y-119588134D01*
X150289368Y-119599170D01*
X150269962Y-119608349D01*
X150249750Y-119615581D01*
X150228926Y-119620797D01*
X150207691Y-119623947D01*
X150186250Y-119625000D01*
X149673750Y-119625000D01*
X149652309Y-119623947D01*
X149631074Y-119620797D01*
X149610250Y-119615581D01*
X149590038Y-119608349D01*
X149570632Y-119599170D01*
X149552219Y-119588134D01*
X149534976Y-119575346D01*
X149519070Y-119560930D01*
X149504654Y-119545024D01*
X149491866Y-119527781D01*
X149480830Y-119509368D01*
X149471651Y-119489962D01*
X149464419Y-119469750D01*
X149459203Y-119448926D01*
X149456053Y-119427691D01*
X149455000Y-119406250D01*
X149455000Y-118968750D01*
X149456053Y-118947309D01*
X149459203Y-118926074D01*
X149464419Y-118905250D01*
X149471651Y-118885038D01*
X149480830Y-118865632D01*
X149491866Y-118847219D01*
X149504654Y-118829976D01*
X149519070Y-118814070D01*
X149534976Y-118799654D01*
X149552219Y-118786866D01*
X149570632Y-118775830D01*
X149590038Y-118766651D01*
X149610250Y-118759419D01*
X149631074Y-118754203D01*
X149652309Y-118751053D01*
X149673750Y-118750000D01*
X150186250Y-118750000D01*
X150207691Y-118751053D01*
X150207691Y-118751053D01*
G37*
D17*
G04 #@! TD*
G04 #@! TO.P,R405,1*
G04 #@! TO.N,Net-(Q402-Pad1)*
X149930000Y-119187500D03*
D11*
G04 #@! TO.N,/REL6*
G04 #@! TO.C,R406*
G36*
X142697691Y-117186053D02*
X142718926Y-117189203D01*
X142739750Y-117194419D01*
X142759962Y-117201651D01*
X142779368Y-117210830D01*
X142797781Y-117221866D01*
X142815024Y-117234654D01*
X142830930Y-117249070D01*
X142845346Y-117264976D01*
X142858134Y-117282219D01*
X142869170Y-117300632D01*
X142878349Y-117320038D01*
X142885581Y-117340250D01*
X142890797Y-117361074D01*
X142893947Y-117382309D01*
X142895000Y-117403750D01*
X142895000Y-117841250D01*
X142893947Y-117862691D01*
X142890797Y-117883926D01*
X142885581Y-117904750D01*
X142878349Y-117924962D01*
X142869170Y-117944368D01*
X142858134Y-117962781D01*
X142845346Y-117980024D01*
X142830930Y-117995930D01*
X142815024Y-118010346D01*
X142797781Y-118023134D01*
X142779368Y-118034170D01*
X142759962Y-118043349D01*
X142739750Y-118050581D01*
X142718926Y-118055797D01*
X142697691Y-118058947D01*
X142676250Y-118060000D01*
X142163750Y-118060000D01*
X142142309Y-118058947D01*
X142121074Y-118055797D01*
X142100250Y-118050581D01*
X142080038Y-118043349D01*
X142060632Y-118034170D01*
X142042219Y-118023134D01*
X142024976Y-118010346D01*
X142009070Y-117995930D01*
X141994654Y-117980024D01*
X141981866Y-117962781D01*
X141970830Y-117944368D01*
X141961651Y-117924962D01*
X141954419Y-117904750D01*
X141949203Y-117883926D01*
X141946053Y-117862691D01*
X141945000Y-117841250D01*
X141945000Y-117403750D01*
X141946053Y-117382309D01*
X141949203Y-117361074D01*
X141954419Y-117340250D01*
X141961651Y-117320038D01*
X141970830Y-117300632D01*
X141981866Y-117282219D01*
X141994654Y-117264976D01*
X142009070Y-117249070D01*
X142024976Y-117234654D01*
X142042219Y-117221866D01*
X142060632Y-117210830D01*
X142080038Y-117201651D01*
X142100250Y-117194419D01*
X142121074Y-117189203D01*
X142142309Y-117186053D01*
X142163750Y-117185000D01*
X142676250Y-117185000D01*
X142697691Y-117186053D01*
X142697691Y-117186053D01*
G37*
D17*
G04 #@! TD*
G04 #@! TO.P,R406,2*
G04 #@! TO.N,/REL6*
X142420000Y-117622500D03*
D11*
G04 #@! TO.N,Net-(Q403-Pad1)*
G04 #@! TO.C,R406*
G36*
X142697691Y-118761053D02*
X142718926Y-118764203D01*
X142739750Y-118769419D01*
X142759962Y-118776651D01*
X142779368Y-118785830D01*
X142797781Y-118796866D01*
X142815024Y-118809654D01*
X142830930Y-118824070D01*
X142845346Y-118839976D01*
X142858134Y-118857219D01*
X142869170Y-118875632D01*
X142878349Y-118895038D01*
X142885581Y-118915250D01*
X142890797Y-118936074D01*
X142893947Y-118957309D01*
X142895000Y-118978750D01*
X142895000Y-119416250D01*
X142893947Y-119437691D01*
X142890797Y-119458926D01*
X142885581Y-119479750D01*
X142878349Y-119499962D01*
X142869170Y-119519368D01*
X142858134Y-119537781D01*
X142845346Y-119555024D01*
X142830930Y-119570930D01*
X142815024Y-119585346D01*
X142797781Y-119598134D01*
X142779368Y-119609170D01*
X142759962Y-119618349D01*
X142739750Y-119625581D01*
X142718926Y-119630797D01*
X142697691Y-119633947D01*
X142676250Y-119635000D01*
X142163750Y-119635000D01*
X142142309Y-119633947D01*
X142121074Y-119630797D01*
X142100250Y-119625581D01*
X142080038Y-119618349D01*
X142060632Y-119609170D01*
X142042219Y-119598134D01*
X142024976Y-119585346D01*
X142009070Y-119570930D01*
X141994654Y-119555024D01*
X141981866Y-119537781D01*
X141970830Y-119519368D01*
X141961651Y-119499962D01*
X141954419Y-119479750D01*
X141949203Y-119458926D01*
X141946053Y-119437691D01*
X141945000Y-119416250D01*
X141945000Y-118978750D01*
X141946053Y-118957309D01*
X141949203Y-118936074D01*
X141954419Y-118915250D01*
X141961651Y-118895038D01*
X141970830Y-118875632D01*
X141981866Y-118857219D01*
X141994654Y-118839976D01*
X142009070Y-118824070D01*
X142024976Y-118809654D01*
X142042219Y-118796866D01*
X142060632Y-118785830D01*
X142080038Y-118776651D01*
X142100250Y-118769419D01*
X142121074Y-118764203D01*
X142142309Y-118761053D01*
X142163750Y-118760000D01*
X142676250Y-118760000D01*
X142697691Y-118761053D01*
X142697691Y-118761053D01*
G37*
D17*
G04 #@! TD*
G04 #@! TO.P,R406,1*
G04 #@! TO.N,Net-(Q403-Pad1)*
X142420000Y-119197500D03*
D11*
G04 #@! TO.N,/REL5*
G04 #@! TO.C,R408*
G36*
X138997691Y-117186053D02*
X139018926Y-117189203D01*
X139039750Y-117194419D01*
X139059962Y-117201651D01*
X139079368Y-117210830D01*
X139097781Y-117221866D01*
X139115024Y-117234654D01*
X139130930Y-117249070D01*
X139145346Y-117264976D01*
X139158134Y-117282219D01*
X139169170Y-117300632D01*
X139178349Y-117320038D01*
X139185581Y-117340250D01*
X139190797Y-117361074D01*
X139193947Y-117382309D01*
X139195000Y-117403750D01*
X139195000Y-117841250D01*
X139193947Y-117862691D01*
X139190797Y-117883926D01*
X139185581Y-117904750D01*
X139178349Y-117924962D01*
X139169170Y-117944368D01*
X139158134Y-117962781D01*
X139145346Y-117980024D01*
X139130930Y-117995930D01*
X139115024Y-118010346D01*
X139097781Y-118023134D01*
X139079368Y-118034170D01*
X139059962Y-118043349D01*
X139039750Y-118050581D01*
X139018926Y-118055797D01*
X138997691Y-118058947D01*
X138976250Y-118060000D01*
X138463750Y-118060000D01*
X138442309Y-118058947D01*
X138421074Y-118055797D01*
X138400250Y-118050581D01*
X138380038Y-118043349D01*
X138360632Y-118034170D01*
X138342219Y-118023134D01*
X138324976Y-118010346D01*
X138309070Y-117995930D01*
X138294654Y-117980024D01*
X138281866Y-117962781D01*
X138270830Y-117944368D01*
X138261651Y-117924962D01*
X138254419Y-117904750D01*
X138249203Y-117883926D01*
X138246053Y-117862691D01*
X138245000Y-117841250D01*
X138245000Y-117403750D01*
X138246053Y-117382309D01*
X138249203Y-117361074D01*
X138254419Y-117340250D01*
X138261651Y-117320038D01*
X138270830Y-117300632D01*
X138281866Y-117282219D01*
X138294654Y-117264976D01*
X138309070Y-117249070D01*
X138324976Y-117234654D01*
X138342219Y-117221866D01*
X138360632Y-117210830D01*
X138380038Y-117201651D01*
X138400250Y-117194419D01*
X138421074Y-117189203D01*
X138442309Y-117186053D01*
X138463750Y-117185000D01*
X138976250Y-117185000D01*
X138997691Y-117186053D01*
X138997691Y-117186053D01*
G37*
D17*
G04 #@! TD*
G04 #@! TO.P,R408,2*
G04 #@! TO.N,/REL5*
X138720000Y-117622500D03*
D11*
G04 #@! TO.N,Net-(Q404-Pad1)*
G04 #@! TO.C,R408*
G36*
X138997691Y-118761053D02*
X139018926Y-118764203D01*
X139039750Y-118769419D01*
X139059962Y-118776651D01*
X139079368Y-118785830D01*
X139097781Y-118796866D01*
X139115024Y-118809654D01*
X139130930Y-118824070D01*
X139145346Y-118839976D01*
X139158134Y-118857219D01*
X139169170Y-118875632D01*
X139178349Y-118895038D01*
X139185581Y-118915250D01*
X139190797Y-118936074D01*
X139193947Y-118957309D01*
X139195000Y-118978750D01*
X139195000Y-119416250D01*
X139193947Y-119437691D01*
X139190797Y-119458926D01*
X139185581Y-119479750D01*
X139178349Y-119499962D01*
X139169170Y-119519368D01*
X139158134Y-119537781D01*
X139145346Y-119555024D01*
X139130930Y-119570930D01*
X139115024Y-119585346D01*
X139097781Y-119598134D01*
X139079368Y-119609170D01*
X139059962Y-119618349D01*
X139039750Y-119625581D01*
X139018926Y-119630797D01*
X138997691Y-119633947D01*
X138976250Y-119635000D01*
X138463750Y-119635000D01*
X138442309Y-119633947D01*
X138421074Y-119630797D01*
X138400250Y-119625581D01*
X138380038Y-119618349D01*
X138360632Y-119609170D01*
X138342219Y-119598134D01*
X138324976Y-119585346D01*
X138309070Y-119570930D01*
X138294654Y-119555024D01*
X138281866Y-119537781D01*
X138270830Y-119519368D01*
X138261651Y-119499962D01*
X138254419Y-119479750D01*
X138249203Y-119458926D01*
X138246053Y-119437691D01*
X138245000Y-119416250D01*
X138245000Y-118978750D01*
X138246053Y-118957309D01*
X138249203Y-118936074D01*
X138254419Y-118915250D01*
X138261651Y-118895038D01*
X138270830Y-118875632D01*
X138281866Y-118857219D01*
X138294654Y-118839976D01*
X138309070Y-118824070D01*
X138324976Y-118809654D01*
X138342219Y-118796866D01*
X138360632Y-118785830D01*
X138380038Y-118776651D01*
X138400250Y-118769419D01*
X138421074Y-118764203D01*
X138442309Y-118761053D01*
X138463750Y-118760000D01*
X138976250Y-118760000D01*
X138997691Y-118761053D01*
X138997691Y-118761053D01*
G37*
D17*
G04 #@! TD*
G04 #@! TO.P,R408,1*
G04 #@! TO.N,Net-(Q404-Pad1)*
X138720000Y-119197500D03*
D11*
G04 #@! TO.N,/REL7*
G04 #@! TO.C,R411*
G36*
X146477691Y-117206053D02*
X146498926Y-117209203D01*
X146519750Y-117214419D01*
X146539962Y-117221651D01*
X146559368Y-117230830D01*
X146577781Y-117241866D01*
X146595024Y-117254654D01*
X146610930Y-117269070D01*
X146625346Y-117284976D01*
X146638134Y-117302219D01*
X146649170Y-117320632D01*
X146658349Y-117340038D01*
X146665581Y-117360250D01*
X146670797Y-117381074D01*
X146673947Y-117402309D01*
X146675000Y-117423750D01*
X146675000Y-117861250D01*
X146673947Y-117882691D01*
X146670797Y-117903926D01*
X146665581Y-117924750D01*
X146658349Y-117944962D01*
X146649170Y-117964368D01*
X146638134Y-117982781D01*
X146625346Y-118000024D01*
X146610930Y-118015930D01*
X146595024Y-118030346D01*
X146577781Y-118043134D01*
X146559368Y-118054170D01*
X146539962Y-118063349D01*
X146519750Y-118070581D01*
X146498926Y-118075797D01*
X146477691Y-118078947D01*
X146456250Y-118080000D01*
X145943750Y-118080000D01*
X145922309Y-118078947D01*
X145901074Y-118075797D01*
X145880250Y-118070581D01*
X145860038Y-118063349D01*
X145840632Y-118054170D01*
X145822219Y-118043134D01*
X145804976Y-118030346D01*
X145789070Y-118015930D01*
X145774654Y-118000024D01*
X145761866Y-117982781D01*
X145750830Y-117964368D01*
X145741651Y-117944962D01*
X145734419Y-117924750D01*
X145729203Y-117903926D01*
X145726053Y-117882691D01*
X145725000Y-117861250D01*
X145725000Y-117423750D01*
X145726053Y-117402309D01*
X145729203Y-117381074D01*
X145734419Y-117360250D01*
X145741651Y-117340038D01*
X145750830Y-117320632D01*
X145761866Y-117302219D01*
X145774654Y-117284976D01*
X145789070Y-117269070D01*
X145804976Y-117254654D01*
X145822219Y-117241866D01*
X145840632Y-117230830D01*
X145860038Y-117221651D01*
X145880250Y-117214419D01*
X145901074Y-117209203D01*
X145922309Y-117206053D01*
X145943750Y-117205000D01*
X146456250Y-117205000D01*
X146477691Y-117206053D01*
X146477691Y-117206053D01*
G37*
D17*
G04 #@! TD*
G04 #@! TO.P,R411,2*
G04 #@! TO.N,/REL7*
X146200000Y-117642500D03*
D11*
G04 #@! TO.N,Net-(Q405-Pad1)*
G04 #@! TO.C,R411*
G36*
X146477691Y-118781053D02*
X146498926Y-118784203D01*
X146519750Y-118789419D01*
X146539962Y-118796651D01*
X146559368Y-118805830D01*
X146577781Y-118816866D01*
X146595024Y-118829654D01*
X146610930Y-118844070D01*
X146625346Y-118859976D01*
X146638134Y-118877219D01*
X146649170Y-118895632D01*
X146658349Y-118915038D01*
X146665581Y-118935250D01*
X146670797Y-118956074D01*
X146673947Y-118977309D01*
X146675000Y-118998750D01*
X146675000Y-119436250D01*
X146673947Y-119457691D01*
X146670797Y-119478926D01*
X146665581Y-119499750D01*
X146658349Y-119519962D01*
X146649170Y-119539368D01*
X146638134Y-119557781D01*
X146625346Y-119575024D01*
X146610930Y-119590930D01*
X146595024Y-119605346D01*
X146577781Y-119618134D01*
X146559368Y-119629170D01*
X146539962Y-119638349D01*
X146519750Y-119645581D01*
X146498926Y-119650797D01*
X146477691Y-119653947D01*
X146456250Y-119655000D01*
X145943750Y-119655000D01*
X145922309Y-119653947D01*
X145901074Y-119650797D01*
X145880250Y-119645581D01*
X145860038Y-119638349D01*
X145840632Y-119629170D01*
X145822219Y-119618134D01*
X145804976Y-119605346D01*
X145789070Y-119590930D01*
X145774654Y-119575024D01*
X145761866Y-119557781D01*
X145750830Y-119539368D01*
X145741651Y-119519962D01*
X145734419Y-119499750D01*
X145729203Y-119478926D01*
X145726053Y-119457691D01*
X145725000Y-119436250D01*
X145725000Y-118998750D01*
X145726053Y-118977309D01*
X145729203Y-118956074D01*
X145734419Y-118935250D01*
X145741651Y-118915038D01*
X145750830Y-118895632D01*
X145761866Y-118877219D01*
X145774654Y-118859976D01*
X145789070Y-118844070D01*
X145804976Y-118829654D01*
X145822219Y-118816866D01*
X145840632Y-118805830D01*
X145860038Y-118796651D01*
X145880250Y-118789419D01*
X145901074Y-118784203D01*
X145922309Y-118781053D01*
X145943750Y-118780000D01*
X146456250Y-118780000D01*
X146477691Y-118781053D01*
X146477691Y-118781053D01*
G37*
D17*
G04 #@! TD*
G04 #@! TO.P,R411,1*
G04 #@! TO.N,Net-(Q405-Pad1)*
X146200000Y-119217500D03*
D11*
G04 #@! TO.N,/REL4*
G04 #@! TO.C,R412*
G36*
X135327691Y-117196053D02*
X135348926Y-117199203D01*
X135369750Y-117204419D01*
X135389962Y-117211651D01*
X135409368Y-117220830D01*
X135427781Y-117231866D01*
X135445024Y-117244654D01*
X135460930Y-117259070D01*
X135475346Y-117274976D01*
X135488134Y-117292219D01*
X135499170Y-117310632D01*
X135508349Y-117330038D01*
X135515581Y-117350250D01*
X135520797Y-117371074D01*
X135523947Y-117392309D01*
X135525000Y-117413750D01*
X135525000Y-117851250D01*
X135523947Y-117872691D01*
X135520797Y-117893926D01*
X135515581Y-117914750D01*
X135508349Y-117934962D01*
X135499170Y-117954368D01*
X135488134Y-117972781D01*
X135475346Y-117990024D01*
X135460930Y-118005930D01*
X135445024Y-118020346D01*
X135427781Y-118033134D01*
X135409368Y-118044170D01*
X135389962Y-118053349D01*
X135369750Y-118060581D01*
X135348926Y-118065797D01*
X135327691Y-118068947D01*
X135306250Y-118070000D01*
X134793750Y-118070000D01*
X134772309Y-118068947D01*
X134751074Y-118065797D01*
X134730250Y-118060581D01*
X134710038Y-118053349D01*
X134690632Y-118044170D01*
X134672219Y-118033134D01*
X134654976Y-118020346D01*
X134639070Y-118005930D01*
X134624654Y-117990024D01*
X134611866Y-117972781D01*
X134600830Y-117954368D01*
X134591651Y-117934962D01*
X134584419Y-117914750D01*
X134579203Y-117893926D01*
X134576053Y-117872691D01*
X134575000Y-117851250D01*
X134575000Y-117413750D01*
X134576053Y-117392309D01*
X134579203Y-117371074D01*
X134584419Y-117350250D01*
X134591651Y-117330038D01*
X134600830Y-117310632D01*
X134611866Y-117292219D01*
X134624654Y-117274976D01*
X134639070Y-117259070D01*
X134654976Y-117244654D01*
X134672219Y-117231866D01*
X134690632Y-117220830D01*
X134710038Y-117211651D01*
X134730250Y-117204419D01*
X134751074Y-117199203D01*
X134772309Y-117196053D01*
X134793750Y-117195000D01*
X135306250Y-117195000D01*
X135327691Y-117196053D01*
X135327691Y-117196053D01*
G37*
D17*
G04 #@! TD*
G04 #@! TO.P,R412,2*
G04 #@! TO.N,/REL4*
X135050000Y-117632500D03*
D11*
G04 #@! TO.N,Net-(Q406-Pad1)*
G04 #@! TO.C,R412*
G36*
X135327691Y-118771053D02*
X135348926Y-118774203D01*
X135369750Y-118779419D01*
X135389962Y-118786651D01*
X135409368Y-118795830D01*
X135427781Y-118806866D01*
X135445024Y-118819654D01*
X135460930Y-118834070D01*
X135475346Y-118849976D01*
X135488134Y-118867219D01*
X135499170Y-118885632D01*
X135508349Y-118905038D01*
X135515581Y-118925250D01*
X135520797Y-118946074D01*
X135523947Y-118967309D01*
X135525000Y-118988750D01*
X135525000Y-119426250D01*
X135523947Y-119447691D01*
X135520797Y-119468926D01*
X135515581Y-119489750D01*
X135508349Y-119509962D01*
X135499170Y-119529368D01*
X135488134Y-119547781D01*
X135475346Y-119565024D01*
X135460930Y-119580930D01*
X135445024Y-119595346D01*
X135427781Y-119608134D01*
X135409368Y-119619170D01*
X135389962Y-119628349D01*
X135369750Y-119635581D01*
X135348926Y-119640797D01*
X135327691Y-119643947D01*
X135306250Y-119645000D01*
X134793750Y-119645000D01*
X134772309Y-119643947D01*
X134751074Y-119640797D01*
X134730250Y-119635581D01*
X134710038Y-119628349D01*
X134690632Y-119619170D01*
X134672219Y-119608134D01*
X134654976Y-119595346D01*
X134639070Y-119580930D01*
X134624654Y-119565024D01*
X134611866Y-119547781D01*
X134600830Y-119529368D01*
X134591651Y-119509962D01*
X134584419Y-119489750D01*
X134579203Y-119468926D01*
X134576053Y-119447691D01*
X134575000Y-119426250D01*
X134575000Y-118988750D01*
X134576053Y-118967309D01*
X134579203Y-118946074D01*
X134584419Y-118925250D01*
X134591651Y-118905038D01*
X134600830Y-118885632D01*
X134611866Y-118867219D01*
X134624654Y-118849976D01*
X134639070Y-118834070D01*
X134654976Y-118819654D01*
X134672219Y-118806866D01*
X134690632Y-118795830D01*
X134710038Y-118786651D01*
X134730250Y-118779419D01*
X134751074Y-118774203D01*
X134772309Y-118771053D01*
X134793750Y-118770000D01*
X135306250Y-118770000D01*
X135327691Y-118771053D01*
X135327691Y-118771053D01*
G37*
D17*
G04 #@! TD*
G04 #@! TO.P,R412,1*
G04 #@! TO.N,Net-(Q406-Pad1)*
X135050000Y-119207500D03*
D11*
G04 #@! TO.N,/REL3*
G04 #@! TO.C,R414*
G36*
X131737691Y-117246053D02*
X131758926Y-117249203D01*
X131779750Y-117254419D01*
X131799962Y-117261651D01*
X131819368Y-117270830D01*
X131837781Y-117281866D01*
X131855024Y-117294654D01*
X131870930Y-117309070D01*
X131885346Y-117324976D01*
X131898134Y-117342219D01*
X131909170Y-117360632D01*
X131918349Y-117380038D01*
X131925581Y-117400250D01*
X131930797Y-117421074D01*
X131933947Y-117442309D01*
X131935000Y-117463750D01*
X131935000Y-117901250D01*
X131933947Y-117922691D01*
X131930797Y-117943926D01*
X131925581Y-117964750D01*
X131918349Y-117984962D01*
X131909170Y-118004368D01*
X131898134Y-118022781D01*
X131885346Y-118040024D01*
X131870930Y-118055930D01*
X131855024Y-118070346D01*
X131837781Y-118083134D01*
X131819368Y-118094170D01*
X131799962Y-118103349D01*
X131779750Y-118110581D01*
X131758926Y-118115797D01*
X131737691Y-118118947D01*
X131716250Y-118120000D01*
X131203750Y-118120000D01*
X131182309Y-118118947D01*
X131161074Y-118115797D01*
X131140250Y-118110581D01*
X131120038Y-118103349D01*
X131100632Y-118094170D01*
X131082219Y-118083134D01*
X131064976Y-118070346D01*
X131049070Y-118055930D01*
X131034654Y-118040024D01*
X131021866Y-118022781D01*
X131010830Y-118004368D01*
X131001651Y-117984962D01*
X130994419Y-117964750D01*
X130989203Y-117943926D01*
X130986053Y-117922691D01*
X130985000Y-117901250D01*
X130985000Y-117463750D01*
X130986053Y-117442309D01*
X130989203Y-117421074D01*
X130994419Y-117400250D01*
X131001651Y-117380038D01*
X131010830Y-117360632D01*
X131021866Y-117342219D01*
X131034654Y-117324976D01*
X131049070Y-117309070D01*
X131064976Y-117294654D01*
X131082219Y-117281866D01*
X131100632Y-117270830D01*
X131120038Y-117261651D01*
X131140250Y-117254419D01*
X131161074Y-117249203D01*
X131182309Y-117246053D01*
X131203750Y-117245000D01*
X131716250Y-117245000D01*
X131737691Y-117246053D01*
X131737691Y-117246053D01*
G37*
D17*
G04 #@! TD*
G04 #@! TO.P,R414,2*
G04 #@! TO.N,/REL3*
X131460000Y-117682500D03*
D11*
G04 #@! TO.N,Net-(Q407-Pad1)*
G04 #@! TO.C,R414*
G36*
X131737691Y-118821053D02*
X131758926Y-118824203D01*
X131779750Y-118829419D01*
X131799962Y-118836651D01*
X131819368Y-118845830D01*
X131837781Y-118856866D01*
X131855024Y-118869654D01*
X131870930Y-118884070D01*
X131885346Y-118899976D01*
X131898134Y-118917219D01*
X131909170Y-118935632D01*
X131918349Y-118955038D01*
X131925581Y-118975250D01*
X131930797Y-118996074D01*
X131933947Y-119017309D01*
X131935000Y-119038750D01*
X131935000Y-119476250D01*
X131933947Y-119497691D01*
X131930797Y-119518926D01*
X131925581Y-119539750D01*
X131918349Y-119559962D01*
X131909170Y-119579368D01*
X131898134Y-119597781D01*
X131885346Y-119615024D01*
X131870930Y-119630930D01*
X131855024Y-119645346D01*
X131837781Y-119658134D01*
X131819368Y-119669170D01*
X131799962Y-119678349D01*
X131779750Y-119685581D01*
X131758926Y-119690797D01*
X131737691Y-119693947D01*
X131716250Y-119695000D01*
X131203750Y-119695000D01*
X131182309Y-119693947D01*
X131161074Y-119690797D01*
X131140250Y-119685581D01*
X131120038Y-119678349D01*
X131100632Y-119669170D01*
X131082219Y-119658134D01*
X131064976Y-119645346D01*
X131049070Y-119630930D01*
X131034654Y-119615024D01*
X131021866Y-119597781D01*
X131010830Y-119579368D01*
X131001651Y-119559962D01*
X130994419Y-119539750D01*
X130989203Y-119518926D01*
X130986053Y-119497691D01*
X130985000Y-119476250D01*
X130985000Y-119038750D01*
X130986053Y-119017309D01*
X130989203Y-118996074D01*
X130994419Y-118975250D01*
X131001651Y-118955038D01*
X131010830Y-118935632D01*
X131021866Y-118917219D01*
X131034654Y-118899976D01*
X131049070Y-118884070D01*
X131064976Y-118869654D01*
X131082219Y-118856866D01*
X131100632Y-118845830D01*
X131120038Y-118836651D01*
X131140250Y-118829419D01*
X131161074Y-118824203D01*
X131182309Y-118821053D01*
X131203750Y-118820000D01*
X131716250Y-118820000D01*
X131737691Y-118821053D01*
X131737691Y-118821053D01*
G37*
D17*
G04 #@! TD*
G04 #@! TO.P,R414,1*
G04 #@! TO.N,Net-(Q407-Pad1)*
X131460000Y-119257500D03*
D11*
G04 #@! TO.N,/REL2*
G04 #@! TO.C,R416*
G36*
X128017691Y-117176053D02*
X128038926Y-117179203D01*
X128059750Y-117184419D01*
X128079962Y-117191651D01*
X128099368Y-117200830D01*
X128117781Y-117211866D01*
X128135024Y-117224654D01*
X128150930Y-117239070D01*
X128165346Y-117254976D01*
X128178134Y-117272219D01*
X128189170Y-117290632D01*
X128198349Y-117310038D01*
X128205581Y-117330250D01*
X128210797Y-117351074D01*
X128213947Y-117372309D01*
X128215000Y-117393750D01*
X128215000Y-117831250D01*
X128213947Y-117852691D01*
X128210797Y-117873926D01*
X128205581Y-117894750D01*
X128198349Y-117914962D01*
X128189170Y-117934368D01*
X128178134Y-117952781D01*
X128165346Y-117970024D01*
X128150930Y-117985930D01*
X128135024Y-118000346D01*
X128117781Y-118013134D01*
X128099368Y-118024170D01*
X128079962Y-118033349D01*
X128059750Y-118040581D01*
X128038926Y-118045797D01*
X128017691Y-118048947D01*
X127996250Y-118050000D01*
X127483750Y-118050000D01*
X127462309Y-118048947D01*
X127441074Y-118045797D01*
X127420250Y-118040581D01*
X127400038Y-118033349D01*
X127380632Y-118024170D01*
X127362219Y-118013134D01*
X127344976Y-118000346D01*
X127329070Y-117985930D01*
X127314654Y-117970024D01*
X127301866Y-117952781D01*
X127290830Y-117934368D01*
X127281651Y-117914962D01*
X127274419Y-117894750D01*
X127269203Y-117873926D01*
X127266053Y-117852691D01*
X127265000Y-117831250D01*
X127265000Y-117393750D01*
X127266053Y-117372309D01*
X127269203Y-117351074D01*
X127274419Y-117330250D01*
X127281651Y-117310038D01*
X127290830Y-117290632D01*
X127301866Y-117272219D01*
X127314654Y-117254976D01*
X127329070Y-117239070D01*
X127344976Y-117224654D01*
X127362219Y-117211866D01*
X127380632Y-117200830D01*
X127400038Y-117191651D01*
X127420250Y-117184419D01*
X127441074Y-117179203D01*
X127462309Y-117176053D01*
X127483750Y-117175000D01*
X127996250Y-117175000D01*
X128017691Y-117176053D01*
X128017691Y-117176053D01*
G37*
D17*
G04 #@! TD*
G04 #@! TO.P,R416,2*
G04 #@! TO.N,/REL2*
X127740000Y-117612500D03*
D11*
G04 #@! TO.N,Net-(Q408-Pad1)*
G04 #@! TO.C,R416*
G36*
X128017691Y-118751053D02*
X128038926Y-118754203D01*
X128059750Y-118759419D01*
X128079962Y-118766651D01*
X128099368Y-118775830D01*
X128117781Y-118786866D01*
X128135024Y-118799654D01*
X128150930Y-118814070D01*
X128165346Y-118829976D01*
X128178134Y-118847219D01*
X128189170Y-118865632D01*
X128198349Y-118885038D01*
X128205581Y-118905250D01*
X128210797Y-118926074D01*
X128213947Y-118947309D01*
X128215000Y-118968750D01*
X128215000Y-119406250D01*
X128213947Y-119427691D01*
X128210797Y-119448926D01*
X128205581Y-119469750D01*
X128198349Y-119489962D01*
X128189170Y-119509368D01*
X128178134Y-119527781D01*
X128165346Y-119545024D01*
X128150930Y-119560930D01*
X128135024Y-119575346D01*
X128117781Y-119588134D01*
X128099368Y-119599170D01*
X128079962Y-119608349D01*
X128059750Y-119615581D01*
X128038926Y-119620797D01*
X128017691Y-119623947D01*
X127996250Y-119625000D01*
X127483750Y-119625000D01*
X127462309Y-119623947D01*
X127441074Y-119620797D01*
X127420250Y-119615581D01*
X127400038Y-119608349D01*
X127380632Y-119599170D01*
X127362219Y-119588134D01*
X127344976Y-119575346D01*
X127329070Y-119560930D01*
X127314654Y-119545024D01*
X127301866Y-119527781D01*
X127290830Y-119509368D01*
X127281651Y-119489962D01*
X127274419Y-119469750D01*
X127269203Y-119448926D01*
X127266053Y-119427691D01*
X127265000Y-119406250D01*
X127265000Y-118968750D01*
X127266053Y-118947309D01*
X127269203Y-118926074D01*
X127274419Y-118905250D01*
X127281651Y-118885038D01*
X127290830Y-118865632D01*
X127301866Y-118847219D01*
X127314654Y-118829976D01*
X127329070Y-118814070D01*
X127344976Y-118799654D01*
X127362219Y-118786866D01*
X127380632Y-118775830D01*
X127400038Y-118766651D01*
X127420250Y-118759419D01*
X127441074Y-118754203D01*
X127462309Y-118751053D01*
X127483750Y-118750000D01*
X127996250Y-118750000D01*
X128017691Y-118751053D01*
X128017691Y-118751053D01*
G37*
D17*
G04 #@! TD*
G04 #@! TO.P,R416,1*
G04 #@! TO.N,Net-(Q408-Pad1)*
X127740000Y-119187500D03*
D11*
G04 #@! TO.N,/REL1*
G04 #@! TO.C,R402*
G36*
X124327691Y-117166053D02*
X124348926Y-117169203D01*
X124369750Y-117174419D01*
X124389962Y-117181651D01*
X124409368Y-117190830D01*
X124427781Y-117201866D01*
X124445024Y-117214654D01*
X124460930Y-117229070D01*
X124475346Y-117244976D01*
X124488134Y-117262219D01*
X124499170Y-117280632D01*
X124508349Y-117300038D01*
X124515581Y-117320250D01*
X124520797Y-117341074D01*
X124523947Y-117362309D01*
X124525000Y-117383750D01*
X124525000Y-117821250D01*
X124523947Y-117842691D01*
X124520797Y-117863926D01*
X124515581Y-117884750D01*
X124508349Y-117904962D01*
X124499170Y-117924368D01*
X124488134Y-117942781D01*
X124475346Y-117960024D01*
X124460930Y-117975930D01*
X124445024Y-117990346D01*
X124427781Y-118003134D01*
X124409368Y-118014170D01*
X124389962Y-118023349D01*
X124369750Y-118030581D01*
X124348926Y-118035797D01*
X124327691Y-118038947D01*
X124306250Y-118040000D01*
X123793750Y-118040000D01*
X123772309Y-118038947D01*
X123751074Y-118035797D01*
X123730250Y-118030581D01*
X123710038Y-118023349D01*
X123690632Y-118014170D01*
X123672219Y-118003134D01*
X123654976Y-117990346D01*
X123639070Y-117975930D01*
X123624654Y-117960024D01*
X123611866Y-117942781D01*
X123600830Y-117924368D01*
X123591651Y-117904962D01*
X123584419Y-117884750D01*
X123579203Y-117863926D01*
X123576053Y-117842691D01*
X123575000Y-117821250D01*
X123575000Y-117383750D01*
X123576053Y-117362309D01*
X123579203Y-117341074D01*
X123584419Y-117320250D01*
X123591651Y-117300038D01*
X123600830Y-117280632D01*
X123611866Y-117262219D01*
X123624654Y-117244976D01*
X123639070Y-117229070D01*
X123654976Y-117214654D01*
X123672219Y-117201866D01*
X123690632Y-117190830D01*
X123710038Y-117181651D01*
X123730250Y-117174419D01*
X123751074Y-117169203D01*
X123772309Y-117166053D01*
X123793750Y-117165000D01*
X124306250Y-117165000D01*
X124327691Y-117166053D01*
X124327691Y-117166053D01*
G37*
D17*
G04 #@! TD*
G04 #@! TO.P,R402,2*
G04 #@! TO.N,/REL1*
X124050000Y-117602500D03*
D11*
G04 #@! TO.N,Net-(Q401-Pad1)*
G04 #@! TO.C,R402*
G36*
X124327691Y-118741053D02*
X124348926Y-118744203D01*
X124369750Y-118749419D01*
X124389962Y-118756651D01*
X124409368Y-118765830D01*
X124427781Y-118776866D01*
X124445024Y-118789654D01*
X124460930Y-118804070D01*
X124475346Y-118819976D01*
X124488134Y-118837219D01*
X124499170Y-118855632D01*
X124508349Y-118875038D01*
X124515581Y-118895250D01*
X124520797Y-118916074D01*
X124523947Y-118937309D01*
X124525000Y-118958750D01*
X124525000Y-119396250D01*
X124523947Y-119417691D01*
X124520797Y-119438926D01*
X124515581Y-119459750D01*
X124508349Y-119479962D01*
X124499170Y-119499368D01*
X124488134Y-119517781D01*
X124475346Y-119535024D01*
X124460930Y-119550930D01*
X124445024Y-119565346D01*
X124427781Y-119578134D01*
X124409368Y-119589170D01*
X124389962Y-119598349D01*
X124369750Y-119605581D01*
X124348926Y-119610797D01*
X124327691Y-119613947D01*
X124306250Y-119615000D01*
X123793750Y-119615000D01*
X123772309Y-119613947D01*
X123751074Y-119610797D01*
X123730250Y-119605581D01*
X123710038Y-119598349D01*
X123690632Y-119589170D01*
X123672219Y-119578134D01*
X123654976Y-119565346D01*
X123639070Y-119550930D01*
X123624654Y-119535024D01*
X123611866Y-119517781D01*
X123600830Y-119499368D01*
X123591651Y-119479962D01*
X123584419Y-119459750D01*
X123579203Y-119438926D01*
X123576053Y-119417691D01*
X123575000Y-119396250D01*
X123575000Y-118958750D01*
X123576053Y-118937309D01*
X123579203Y-118916074D01*
X123584419Y-118895250D01*
X123591651Y-118875038D01*
X123600830Y-118855632D01*
X123611866Y-118837219D01*
X123624654Y-118819976D01*
X123639070Y-118804070D01*
X123654976Y-118789654D01*
X123672219Y-118776866D01*
X123690632Y-118765830D01*
X123710038Y-118756651D01*
X123730250Y-118749419D01*
X123751074Y-118744203D01*
X123772309Y-118741053D01*
X123793750Y-118740000D01*
X124306250Y-118740000D01*
X124327691Y-118741053D01*
X124327691Y-118741053D01*
G37*
D17*
G04 #@! TD*
G04 #@! TO.P,R402,1*
G04 #@! TO.N,Net-(Q401-Pad1)*
X124050000Y-119177500D03*
D12*
G04 #@! TO.P,J401,10*
G04 #@! TO.N,Net-(J401-Pad10)*
X146700000Y-124880000D03*
G04 #@! TO.P,J401,9*
G04 #@! TO.N,Net-(J401-Pad9)*
X144160000Y-124880000D03*
G04 #@! TO.P,J401,8*
G04 #@! TO.N,Net-(J401-Pad8)*
X141620000Y-124880000D03*
G04 #@! TO.P,J401,7*
G04 #@! TO.N,Net-(J401-Pad7)*
X139080000Y-124880000D03*
G04 #@! TO.P,J401,6*
G04 #@! TO.N,Net-(J401-Pad6)*
X136540000Y-124880000D03*
G04 #@! TO.P,J401,5*
G04 #@! TO.N,Net-(J401-Pad5)*
X134000000Y-124880000D03*
G04 #@! TO.P,J401,4*
G04 #@! TO.N,Net-(J401-Pad4)*
X131460000Y-124880000D03*
G04 #@! TO.P,J401,3*
G04 #@! TO.N,Net-(J401-Pad3)*
X128920000Y-124880000D03*
G04 #@! TO.P,J401,2*
G04 #@! TO.N,+5V*
X126380000Y-124880000D03*
D13*
G04 #@! TO.P,J401,1*
G04 #@! TO.N,GND*
X123840000Y-124880000D03*
G04 #@! TD*
D12*
G04 #@! TO.P,J301,2*
G04 #@! TO.N,+36V*
X153790000Y-124900000D03*
D13*
G04 #@! TO.P,J301,1*
G04 #@! TO.N,Net-(J301-Pad1)*
X156330000Y-124900000D03*
G04 #@! TD*
D18*
G04 #@! TO.P,J201,11*
G04 #@! TO.N,GND*
X164810000Y-71990000D03*
D19*
G04 #@! TO.P,J201,SH*
X173166600Y-59798000D03*
X173192000Y-75292000D03*
D20*
G04 #@! TO.P,J201,AG*
G04 #@! TO.N,Net-(J201-PadAG)*
X162524000Y-73234600D03*
G04 #@! TO.P,J201,KG*
G04 #@! TO.N,GND*
X162549400Y-70694600D03*
G04 #@! TO.P,J201,AY*
G04 #@! TO.N,Net-(J201-PadAY)*
X162524000Y-64624000D03*
G04 #@! TO.P,J201,KY*
G04 #@! TO.N,GND*
X162524000Y-62084000D03*
D18*
G04 #@! TO.P,J201,8*
G04 #@! TO.N,Net-(J201-Pad8)*
X167350000Y-70720000D03*
G04 #@! TO.P,J201,9*
G04 #@! TO.N,Net-(J201-Pad9)*
X169890000Y-71990000D03*
G04 #@! TO.P,J201,10*
G04 #@! TO.N,Net-(J201-Pad10)*
X167350000Y-73260000D03*
G04 #@! TO.P,J201,5*
G04 #@! TO.N,/Ethernet/TPIN-*
X169890000Y-66910000D03*
G04 #@! TO.P,J201,4*
G04 #@! TO.N,/Ethernet/TPIN+*
X167350000Y-65640000D03*
G04 #@! TO.P,J201,3*
G04 #@! TO.N,/Ethernet/TPOUT-*
X169890000Y-64370000D03*
G04 #@! TO.P,J201,2*
G04 #@! TO.N,Net-(C203-Pad1)*
X167350000Y-63100000D03*
D21*
G04 #@! TO.P,J201,1*
G04 #@! TO.N,/Ethernet/TPOUT+*
X169890000Y-61830000D03*
G04 #@! TD*
D22*
G04 #@! TO.P,H107,1*
G04 #@! TO.N,GND*
X175500000Y-124500000D03*
G04 #@! TD*
G04 #@! TO.P,H105,1*
G04 #@! TO.N,GND*
X175500000Y-55000000D03*
G04 #@! TD*
G04 #@! TO.P,H106,1*
G04 #@! TO.N,GND*
X117000000Y-124500000D03*
G04 #@! TD*
G04 #@! TO.P,H108,1*
G04 #@! TO.N,GND*
X117000000Y-55000000D03*
G04 #@! TD*
D23*
G04 #@! TO.P,U102,1*
G04 #@! TO.N,GND*
X122070000Y-73530000D03*
D24*
G04 #@! TO.P,U102,3*
G04 #@! TO.N,Net-(C101-Pad1)*
X122070000Y-70990000D03*
G04 #@! TO.P,U102,2*
G04 #@! TO.N,/DQ*
X122070000Y-72260000D03*
G04 #@! TD*
D12*
G04 #@! TO.P,J102,3*
G04 #@! TO.N,/DQ*
X116850000Y-77130000D03*
G04 #@! TO.P,J102,2*
G04 #@! TO.N,Net-(C101-Pad1)*
X116850000Y-74590000D03*
D13*
G04 #@! TO.P,J102,1*
G04 #@! TO.N,GND*
X116850000Y-72050000D03*
G04 #@! TD*
D11*
G04 #@! TO.N,Net-(C212-Pad2)*
G04 #@! TO.C,C212*
G36*
X170087691Y-97006053D02*
X170108926Y-97009203D01*
X170129750Y-97014419D01*
X170149962Y-97021651D01*
X170169368Y-97030830D01*
X170187781Y-97041866D01*
X170205024Y-97054654D01*
X170220930Y-97069070D01*
X170235346Y-97084976D01*
X170248134Y-97102219D01*
X170259170Y-97120632D01*
X170268349Y-97140038D01*
X170275581Y-97160250D01*
X170280797Y-97181074D01*
X170283947Y-97202309D01*
X170285000Y-97223750D01*
X170285000Y-97661250D01*
X170283947Y-97682691D01*
X170280797Y-97703926D01*
X170275581Y-97724750D01*
X170268349Y-97744962D01*
X170259170Y-97764368D01*
X170248134Y-97782781D01*
X170235346Y-97800024D01*
X170220930Y-97815930D01*
X170205024Y-97830346D01*
X170187781Y-97843134D01*
X170169368Y-97854170D01*
X170149962Y-97863349D01*
X170129750Y-97870581D01*
X170108926Y-97875797D01*
X170087691Y-97878947D01*
X170066250Y-97880000D01*
X169553750Y-97880000D01*
X169532309Y-97878947D01*
X169511074Y-97875797D01*
X169490250Y-97870581D01*
X169470038Y-97863349D01*
X169450632Y-97854170D01*
X169432219Y-97843134D01*
X169414976Y-97830346D01*
X169399070Y-97815930D01*
X169384654Y-97800024D01*
X169371866Y-97782781D01*
X169360830Y-97764368D01*
X169351651Y-97744962D01*
X169344419Y-97724750D01*
X169339203Y-97703926D01*
X169336053Y-97682691D01*
X169335000Y-97661250D01*
X169335000Y-97223750D01*
X169336053Y-97202309D01*
X169339203Y-97181074D01*
X169344419Y-97160250D01*
X169351651Y-97140038D01*
X169360830Y-97120632D01*
X169371866Y-97102219D01*
X169384654Y-97084976D01*
X169399070Y-97069070D01*
X169414976Y-97054654D01*
X169432219Y-97041866D01*
X169450632Y-97030830D01*
X169470038Y-97021651D01*
X169490250Y-97014419D01*
X169511074Y-97009203D01*
X169532309Y-97006053D01*
X169553750Y-97005000D01*
X170066250Y-97005000D01*
X170087691Y-97006053D01*
X170087691Y-97006053D01*
G37*
D17*
G04 #@! TD*
G04 #@! TO.P,C212,2*
G04 #@! TO.N,Net-(C212-Pad2)*
X169810000Y-97442500D03*
D11*
G04 #@! TO.N,Net-(C212-Pad1)*
G04 #@! TO.C,C212*
G36*
X170087691Y-98581053D02*
X170108926Y-98584203D01*
X170129750Y-98589419D01*
X170149962Y-98596651D01*
X170169368Y-98605830D01*
X170187781Y-98616866D01*
X170205024Y-98629654D01*
X170220930Y-98644070D01*
X170235346Y-98659976D01*
X170248134Y-98677219D01*
X170259170Y-98695632D01*
X170268349Y-98715038D01*
X170275581Y-98735250D01*
X170280797Y-98756074D01*
X170283947Y-98777309D01*
X170285000Y-98798750D01*
X170285000Y-99236250D01*
X170283947Y-99257691D01*
X170280797Y-99278926D01*
X170275581Y-99299750D01*
X170268349Y-99319962D01*
X170259170Y-99339368D01*
X170248134Y-99357781D01*
X170235346Y-99375024D01*
X170220930Y-99390930D01*
X170205024Y-99405346D01*
X170187781Y-99418134D01*
X170169368Y-99429170D01*
X170149962Y-99438349D01*
X170129750Y-99445581D01*
X170108926Y-99450797D01*
X170087691Y-99453947D01*
X170066250Y-99455000D01*
X169553750Y-99455000D01*
X169532309Y-99453947D01*
X169511074Y-99450797D01*
X169490250Y-99445581D01*
X169470038Y-99438349D01*
X169450632Y-99429170D01*
X169432219Y-99418134D01*
X169414976Y-99405346D01*
X169399070Y-99390930D01*
X169384654Y-99375024D01*
X169371866Y-99357781D01*
X169360830Y-99339368D01*
X169351651Y-99319962D01*
X169344419Y-99299750D01*
X169339203Y-99278926D01*
X169336053Y-99257691D01*
X169335000Y-99236250D01*
X169335000Y-98798750D01*
X169336053Y-98777309D01*
X169339203Y-98756074D01*
X169344419Y-98735250D01*
X169351651Y-98715038D01*
X169360830Y-98695632D01*
X169371866Y-98677219D01*
X169384654Y-98659976D01*
X169399070Y-98644070D01*
X169414976Y-98629654D01*
X169432219Y-98616866D01*
X169450632Y-98605830D01*
X169470038Y-98596651D01*
X169490250Y-98589419D01*
X169511074Y-98584203D01*
X169532309Y-98581053D01*
X169553750Y-98580000D01*
X170066250Y-98580000D01*
X170087691Y-98581053D01*
X170087691Y-98581053D01*
G37*
D17*
G04 #@! TD*
G04 #@! TO.P,C212,1*
G04 #@! TO.N,Net-(C212-Pad1)*
X169810000Y-99017500D03*
D25*
G04 #@! TO.N,GND*
X151000000Y-100840000D03*
D26*
X170310000Y-90630000D03*
D25*
X137250000Y-71000000D03*
X143075000Y-70975000D03*
X140800000Y-60025000D03*
X131225000Y-61850000D03*
X142500000Y-64050000D03*
X146625000Y-61500000D03*
X146575000Y-72825000D03*
X151940000Y-58190000D03*
X133200000Y-72100000D03*
D26*
X166420000Y-102620000D03*
X166420000Y-103360000D03*
X166420000Y-104100000D03*
X162300000Y-98230000D03*
X161230000Y-98200000D03*
X161140000Y-99260000D03*
X163650000Y-99270000D03*
X163620000Y-98200000D03*
X163610000Y-97080000D03*
X164750000Y-97060000D03*
X164840000Y-98150000D03*
X164830000Y-99250000D03*
X166040000Y-99280000D03*
X165980000Y-98180000D03*
X165990000Y-96980000D03*
X167240000Y-97020000D03*
X167210000Y-98120000D03*
X167250000Y-99240000D03*
X168430000Y-97020000D03*
X168470000Y-98090000D03*
X168450000Y-99290000D03*
X172020000Y-92880000D03*
X172930000Y-92860000D03*
X176570000Y-96510000D03*
X175300000Y-96500000D03*
X172410000Y-99420000D03*
X169160000Y-93750000D03*
X169160000Y-92660000D03*
X169140000Y-91610000D03*
X169160000Y-90630000D03*
X170920000Y-94610000D03*
X172440000Y-94610000D03*
X173960000Y-94610000D03*
X173960000Y-96510000D03*
X172450000Y-96510000D03*
X170900000Y-96510000D03*
X170880000Y-98080000D03*
X160390000Y-116590000D03*
X162210000Y-116600000D03*
X161300000Y-116600000D03*
X161310000Y-115680000D03*
X162210000Y-115680000D03*
X160380000Y-115680000D03*
D25*
X132380000Y-97790000D03*
X133620000Y-96060000D03*
X132560000Y-99720000D03*
X127320000Y-99880000D03*
X134050000Y-101900000D03*
X153260000Y-100560000D03*
X149820000Y-99420000D03*
X153270000Y-98630000D03*
X148220000Y-100890000D03*
X149350000Y-102160000D03*
X150580000Y-103540000D03*
X149960000Y-105800000D03*
X148870000Y-105800000D03*
X148870000Y-103960000D03*
X143260000Y-105750000D03*
X143150000Y-103620000D03*
X145700000Y-105770000D03*
X145760000Y-103930000D03*
X145730000Y-101740000D03*
X144090000Y-101510000D03*
X143810000Y-99680000D03*
X143850000Y-98150000D03*
X141520000Y-98170000D03*
X141540000Y-99660000D03*
X141610000Y-101240000D03*
X137700000Y-105450000D03*
D26*
X166416464Y-104810000D03*
X175290000Y-99410000D03*
X176550000Y-98010000D03*
X176550000Y-99390000D03*
X173790000Y-90630000D03*
X173760000Y-91780000D03*
X172430000Y-98040000D03*
X173940000Y-98030000D03*
X173940000Y-99390000D03*
X175300000Y-98040000D03*
X175270000Y-94620000D03*
X176600000Y-94580000D03*
D25*
X135137510Y-59720000D03*
X171300000Y-52600000D03*
X153980000Y-56470000D03*
X144800000Y-58210000D03*
X120200000Y-65270000D03*
X140000000Y-64000000D03*
X140000000Y-66500000D03*
X142500000Y-66500000D03*
X137500000Y-66500000D03*
X135500000Y-66500000D03*
X135500000Y-64500000D03*
X137000000Y-65000000D03*
X135500000Y-63000000D03*
X145500000Y-67500000D03*
X146000000Y-69000000D03*
X135500000Y-70500000D03*
X148100000Y-71800000D03*
X158400000Y-73000000D03*
X160600000Y-75300000D03*
X162500000Y-77100000D03*
X164200000Y-77500000D03*
X166700000Y-77400000D03*
X168500000Y-79200000D03*
X170200000Y-80900000D03*
X166400000Y-81100000D03*
D26*
X161500000Y-79900000D03*
X160300000Y-78700000D03*
X159200000Y-77600000D03*
X158000000Y-76300000D03*
X156800000Y-75200000D03*
X154300000Y-73800000D03*
X152700000Y-73800000D03*
X150700000Y-73800000D03*
X149900000Y-72600000D03*
X151700000Y-72600000D03*
X153700000Y-72600000D03*
X155900000Y-72600000D03*
X157300000Y-74000000D03*
X158600000Y-75300000D03*
X160000000Y-76700000D03*
X161500000Y-78200000D03*
X162600000Y-79300000D03*
X152300000Y-74900000D03*
X150400000Y-75200000D03*
X140500000Y-77100000D03*
X142600000Y-77100000D03*
X144500000Y-77100000D03*
X146400000Y-77100000D03*
X137600000Y-77600000D03*
X138800000Y-78300000D03*
X140500000Y-78300000D03*
X142600000Y-78300000D03*
X144500000Y-78300000D03*
X146400000Y-78300000D03*
X148500000Y-78300000D03*
X154100000Y-74949990D03*
X138800000Y-79500000D03*
X140500000Y-79500000D03*
X142600000Y-79500000D03*
X144500000Y-79500000D03*
X146400000Y-79500000D03*
X148500000Y-79500000D03*
X149300000Y-76300000D03*
X140600000Y-75900000D03*
X142600000Y-75900000D03*
X144500000Y-75900000D03*
X146400000Y-75900000D03*
X148100000Y-75900000D03*
X146000000Y-74449990D03*
X155751084Y-74048916D03*
X147700000Y-74449990D03*
X148766084Y-73466084D03*
X144500000Y-74449988D03*
X157196084Y-77203916D03*
X149300000Y-74700000D03*
X158346084Y-78353916D03*
X148210236Y-77050010D03*
X155996084Y-76003916D03*
X149900000Y-71400000D03*
X151700000Y-71400000D03*
X153700000Y-71400000D03*
X155900000Y-71400000D03*
D25*
X166700000Y-79079990D03*
X164400000Y-79079990D03*
X164200000Y-80600000D03*
D26*
X149900000Y-77500000D03*
X151000000Y-76300000D03*
X154100000Y-76100000D03*
X155200000Y-76900000D03*
X156400000Y-78100000D03*
X157300000Y-79000000D03*
X158100000Y-80100000D03*
X157100000Y-80200000D03*
X155900000Y-79700000D03*
X155900000Y-81500000D03*
X154500000Y-80100000D03*
X154600000Y-81400000D03*
X153200000Y-80100000D03*
X151800000Y-80100000D03*
X150200000Y-79500000D03*
X153800000Y-88400000D03*
X154600000Y-86800000D03*
X157300000Y-88500000D03*
X155500000Y-88500000D03*
X158100000Y-86700000D03*
X158800000Y-88100000D03*
X157126416Y-86673584D03*
X155949990Y-86797534D03*
X160000000Y-86949990D03*
X160300000Y-88100000D03*
X162100000Y-88100000D03*
X163900000Y-88100000D03*
X165800000Y-88100000D03*
X167300000Y-86600000D03*
X165500000Y-86600000D03*
X168400000Y-87300000D03*
X171200000Y-87400000D03*
X159300000Y-86300000D03*
X163300000Y-86900000D03*
X161500000Y-86900000D03*
X159400000Y-83800000D03*
X161000000Y-83800000D03*
X161000000Y-81100000D03*
X159300000Y-81100000D03*
X159700000Y-79900000D03*
X138800000Y-75800000D03*
X138800000Y-77000000D03*
X137000000Y-76000000D03*
X135600000Y-76000000D03*
X135700000Y-77600000D03*
X136900000Y-78800000D03*
X135700000Y-79500000D03*
X134300000Y-79500000D03*
X134300000Y-77600000D03*
X134300000Y-76100000D03*
X125500000Y-58500000D03*
X128000000Y-58500000D03*
X130000000Y-58500000D03*
X125500000Y-59500000D03*
X128000000Y-59500000D03*
X131000000Y-57500000D03*
X125500000Y-52500000D03*
X125500000Y-54000000D03*
X125500000Y-57300000D03*
X125500000Y-55500000D03*
X127000000Y-55500000D03*
X127000000Y-52500000D03*
X131000000Y-52500000D03*
X133000000Y-52500000D03*
X135000000Y-53200000D03*
X132000000Y-54900000D03*
X130600000Y-55800000D03*
X129200000Y-57300000D03*
X127000000Y-57300000D03*
X134000000Y-56100000D03*
X136000000Y-56100000D03*
X138000000Y-56100000D03*
X140000000Y-56000000D03*
X141000000Y-55000000D03*
X147500000Y-52500000D03*
X147500000Y-54000000D03*
X147000000Y-55500000D03*
X145500000Y-55500000D03*
X144000000Y-55500000D03*
X142500000Y-55700000D03*
X141500000Y-56500000D03*
X140500000Y-57500000D03*
X139000000Y-59000000D03*
X139000000Y-57500000D03*
X137300000Y-57500000D03*
X135400000Y-57500000D03*
X133600000Y-57500000D03*
X132000000Y-58500000D03*
X130100000Y-60100000D03*
X131400000Y-60100000D03*
X133500000Y-59000000D03*
X134500000Y-54900000D03*
X143500000Y-52500000D03*
X146000000Y-52500000D03*
X141000000Y-52500000D03*
X127500000Y-65000000D03*
X128500000Y-66000000D03*
X129500000Y-67000000D03*
X129500000Y-68500000D03*
X129500000Y-70000000D03*
X129500000Y-71500000D03*
X129500000Y-73000000D03*
X129500000Y-74500000D03*
X128500000Y-76000000D03*
X128000000Y-79000000D03*
X129450000Y-80750000D03*
X127000000Y-80750000D03*
X128000000Y-74000000D03*
X128000000Y-72500000D03*
X128000000Y-71000000D03*
X128000000Y-69500000D03*
X128000000Y-68000000D03*
X127000000Y-66500000D03*
X126000000Y-65500000D03*
X125000000Y-64500000D03*
X124000000Y-63500000D03*
X125500000Y-80750000D03*
X124000000Y-80750000D03*
X124000000Y-79000000D03*
X125500000Y-79000000D03*
X125500000Y-77500000D03*
X124000000Y-77500000D03*
X124000000Y-76000000D03*
X125500000Y-76000000D03*
X125100000Y-74600000D03*
X126500000Y-73000000D03*
X126500000Y-71500000D03*
X126500000Y-70000000D03*
X126500000Y-68500000D03*
X125500000Y-67000000D03*
X124500000Y-66000000D03*
X123500000Y-65000000D03*
X122500000Y-64000000D03*
X120250000Y-72850000D03*
X124000000Y-73500000D03*
X120250000Y-76000000D03*
X120250000Y-77550000D03*
X120250000Y-79150000D03*
X120250000Y-80750000D03*
X120250000Y-74550000D03*
X122400000Y-65700000D03*
X135700000Y-80700000D03*
X137300000Y-80700000D03*
X138800000Y-80700000D03*
X140500000Y-80700000D03*
X142600000Y-80700000D03*
X144500000Y-80700000D03*
X146400000Y-80700000D03*
X148500000Y-80700000D03*
X150200000Y-80700000D03*
X126400000Y-74500000D03*
X134300000Y-80700000D03*
D25*
X154600000Y-70000000D03*
D26*
X138500000Y-91300000D03*
X137200000Y-91300000D03*
X135700000Y-92800000D03*
X138500000Y-92800000D03*
X138500000Y-94500000D03*
X138500000Y-96000000D03*
X135700000Y-96000000D03*
X135700000Y-94500000D03*
X135700000Y-97700000D03*
X135700000Y-99300000D03*
X135700000Y-101000000D03*
X135700000Y-102700000D03*
X135700000Y-104300000D03*
X135700000Y-106000000D03*
X137100000Y-104400000D03*
X136600000Y-101800000D03*
X136600000Y-100200000D03*
X136600000Y-98500000D03*
X137400000Y-97100000D03*
X140000000Y-91300000D03*
X141500000Y-91300000D03*
X143000000Y-91300000D03*
X144500000Y-91300000D03*
X146100000Y-91300000D03*
X147600000Y-91300000D03*
X149100000Y-91300000D03*
X150700000Y-91300000D03*
X152300000Y-91300000D03*
X153800000Y-91300000D03*
X155500000Y-91300000D03*
X156800000Y-90250000D03*
X154700000Y-90200000D03*
X153200000Y-90200000D03*
X135700000Y-90150000D03*
X135700000Y-89000000D03*
X137200000Y-89000000D03*
X138600000Y-88850000D03*
X140000000Y-88850000D03*
X141500000Y-88850000D03*
X143000000Y-88850000D03*
X144500000Y-88850000D03*
X146050000Y-88850000D03*
X147600000Y-88700000D03*
X148500000Y-87800000D03*
X149400000Y-86800000D03*
X152300000Y-86800000D03*
X151400000Y-87800000D03*
X150400000Y-88700000D03*
X149200000Y-89850000D03*
X137200000Y-90150000D03*
X138600000Y-90150000D03*
X140000000Y-90150000D03*
X141500000Y-90150000D03*
X143000000Y-90150000D03*
X144500000Y-90150000D03*
X146050000Y-90150000D03*
X147750000Y-90150000D03*
X158800000Y-90250000D03*
X160300000Y-90250000D03*
X162100000Y-90250000D03*
X163900000Y-90250000D03*
X165350000Y-89600000D03*
X163900000Y-89250000D03*
X162100000Y-89250000D03*
X160300000Y-89250000D03*
X158800000Y-89250000D03*
X134350000Y-89450000D03*
X133250000Y-90500000D03*
X132050000Y-91850000D03*
X134500000Y-90950000D03*
X133750000Y-91950000D03*
X133550000Y-93950000D03*
X135788916Y-91388916D03*
X122900000Y-80750000D03*
X122899990Y-79000000D03*
X122899990Y-77500000D03*
X122899990Y-76000000D03*
G04 #@! TO.N,+5V*
X160170000Y-126930000D03*
G04 #@! TO.N,/Ethernet/TPOUT+*
X157650000Y-61140003D03*
G04 #@! TO.N,/Ethernet/TPOUT-*
X157650000Y-60440000D03*
G04 #@! TO.N,/Ethernet/TPIN+*
X157433459Y-68599872D03*
G04 #@! TO.N,/Ethernet/TPIN-*
X157420000Y-67900000D03*
G04 #@! TO.N,Net-(C212-Pad2)*
X169440000Y-95520000D03*
G04 #@! TO.N,Net-(C212-Pad1)*
X170270000Y-100920000D03*
G04 #@! TO.N,/TXD*
X131850000Y-80100000D03*
G04 #@! TO.N,/REL2*
X129750000Y-118870000D03*
G04 #@! TO.N,/REL3*
X133790000Y-118510000D03*
G04 #@! TO.N,/REL6*
X141020000Y-117590000D03*
G04 #@! TO.N,/REL7*
X144130000Y-117590000D03*
G04 #@! TO.N,/REL1*
X123030000Y-118470000D03*
G04 #@! TO.N,/REL4*
X136460000Y-118410000D03*
G04 #@! TO.N,/REL5*
X137110000Y-117730000D03*
G04 #@! TO.N,/REL8*
X148390000Y-117610000D03*
G04 #@! TO.N,/ENC_#RESET*
X133300000Y-78600000D03*
G04 #@! TD*
D27*
G04 #@! TO.N,+3V3*
X139560000Y-52217919D02*
X139342081Y-52000000D01*
X139560000Y-53420000D02*
X139560000Y-52217919D01*
X139342081Y-52000000D02*
X135000000Y-52000000D01*
X135000000Y-52000000D02*
X133300000Y-53700000D01*
X133300000Y-53700000D02*
X133300000Y-55700000D01*
X132470000Y-56530000D02*
X123030000Y-56530000D01*
X133300000Y-55700000D02*
X132470000Y-56530000D01*
D28*
G04 #@! TO.N,+5V*
X122200000Y-82460000D02*
X124740000Y-82460000D01*
X126380000Y-126730000D02*
X126370000Y-126740000D01*
X126380000Y-124880000D02*
X126380000Y-126730000D01*
X160150000Y-126740000D02*
X126370000Y-126740000D01*
X120440000Y-84220000D02*
X122200000Y-82460000D01*
X120440000Y-119080000D02*
X120440000Y-84220000D01*
X121290000Y-119930000D02*
X120440000Y-119080000D01*
X121290000Y-125580000D02*
X121290000Y-119930000D01*
X122450000Y-126740000D02*
X121290000Y-125580000D01*
X126370000Y-126740000D02*
X122450000Y-126740000D01*
D29*
G04 #@! TO.N,/Ethernet/TPOUT+*
X157775001Y-61015001D02*
X159283199Y-61015001D01*
X157650000Y-61140002D02*
X157775001Y-61015001D01*
X159283199Y-61015001D02*
X160213200Y-60085000D01*
X157650000Y-61140003D02*
X157650000Y-61140002D01*
X160213200Y-60085000D02*
X170594618Y-60085000D01*
X171116608Y-60752393D02*
X171475000Y-61110784D01*
X170594618Y-60085000D02*
X171116608Y-60606990D01*
X171116608Y-60606990D02*
X171116608Y-60752393D01*
X171475000Y-61110784D02*
X171475000Y-62656800D01*
X170935000Y-62875000D02*
X169890000Y-61830000D01*
X171256800Y-62875000D02*
X170935000Y-62875000D01*
X171475000Y-62656800D02*
X171256800Y-62875000D01*
G04 #@! TO.N,/Ethernet/TPOUT-*
X159096799Y-60565001D02*
X160026800Y-59635000D01*
X157775001Y-60565001D02*
X159096799Y-60565001D01*
X157650000Y-60440000D02*
X157775001Y-60565001D01*
X160026800Y-59635000D02*
X170781018Y-59635000D01*
X171566599Y-60566001D02*
X171925000Y-60924402D01*
X171566599Y-60420581D02*
X171566599Y-60566001D01*
X170781018Y-59635000D02*
X171566599Y-60420581D01*
X171925000Y-60924402D02*
X171925000Y-62843200D01*
X171925000Y-62843200D02*
X171443200Y-63325000D01*
X170935000Y-63325000D02*
X169890000Y-64370000D01*
X171443200Y-63325000D02*
X170935000Y-63325000D01*
G04 #@! TO.N,/Ethernet/TPIN+*
X157551665Y-68481665D02*
X157593465Y-68481665D01*
X157433459Y-68599871D02*
X157551665Y-68481665D01*
X157433459Y-68599872D02*
X157433459Y-68599871D01*
X168863465Y-68481665D02*
X169656800Y-69275000D01*
X157551665Y-68481665D02*
X168863465Y-68481665D01*
X169656800Y-69275000D02*
X171593200Y-69275000D01*
X172700010Y-66274311D02*
X172065699Y-65640000D01*
X172700010Y-68168190D02*
X172700010Y-66274311D01*
X171593200Y-69275000D02*
X172700010Y-68168190D01*
X170340000Y-65640000D02*
X167350000Y-65640000D01*
X172065699Y-65640000D02*
X170340000Y-65640000D01*
X170710000Y-65640000D02*
X170340000Y-65640000D01*
G04 #@! TO.N,/Ethernet/TPIN-*
X169049865Y-68031665D02*
X169843200Y-68825000D01*
X157420000Y-67900000D02*
X157551665Y-68031665D01*
X157551665Y-68031665D02*
X169049865Y-68031665D01*
X169843200Y-68825000D02*
X171445000Y-68825000D01*
X171445000Y-68825000D02*
X172300000Y-67970000D01*
X172300000Y-67970000D02*
X172300000Y-66440000D01*
X172300000Y-66440000D02*
X171910000Y-66050000D01*
X171910000Y-66050000D02*
X171770000Y-66050000D01*
X171770000Y-66050000D02*
X171540000Y-66280000D01*
X171540000Y-66280000D02*
X171540000Y-67840000D01*
X171540000Y-67840000D02*
X171300000Y-68080000D01*
X171060000Y-68080000D02*
X169890000Y-66910000D01*
X171300000Y-68080000D02*
X171060000Y-68080000D01*
G04 #@! TO.N,Net-(C212-Pad2)*
X169810000Y-95890000D02*
X169810000Y-97442500D01*
X169440000Y-95520000D02*
X169810000Y-95890000D01*
G04 #@! TO.N,Net-(C212-Pad1)*
X169810000Y-100460000D02*
X170270000Y-100920000D01*
X169810000Y-99017500D02*
X169810000Y-100460000D01*
G04 #@! TO.N,/TXD*
X131850000Y-80430000D02*
X131850000Y-80100000D01*
X129820000Y-82460000D02*
X131850000Y-80430000D01*
G04 #@! TO.N,/REL2*
X128992500Y-118870000D02*
X127742500Y-117620000D01*
X129750000Y-118870000D02*
X128992500Y-118870000D01*
G04 #@! TO.N,/REL3*
X133800000Y-118400000D02*
X133800000Y-118410000D01*
X133090000Y-117690000D02*
X133800000Y-118400000D01*
X131452500Y-117690000D02*
X133090000Y-117690000D01*
G04 #@! TO.N,/REL6*
X141080000Y-117650000D02*
X141020000Y-117590000D01*
X142432500Y-117650000D02*
X141080000Y-117650000D01*
G04 #@! TO.N,/REL7*
X146147500Y-117590000D02*
X146200000Y-117642500D01*
X144130000Y-117590000D02*
X146147500Y-117590000D01*
G04 #@! TO.N,/REL1*
X124050000Y-117602500D02*
X123030000Y-118622500D01*
G04 #@! TO.N,/REL4*
X135827500Y-118410000D02*
X135050000Y-117632500D01*
X136460000Y-118410000D02*
X135827500Y-118410000D01*
G04 #@! TO.N,/REL5*
X137070000Y-117650000D02*
X138712500Y-117650000D01*
X137020000Y-117600000D02*
X137070000Y-117650000D01*
G04 #@! TO.N,/REL8*
X148367500Y-117612500D02*
X148330000Y-117650000D01*
X149930000Y-117612500D02*
X148367500Y-117612500D01*
G04 #@! TO.N,Net-(Q401-Pad1)*
X124050000Y-120700000D02*
X124080000Y-120730000D01*
X124050000Y-119177500D02*
X124050000Y-120700000D01*
G04 #@! TO.N,Net-(J401-Pad3)*
X128070001Y-124030001D02*
X128920000Y-124880000D01*
X127769999Y-123729999D02*
X128070001Y-124030001D01*
X125979999Y-123729999D02*
X127769999Y-123729999D01*
X125030000Y-122780000D02*
X125979999Y-123729999D01*
X125030000Y-122730000D02*
X125030000Y-122780000D01*
G04 #@! TO.N,Net-(Q408-Pad1)*
X127760000Y-119207500D02*
X127740000Y-119187500D01*
X127760000Y-120730000D02*
X127760000Y-119207500D01*
G04 #@! TO.N,Net-(J401-Pad4)*
X129310000Y-122730000D02*
X131460000Y-124880000D01*
X128710000Y-122730000D02*
X129310000Y-122730000D01*
G04 #@! TO.N,Net-(Q407-Pad1)*
X131460000Y-120750000D02*
X131450000Y-120760000D01*
X131460000Y-119257500D02*
X131460000Y-120750000D01*
G04 #@! TO.N,Net-(J401-Pad5)*
X132400000Y-122760000D02*
X132400000Y-123050000D01*
X133150001Y-124030001D02*
X134000000Y-124880000D01*
X132400000Y-123280000D02*
X133150001Y-124030001D01*
X132400000Y-122760000D02*
X132400000Y-123280000D01*
G04 #@! TO.N,Net-(Q406-Pad1)*
X135050000Y-120720000D02*
X135100000Y-120770000D01*
X135050000Y-119207500D02*
X135050000Y-120720000D01*
G04 #@! TO.N,Net-(Q405-Pad1)*
X146200000Y-120770000D02*
X146190000Y-120780000D01*
X146200000Y-119217500D02*
X146200000Y-120770000D01*
G04 #@! TO.N,Net-(J401-Pad6)*
X136050000Y-124390000D02*
X136540000Y-124880000D01*
X136050000Y-122770000D02*
X136050000Y-124390000D01*
G04 #@! TO.N,Net-(J401-Pad9)*
X146260000Y-122780000D02*
X144160000Y-124880000D01*
X147140000Y-122780000D02*
X146260000Y-122780000D01*
G04 #@! TO.N,Net-(Q404-Pad1)*
X138720000Y-120700000D02*
X138780000Y-120760000D01*
X138720000Y-119197500D02*
X138720000Y-120700000D01*
G04 #@! TO.N,Net-(J401-Pad7)*
X139730000Y-124230000D02*
X139080000Y-124880000D01*
X139730000Y-122760000D02*
X139730000Y-124230000D01*
G04 #@! TO.N,Net-(Q403-Pad1)*
X142420000Y-120700000D02*
X142480000Y-120760000D01*
X142420000Y-119197500D02*
X142420000Y-120700000D01*
G04 #@! TO.N,Net-(Q402-Pad1)*
X149930000Y-120750000D02*
X149900000Y-120780000D01*
X149930000Y-119187500D02*
X149930000Y-120750000D01*
G04 #@! TO.N,Net-(J401-Pad8)*
X142469999Y-124030001D02*
X141620000Y-124880000D01*
X143430000Y-123070000D02*
X142469999Y-124030001D01*
X143430000Y-122760000D02*
X143430000Y-123070000D01*
G04 #@! TO.N,Net-(J401-Pad10)*
X148800000Y-122780000D02*
X146700000Y-124880000D01*
X150850000Y-122780000D02*
X148800000Y-122780000D01*
G04 #@! TO.N,/ENC_#RESET*
X134900000Y-85000000D02*
X133600000Y-83700000D01*
X133600000Y-83700000D02*
X133600000Y-79100000D01*
X133600000Y-78900000D02*
X133300000Y-78600000D01*
X133600000Y-79100000D02*
X133600000Y-78900000D01*
G04 #@! TD*
G04 #@! TO.N,GND*
G36*
X132949400Y-53272784D02*
X132903472Y-53303472D01*
X132781911Y-53485402D01*
X132762450Y-53583241D01*
X132739225Y-53700000D01*
X132750000Y-53754169D01*
X132750001Y-55472182D01*
X132242184Y-55980000D01*
X124045594Y-55980000D01*
X123859103Y-55700897D01*
X123478707Y-55446724D01*
X123143261Y-55380000D01*
X122916739Y-55380000D01*
X122581293Y-55446724D01*
X122200897Y-55700897D01*
X121946724Y-56081293D01*
X121857471Y-56530000D01*
X121946724Y-56978707D01*
X122200897Y-57359103D01*
X122581293Y-57613276D01*
X122916739Y-57680000D01*
X123143261Y-57680000D01*
X123478707Y-57613276D01*
X123859103Y-57359103D01*
X124045594Y-57080000D01*
X132415831Y-57080000D01*
X132470000Y-57090775D01*
X132524169Y-57080000D01*
X132524170Y-57080000D01*
X132684599Y-57048089D01*
X132866528Y-56926528D01*
X132897216Y-56880600D01*
X133650602Y-56127214D01*
X133696528Y-56096528D01*
X133818089Y-55914599D01*
X133850000Y-55754170D01*
X133860775Y-55700001D01*
X133850000Y-55645832D01*
X133850000Y-53927816D01*
X135227817Y-52550000D01*
X138792104Y-52550000D01*
X138730897Y-52590897D01*
X138476724Y-52971293D01*
X138387471Y-53420000D01*
X138476724Y-53868707D01*
X138730897Y-54249103D01*
X139111293Y-54503276D01*
X139446739Y-54570000D01*
X139673261Y-54570000D01*
X140008707Y-54503276D01*
X140389103Y-54249103D01*
X140643276Y-53868707D01*
X140732529Y-53420000D01*
X140927471Y-53420000D01*
X141016724Y-53868707D01*
X141270897Y-54249103D01*
X141651293Y-54503276D01*
X141986739Y-54570000D01*
X142213261Y-54570000D01*
X142548707Y-54503276D01*
X142929103Y-54249103D01*
X143183276Y-53868707D01*
X143272529Y-53420000D01*
X143467471Y-53420000D01*
X143556724Y-53868707D01*
X143810897Y-54249103D01*
X144191293Y-54503276D01*
X144526739Y-54570000D01*
X144753261Y-54570000D01*
X145088707Y-54503276D01*
X145469103Y-54249103D01*
X145723276Y-53868707D01*
X145768465Y-53641523D01*
X151180000Y-53641523D01*
X151180000Y-54198477D01*
X151393137Y-54713037D01*
X151786963Y-55106863D01*
X152301523Y-55320000D01*
X152858477Y-55320000D01*
X153373037Y-55106863D01*
X153766863Y-54713037D01*
X153980000Y-54198477D01*
X153980000Y-53641523D01*
X153766863Y-53126963D01*
X153373037Y-52733137D01*
X152858477Y-52520000D01*
X152301523Y-52520000D01*
X151786963Y-52733137D01*
X151393137Y-53126963D01*
X151180000Y-53641523D01*
X145768465Y-53641523D01*
X145812529Y-53420000D01*
X145723276Y-52971293D01*
X145469103Y-52590897D01*
X145088707Y-52336724D01*
X144753261Y-52270000D01*
X144526739Y-52270000D01*
X144191293Y-52336724D01*
X143810897Y-52590897D01*
X143556724Y-52971293D01*
X143467471Y-53420000D01*
X143272529Y-53420000D01*
X143183276Y-52971293D01*
X142929103Y-52590897D01*
X142548707Y-52336724D01*
X142213261Y-52270000D01*
X141986739Y-52270000D01*
X141651293Y-52336724D01*
X141270897Y-52590897D01*
X141016724Y-52971293D01*
X140927471Y-53420000D01*
X140732529Y-53420000D01*
X140643276Y-52971293D01*
X140389103Y-52590897D01*
X140110000Y-52404406D01*
X140110000Y-52272087D01*
X140120775Y-52217918D01*
X140089655Y-52061469D01*
X140078089Y-52003320D01*
X139975644Y-51850000D01*
X175979668Y-51850000D01*
X176609084Y-51923382D01*
X177185500Y-52132611D01*
X177698320Y-52468831D01*
X178120038Y-52914005D01*
X178428036Y-53444263D01*
X178607175Y-54035732D01*
X178650000Y-54515583D01*
X178650001Y-124979659D01*
X178576618Y-125609084D01*
X178367389Y-126185500D01*
X178031169Y-126698320D01*
X177585993Y-127120039D01*
X177055737Y-127428036D01*
X176464268Y-127607175D01*
X175984417Y-127650000D01*
X116520333Y-127650000D01*
X115890916Y-127576618D01*
X115314500Y-127367389D01*
X114801680Y-127031169D01*
X114379961Y-126585993D01*
X114071964Y-126055737D01*
X113892825Y-125464268D01*
X113850000Y-124984417D01*
X113850000Y-106371795D01*
X115650000Y-106371795D01*
X115650000Y-107028205D01*
X115901198Y-107634650D01*
X116365350Y-108098802D01*
X116971795Y-108350000D01*
X117628205Y-108350000D01*
X118234650Y-108098802D01*
X118698802Y-107634650D01*
X118950000Y-107028205D01*
X118950000Y-106371795D01*
X118698802Y-105765350D01*
X118234650Y-105301198D01*
X117628205Y-105050000D01*
X116971795Y-105050000D01*
X116365350Y-105301198D01*
X115901198Y-105765350D01*
X115650000Y-106371795D01*
X113850000Y-106371795D01*
X113850000Y-83371795D01*
X115650000Y-83371795D01*
X115650000Y-84028205D01*
X115901198Y-84634650D01*
X116365350Y-85098802D01*
X116971795Y-85350000D01*
X117628205Y-85350000D01*
X118234650Y-85098802D01*
X118698802Y-84634650D01*
X118870555Y-84220000D01*
X119624329Y-84220000D01*
X119640001Y-84298789D01*
X119640000Y-119001216D01*
X119624329Y-119080000D01*
X119640000Y-119158784D01*
X119640000Y-119158788D01*
X119686417Y-119392143D01*
X119863233Y-119656767D01*
X119930028Y-119701398D01*
X120490001Y-120261371D01*
X120490000Y-125501216D01*
X120474329Y-125580000D01*
X120490000Y-125658784D01*
X120490000Y-125658788D01*
X120536417Y-125892143D01*
X120713233Y-126156767D01*
X120780028Y-126201398D01*
X121828602Y-127249972D01*
X121873233Y-127316767D01*
X122137856Y-127493583D01*
X122371211Y-127540000D01*
X122371216Y-127540000D01*
X122450000Y-127555671D01*
X122528784Y-127540000D01*
X126291216Y-127540000D01*
X126370000Y-127555671D01*
X126448784Y-127540000D01*
X160228789Y-127540000D01*
X160462144Y-127493583D01*
X160726767Y-127316767D01*
X160903583Y-127052144D01*
X160965672Y-126740000D01*
X160903583Y-126427856D01*
X160726767Y-126163233D01*
X160462144Y-125986417D01*
X160228789Y-125940000D01*
X157413853Y-125940000D01*
X157462593Y-125867054D01*
X157485877Y-125750000D01*
X157485877Y-124050000D01*
X157462593Y-123932946D01*
X157396288Y-123833712D01*
X157297054Y-123767407D01*
X157180000Y-123744123D01*
X155480000Y-123744123D01*
X155362946Y-123767407D01*
X155263712Y-123833712D01*
X155197407Y-123932946D01*
X155174123Y-124050000D01*
X155174123Y-125750000D01*
X155197407Y-125867054D01*
X155246147Y-125940000D01*
X154303474Y-125940000D01*
X154619103Y-125729103D01*
X154873276Y-125348707D01*
X154962529Y-124900000D01*
X154873276Y-124451293D01*
X154619103Y-124070897D01*
X154238707Y-123816724D01*
X153903261Y-123750000D01*
X153676739Y-123750000D01*
X153341293Y-123816724D01*
X152960897Y-124070897D01*
X152706724Y-124451293D01*
X152617471Y-124900000D01*
X152706724Y-125348707D01*
X152960897Y-125729103D01*
X153276526Y-125940000D01*
X147183542Y-125940000D01*
X147529103Y-125709103D01*
X147783276Y-125328707D01*
X147872529Y-124880000D01*
X147783276Y-124431293D01*
X147755685Y-124390000D01*
X148965686Y-123180000D01*
X150144123Y-123180000D01*
X150144123Y-123230000D01*
X150167407Y-123347054D01*
X150233712Y-123446288D01*
X150332946Y-123512593D01*
X150450000Y-123535877D01*
X151250000Y-123535877D01*
X151367054Y-123512593D01*
X151466288Y-123446288D01*
X151532593Y-123347054D01*
X151555877Y-123230000D01*
X151555877Y-122728024D01*
X166750000Y-122728024D01*
X166750000Y-124511977D01*
X166827749Y-124902842D01*
X167123915Y-125346086D01*
X167567159Y-125642252D01*
X168090000Y-125746252D01*
X168612842Y-125642252D01*
X169056086Y-125346086D01*
X169352252Y-124902842D01*
X169430000Y-124511977D01*
X169430000Y-122728023D01*
X169352252Y-122337158D01*
X169056085Y-121893914D01*
X168612841Y-121597748D01*
X168090000Y-121493748D01*
X167567158Y-121597748D01*
X167123914Y-121893915D01*
X166827748Y-122337159D01*
X166750000Y-122728024D01*
X151555877Y-122728024D01*
X151555877Y-122330000D01*
X151532593Y-122212946D01*
X151466288Y-122113712D01*
X151367054Y-122047407D01*
X151250000Y-122024123D01*
X150450000Y-122024123D01*
X150332946Y-122047407D01*
X150233712Y-122113712D01*
X150167407Y-122212946D01*
X150144123Y-122330000D01*
X150144123Y-122380000D01*
X148839392Y-122380000D01*
X148799999Y-122372164D01*
X148760606Y-122380000D01*
X148643928Y-122403209D01*
X148511616Y-122491616D01*
X148489301Y-122525013D01*
X147845877Y-123168438D01*
X147845877Y-122330000D01*
X147822593Y-122212946D01*
X147756288Y-122113712D01*
X147657054Y-122047407D01*
X147540000Y-122024123D01*
X146740000Y-122024123D01*
X146622946Y-122047407D01*
X146523712Y-122113712D01*
X146457407Y-122212946D01*
X146434123Y-122330000D01*
X146434123Y-122380000D01*
X146299392Y-122380000D01*
X146259999Y-122372164D01*
X146220606Y-122380000D01*
X146103928Y-122403209D01*
X145971616Y-122491616D01*
X145949301Y-122525013D01*
X144650000Y-123824315D01*
X144608707Y-123796724D01*
X144273261Y-123730000D01*
X144046739Y-123730000D01*
X143711293Y-123796724D01*
X143330897Y-124050897D01*
X143076724Y-124431293D01*
X142987471Y-124880000D01*
X143076724Y-125328707D01*
X143330897Y-125709103D01*
X143676458Y-125940000D01*
X142103542Y-125940000D01*
X142449103Y-125709103D01*
X142703276Y-125328707D01*
X142792529Y-124880000D01*
X142703276Y-124431293D01*
X142675685Y-124390001D01*
X142780697Y-124284989D01*
X142780701Y-124284983D01*
X143549809Y-123515877D01*
X143830000Y-123515877D01*
X143947054Y-123492593D01*
X144046288Y-123426288D01*
X144112593Y-123327054D01*
X144135877Y-123210000D01*
X144135877Y-122310000D01*
X144112593Y-122192946D01*
X144046288Y-122093712D01*
X143947054Y-122027407D01*
X143830000Y-122004123D01*
X143030000Y-122004123D01*
X142912946Y-122027407D01*
X142813712Y-122093712D01*
X142747407Y-122192946D01*
X142724123Y-122310000D01*
X142724123Y-123210000D01*
X142724155Y-123210160D01*
X142215017Y-123719299D01*
X142215011Y-123719303D01*
X142109999Y-123824315D01*
X142068707Y-123796724D01*
X141733261Y-123730000D01*
X141506739Y-123730000D01*
X141171293Y-123796724D01*
X140790897Y-124050897D01*
X140536724Y-124431293D01*
X140447471Y-124880000D01*
X140536724Y-125328707D01*
X140790897Y-125709103D01*
X141136458Y-125940000D01*
X139563542Y-125940000D01*
X139909103Y-125709103D01*
X140163276Y-125328707D01*
X140252529Y-124880000D01*
X140163276Y-124431293D01*
X140112817Y-124355776D01*
X140130000Y-124269394D01*
X140137836Y-124230000D01*
X140130000Y-124190606D01*
X140130000Y-123515877D01*
X140247054Y-123492593D01*
X140346288Y-123426288D01*
X140412593Y-123327054D01*
X140435877Y-123210000D01*
X140435877Y-122310000D01*
X140412593Y-122192946D01*
X140346288Y-122093712D01*
X140247054Y-122027407D01*
X140130000Y-122004123D01*
X139330000Y-122004123D01*
X139212946Y-122027407D01*
X139113712Y-122093712D01*
X139047407Y-122192946D01*
X139024123Y-122310000D01*
X139024123Y-123210000D01*
X139047407Y-123327054D01*
X139113712Y-123426288D01*
X139212946Y-123492593D01*
X139330000Y-123515877D01*
X139330001Y-123515877D01*
X139330001Y-123757199D01*
X139193261Y-123730000D01*
X138966739Y-123730000D01*
X138631293Y-123796724D01*
X138250897Y-124050897D01*
X137996724Y-124431293D01*
X137907471Y-124880000D01*
X137996724Y-125328707D01*
X138250897Y-125709103D01*
X138596458Y-125940000D01*
X137023542Y-125940000D01*
X137369103Y-125709103D01*
X137623276Y-125328707D01*
X137712529Y-124880000D01*
X137623276Y-124431293D01*
X137369103Y-124050897D01*
X136988707Y-123796724D01*
X136653261Y-123730000D01*
X136450000Y-123730000D01*
X136450000Y-123525877D01*
X136567054Y-123502593D01*
X136666288Y-123436288D01*
X136732593Y-123337054D01*
X136755877Y-123220000D01*
X136755877Y-122320000D01*
X136732593Y-122202946D01*
X136666288Y-122103712D01*
X136567054Y-122037407D01*
X136450000Y-122014123D01*
X135650000Y-122014123D01*
X135532946Y-122037407D01*
X135433712Y-122103712D01*
X135367407Y-122202946D01*
X135344123Y-122320000D01*
X135344123Y-123220000D01*
X135367407Y-123337054D01*
X135433712Y-123436288D01*
X135532946Y-123502593D01*
X135650000Y-123525877D01*
X135650001Y-124142034D01*
X135456724Y-124431293D01*
X135367471Y-124880000D01*
X135456724Y-125328707D01*
X135710897Y-125709103D01*
X136056458Y-125940000D01*
X134483542Y-125940000D01*
X134829103Y-125709103D01*
X135083276Y-125328707D01*
X135172529Y-124880000D01*
X135083276Y-124431293D01*
X134829103Y-124050897D01*
X134448707Y-123796724D01*
X134113261Y-123730000D01*
X133886739Y-123730000D01*
X133551293Y-123796724D01*
X133510000Y-123824315D01*
X133460701Y-123775017D01*
X133460699Y-123775014D01*
X133054613Y-123368929D01*
X133082593Y-123327054D01*
X133105877Y-123210000D01*
X133105877Y-122310000D01*
X133082593Y-122192946D01*
X133016288Y-122093712D01*
X132917054Y-122027407D01*
X132800000Y-122004123D01*
X132000000Y-122004123D01*
X131882946Y-122027407D01*
X131783712Y-122093712D01*
X131717407Y-122192946D01*
X131694123Y-122310000D01*
X131694123Y-123210000D01*
X131717407Y-123327054D01*
X131783712Y-123426288D01*
X131882946Y-123492593D01*
X132000000Y-123515877D01*
X132076533Y-123515877D01*
X132111617Y-123568384D01*
X132145016Y-123590701D01*
X132895014Y-124340699D01*
X132895017Y-124340701D01*
X132944315Y-124390000D01*
X132916724Y-124431293D01*
X132827471Y-124880000D01*
X132916724Y-125328707D01*
X133170897Y-125709103D01*
X133516458Y-125940000D01*
X131943542Y-125940000D01*
X132289103Y-125709103D01*
X132543276Y-125328707D01*
X132632529Y-124880000D01*
X132543276Y-124431293D01*
X132289103Y-124050897D01*
X131908707Y-123796724D01*
X131573261Y-123730000D01*
X131346739Y-123730000D01*
X131011293Y-123796724D01*
X130970000Y-123824315D01*
X129620703Y-122475019D01*
X129598384Y-122441616D01*
X129466072Y-122353209D01*
X129415877Y-122343224D01*
X129415877Y-122280000D01*
X129392593Y-122162946D01*
X129326288Y-122063712D01*
X129227054Y-121997407D01*
X129110000Y-121974123D01*
X128310000Y-121974123D01*
X128192946Y-121997407D01*
X128093712Y-122063712D01*
X128027407Y-122162946D01*
X128004123Y-122280000D01*
X128004123Y-123180000D01*
X128027407Y-123297054D01*
X128093712Y-123396288D01*
X128192946Y-123462593D01*
X128310000Y-123485877D01*
X129110000Y-123485877D01*
X129227054Y-123462593D01*
X129326288Y-123396288D01*
X129360060Y-123345744D01*
X130404315Y-124390000D01*
X130376724Y-124431293D01*
X130287471Y-124880000D01*
X130376724Y-125328707D01*
X130630897Y-125709103D01*
X130976458Y-125940000D01*
X129403542Y-125940000D01*
X129749103Y-125709103D01*
X130003276Y-125328707D01*
X130092529Y-124880000D01*
X130003276Y-124431293D01*
X129749103Y-124050897D01*
X129368707Y-123796724D01*
X129033261Y-123730000D01*
X128806739Y-123730000D01*
X128471293Y-123796724D01*
X128430000Y-123824315D01*
X128380701Y-123775017D01*
X128380699Y-123775014D01*
X128080701Y-123475017D01*
X128058383Y-123441615D01*
X127926071Y-123353208D01*
X127809393Y-123329999D01*
X127769999Y-123322163D01*
X127730605Y-123329999D01*
X126145685Y-123329999D01*
X125735877Y-122920192D01*
X125735877Y-122280000D01*
X125712593Y-122162946D01*
X125646288Y-122063712D01*
X125547054Y-121997407D01*
X125430000Y-121974123D01*
X124630000Y-121974123D01*
X124512946Y-121997407D01*
X124413712Y-122063712D01*
X124347407Y-122162946D01*
X124324123Y-122280000D01*
X124324123Y-123180000D01*
X124347407Y-123297054D01*
X124413712Y-123396288D01*
X124512946Y-123462593D01*
X124630000Y-123485877D01*
X125170192Y-123485877D01*
X125661385Y-123977071D01*
X125550897Y-124050897D01*
X125296724Y-124431293D01*
X125207471Y-124880000D01*
X125296724Y-125328707D01*
X125550897Y-125709103D01*
X125580000Y-125728549D01*
X125580001Y-125940000D01*
X122781370Y-125940000D01*
X122090000Y-125248630D01*
X122090000Y-120008789D01*
X122105672Y-119930000D01*
X122043583Y-119617855D01*
X121962083Y-119495883D01*
X121866767Y-119353233D01*
X121799972Y-119308602D01*
X121240000Y-118748630D01*
X121240000Y-118360598D01*
X122480000Y-118360598D01*
X122480000Y-118579402D01*
X122563733Y-118781550D01*
X122718450Y-118936267D01*
X122920598Y-119020000D01*
X122978038Y-119020000D01*
X123030000Y-119030336D01*
X123081962Y-119020000D01*
X123139402Y-119020000D01*
X123269123Y-118966267D01*
X123269123Y-119396250D01*
X123309058Y-119597016D01*
X123422783Y-119767217D01*
X123592984Y-119880942D01*
X123650000Y-119892283D01*
X123650001Y-119980090D01*
X123562946Y-119997407D01*
X123463712Y-120063712D01*
X123397407Y-120162946D01*
X123374123Y-120280000D01*
X123374123Y-121180000D01*
X123397407Y-121297054D01*
X123463712Y-121396288D01*
X123562946Y-121462593D01*
X123680000Y-121485877D01*
X124480000Y-121485877D01*
X124597054Y-121462593D01*
X124696288Y-121396288D01*
X124762593Y-121297054D01*
X124785877Y-121180000D01*
X124785877Y-120280000D01*
X124762593Y-120162946D01*
X124696288Y-120063712D01*
X124597054Y-119997407D01*
X124480000Y-119974123D01*
X124450000Y-119974123D01*
X124450000Y-119892283D01*
X124507016Y-119880942D01*
X124677217Y-119767217D01*
X124790942Y-119597016D01*
X124830877Y-119396250D01*
X124830877Y-118958750D01*
X124790942Y-118757984D01*
X124677217Y-118587783D01*
X124507016Y-118474058D01*
X124306250Y-118434123D01*
X123793750Y-118434123D01*
X123781656Y-118436529D01*
X123872308Y-118345877D01*
X124306250Y-118345877D01*
X124507016Y-118305942D01*
X124677217Y-118192217D01*
X124790942Y-118022016D01*
X124830877Y-117821250D01*
X124830877Y-117393750D01*
X126959123Y-117393750D01*
X126959123Y-117831250D01*
X126999058Y-118032016D01*
X127112783Y-118202217D01*
X127282984Y-118315942D01*
X127483750Y-118355877D01*
X127912693Y-118355877D01*
X128002103Y-118445287D01*
X127996250Y-118444123D01*
X127483750Y-118444123D01*
X127282984Y-118484058D01*
X127112783Y-118597783D01*
X126999058Y-118767984D01*
X126959123Y-118968750D01*
X126959123Y-119406250D01*
X126999058Y-119607016D01*
X127112783Y-119777217D01*
X127282984Y-119890942D01*
X127360001Y-119906262D01*
X127360000Y-119974123D01*
X127242946Y-119997407D01*
X127143712Y-120063712D01*
X127077407Y-120162946D01*
X127054123Y-120280000D01*
X127054123Y-121180000D01*
X127077407Y-121297054D01*
X127143712Y-121396288D01*
X127242946Y-121462593D01*
X127360000Y-121485877D01*
X128160000Y-121485877D01*
X128277054Y-121462593D01*
X128376288Y-121396288D01*
X128442593Y-121297054D01*
X128465877Y-121180000D01*
X128465877Y-120280000D01*
X128442593Y-120162946D01*
X128376288Y-120063712D01*
X128277054Y-119997407D01*
X128160000Y-119974123D01*
X128160000Y-119898305D01*
X128197016Y-119890942D01*
X128367217Y-119777217D01*
X128480942Y-119607016D01*
X128520877Y-119406250D01*
X128520877Y-118968750D01*
X128519713Y-118962898D01*
X128681799Y-119124984D01*
X128704116Y-119158384D01*
X128793499Y-119218107D01*
X128836428Y-119246791D01*
X128992500Y-119277836D01*
X129031894Y-119270000D01*
X129372183Y-119270000D01*
X129438450Y-119336267D01*
X129640598Y-119420000D01*
X129859402Y-119420000D01*
X130061550Y-119336267D01*
X130216267Y-119181550D01*
X130275417Y-119038750D01*
X130679123Y-119038750D01*
X130679123Y-119476250D01*
X130719058Y-119677016D01*
X130832783Y-119847217D01*
X131002984Y-119960942D01*
X131060000Y-119972283D01*
X131060001Y-120004123D01*
X131050000Y-120004123D01*
X130932946Y-120027407D01*
X130833712Y-120093712D01*
X130767407Y-120192946D01*
X130744123Y-120310000D01*
X130744123Y-121210000D01*
X130767407Y-121327054D01*
X130833712Y-121426288D01*
X130932946Y-121492593D01*
X131050000Y-121515877D01*
X131850000Y-121515877D01*
X131967054Y-121492593D01*
X132066288Y-121426288D01*
X132132593Y-121327054D01*
X132155877Y-121210000D01*
X132155877Y-120310000D01*
X132132593Y-120192946D01*
X132066288Y-120093712D01*
X131967054Y-120027407D01*
X131860000Y-120006112D01*
X131860000Y-119972283D01*
X131917016Y-119960942D01*
X132087217Y-119847217D01*
X132200942Y-119677016D01*
X132240877Y-119476250D01*
X132240877Y-119038750D01*
X132200942Y-118837984D01*
X132087217Y-118667783D01*
X131917016Y-118554058D01*
X131716250Y-118514123D01*
X131203750Y-118514123D01*
X131002984Y-118554058D01*
X130832783Y-118667783D01*
X130719058Y-118837984D01*
X130679123Y-119038750D01*
X130275417Y-119038750D01*
X130300000Y-118979402D01*
X130300000Y-118760598D01*
X130216267Y-118558450D01*
X130061550Y-118403733D01*
X129859402Y-118320000D01*
X129640598Y-118320000D01*
X129438450Y-118403733D01*
X129372183Y-118470000D01*
X129158185Y-118470000D01*
X128520638Y-117832453D01*
X128520877Y-117831250D01*
X128520877Y-117463750D01*
X130679123Y-117463750D01*
X130679123Y-117901250D01*
X130719058Y-118102016D01*
X130832783Y-118272217D01*
X131002984Y-118385942D01*
X131203750Y-118425877D01*
X131716250Y-118425877D01*
X131917016Y-118385942D01*
X132087217Y-118272217D01*
X132200942Y-118102016D01*
X132203332Y-118090000D01*
X132924316Y-118090000D01*
X133240000Y-118405685D01*
X133240000Y-118619402D01*
X133323733Y-118821550D01*
X133478450Y-118976267D01*
X133680598Y-119060000D01*
X133899402Y-119060000D01*
X134101550Y-118976267D01*
X134256267Y-118821550D01*
X134340000Y-118619402D01*
X134340000Y-118400598D01*
X134256267Y-118198450D01*
X134101550Y-118043733D01*
X133944270Y-117978585D01*
X133400703Y-117435018D01*
X133386492Y-117413750D01*
X134269123Y-117413750D01*
X134269123Y-117851250D01*
X134309058Y-118052016D01*
X134422783Y-118222217D01*
X134592984Y-118335942D01*
X134793750Y-118375877D01*
X135227692Y-118375877D01*
X135318344Y-118466529D01*
X135306250Y-118464123D01*
X134793750Y-118464123D01*
X134592984Y-118504058D01*
X134422783Y-118617783D01*
X134309058Y-118787984D01*
X134269123Y-118988750D01*
X134269123Y-119426250D01*
X134309058Y-119627016D01*
X134422783Y-119797217D01*
X134592984Y-119910942D01*
X134650000Y-119922283D01*
X134650001Y-120024069D01*
X134582946Y-120037407D01*
X134483712Y-120103712D01*
X134417407Y-120202946D01*
X134394123Y-120320000D01*
X134394123Y-121220000D01*
X134417407Y-121337054D01*
X134483712Y-121436288D01*
X134582946Y-121502593D01*
X134700000Y-121525877D01*
X135500000Y-121525877D01*
X135617054Y-121502593D01*
X135716288Y-121436288D01*
X135782593Y-121337054D01*
X135805877Y-121220000D01*
X135805877Y-120320000D01*
X135782593Y-120202946D01*
X135716288Y-120103712D01*
X135617054Y-120037407D01*
X135500000Y-120014123D01*
X135450000Y-120014123D01*
X135450000Y-119922283D01*
X135507016Y-119910942D01*
X135677217Y-119797217D01*
X135790942Y-119627016D01*
X135830877Y-119426250D01*
X135830877Y-118988750D01*
X135828888Y-118978750D01*
X137939123Y-118978750D01*
X137939123Y-119416250D01*
X137979058Y-119617016D01*
X138092783Y-119787217D01*
X138262984Y-119900942D01*
X138320000Y-119912283D01*
X138320001Y-120016058D01*
X138262946Y-120027407D01*
X138163712Y-120093712D01*
X138097407Y-120192946D01*
X138074123Y-120310000D01*
X138074123Y-121210000D01*
X138097407Y-121327054D01*
X138163712Y-121426288D01*
X138262946Y-121492593D01*
X138380000Y-121515877D01*
X139180000Y-121515877D01*
X139297054Y-121492593D01*
X139396288Y-121426288D01*
X139462593Y-121327054D01*
X139485877Y-121210000D01*
X139485877Y-120310000D01*
X139462593Y-120192946D01*
X139396288Y-120093712D01*
X139297054Y-120027407D01*
X139180000Y-120004123D01*
X139120000Y-120004123D01*
X139120000Y-119912283D01*
X139177016Y-119900942D01*
X139347217Y-119787217D01*
X139460942Y-119617016D01*
X139500877Y-119416250D01*
X139500877Y-118978750D01*
X141639123Y-118978750D01*
X141639123Y-119416250D01*
X141679058Y-119617016D01*
X141792783Y-119787217D01*
X141962984Y-119900942D01*
X142020000Y-119912283D01*
X142020001Y-120016058D01*
X141962946Y-120027407D01*
X141863712Y-120093712D01*
X141797407Y-120192946D01*
X141774123Y-120310000D01*
X141774123Y-121210000D01*
X141797407Y-121327054D01*
X141863712Y-121426288D01*
X141962946Y-121492593D01*
X142080000Y-121515877D01*
X142880000Y-121515877D01*
X142997054Y-121492593D01*
X143096288Y-121426288D01*
X143162593Y-121327054D01*
X143185877Y-121210000D01*
X143185877Y-120310000D01*
X143162593Y-120192946D01*
X143096288Y-120093712D01*
X142997054Y-120027407D01*
X142880000Y-120004123D01*
X142820000Y-120004123D01*
X142820000Y-119912283D01*
X142877016Y-119900942D01*
X143047217Y-119787217D01*
X143160942Y-119617016D01*
X143200877Y-119416250D01*
X143200877Y-118998750D01*
X145419123Y-118998750D01*
X145419123Y-119436250D01*
X145459058Y-119637016D01*
X145572783Y-119807217D01*
X145742984Y-119920942D01*
X145800000Y-119932283D01*
X145800001Y-120024123D01*
X145790000Y-120024123D01*
X145672946Y-120047407D01*
X145573712Y-120113712D01*
X145507407Y-120212946D01*
X145484123Y-120330000D01*
X145484123Y-121230000D01*
X145507407Y-121347054D01*
X145573712Y-121446288D01*
X145672946Y-121512593D01*
X145790000Y-121535877D01*
X146590000Y-121535877D01*
X146707054Y-121512593D01*
X146806288Y-121446288D01*
X146872593Y-121347054D01*
X146895877Y-121230000D01*
X146895877Y-120330000D01*
X146872593Y-120212946D01*
X146806288Y-120113712D01*
X146707054Y-120047407D01*
X146600000Y-120026112D01*
X146600000Y-119932283D01*
X146657016Y-119920942D01*
X146827217Y-119807217D01*
X146940942Y-119637016D01*
X146980877Y-119436250D01*
X146980877Y-118998750D01*
X146974910Y-118968750D01*
X149149123Y-118968750D01*
X149149123Y-119406250D01*
X149189058Y-119607016D01*
X149302783Y-119777217D01*
X149472984Y-119890942D01*
X149530000Y-119902283D01*
X149530001Y-120024123D01*
X149500000Y-120024123D01*
X149382946Y-120047407D01*
X149283712Y-120113712D01*
X149217407Y-120212946D01*
X149194123Y-120330000D01*
X149194123Y-121230000D01*
X149217407Y-121347054D01*
X149283712Y-121446288D01*
X149382946Y-121512593D01*
X149500000Y-121535877D01*
X150300000Y-121535877D01*
X150417054Y-121512593D01*
X150516288Y-121446288D01*
X150582593Y-121347054D01*
X150605877Y-121230000D01*
X150605877Y-120330000D01*
X150582593Y-120212946D01*
X150516288Y-120113712D01*
X150417054Y-120047407D01*
X150330000Y-120030091D01*
X150330000Y-119902283D01*
X150387016Y-119890942D01*
X150557217Y-119777217D01*
X150670942Y-119607016D01*
X150710877Y-119406250D01*
X150710877Y-118968750D01*
X150670942Y-118767984D01*
X150557217Y-118597783D01*
X150387016Y-118484058D01*
X150186250Y-118444123D01*
X149673750Y-118444123D01*
X149472984Y-118484058D01*
X149302783Y-118597783D01*
X149189058Y-118767984D01*
X149149123Y-118968750D01*
X146974910Y-118968750D01*
X146940942Y-118797984D01*
X146827217Y-118627783D01*
X146657016Y-118514058D01*
X146456250Y-118474123D01*
X145943750Y-118474123D01*
X145742984Y-118514058D01*
X145572783Y-118627783D01*
X145459058Y-118797984D01*
X145419123Y-118998750D01*
X143200877Y-118998750D01*
X143200877Y-118978750D01*
X143160942Y-118777984D01*
X143047217Y-118607783D01*
X142877016Y-118494058D01*
X142676250Y-118454123D01*
X142163750Y-118454123D01*
X141962984Y-118494058D01*
X141792783Y-118607783D01*
X141679058Y-118777984D01*
X141639123Y-118978750D01*
X139500877Y-118978750D01*
X139460942Y-118777984D01*
X139347217Y-118607783D01*
X139177016Y-118494058D01*
X138976250Y-118454123D01*
X138463750Y-118454123D01*
X138262984Y-118494058D01*
X138092783Y-118607783D01*
X137979058Y-118777984D01*
X137939123Y-118978750D01*
X135828888Y-118978750D01*
X135795619Y-118811494D01*
X135827499Y-118817836D01*
X135866893Y-118810000D01*
X136082183Y-118810000D01*
X136148450Y-118876267D01*
X136350598Y-118960000D01*
X136569402Y-118960000D01*
X136771550Y-118876267D01*
X136926267Y-118721550D01*
X137010000Y-118519402D01*
X137010000Y-118300598D01*
X137001468Y-118280000D01*
X137219402Y-118280000D01*
X137421550Y-118196267D01*
X137567817Y-118050000D01*
X137984393Y-118050000D01*
X138092783Y-118212217D01*
X138262984Y-118325942D01*
X138463750Y-118365877D01*
X138976250Y-118365877D01*
X139177016Y-118325942D01*
X139347217Y-118212217D01*
X139460942Y-118042016D01*
X139500877Y-117841250D01*
X139500877Y-117480598D01*
X140470000Y-117480598D01*
X140470000Y-117699402D01*
X140553733Y-117901550D01*
X140708450Y-118056267D01*
X140910598Y-118140000D01*
X141129402Y-118140000D01*
X141331550Y-118056267D01*
X141337817Y-118050000D01*
X141684393Y-118050000D01*
X141792783Y-118212217D01*
X141962984Y-118325942D01*
X142163750Y-118365877D01*
X142676250Y-118365877D01*
X142877016Y-118325942D01*
X143047217Y-118212217D01*
X143160942Y-118042016D01*
X143200877Y-117841250D01*
X143200877Y-117480598D01*
X143580000Y-117480598D01*
X143580000Y-117699402D01*
X143663733Y-117901550D01*
X143818450Y-118056267D01*
X144020598Y-118140000D01*
X144239402Y-118140000D01*
X144441550Y-118056267D01*
X144507817Y-117990000D01*
X145444733Y-117990000D01*
X145459058Y-118062016D01*
X145572783Y-118232217D01*
X145742984Y-118345942D01*
X145943750Y-118385877D01*
X146456250Y-118385877D01*
X146657016Y-118345942D01*
X146827217Y-118232217D01*
X146940942Y-118062016D01*
X146980877Y-117861250D01*
X146980877Y-117500598D01*
X147840000Y-117500598D01*
X147840000Y-117719402D01*
X147923733Y-117921550D01*
X148078450Y-118076267D01*
X148280598Y-118160000D01*
X148499402Y-118160000D01*
X148701550Y-118076267D01*
X148765317Y-118012500D01*
X149185176Y-118012500D01*
X149189058Y-118032016D01*
X149302783Y-118202217D01*
X149472984Y-118315942D01*
X149673750Y-118355877D01*
X150186250Y-118355877D01*
X150387016Y-118315942D01*
X150557217Y-118202217D01*
X150670942Y-118032016D01*
X150710877Y-117831250D01*
X150710877Y-117393750D01*
X150670942Y-117192984D01*
X150557217Y-117022783D01*
X150387016Y-116909058D01*
X150186250Y-116869123D01*
X149673750Y-116869123D01*
X149472984Y-116909058D01*
X149302783Y-117022783D01*
X149189058Y-117192984D01*
X149185176Y-117212500D01*
X148770317Y-117212500D01*
X148701550Y-117143733D01*
X148499402Y-117060000D01*
X148280598Y-117060000D01*
X148078450Y-117143733D01*
X147923733Y-117298450D01*
X147840000Y-117500598D01*
X146980877Y-117500598D01*
X146980877Y-117423750D01*
X146940942Y-117222984D01*
X146827217Y-117052783D01*
X146657016Y-116939058D01*
X146456250Y-116899123D01*
X145943750Y-116899123D01*
X145742984Y-116939058D01*
X145572783Y-117052783D01*
X145481097Y-117190000D01*
X144507817Y-117190000D01*
X144441550Y-117123733D01*
X144239402Y-117040000D01*
X144020598Y-117040000D01*
X143818450Y-117123733D01*
X143663733Y-117278450D01*
X143580000Y-117480598D01*
X143200877Y-117480598D01*
X143200877Y-117403750D01*
X143160942Y-117202984D01*
X143047217Y-117032783D01*
X142877016Y-116919058D01*
X142676250Y-116879123D01*
X142163750Y-116879123D01*
X141962984Y-116919058D01*
X141792783Y-117032783D01*
X141679058Y-117202984D01*
X141669706Y-117250000D01*
X141457817Y-117250000D01*
X141331550Y-117123733D01*
X141129402Y-117040000D01*
X140910598Y-117040000D01*
X140708450Y-117123733D01*
X140553733Y-117278450D01*
X140470000Y-117480598D01*
X139500877Y-117480598D01*
X139500877Y-117403750D01*
X139460942Y-117202984D01*
X139347217Y-117032783D01*
X139177016Y-116919058D01*
X138976250Y-116879123D01*
X138463750Y-116879123D01*
X138262984Y-116919058D01*
X138092783Y-117032783D01*
X137979058Y-117202984D01*
X137969706Y-117250000D01*
X137388396Y-117250000D01*
X137219402Y-117180000D01*
X137000598Y-117180000D01*
X136926175Y-117210827D01*
X136863929Y-117223209D01*
X136811159Y-117258469D01*
X136798450Y-117263733D01*
X136788723Y-117273460D01*
X136731617Y-117311617D01*
X136693460Y-117368723D01*
X136643733Y-117418450D01*
X136560000Y-117620598D01*
X136560000Y-117839402D01*
X136568532Y-117860000D01*
X136350598Y-117860000D01*
X136148450Y-117943733D01*
X136082183Y-118010000D01*
X135993185Y-118010000D01*
X135830877Y-117847692D01*
X135830877Y-117413750D01*
X135790942Y-117212984D01*
X135677217Y-117042783D01*
X135507016Y-116929058D01*
X135306250Y-116889123D01*
X134793750Y-116889123D01*
X134592984Y-116929058D01*
X134422783Y-117042783D01*
X134309058Y-117212984D01*
X134269123Y-117413750D01*
X133386492Y-117413750D01*
X133378384Y-117401616D01*
X133246072Y-117313209D01*
X133129394Y-117290000D01*
X133090000Y-117282164D01*
X133050606Y-117290000D01*
X132206316Y-117290000D01*
X132200942Y-117262984D01*
X132087217Y-117092783D01*
X131917016Y-116979058D01*
X131716250Y-116939123D01*
X131203750Y-116939123D01*
X131002984Y-116979058D01*
X130832783Y-117092783D01*
X130719058Y-117262984D01*
X130679123Y-117463750D01*
X128520877Y-117463750D01*
X128520877Y-117393750D01*
X128480942Y-117192984D01*
X128367217Y-117022783D01*
X128197016Y-116909058D01*
X127996250Y-116869123D01*
X127483750Y-116869123D01*
X127282984Y-116909058D01*
X127112783Y-117022783D01*
X126999058Y-117192984D01*
X126959123Y-117393750D01*
X124830877Y-117393750D01*
X124830877Y-117383750D01*
X124790942Y-117182984D01*
X124677217Y-117012783D01*
X124507016Y-116899058D01*
X124306250Y-116859123D01*
X123793750Y-116859123D01*
X123592984Y-116899058D01*
X123422783Y-117012783D01*
X123309058Y-117182984D01*
X123269123Y-117383750D01*
X123269123Y-117817692D01*
X123158786Y-117928029D01*
X123139402Y-117920000D01*
X122920598Y-117920000D01*
X122718450Y-118003733D01*
X122563733Y-118158450D01*
X122480000Y-118360598D01*
X121240000Y-118360598D01*
X121240000Y-106371795D01*
X173650000Y-106371795D01*
X173650000Y-107028205D01*
X173901198Y-107634650D01*
X174365350Y-108098802D01*
X174971795Y-108350000D01*
X175628205Y-108350000D01*
X176234650Y-108098802D01*
X176698802Y-107634650D01*
X176950000Y-107028205D01*
X176950000Y-106371795D01*
X176698802Y-105765350D01*
X176234650Y-105301198D01*
X175628205Y-105050000D01*
X174971795Y-105050000D01*
X174365350Y-105301198D01*
X173901198Y-105765350D01*
X173650000Y-106371795D01*
X121240000Y-106371795D01*
X121240000Y-98798750D01*
X169029123Y-98798750D01*
X169029123Y-99236250D01*
X169069058Y-99437016D01*
X169182783Y-99607217D01*
X169352984Y-99720942D01*
X169410000Y-99732283D01*
X169410001Y-100420602D01*
X169402164Y-100460000D01*
X169433209Y-100616071D01*
X169433210Y-100616072D01*
X169521617Y-100748384D01*
X169555016Y-100770700D01*
X169720000Y-100935685D01*
X169720000Y-101029402D01*
X169803733Y-101231550D01*
X169958450Y-101386267D01*
X170160598Y-101470000D01*
X170379402Y-101470000D01*
X170581550Y-101386267D01*
X170736267Y-101231550D01*
X170820000Y-101029402D01*
X170820000Y-100810598D01*
X170736267Y-100608450D01*
X170581550Y-100453733D01*
X170379402Y-100370000D01*
X170285685Y-100370000D01*
X170210000Y-100294315D01*
X170210000Y-99732283D01*
X170267016Y-99720942D01*
X170437217Y-99607217D01*
X170550942Y-99437016D01*
X170590877Y-99236250D01*
X170590877Y-98798750D01*
X170550942Y-98597984D01*
X170437217Y-98427783D01*
X170267016Y-98314058D01*
X170066250Y-98274123D01*
X169553750Y-98274123D01*
X169352984Y-98314058D01*
X169182783Y-98427783D01*
X169069058Y-98597984D01*
X169029123Y-98798750D01*
X121240000Y-98798750D01*
X121240000Y-95410598D01*
X168890000Y-95410598D01*
X168890000Y-95629402D01*
X168973733Y-95831550D01*
X169128450Y-95986267D01*
X169330598Y-96070000D01*
X169410000Y-96070000D01*
X169410001Y-96727717D01*
X169352984Y-96739058D01*
X169182783Y-96852783D01*
X169069058Y-97022984D01*
X169029123Y-97223750D01*
X169029123Y-97661250D01*
X169069058Y-97862016D01*
X169182783Y-98032217D01*
X169352984Y-98145942D01*
X169553750Y-98185877D01*
X170066250Y-98185877D01*
X170267016Y-98145942D01*
X170437217Y-98032217D01*
X170550942Y-97862016D01*
X170590877Y-97661250D01*
X170590877Y-97223750D01*
X170550942Y-97022984D01*
X170437217Y-96852783D01*
X170267016Y-96739058D01*
X170210000Y-96727717D01*
X170210000Y-95929393D01*
X170217836Y-95889999D01*
X170186791Y-95733928D01*
X170098384Y-95601616D01*
X170064984Y-95579300D01*
X169990000Y-95504315D01*
X169990000Y-95410598D01*
X169906267Y-95208450D01*
X169751550Y-95053733D01*
X169549402Y-94970000D01*
X169330598Y-94970000D01*
X169128450Y-95053733D01*
X168973733Y-95208450D01*
X168890000Y-95410598D01*
X121240000Y-95410598D01*
X121240000Y-85409409D01*
X121281437Y-85617725D01*
X121401936Y-85798064D01*
X121582275Y-85918563D01*
X121795000Y-85960877D01*
X122605000Y-85960877D01*
X122817725Y-85918563D01*
X122998064Y-85798064D01*
X123118563Y-85617725D01*
X123160877Y-85405000D01*
X123160877Y-84810039D01*
X123785000Y-84810039D01*
X123785000Y-85189961D01*
X123930390Y-85540964D01*
X124199036Y-85809610D01*
X124550039Y-85955000D01*
X124929961Y-85955000D01*
X125280964Y-85809610D01*
X125549610Y-85540964D01*
X125695000Y-85189961D01*
X125695000Y-84810039D01*
X126325000Y-84810039D01*
X126325000Y-85189961D01*
X126470390Y-85540964D01*
X126739036Y-85809610D01*
X127090039Y-85955000D01*
X127469961Y-85955000D01*
X127820964Y-85809610D01*
X128089610Y-85540964D01*
X128235000Y-85189961D01*
X128235000Y-84810039D01*
X128865000Y-84810039D01*
X128865000Y-85189961D01*
X129010390Y-85540964D01*
X129279036Y-85809610D01*
X129630039Y-85955000D01*
X130009961Y-85955000D01*
X130360964Y-85809610D01*
X130629610Y-85540964D01*
X130775000Y-85189961D01*
X130775000Y-84810039D01*
X130629610Y-84459036D01*
X130360964Y-84190390D01*
X130009961Y-84045000D01*
X129630039Y-84045000D01*
X129279036Y-84190390D01*
X129010390Y-84459036D01*
X128865000Y-84810039D01*
X128235000Y-84810039D01*
X128089610Y-84459036D01*
X127820964Y-84190390D01*
X127469961Y-84045000D01*
X127090039Y-84045000D01*
X126739036Y-84190390D01*
X126470390Y-84459036D01*
X126325000Y-84810039D01*
X125695000Y-84810039D01*
X125549610Y-84459036D01*
X125280964Y-84190390D01*
X124929961Y-84045000D01*
X124550039Y-84045000D01*
X124199036Y-84190390D01*
X123930390Y-84459036D01*
X123785000Y-84810039D01*
X123160877Y-84810039D01*
X123160877Y-84595000D01*
X123118563Y-84382275D01*
X122998064Y-84201936D01*
X122817725Y-84081437D01*
X122605000Y-84039123D01*
X121795000Y-84039123D01*
X121741632Y-84049739D01*
X122376371Y-83415000D01*
X122389961Y-83415000D01*
X122740964Y-83269610D01*
X122750574Y-83260000D01*
X124189426Y-83260000D01*
X124199036Y-83269610D01*
X124550039Y-83415000D01*
X124929961Y-83415000D01*
X125280964Y-83269610D01*
X125549610Y-83000964D01*
X125695000Y-82649961D01*
X125695000Y-82270039D01*
X128865000Y-82270039D01*
X128865000Y-82649961D01*
X129010390Y-83000964D01*
X129279036Y-83269610D01*
X129630039Y-83415000D01*
X130009961Y-83415000D01*
X130360964Y-83269610D01*
X130629610Y-83000964D01*
X130775000Y-82649961D01*
X130775000Y-82270039D01*
X131405000Y-82270039D01*
X131405000Y-82649961D01*
X131550390Y-83000964D01*
X131819036Y-83269610D01*
X132170039Y-83415000D01*
X132549961Y-83415000D01*
X132900964Y-83269610D01*
X133169610Y-83000964D01*
X133200000Y-82927596D01*
X133200000Y-83660606D01*
X133192164Y-83700000D01*
X133200000Y-83739393D01*
X133223209Y-83856071D01*
X133311616Y-83988384D01*
X133345019Y-84010703D01*
X134003390Y-84669074D01*
X133945000Y-84810039D01*
X133945000Y-85189961D01*
X134090390Y-85540964D01*
X134359036Y-85809610D01*
X134710039Y-85955000D01*
X135089961Y-85955000D01*
X135440964Y-85809610D01*
X135709610Y-85540964D01*
X135855000Y-85189961D01*
X135855000Y-84810039D01*
X136485000Y-84810039D01*
X136485000Y-85189961D01*
X136630390Y-85540964D01*
X136899036Y-85809610D01*
X137250039Y-85955000D01*
X137629961Y-85955000D01*
X137980964Y-85809610D01*
X138249610Y-85540964D01*
X138395000Y-85189961D01*
X138395000Y-84810039D01*
X139025000Y-84810039D01*
X139025000Y-85189961D01*
X139170390Y-85540964D01*
X139439036Y-85809610D01*
X139790039Y-85955000D01*
X140169961Y-85955000D01*
X140520964Y-85809610D01*
X140789610Y-85540964D01*
X140935000Y-85189961D01*
X140935000Y-84810039D01*
X141565000Y-84810039D01*
X141565000Y-85189961D01*
X141710390Y-85540964D01*
X141979036Y-85809610D01*
X142330039Y-85955000D01*
X142709961Y-85955000D01*
X143060964Y-85809610D01*
X143329610Y-85540964D01*
X143475000Y-85189961D01*
X143475000Y-84810039D01*
X144105000Y-84810039D01*
X144105000Y-85189961D01*
X144250390Y-85540964D01*
X144519036Y-85809610D01*
X144870039Y-85955000D01*
X145249961Y-85955000D01*
X145600964Y-85809610D01*
X145869610Y-85540964D01*
X146015000Y-85189961D01*
X146015000Y-84810039D01*
X146645000Y-84810039D01*
X146645000Y-85189961D01*
X146790390Y-85540964D01*
X147059036Y-85809610D01*
X147410039Y-85955000D01*
X147789961Y-85955000D01*
X148140964Y-85809610D01*
X148409610Y-85540964D01*
X148555000Y-85189961D01*
X148555000Y-84810039D01*
X149185000Y-84810039D01*
X149185000Y-85189961D01*
X149330390Y-85540964D01*
X149599036Y-85809610D01*
X149950039Y-85955000D01*
X150329961Y-85955000D01*
X150680964Y-85809610D01*
X150949610Y-85540964D01*
X151095000Y-85189961D01*
X151095000Y-84810039D01*
X154265000Y-84810039D01*
X154265000Y-85189961D01*
X154410390Y-85540964D01*
X154679036Y-85809610D01*
X155030039Y-85955000D01*
X155409961Y-85955000D01*
X155760964Y-85809610D01*
X156029610Y-85540964D01*
X156175000Y-85189961D01*
X156175000Y-84810039D01*
X156805000Y-84810039D01*
X156805000Y-85189961D01*
X156950390Y-85540964D01*
X157219036Y-85809610D01*
X157570039Y-85955000D01*
X157949961Y-85955000D01*
X158300964Y-85809610D01*
X158569610Y-85540964D01*
X158715000Y-85189961D01*
X158715000Y-84810039D01*
X159345000Y-84810039D01*
X159345000Y-85189961D01*
X159490390Y-85540964D01*
X159759036Y-85809610D01*
X160110039Y-85955000D01*
X160489961Y-85955000D01*
X160840964Y-85809610D01*
X161109610Y-85540964D01*
X161255000Y-85189961D01*
X161255000Y-84810039D01*
X161885000Y-84810039D01*
X161885000Y-85189961D01*
X162030390Y-85540964D01*
X162299036Y-85809610D01*
X162650039Y-85955000D01*
X163029961Y-85955000D01*
X163380964Y-85809610D01*
X163649610Y-85540964D01*
X163795000Y-85189961D01*
X163795000Y-84810039D01*
X164425000Y-84810039D01*
X164425000Y-85189961D01*
X164570390Y-85540964D01*
X164839036Y-85809610D01*
X165190039Y-85955000D01*
X165569961Y-85955000D01*
X165920964Y-85809610D01*
X166189610Y-85540964D01*
X166335000Y-85189961D01*
X166335000Y-84810039D01*
X166965000Y-84810039D01*
X166965000Y-85189961D01*
X167110390Y-85540964D01*
X167379036Y-85809610D01*
X167730039Y-85955000D01*
X168109961Y-85955000D01*
X168460964Y-85809610D01*
X168729610Y-85540964D01*
X168875000Y-85189961D01*
X168875000Y-84810039D01*
X168729610Y-84459036D01*
X168460964Y-84190390D01*
X168109961Y-84045000D01*
X167730039Y-84045000D01*
X167379036Y-84190390D01*
X167110390Y-84459036D01*
X166965000Y-84810039D01*
X166335000Y-84810039D01*
X166189610Y-84459036D01*
X165920964Y-84190390D01*
X165569961Y-84045000D01*
X165190039Y-84045000D01*
X164839036Y-84190390D01*
X164570390Y-84459036D01*
X164425000Y-84810039D01*
X163795000Y-84810039D01*
X163649610Y-84459036D01*
X163380964Y-84190390D01*
X163029961Y-84045000D01*
X162650039Y-84045000D01*
X162299036Y-84190390D01*
X162030390Y-84459036D01*
X161885000Y-84810039D01*
X161255000Y-84810039D01*
X161109610Y-84459036D01*
X160840964Y-84190390D01*
X160489961Y-84045000D01*
X160110039Y-84045000D01*
X159759036Y-84190390D01*
X159490390Y-84459036D01*
X159345000Y-84810039D01*
X158715000Y-84810039D01*
X158569610Y-84459036D01*
X158300964Y-84190390D01*
X157949961Y-84045000D01*
X157570039Y-84045000D01*
X157219036Y-84190390D01*
X156950390Y-84459036D01*
X156805000Y-84810039D01*
X156175000Y-84810039D01*
X156029610Y-84459036D01*
X155760964Y-84190390D01*
X155409961Y-84045000D01*
X155030039Y-84045000D01*
X154679036Y-84190390D01*
X154410390Y-84459036D01*
X154265000Y-84810039D01*
X151095000Y-84810039D01*
X150949610Y-84459036D01*
X150680964Y-84190390D01*
X150329961Y-84045000D01*
X149950039Y-84045000D01*
X149599036Y-84190390D01*
X149330390Y-84459036D01*
X149185000Y-84810039D01*
X148555000Y-84810039D01*
X148409610Y-84459036D01*
X148140964Y-84190390D01*
X147789961Y-84045000D01*
X147410039Y-84045000D01*
X147059036Y-84190390D01*
X146790390Y-84459036D01*
X146645000Y-84810039D01*
X146015000Y-84810039D01*
X145869610Y-84459036D01*
X145600964Y-84190390D01*
X145249961Y-84045000D01*
X144870039Y-84045000D01*
X144519036Y-84190390D01*
X144250390Y-84459036D01*
X144105000Y-84810039D01*
X143475000Y-84810039D01*
X143329610Y-84459036D01*
X143060964Y-84190390D01*
X142709961Y-84045000D01*
X142330039Y-84045000D01*
X141979036Y-84190390D01*
X141710390Y-84459036D01*
X141565000Y-84810039D01*
X140935000Y-84810039D01*
X140789610Y-84459036D01*
X140520964Y-84190390D01*
X140169961Y-84045000D01*
X139790039Y-84045000D01*
X139439036Y-84190390D01*
X139170390Y-84459036D01*
X139025000Y-84810039D01*
X138395000Y-84810039D01*
X138249610Y-84459036D01*
X137980964Y-84190390D01*
X137629961Y-84045000D01*
X137250039Y-84045000D01*
X136899036Y-84190390D01*
X136630390Y-84459036D01*
X136485000Y-84810039D01*
X135855000Y-84810039D01*
X135709610Y-84459036D01*
X135440964Y-84190390D01*
X135089961Y-84045000D01*
X134710039Y-84045000D01*
X134569074Y-84103390D01*
X134000000Y-83534316D01*
X134000000Y-82782743D01*
X134090390Y-83000964D01*
X134359036Y-83269610D01*
X134710039Y-83415000D01*
X135089961Y-83415000D01*
X135440964Y-83269610D01*
X135709610Y-83000964D01*
X135855000Y-82649961D01*
X135855000Y-82270039D01*
X139025000Y-82270039D01*
X139025000Y-82649961D01*
X139170390Y-83000964D01*
X139439036Y-83269610D01*
X139790039Y-83415000D01*
X140169961Y-83415000D01*
X140520964Y-83269610D01*
X140789610Y-83000964D01*
X140935000Y-82649961D01*
X140935000Y-82270039D01*
X141565000Y-82270039D01*
X141565000Y-82649961D01*
X141710390Y-83000964D01*
X141979036Y-83269610D01*
X142330039Y-83415000D01*
X142709961Y-83415000D01*
X143060964Y-83269610D01*
X143329610Y-83000964D01*
X143475000Y-82649961D01*
X143475000Y-82270039D01*
X146645000Y-82270039D01*
X146645000Y-82649961D01*
X146790390Y-83000964D01*
X147059036Y-83269610D01*
X147410039Y-83415000D01*
X147789961Y-83415000D01*
X148140964Y-83269610D01*
X148409610Y-83000964D01*
X148555000Y-82649961D01*
X148555000Y-82270039D01*
X149185000Y-82270039D01*
X149185000Y-82649961D01*
X149330390Y-83000964D01*
X149599036Y-83269610D01*
X149950039Y-83415000D01*
X150329961Y-83415000D01*
X150680964Y-83269610D01*
X150949610Y-83000964D01*
X151095000Y-82649961D01*
X151095000Y-82270039D01*
X151725000Y-82270039D01*
X151725000Y-82649961D01*
X151870390Y-83000964D01*
X152139036Y-83269610D01*
X152490039Y-83415000D01*
X152869961Y-83415000D01*
X153220964Y-83269610D01*
X153489610Y-83000964D01*
X153635000Y-82649961D01*
X153635000Y-82270039D01*
X154265000Y-82270039D01*
X154265000Y-82649961D01*
X154410390Y-83000964D01*
X154679036Y-83269610D01*
X155030039Y-83415000D01*
X155409961Y-83415000D01*
X155760964Y-83269610D01*
X156029610Y-83000964D01*
X156175000Y-82649961D01*
X156175000Y-82270039D01*
X159345000Y-82270039D01*
X159345000Y-82649961D01*
X159490390Y-83000964D01*
X159759036Y-83269610D01*
X160110039Y-83415000D01*
X160489961Y-83415000D01*
X160840964Y-83269610D01*
X161109610Y-83000964D01*
X161255000Y-82649961D01*
X161255000Y-82270039D01*
X164425000Y-82270039D01*
X164425000Y-82649961D01*
X164570390Y-83000964D01*
X164839036Y-83269610D01*
X165190039Y-83415000D01*
X165569961Y-83415000D01*
X165920964Y-83269610D01*
X166189610Y-83000964D01*
X166335000Y-82649961D01*
X166335000Y-82270039D01*
X166965000Y-82270039D01*
X166965000Y-82649961D01*
X167110390Y-83000964D01*
X167379036Y-83269610D01*
X167730039Y-83415000D01*
X168109961Y-83415000D01*
X168460964Y-83269610D01*
X168729610Y-83000964D01*
X168875000Y-82649961D01*
X168875000Y-82270039D01*
X169505000Y-82270039D01*
X169505000Y-82649961D01*
X169650390Y-83000964D01*
X169919036Y-83269610D01*
X170270039Y-83415000D01*
X170649961Y-83415000D01*
X170754267Y-83371795D01*
X173650000Y-83371795D01*
X173650000Y-84028205D01*
X173901198Y-84634650D01*
X174365350Y-85098802D01*
X174971795Y-85350000D01*
X175628205Y-85350000D01*
X176234650Y-85098802D01*
X176698802Y-84634650D01*
X176950000Y-84028205D01*
X176950000Y-83371795D01*
X176698802Y-82765350D01*
X176234650Y-82301198D01*
X175628205Y-82050000D01*
X174971795Y-82050000D01*
X174365350Y-82301198D01*
X173901198Y-82765350D01*
X173650000Y-83371795D01*
X170754267Y-83371795D01*
X171000964Y-83269610D01*
X171269610Y-83000964D01*
X171415000Y-82649961D01*
X171415000Y-82270039D01*
X171269610Y-81919036D01*
X171000964Y-81650390D01*
X170649961Y-81505000D01*
X170270039Y-81505000D01*
X169919036Y-81650390D01*
X169650390Y-81919036D01*
X169505000Y-82270039D01*
X168875000Y-82270039D01*
X168729610Y-81919036D01*
X168460964Y-81650390D01*
X168109961Y-81505000D01*
X167730039Y-81505000D01*
X167379036Y-81650390D01*
X167110390Y-81919036D01*
X166965000Y-82270039D01*
X166335000Y-82270039D01*
X166189610Y-81919036D01*
X165920964Y-81650390D01*
X165569961Y-81505000D01*
X165190039Y-81505000D01*
X164839036Y-81650390D01*
X164570390Y-81919036D01*
X164425000Y-82270039D01*
X161255000Y-82270039D01*
X161109610Y-81919036D01*
X160840964Y-81650390D01*
X160489961Y-81505000D01*
X160110039Y-81505000D01*
X159759036Y-81650390D01*
X159490390Y-81919036D01*
X159345000Y-82270039D01*
X156175000Y-82270039D01*
X156029610Y-81919036D01*
X155760964Y-81650390D01*
X155409961Y-81505000D01*
X155030039Y-81505000D01*
X154679036Y-81650390D01*
X154410390Y-81919036D01*
X154265000Y-82270039D01*
X153635000Y-82270039D01*
X153489610Y-81919036D01*
X153220964Y-81650390D01*
X152869961Y-81505000D01*
X152490039Y-81505000D01*
X152139036Y-81650390D01*
X151870390Y-81919036D01*
X151725000Y-82270039D01*
X151095000Y-82270039D01*
X150949610Y-81919036D01*
X150680964Y-81650390D01*
X150329961Y-81505000D01*
X149950039Y-81505000D01*
X149599036Y-81650390D01*
X149330390Y-81919036D01*
X149185000Y-82270039D01*
X148555000Y-82270039D01*
X148409610Y-81919036D01*
X148140964Y-81650390D01*
X147789961Y-81505000D01*
X147410039Y-81505000D01*
X147059036Y-81650390D01*
X146790390Y-81919036D01*
X146645000Y-82270039D01*
X143475000Y-82270039D01*
X143329610Y-81919036D01*
X143060964Y-81650390D01*
X142709961Y-81505000D01*
X142330039Y-81505000D01*
X141979036Y-81650390D01*
X141710390Y-81919036D01*
X141565000Y-82270039D01*
X140935000Y-82270039D01*
X140789610Y-81919036D01*
X140520964Y-81650390D01*
X140169961Y-81505000D01*
X139790039Y-81505000D01*
X139439036Y-81650390D01*
X139170390Y-81919036D01*
X139025000Y-82270039D01*
X135855000Y-82270039D01*
X135709610Y-81919036D01*
X135440964Y-81650390D01*
X135089961Y-81505000D01*
X134710039Y-81505000D01*
X134359036Y-81650390D01*
X134090390Y-81919036D01*
X134000000Y-82137257D01*
X134000000Y-78939392D01*
X134007836Y-78899999D01*
X133979206Y-78756071D01*
X133976791Y-78743928D01*
X133888384Y-78611616D01*
X133854984Y-78589299D01*
X133850000Y-78584315D01*
X133850000Y-78490598D01*
X133766267Y-78288450D01*
X133611550Y-78133733D01*
X133409402Y-78050000D01*
X133190598Y-78050000D01*
X132988450Y-78133733D01*
X132833733Y-78288450D01*
X132750000Y-78490598D01*
X132750000Y-78709402D01*
X132833733Y-78911550D01*
X132988450Y-79066267D01*
X133190598Y-79150000D01*
X133200001Y-79150000D01*
X133200000Y-81992405D01*
X133169610Y-81919036D01*
X132900964Y-81650390D01*
X132549961Y-81505000D01*
X132170039Y-81505000D01*
X131819036Y-81650390D01*
X131550390Y-81919036D01*
X131405000Y-82270039D01*
X130775000Y-82270039D01*
X130716610Y-82129074D01*
X132104985Y-80740700D01*
X132138384Y-80718384D01*
X132226791Y-80586072D01*
X132247909Y-80479908D01*
X132316267Y-80411550D01*
X132400000Y-80209402D01*
X132400000Y-79990598D01*
X132316267Y-79788450D01*
X132161550Y-79633733D01*
X131959402Y-79550000D01*
X131740598Y-79550000D01*
X131538450Y-79633733D01*
X131383733Y-79788450D01*
X131300000Y-79990598D01*
X131300000Y-80209402D01*
X131360018Y-80354297D01*
X130150926Y-81563390D01*
X130009961Y-81505000D01*
X129630039Y-81505000D01*
X129279036Y-81650390D01*
X129010390Y-81919036D01*
X128865000Y-82270039D01*
X125695000Y-82270039D01*
X125549610Y-81919036D01*
X125280964Y-81650390D01*
X124929961Y-81505000D01*
X124550039Y-81505000D01*
X124199036Y-81650390D01*
X124189426Y-81660000D01*
X122750574Y-81660000D01*
X122740964Y-81650390D01*
X122389961Y-81505000D01*
X122010039Y-81505000D01*
X121659036Y-81650390D01*
X121390390Y-81919036D01*
X121245000Y-82270039D01*
X121245000Y-82283629D01*
X119930026Y-83598604D01*
X119863234Y-83643233D01*
X119818605Y-83710025D01*
X119818603Y-83710027D01*
X119686418Y-83907856D01*
X119624329Y-84220000D01*
X118870555Y-84220000D01*
X118950000Y-84028205D01*
X118950000Y-83371795D01*
X118698802Y-82765350D01*
X118234650Y-82301198D01*
X117628205Y-82050000D01*
X116971795Y-82050000D01*
X116365350Y-82301198D01*
X115901198Y-82765350D01*
X115650000Y-83371795D01*
X113850000Y-83371795D01*
X113850000Y-77130000D01*
X115677471Y-77130000D01*
X115766724Y-77578707D01*
X116020897Y-77959103D01*
X116401293Y-78213276D01*
X116736739Y-78280000D01*
X116963261Y-78280000D01*
X117298707Y-78213276D01*
X117679103Y-77959103D01*
X117933276Y-77578707D01*
X117970509Y-77391523D01*
X127680000Y-77391523D01*
X127680000Y-77948477D01*
X127893137Y-78463037D01*
X128286963Y-78856863D01*
X128801523Y-79070000D01*
X129358477Y-79070000D01*
X129873037Y-78856863D01*
X130266863Y-78463037D01*
X130480000Y-77948477D01*
X130480000Y-77391523D01*
X151180000Y-77391523D01*
X151180000Y-77948477D01*
X151393137Y-78463037D01*
X151786963Y-78856863D01*
X152301523Y-79070000D01*
X152858477Y-79070000D01*
X153373037Y-78856863D01*
X153766863Y-78463037D01*
X153980000Y-77948477D01*
X153980000Y-77391523D01*
X153766863Y-76876963D01*
X153373037Y-76483137D01*
X152858477Y-76270000D01*
X152301523Y-76270000D01*
X151786963Y-76483137D01*
X151393137Y-76876963D01*
X151180000Y-77391523D01*
X130480000Y-77391523D01*
X130266863Y-76876963D01*
X129873037Y-76483137D01*
X129358477Y-76270000D01*
X128801523Y-76270000D01*
X128286963Y-76483137D01*
X127893137Y-76876963D01*
X127680000Y-77391523D01*
X117970509Y-77391523D01*
X118022529Y-77130000D01*
X117933276Y-76681293D01*
X117679103Y-76300897D01*
X117298707Y-76046724D01*
X116963261Y-75980000D01*
X116736739Y-75980000D01*
X116401293Y-76046724D01*
X116020897Y-76300897D01*
X115766724Y-76681293D01*
X115677471Y-77130000D01*
X113850000Y-77130000D01*
X113850000Y-74590000D01*
X115677471Y-74590000D01*
X115766724Y-75038707D01*
X116020897Y-75419103D01*
X116401293Y-75673276D01*
X116736739Y-75740000D01*
X116963261Y-75740000D01*
X117298707Y-75673276D01*
X117679103Y-75419103D01*
X117933276Y-75038707D01*
X118022529Y-74590000D01*
X117933276Y-74141293D01*
X117679103Y-73760897D01*
X117298707Y-73506724D01*
X116963261Y-73440000D01*
X116736739Y-73440000D01*
X116401293Y-73506724D01*
X116020897Y-73760897D01*
X115766724Y-74141293D01*
X115677471Y-74590000D01*
X113850000Y-74590000D01*
X113850000Y-70990000D01*
X121003838Y-70990000D01*
X121067868Y-71311899D01*
X121250209Y-71584791D01*
X121310386Y-71625000D01*
X121250209Y-71665209D01*
X121067868Y-71938101D01*
X121003838Y-72260000D01*
X121067868Y-72581899D01*
X121250209Y-72854791D01*
X121523101Y-73037132D01*
X121763749Y-73085000D01*
X122376251Y-73085000D01*
X122616899Y-73037132D01*
X122691995Y-72986954D01*
X161279000Y-72986954D01*
X161279000Y-73482246D01*
X161468540Y-73939836D01*
X161818764Y-74290060D01*
X162276354Y-74479600D01*
X162771646Y-74479600D01*
X163229236Y-74290060D01*
X163579460Y-73939836D01*
X163769000Y-73482246D01*
X163769000Y-73011360D01*
X166100000Y-73011360D01*
X166100000Y-73508640D01*
X166290301Y-73968068D01*
X166641932Y-74319699D01*
X167101360Y-74510000D01*
X167598640Y-74510000D01*
X168058068Y-74319699D01*
X168409699Y-73968068D01*
X168600000Y-73508640D01*
X168600000Y-73011360D01*
X168409699Y-72551932D01*
X168058068Y-72200301D01*
X167598640Y-72010000D01*
X167101360Y-72010000D01*
X166641932Y-72200301D01*
X166290301Y-72551932D01*
X166100000Y-73011360D01*
X163769000Y-73011360D01*
X163769000Y-72986954D01*
X163579460Y-72529364D01*
X163229236Y-72179140D01*
X162771646Y-71989600D01*
X162276354Y-71989600D01*
X161818764Y-72179140D01*
X161468540Y-72529364D01*
X161279000Y-72986954D01*
X122691995Y-72986954D01*
X122889791Y-72854791D01*
X123072132Y-72581899D01*
X123136162Y-72260000D01*
X123072132Y-71938101D01*
X122889791Y-71665209D01*
X122829614Y-71625000D01*
X122889791Y-71584791D01*
X123072132Y-71311899D01*
X123136162Y-70990000D01*
X123072132Y-70668101D01*
X122940674Y-70471360D01*
X166100000Y-70471360D01*
X166100000Y-70968640D01*
X166290301Y-71428068D01*
X166641932Y-71779699D01*
X167101360Y-71970000D01*
X167598640Y-71970000D01*
X168058068Y-71779699D01*
X168096407Y-71741360D01*
X168640000Y-71741360D01*
X168640000Y-72238640D01*
X168830301Y-72698068D01*
X169181932Y-73049699D01*
X169641360Y-73240000D01*
X170138640Y-73240000D01*
X170598068Y-73049699D01*
X170770673Y-72877094D01*
X174315000Y-72877094D01*
X174315000Y-73642906D01*
X174608064Y-74350425D01*
X175149575Y-74891936D01*
X175857094Y-75185000D01*
X176622906Y-75185000D01*
X177330425Y-74891936D01*
X177871936Y-74350425D01*
X178165000Y-73642906D01*
X178165000Y-72877094D01*
X177871936Y-72169575D01*
X177330425Y-71628064D01*
X176622906Y-71335000D01*
X175857094Y-71335000D01*
X175149575Y-71628064D01*
X174608064Y-72169575D01*
X174315000Y-72877094D01*
X170770673Y-72877094D01*
X170949699Y-72698068D01*
X171140000Y-72238640D01*
X171140000Y-71741360D01*
X170949699Y-71281932D01*
X170598068Y-70930301D01*
X170138640Y-70740000D01*
X169641360Y-70740000D01*
X169181932Y-70930301D01*
X168830301Y-71281932D01*
X168640000Y-71741360D01*
X168096407Y-71741360D01*
X168409699Y-71428068D01*
X168600000Y-70968640D01*
X168600000Y-70471360D01*
X168409699Y-70011932D01*
X168058068Y-69660301D01*
X167598640Y-69470000D01*
X167101360Y-69470000D01*
X166641932Y-69660301D01*
X166290301Y-70011932D01*
X166100000Y-70471360D01*
X122940674Y-70471360D01*
X122889791Y-70395209D01*
X122616899Y-70212868D01*
X122376251Y-70165000D01*
X121763749Y-70165000D01*
X121523101Y-70212868D01*
X121250209Y-70395209D01*
X121067868Y-70668101D01*
X121003838Y-70990000D01*
X113850000Y-70990000D01*
X113850000Y-68010000D01*
X115677471Y-68010000D01*
X115766724Y-68458707D01*
X116020897Y-68839103D01*
X116401293Y-69093276D01*
X116736739Y-69160000D01*
X116963261Y-69160000D01*
X117298707Y-69093276D01*
X117679103Y-68839103D01*
X117933276Y-68458707D01*
X118022529Y-68010000D01*
X117978888Y-67790598D01*
X156870000Y-67790598D01*
X156870000Y-68009402D01*
X156953733Y-68211550D01*
X156998849Y-68256666D01*
X156967192Y-68288322D01*
X156883459Y-68490470D01*
X156883459Y-68709274D01*
X156967192Y-68911422D01*
X157121909Y-69066139D01*
X157324057Y-69149872D01*
X157542861Y-69149872D01*
X157745009Y-69066139D01*
X157899726Y-68911422D01*
X157912052Y-68881665D01*
X168697781Y-68881665D01*
X169346101Y-69529987D01*
X169368416Y-69563384D01*
X169500728Y-69651791D01*
X169617406Y-69675000D01*
X169617407Y-69675000D01*
X169656799Y-69682836D01*
X169696192Y-69675000D01*
X171553806Y-69675000D01*
X171593200Y-69682836D01*
X171632594Y-69675000D01*
X171749272Y-69651791D01*
X171881584Y-69563384D01*
X171903903Y-69529981D01*
X172954995Y-68478890D01*
X172988394Y-68456574D01*
X173076801Y-68324262D01*
X173100010Y-68207584D01*
X173100010Y-68207583D01*
X173107846Y-68168190D01*
X173100010Y-68128796D01*
X173100010Y-66313703D01*
X173107846Y-66274310D01*
X173094272Y-66206071D01*
X173076801Y-66118239D01*
X172988394Y-65985927D01*
X172954997Y-65963612D01*
X172376401Y-65385018D01*
X172354083Y-65351616D01*
X172221771Y-65263209D01*
X172105093Y-65240000D01*
X172065699Y-65232164D01*
X172026305Y-65240000D01*
X170787767Y-65240000D01*
X170949699Y-65078068D01*
X171140000Y-64618640D01*
X171140000Y-64121360D01*
X171012394Y-63813292D01*
X171100686Y-63725000D01*
X171403806Y-63725000D01*
X171443200Y-63732836D01*
X171482594Y-63725000D01*
X171599272Y-63701791D01*
X171731584Y-63613384D01*
X171753902Y-63579982D01*
X172179987Y-63153899D01*
X172213384Y-63131584D01*
X172301791Y-62999272D01*
X172325000Y-62882594D01*
X172325000Y-62882593D01*
X172332836Y-62843201D01*
X172325000Y-62803808D01*
X172325000Y-61447094D01*
X174315000Y-61447094D01*
X174315000Y-62212906D01*
X174608064Y-62920425D01*
X175149575Y-63461936D01*
X175857094Y-63755000D01*
X176622906Y-63755000D01*
X177330425Y-63461936D01*
X177871936Y-62920425D01*
X178165000Y-62212906D01*
X178165000Y-61447094D01*
X177871936Y-60739575D01*
X177330425Y-60198064D01*
X176622906Y-59905000D01*
X175857094Y-59905000D01*
X175149575Y-60198064D01*
X174608064Y-60739575D01*
X174315000Y-61447094D01*
X172325000Y-61447094D01*
X172325000Y-60963796D01*
X172332836Y-60924402D01*
X172318710Y-60853384D01*
X172301791Y-60768330D01*
X172213384Y-60636018D01*
X172179984Y-60613702D01*
X171971349Y-60405067D01*
X171965047Y-60373384D01*
X171943390Y-60264509D01*
X171854983Y-60132197D01*
X171821586Y-60109883D01*
X171091720Y-59380018D01*
X171069402Y-59346616D01*
X170937090Y-59258209D01*
X170820412Y-59235000D01*
X170781018Y-59227164D01*
X170741624Y-59235000D01*
X160066193Y-59235000D01*
X160026799Y-59227164D01*
X159870728Y-59258209D01*
X159738416Y-59346616D01*
X159716099Y-59380016D01*
X158931115Y-60165001D01*
X158131407Y-60165001D01*
X158116267Y-60128450D01*
X157961550Y-59973733D01*
X157759402Y-59890000D01*
X157540598Y-59890000D01*
X157338450Y-59973733D01*
X157183733Y-60128450D01*
X157100000Y-60330598D01*
X157100000Y-60549402D01*
X157183733Y-60751550D01*
X157222185Y-60790002D01*
X157183733Y-60828453D01*
X157100000Y-61030601D01*
X157100000Y-61249405D01*
X157183733Y-61451553D01*
X157338450Y-61606270D01*
X157540598Y-61690003D01*
X157759402Y-61690003D01*
X157961550Y-61606270D01*
X158116267Y-61451553D01*
X158131407Y-61415001D01*
X159243805Y-61415001D01*
X159283199Y-61422837D01*
X159322593Y-61415001D01*
X159439271Y-61391792D01*
X159571583Y-61303385D01*
X159593902Y-61269982D01*
X160378885Y-60485000D01*
X170428933Y-60485000D01*
X170518056Y-60574123D01*
X168940000Y-60574123D01*
X168822946Y-60597407D01*
X168723712Y-60663712D01*
X168657407Y-60762946D01*
X168634123Y-60880000D01*
X168634123Y-62780000D01*
X168657407Y-62897054D01*
X168723712Y-62996288D01*
X168822946Y-63062593D01*
X168940000Y-63085877D01*
X170580191Y-63085877D01*
X170594314Y-63100000D01*
X170446708Y-63247606D01*
X170138640Y-63120000D01*
X169641360Y-63120000D01*
X169181932Y-63310301D01*
X168830301Y-63661932D01*
X168640000Y-64121360D01*
X168640000Y-64618640D01*
X168830301Y-65078068D01*
X168992233Y-65240000D01*
X168537305Y-65240000D01*
X168409699Y-64931932D01*
X168058068Y-64580301D01*
X167598640Y-64390000D01*
X167101360Y-64390000D01*
X166641932Y-64580301D01*
X166290301Y-64931932D01*
X166100000Y-65391360D01*
X166100000Y-65888640D01*
X166290301Y-66348068D01*
X166641932Y-66699699D01*
X167101360Y-66890000D01*
X167598640Y-66890000D01*
X168058068Y-66699699D01*
X168409699Y-66348068D01*
X168537305Y-66040000D01*
X168992233Y-66040000D01*
X168830301Y-66201932D01*
X168640000Y-66661360D01*
X168640000Y-67158640D01*
X168830301Y-67618068D01*
X168843898Y-67631665D01*
X157904167Y-67631665D01*
X157886267Y-67588450D01*
X157731550Y-67433733D01*
X157529402Y-67350000D01*
X157310598Y-67350000D01*
X157108450Y-67433733D01*
X156953733Y-67588450D01*
X156870000Y-67790598D01*
X117978888Y-67790598D01*
X117933276Y-67561293D01*
X117679103Y-67180897D01*
X117298707Y-66926724D01*
X116963261Y-66860000D01*
X116736739Y-66860000D01*
X116401293Y-66926724D01*
X116020897Y-67180897D01*
X115766724Y-67561293D01*
X115677471Y-68010000D01*
X113850000Y-68010000D01*
X113850000Y-65470000D01*
X115677471Y-65470000D01*
X115766724Y-65918707D01*
X116020897Y-66299103D01*
X116401293Y-66553276D01*
X116736739Y-66620000D01*
X116963261Y-66620000D01*
X117298707Y-66553276D01*
X117679103Y-66299103D01*
X117933276Y-65918707D01*
X118022529Y-65470000D01*
X117933276Y-65021293D01*
X117679103Y-64640897D01*
X117298707Y-64386724D01*
X117246574Y-64376354D01*
X161279000Y-64376354D01*
X161279000Y-64871646D01*
X161468540Y-65329236D01*
X161818764Y-65679460D01*
X162276354Y-65869000D01*
X162771646Y-65869000D01*
X163229236Y-65679460D01*
X163579460Y-65329236D01*
X163769000Y-64871646D01*
X163769000Y-64376354D01*
X163579460Y-63918764D01*
X163229236Y-63568540D01*
X162771646Y-63379000D01*
X162276354Y-63379000D01*
X161818764Y-63568540D01*
X161468540Y-63918764D01*
X161279000Y-64376354D01*
X117246574Y-64376354D01*
X116963261Y-64320000D01*
X116736739Y-64320000D01*
X116401293Y-64386724D01*
X116020897Y-64640897D01*
X115766724Y-65021293D01*
X115677471Y-65470000D01*
X113850000Y-65470000D01*
X113850000Y-62851360D01*
X166100000Y-62851360D01*
X166100000Y-63348640D01*
X166290301Y-63808068D01*
X166641932Y-64159699D01*
X167101360Y-64350000D01*
X167598640Y-64350000D01*
X168058068Y-64159699D01*
X168409699Y-63808068D01*
X168600000Y-63348640D01*
X168600000Y-62851360D01*
X168409699Y-62391932D01*
X168058068Y-62040301D01*
X167598640Y-61850000D01*
X167101360Y-61850000D01*
X166641932Y-62040301D01*
X166290301Y-62391932D01*
X166100000Y-62851360D01*
X113850000Y-62851360D01*
X113850000Y-61610000D01*
X121857471Y-61610000D01*
X121946724Y-62058707D01*
X122200897Y-62439103D01*
X122581293Y-62693276D01*
X122916739Y-62760000D01*
X123143261Y-62760000D01*
X123478707Y-62693276D01*
X123859103Y-62439103D01*
X124113276Y-62058707D01*
X124202529Y-61610000D01*
X124113276Y-61161293D01*
X123859103Y-60780897D01*
X123478707Y-60526724D01*
X123143261Y-60460000D01*
X122916739Y-60460000D01*
X122581293Y-60526724D01*
X122200897Y-60780897D01*
X121946724Y-61161293D01*
X121857471Y-61610000D01*
X113850000Y-61610000D01*
X113850000Y-59070000D01*
X121857471Y-59070000D01*
X121946724Y-59518707D01*
X122200897Y-59899103D01*
X122581293Y-60153276D01*
X122916739Y-60220000D01*
X123143261Y-60220000D01*
X123478707Y-60153276D01*
X123859103Y-59899103D01*
X124113276Y-59518707D01*
X124202529Y-59070000D01*
X124113276Y-58621293D01*
X123859103Y-58240897D01*
X123478707Y-57986724D01*
X123143261Y-57920000D01*
X122916739Y-57920000D01*
X122581293Y-57986724D01*
X122200897Y-58240897D01*
X121946724Y-58621293D01*
X121857471Y-59070000D01*
X113850000Y-59070000D01*
X113850000Y-54520332D01*
X113923382Y-53890916D01*
X114013907Y-53641523D01*
X127680000Y-53641523D01*
X127680000Y-54198477D01*
X127893137Y-54713037D01*
X128286963Y-55106863D01*
X128801523Y-55320000D01*
X129358477Y-55320000D01*
X129873037Y-55106863D01*
X130266863Y-54713037D01*
X130480000Y-54198477D01*
X130480000Y-53641523D01*
X130266863Y-53126963D01*
X129873037Y-52733137D01*
X129358477Y-52520000D01*
X128801523Y-52520000D01*
X128286963Y-52733137D01*
X127893137Y-53126963D01*
X127680000Y-53641523D01*
X114013907Y-53641523D01*
X114132611Y-53314500D01*
X114468831Y-52801680D01*
X114914005Y-52379962D01*
X115444263Y-52071964D01*
X116035732Y-51892825D01*
X116515583Y-51850000D01*
X134372183Y-51850000D01*
X132949400Y-53272784D01*
X132949400Y-53272784D01*
G37*
X132949400Y-53272784D02*
X132903472Y-53303472D01*
X132781911Y-53485402D01*
X132762450Y-53583241D01*
X132739225Y-53700000D01*
X132750000Y-53754169D01*
X132750001Y-55472182D01*
X132242184Y-55980000D01*
X124045594Y-55980000D01*
X123859103Y-55700897D01*
X123478707Y-55446724D01*
X123143261Y-55380000D01*
X122916739Y-55380000D01*
X122581293Y-55446724D01*
X122200897Y-55700897D01*
X121946724Y-56081293D01*
X121857471Y-56530000D01*
X121946724Y-56978707D01*
X122200897Y-57359103D01*
X122581293Y-57613276D01*
X122916739Y-57680000D01*
X123143261Y-57680000D01*
X123478707Y-57613276D01*
X123859103Y-57359103D01*
X124045594Y-57080000D01*
X132415831Y-57080000D01*
X132470000Y-57090775D01*
X132524169Y-57080000D01*
X132524170Y-57080000D01*
X132684599Y-57048089D01*
X132866528Y-56926528D01*
X132897216Y-56880600D01*
X133650602Y-56127214D01*
X133696528Y-56096528D01*
X133818089Y-55914599D01*
X133850000Y-55754170D01*
X133860775Y-55700001D01*
X133850000Y-55645832D01*
X133850000Y-53927816D01*
X135227817Y-52550000D01*
X138792104Y-52550000D01*
X138730897Y-52590897D01*
X138476724Y-52971293D01*
X138387471Y-53420000D01*
X138476724Y-53868707D01*
X138730897Y-54249103D01*
X139111293Y-54503276D01*
X139446739Y-54570000D01*
X139673261Y-54570000D01*
X140008707Y-54503276D01*
X140389103Y-54249103D01*
X140643276Y-53868707D01*
X140732529Y-53420000D01*
X140927471Y-53420000D01*
X141016724Y-53868707D01*
X141270897Y-54249103D01*
X141651293Y-54503276D01*
X141986739Y-54570000D01*
X142213261Y-54570000D01*
X142548707Y-54503276D01*
X142929103Y-54249103D01*
X143183276Y-53868707D01*
X143272529Y-53420000D01*
X143467471Y-53420000D01*
X143556724Y-53868707D01*
X143810897Y-54249103D01*
X144191293Y-54503276D01*
X144526739Y-54570000D01*
X144753261Y-54570000D01*
X145088707Y-54503276D01*
X145469103Y-54249103D01*
X145723276Y-53868707D01*
X145768465Y-53641523D01*
X151180000Y-53641523D01*
X151180000Y-54198477D01*
X151393137Y-54713037D01*
X151786963Y-55106863D01*
X152301523Y-55320000D01*
X152858477Y-55320000D01*
X153373037Y-55106863D01*
X153766863Y-54713037D01*
X153980000Y-54198477D01*
X153980000Y-53641523D01*
X153766863Y-53126963D01*
X153373037Y-52733137D01*
X152858477Y-52520000D01*
X152301523Y-52520000D01*
X151786963Y-52733137D01*
X151393137Y-53126963D01*
X151180000Y-53641523D01*
X145768465Y-53641523D01*
X145812529Y-53420000D01*
X145723276Y-52971293D01*
X145469103Y-52590897D01*
X145088707Y-52336724D01*
X144753261Y-52270000D01*
X144526739Y-52270000D01*
X144191293Y-52336724D01*
X143810897Y-52590897D01*
X143556724Y-52971293D01*
X143467471Y-53420000D01*
X143272529Y-53420000D01*
X143183276Y-52971293D01*
X142929103Y-52590897D01*
X142548707Y-52336724D01*
X142213261Y-52270000D01*
X141986739Y-52270000D01*
X141651293Y-52336724D01*
X141270897Y-52590897D01*
X141016724Y-52971293D01*
X140927471Y-53420000D01*
X140732529Y-53420000D01*
X140643276Y-52971293D01*
X140389103Y-52590897D01*
X140110000Y-52404406D01*
X140110000Y-52272087D01*
X140120775Y-52217918D01*
X140089655Y-52061469D01*
X140078089Y-52003320D01*
X139975644Y-51850000D01*
X175979668Y-51850000D01*
X176609084Y-51923382D01*
X177185500Y-52132611D01*
X177698320Y-52468831D01*
X178120038Y-52914005D01*
X178428036Y-53444263D01*
X178607175Y-54035732D01*
X178650000Y-54515583D01*
X178650001Y-124979659D01*
X178576618Y-125609084D01*
X178367389Y-126185500D01*
X178031169Y-126698320D01*
X177585993Y-127120039D01*
X177055737Y-127428036D01*
X176464268Y-127607175D01*
X175984417Y-127650000D01*
X116520333Y-127650000D01*
X115890916Y-127576618D01*
X115314500Y-127367389D01*
X114801680Y-127031169D01*
X114379961Y-126585993D01*
X114071964Y-126055737D01*
X113892825Y-125464268D01*
X113850000Y-124984417D01*
X113850000Y-106371795D01*
X115650000Y-106371795D01*
X115650000Y-107028205D01*
X115901198Y-107634650D01*
X116365350Y-108098802D01*
X116971795Y-108350000D01*
X117628205Y-108350000D01*
X118234650Y-108098802D01*
X118698802Y-107634650D01*
X118950000Y-107028205D01*
X118950000Y-106371795D01*
X118698802Y-105765350D01*
X118234650Y-105301198D01*
X117628205Y-105050000D01*
X116971795Y-105050000D01*
X116365350Y-105301198D01*
X115901198Y-105765350D01*
X115650000Y-106371795D01*
X113850000Y-106371795D01*
X113850000Y-83371795D01*
X115650000Y-83371795D01*
X115650000Y-84028205D01*
X115901198Y-84634650D01*
X116365350Y-85098802D01*
X116971795Y-85350000D01*
X117628205Y-85350000D01*
X118234650Y-85098802D01*
X118698802Y-84634650D01*
X118870555Y-84220000D01*
X119624329Y-84220000D01*
X119640001Y-84298789D01*
X119640000Y-119001216D01*
X119624329Y-119080000D01*
X119640000Y-119158784D01*
X119640000Y-119158788D01*
X119686417Y-119392143D01*
X119863233Y-119656767D01*
X119930028Y-119701398D01*
X120490001Y-120261371D01*
X120490000Y-125501216D01*
X120474329Y-125580000D01*
X120490000Y-125658784D01*
X120490000Y-125658788D01*
X120536417Y-125892143D01*
X120713233Y-126156767D01*
X120780028Y-126201398D01*
X121828602Y-127249972D01*
X121873233Y-127316767D01*
X122137856Y-127493583D01*
X122371211Y-127540000D01*
X122371216Y-127540000D01*
X122450000Y-127555671D01*
X122528784Y-127540000D01*
X126291216Y-127540000D01*
X126370000Y-127555671D01*
X126448784Y-127540000D01*
X160228789Y-127540000D01*
X160462144Y-127493583D01*
X160726767Y-127316767D01*
X160903583Y-127052144D01*
X160965672Y-126740000D01*
X160903583Y-126427856D01*
X160726767Y-126163233D01*
X160462144Y-125986417D01*
X160228789Y-125940000D01*
X157413853Y-125940000D01*
X157462593Y-125867054D01*
X157485877Y-125750000D01*
X157485877Y-124050000D01*
X157462593Y-123932946D01*
X157396288Y-123833712D01*
X157297054Y-123767407D01*
X157180000Y-123744123D01*
X155480000Y-123744123D01*
X155362946Y-123767407D01*
X155263712Y-123833712D01*
X155197407Y-123932946D01*
X155174123Y-124050000D01*
X155174123Y-125750000D01*
X155197407Y-125867054D01*
X155246147Y-125940000D01*
X154303474Y-125940000D01*
X154619103Y-125729103D01*
X154873276Y-125348707D01*
X154962529Y-124900000D01*
X154873276Y-124451293D01*
X154619103Y-124070897D01*
X154238707Y-123816724D01*
X153903261Y-123750000D01*
X153676739Y-123750000D01*
X153341293Y-123816724D01*
X152960897Y-124070897D01*
X152706724Y-124451293D01*
X152617471Y-124900000D01*
X152706724Y-125348707D01*
X152960897Y-125729103D01*
X153276526Y-125940000D01*
X147183542Y-125940000D01*
X147529103Y-125709103D01*
X147783276Y-125328707D01*
X147872529Y-124880000D01*
X147783276Y-124431293D01*
X147755685Y-124390000D01*
X148965686Y-123180000D01*
X150144123Y-123180000D01*
X150144123Y-123230000D01*
X150167407Y-123347054D01*
X150233712Y-123446288D01*
X150332946Y-123512593D01*
X150450000Y-123535877D01*
X151250000Y-123535877D01*
X151367054Y-123512593D01*
X151466288Y-123446288D01*
X151532593Y-123347054D01*
X151555877Y-123230000D01*
X151555877Y-122728024D01*
X166750000Y-122728024D01*
X166750000Y-124511977D01*
X166827749Y-124902842D01*
X167123915Y-125346086D01*
X167567159Y-125642252D01*
X168090000Y-125746252D01*
X168612842Y-125642252D01*
X169056086Y-125346086D01*
X169352252Y-124902842D01*
X169430000Y-124511977D01*
X169430000Y-122728023D01*
X169352252Y-122337158D01*
X169056085Y-121893914D01*
X168612841Y-121597748D01*
X168090000Y-121493748D01*
X167567158Y-121597748D01*
X167123914Y-121893915D01*
X166827748Y-122337159D01*
X166750000Y-122728024D01*
X151555877Y-122728024D01*
X151555877Y-122330000D01*
X151532593Y-122212946D01*
X151466288Y-122113712D01*
X151367054Y-122047407D01*
X151250000Y-122024123D01*
X150450000Y-122024123D01*
X150332946Y-122047407D01*
X150233712Y-122113712D01*
X150167407Y-122212946D01*
X150144123Y-122330000D01*
X150144123Y-122380000D01*
X148839392Y-122380000D01*
X148799999Y-122372164D01*
X148760606Y-122380000D01*
X148643928Y-122403209D01*
X148511616Y-122491616D01*
X148489301Y-122525013D01*
X147845877Y-123168438D01*
X147845877Y-122330000D01*
X147822593Y-122212946D01*
X147756288Y-122113712D01*
X147657054Y-122047407D01*
X147540000Y-122024123D01*
X146740000Y-122024123D01*
X146622946Y-122047407D01*
X146523712Y-122113712D01*
X146457407Y-122212946D01*
X146434123Y-122330000D01*
X146434123Y-122380000D01*
X146299392Y-122380000D01*
X146259999Y-122372164D01*
X146220606Y-122380000D01*
X146103928Y-122403209D01*
X145971616Y-122491616D01*
X145949301Y-122525013D01*
X144650000Y-123824315D01*
X144608707Y-123796724D01*
X144273261Y-123730000D01*
X144046739Y-123730000D01*
X143711293Y-123796724D01*
X143330897Y-124050897D01*
X143076724Y-124431293D01*
X142987471Y-124880000D01*
X143076724Y-125328707D01*
X143330897Y-125709103D01*
X143676458Y-125940000D01*
X142103542Y-125940000D01*
X142449103Y-125709103D01*
X142703276Y-125328707D01*
X142792529Y-124880000D01*
X142703276Y-124431293D01*
X142675685Y-124390001D01*
X142780697Y-124284989D01*
X142780701Y-124284983D01*
X143549809Y-123515877D01*
X143830000Y-123515877D01*
X143947054Y-123492593D01*
X144046288Y-123426288D01*
X144112593Y-123327054D01*
X144135877Y-123210000D01*
X144135877Y-122310000D01*
X144112593Y-122192946D01*
X144046288Y-122093712D01*
X143947054Y-122027407D01*
X143830000Y-122004123D01*
X143030000Y-122004123D01*
X142912946Y-122027407D01*
X142813712Y-122093712D01*
X142747407Y-122192946D01*
X142724123Y-122310000D01*
X142724123Y-123210000D01*
X142724155Y-123210160D01*
X142215017Y-123719299D01*
X142215011Y-123719303D01*
X142109999Y-123824315D01*
X142068707Y-123796724D01*
X141733261Y-123730000D01*
X141506739Y-123730000D01*
X141171293Y-123796724D01*
X140790897Y-124050897D01*
X140536724Y-124431293D01*
X140447471Y-124880000D01*
X140536724Y-125328707D01*
X140790897Y-125709103D01*
X141136458Y-125940000D01*
X139563542Y-125940000D01*
X139909103Y-125709103D01*
X140163276Y-125328707D01*
X140252529Y-124880000D01*
X140163276Y-124431293D01*
X140112817Y-124355776D01*
X140130000Y-124269394D01*
X140137836Y-124230000D01*
X140130000Y-124190606D01*
X140130000Y-123515877D01*
X140247054Y-123492593D01*
X140346288Y-123426288D01*
X140412593Y-123327054D01*
X140435877Y-123210000D01*
X140435877Y-122310000D01*
X140412593Y-122192946D01*
X140346288Y-122093712D01*
X140247054Y-122027407D01*
X140130000Y-122004123D01*
X139330000Y-122004123D01*
X139212946Y-122027407D01*
X139113712Y-122093712D01*
X139047407Y-122192946D01*
X139024123Y-122310000D01*
X139024123Y-123210000D01*
X139047407Y-123327054D01*
X139113712Y-123426288D01*
X139212946Y-123492593D01*
X139330000Y-123515877D01*
X139330001Y-123515877D01*
X139330001Y-123757199D01*
X139193261Y-123730000D01*
X138966739Y-123730000D01*
X138631293Y-123796724D01*
X138250897Y-124050897D01*
X137996724Y-124431293D01*
X137907471Y-124880000D01*
X137996724Y-125328707D01*
X138250897Y-125709103D01*
X138596458Y-125940000D01*
X137023542Y-125940000D01*
X137369103Y-125709103D01*
X137623276Y-125328707D01*
X137712529Y-124880000D01*
X137623276Y-124431293D01*
X137369103Y-124050897D01*
X136988707Y-123796724D01*
X136653261Y-123730000D01*
X136450000Y-123730000D01*
X136450000Y-123525877D01*
X136567054Y-123502593D01*
X136666288Y-123436288D01*
X136732593Y-123337054D01*
X136755877Y-123220000D01*
X136755877Y-122320000D01*
X136732593Y-122202946D01*
X136666288Y-122103712D01*
X136567054Y-122037407D01*
X136450000Y-122014123D01*
X135650000Y-122014123D01*
X135532946Y-122037407D01*
X135433712Y-122103712D01*
X135367407Y-122202946D01*
X135344123Y-122320000D01*
X135344123Y-123220000D01*
X135367407Y-123337054D01*
X135433712Y-123436288D01*
X135532946Y-123502593D01*
X135650000Y-123525877D01*
X135650001Y-124142034D01*
X135456724Y-124431293D01*
X135367471Y-124880000D01*
X135456724Y-125328707D01*
X135710897Y-125709103D01*
X136056458Y-125940000D01*
X134483542Y-125940000D01*
X134829103Y-125709103D01*
X135083276Y-125328707D01*
X135172529Y-124880000D01*
X135083276Y-124431293D01*
X134829103Y-124050897D01*
X134448707Y-123796724D01*
X134113261Y-123730000D01*
X133886739Y-123730000D01*
X133551293Y-123796724D01*
X133510000Y-123824315D01*
X133460701Y-123775017D01*
X133460699Y-123775014D01*
X133054613Y-123368929D01*
X133082593Y-123327054D01*
X133105877Y-123210000D01*
X133105877Y-122310000D01*
X133082593Y-122192946D01*
X133016288Y-122093712D01*
X132917054Y-122027407D01*
X132800000Y-122004123D01*
X132000000Y-122004123D01*
X131882946Y-122027407D01*
X131783712Y-122093712D01*
X131717407Y-122192946D01*
X131694123Y-122310000D01*
X131694123Y-123210000D01*
X131717407Y-123327054D01*
X131783712Y-123426288D01*
X131882946Y-123492593D01*
X132000000Y-123515877D01*
X132076533Y-123515877D01*
X132111617Y-123568384D01*
X132145016Y-123590701D01*
X132895014Y-124340699D01*
X132895017Y-124340701D01*
X132944315Y-124390000D01*
X132916724Y-124431293D01*
X132827471Y-124880000D01*
X132916724Y-125328707D01*
X133170897Y-125709103D01*
X133516458Y-125940000D01*
X131943542Y-125940000D01*
X132289103Y-125709103D01*
X132543276Y-125328707D01*
X132632529Y-124880000D01*
X132543276Y-124431293D01*
X132289103Y-124050897D01*
X131908707Y-123796724D01*
X131573261Y-123730000D01*
X131346739Y-123730000D01*
X131011293Y-123796724D01*
X130970000Y-123824315D01*
X129620703Y-122475019D01*
X129598384Y-122441616D01*
X129466072Y-122353209D01*
X129415877Y-122343224D01*
X129415877Y-122280000D01*
X129392593Y-122162946D01*
X129326288Y-122063712D01*
X129227054Y-121997407D01*
X129110000Y-121974123D01*
X128310000Y-121974123D01*
X128192946Y-121997407D01*
X128093712Y-122063712D01*
X128027407Y-122162946D01*
X128004123Y-122280000D01*
X128004123Y-123180000D01*
X128027407Y-123297054D01*
X128093712Y-123396288D01*
X128192946Y-123462593D01*
X128310000Y-123485877D01*
X129110000Y-123485877D01*
X129227054Y-123462593D01*
X129326288Y-123396288D01*
X129360060Y-123345744D01*
X130404315Y-124390000D01*
X130376724Y-124431293D01*
X130287471Y-124880000D01*
X130376724Y-125328707D01*
X130630897Y-125709103D01*
X130976458Y-125940000D01*
X129403542Y-125940000D01*
X129749103Y-125709103D01*
X130003276Y-125328707D01*
X130092529Y-124880000D01*
X130003276Y-124431293D01*
X129749103Y-124050897D01*
X129368707Y-123796724D01*
X129033261Y-123730000D01*
X128806739Y-123730000D01*
X128471293Y-123796724D01*
X128430000Y-123824315D01*
X128380701Y-123775017D01*
X128380699Y-123775014D01*
X128080701Y-123475017D01*
X128058383Y-123441615D01*
X127926071Y-123353208D01*
X127809393Y-123329999D01*
X127769999Y-123322163D01*
X127730605Y-123329999D01*
X126145685Y-123329999D01*
X125735877Y-122920192D01*
X125735877Y-122280000D01*
X125712593Y-122162946D01*
X125646288Y-122063712D01*
X125547054Y-121997407D01*
X125430000Y-121974123D01*
X124630000Y-121974123D01*
X124512946Y-121997407D01*
X124413712Y-122063712D01*
X124347407Y-122162946D01*
X124324123Y-122280000D01*
X124324123Y-123180000D01*
X124347407Y-123297054D01*
X124413712Y-123396288D01*
X124512946Y-123462593D01*
X124630000Y-123485877D01*
X125170192Y-123485877D01*
X125661385Y-123977071D01*
X125550897Y-124050897D01*
X125296724Y-124431293D01*
X125207471Y-124880000D01*
X125296724Y-125328707D01*
X125550897Y-125709103D01*
X125580000Y-125728549D01*
X125580001Y-125940000D01*
X122781370Y-125940000D01*
X122090000Y-125248630D01*
X122090000Y-120008789D01*
X122105672Y-119930000D01*
X122043583Y-119617855D01*
X121962083Y-119495883D01*
X121866767Y-119353233D01*
X121799972Y-119308602D01*
X121240000Y-118748630D01*
X121240000Y-118360598D01*
X122480000Y-118360598D01*
X122480000Y-118579402D01*
X122563733Y-118781550D01*
X122718450Y-118936267D01*
X122920598Y-119020000D01*
X122978038Y-119020000D01*
X123030000Y-119030336D01*
X123081962Y-119020000D01*
X123139402Y-119020000D01*
X123269123Y-118966267D01*
X123269123Y-119396250D01*
X123309058Y-119597016D01*
X123422783Y-119767217D01*
X123592984Y-119880942D01*
X123650000Y-119892283D01*
X123650001Y-119980090D01*
X123562946Y-119997407D01*
X123463712Y-120063712D01*
X123397407Y-120162946D01*
X123374123Y-120280000D01*
X123374123Y-121180000D01*
X123397407Y-121297054D01*
X123463712Y-121396288D01*
X123562946Y-121462593D01*
X123680000Y-121485877D01*
X124480000Y-121485877D01*
X124597054Y-121462593D01*
X124696288Y-121396288D01*
X124762593Y-121297054D01*
X124785877Y-121180000D01*
X124785877Y-120280000D01*
X124762593Y-120162946D01*
X124696288Y-120063712D01*
X124597054Y-119997407D01*
X124480000Y-119974123D01*
X124450000Y-119974123D01*
X124450000Y-119892283D01*
X124507016Y-119880942D01*
X124677217Y-119767217D01*
X124790942Y-119597016D01*
X124830877Y-119396250D01*
X124830877Y-118958750D01*
X124790942Y-118757984D01*
X124677217Y-118587783D01*
X124507016Y-118474058D01*
X124306250Y-118434123D01*
X123793750Y-118434123D01*
X123781656Y-118436529D01*
X123872308Y-118345877D01*
X124306250Y-118345877D01*
X124507016Y-118305942D01*
X124677217Y-118192217D01*
X124790942Y-118022016D01*
X124830877Y-117821250D01*
X124830877Y-117393750D01*
X126959123Y-117393750D01*
X126959123Y-117831250D01*
X126999058Y-118032016D01*
X127112783Y-118202217D01*
X127282984Y-118315942D01*
X127483750Y-118355877D01*
X127912693Y-118355877D01*
X128002103Y-118445287D01*
X127996250Y-118444123D01*
X127483750Y-118444123D01*
X127282984Y-118484058D01*
X127112783Y-118597783D01*
X126999058Y-118767984D01*
X126959123Y-118968750D01*
X126959123Y-119406250D01*
X126999058Y-119607016D01*
X127112783Y-119777217D01*
X127282984Y-119890942D01*
X127360001Y-119906262D01*
X127360000Y-119974123D01*
X127242946Y-119997407D01*
X127143712Y-120063712D01*
X127077407Y-120162946D01*
X127054123Y-120280000D01*
X127054123Y-121180000D01*
X127077407Y-121297054D01*
X127143712Y-121396288D01*
X127242946Y-121462593D01*
X127360000Y-121485877D01*
X128160000Y-121485877D01*
X128277054Y-121462593D01*
X128376288Y-121396288D01*
X128442593Y-121297054D01*
X128465877Y-121180000D01*
X128465877Y-120280000D01*
X128442593Y-120162946D01*
X128376288Y-120063712D01*
X128277054Y-119997407D01*
X128160000Y-119974123D01*
X128160000Y-119898305D01*
X128197016Y-119890942D01*
X128367217Y-119777217D01*
X128480942Y-119607016D01*
X128520877Y-119406250D01*
X128520877Y-118968750D01*
X128519713Y-118962898D01*
X128681799Y-119124984D01*
X128704116Y-119158384D01*
X128793499Y-119218107D01*
X128836428Y-119246791D01*
X128992500Y-119277836D01*
X129031894Y-119270000D01*
X129372183Y-119270000D01*
X129438450Y-119336267D01*
X129640598Y-119420000D01*
X129859402Y-119420000D01*
X130061550Y-119336267D01*
X130216267Y-119181550D01*
X130275417Y-119038750D01*
X130679123Y-119038750D01*
X130679123Y-119476250D01*
X130719058Y-119677016D01*
X130832783Y-119847217D01*
X131002984Y-119960942D01*
X131060000Y-119972283D01*
X131060001Y-120004123D01*
X131050000Y-120004123D01*
X130932946Y-120027407D01*
X130833712Y-120093712D01*
X130767407Y-120192946D01*
X130744123Y-120310000D01*
X130744123Y-121210000D01*
X130767407Y-121327054D01*
X130833712Y-121426288D01*
X130932946Y-121492593D01*
X131050000Y-121515877D01*
X131850000Y-121515877D01*
X131967054Y-121492593D01*
X132066288Y-121426288D01*
X132132593Y-121327054D01*
X132155877Y-121210000D01*
X132155877Y-120310000D01*
X132132593Y-120192946D01*
X132066288Y-120093712D01*
X131967054Y-120027407D01*
X131860000Y-120006112D01*
X131860000Y-119972283D01*
X131917016Y-119960942D01*
X132087217Y-119847217D01*
X132200942Y-119677016D01*
X132240877Y-119476250D01*
X132240877Y-119038750D01*
X132200942Y-118837984D01*
X132087217Y-118667783D01*
X131917016Y-118554058D01*
X131716250Y-118514123D01*
X131203750Y-118514123D01*
X131002984Y-118554058D01*
X130832783Y-118667783D01*
X130719058Y-118837984D01*
X130679123Y-119038750D01*
X130275417Y-119038750D01*
X130300000Y-118979402D01*
X130300000Y-118760598D01*
X130216267Y-118558450D01*
X130061550Y-118403733D01*
X129859402Y-118320000D01*
X129640598Y-118320000D01*
X129438450Y-118403733D01*
X129372183Y-118470000D01*
X129158185Y-118470000D01*
X128520638Y-117832453D01*
X128520877Y-117831250D01*
X128520877Y-117463750D01*
X130679123Y-117463750D01*
X130679123Y-117901250D01*
X130719058Y-118102016D01*
X130832783Y-118272217D01*
X131002984Y-118385942D01*
X131203750Y-118425877D01*
X131716250Y-118425877D01*
X131917016Y-118385942D01*
X132087217Y-118272217D01*
X132200942Y-118102016D01*
X132203332Y-118090000D01*
X132924316Y-118090000D01*
X133240000Y-118405685D01*
X133240000Y-118619402D01*
X133323733Y-118821550D01*
X133478450Y-118976267D01*
X133680598Y-119060000D01*
X133899402Y-119060000D01*
X134101550Y-118976267D01*
X134256267Y-118821550D01*
X134340000Y-118619402D01*
X134340000Y-118400598D01*
X134256267Y-118198450D01*
X134101550Y-118043733D01*
X133944270Y-117978585D01*
X133400703Y-117435018D01*
X133386492Y-117413750D01*
X134269123Y-117413750D01*
X134269123Y-117851250D01*
X134309058Y-118052016D01*
X134422783Y-118222217D01*
X134592984Y-118335942D01*
X134793750Y-118375877D01*
X135227692Y-118375877D01*
X135318344Y-118466529D01*
X135306250Y-118464123D01*
X134793750Y-118464123D01*
X134592984Y-118504058D01*
X134422783Y-118617783D01*
X134309058Y-118787984D01*
X134269123Y-118988750D01*
X134269123Y-119426250D01*
X134309058Y-119627016D01*
X134422783Y-119797217D01*
X134592984Y-119910942D01*
X134650000Y-119922283D01*
X134650001Y-120024069D01*
X134582946Y-120037407D01*
X134483712Y-120103712D01*
X134417407Y-120202946D01*
X134394123Y-120320000D01*
X134394123Y-121220000D01*
X134417407Y-121337054D01*
X134483712Y-121436288D01*
X134582946Y-121502593D01*
X134700000Y-121525877D01*
X135500000Y-121525877D01*
X135617054Y-121502593D01*
X135716288Y-121436288D01*
X135782593Y-121337054D01*
X135805877Y-121220000D01*
X135805877Y-120320000D01*
X135782593Y-120202946D01*
X135716288Y-120103712D01*
X135617054Y-120037407D01*
X135500000Y-120014123D01*
X135450000Y-120014123D01*
X135450000Y-119922283D01*
X135507016Y-119910942D01*
X135677217Y-119797217D01*
X135790942Y-119627016D01*
X135830877Y-119426250D01*
X135830877Y-118988750D01*
X135828888Y-118978750D01*
X137939123Y-118978750D01*
X137939123Y-119416250D01*
X137979058Y-119617016D01*
X138092783Y-119787217D01*
X138262984Y-119900942D01*
X138320000Y-119912283D01*
X138320001Y-120016058D01*
X138262946Y-120027407D01*
X138163712Y-120093712D01*
X138097407Y-120192946D01*
X138074123Y-120310000D01*
X138074123Y-121210000D01*
X138097407Y-121327054D01*
X138163712Y-121426288D01*
X138262946Y-121492593D01*
X138380000Y-121515877D01*
X139180000Y-121515877D01*
X139297054Y-121492593D01*
X139396288Y-121426288D01*
X139462593Y-121327054D01*
X139485877Y-121210000D01*
X139485877Y-120310000D01*
X139462593Y-120192946D01*
X139396288Y-120093712D01*
X139297054Y-120027407D01*
X139180000Y-120004123D01*
X139120000Y-120004123D01*
X139120000Y-119912283D01*
X139177016Y-119900942D01*
X139347217Y-119787217D01*
X139460942Y-119617016D01*
X139500877Y-119416250D01*
X139500877Y-118978750D01*
X141639123Y-118978750D01*
X141639123Y-119416250D01*
X141679058Y-119617016D01*
X141792783Y-119787217D01*
X141962984Y-119900942D01*
X142020000Y-119912283D01*
X142020001Y-120016058D01*
X141962946Y-120027407D01*
X141863712Y-120093712D01*
X141797407Y-120192946D01*
X141774123Y-120310000D01*
X141774123Y-121210000D01*
X141797407Y-121327054D01*
X141863712Y-121426288D01*
X141962946Y-121492593D01*
X142080000Y-121515877D01*
X142880000Y-121515877D01*
X142997054Y-121492593D01*
X143096288Y-121426288D01*
X143162593Y-121327054D01*
X143185877Y-121210000D01*
X143185877Y-120310000D01*
X143162593Y-120192946D01*
X143096288Y-120093712D01*
X142997054Y-120027407D01*
X142880000Y-120004123D01*
X142820000Y-120004123D01*
X142820000Y-119912283D01*
X142877016Y-119900942D01*
X143047217Y-119787217D01*
X143160942Y-119617016D01*
X143200877Y-119416250D01*
X143200877Y-118998750D01*
X145419123Y-118998750D01*
X145419123Y-119436250D01*
X145459058Y-119637016D01*
X145572783Y-119807217D01*
X145742984Y-119920942D01*
X145800000Y-119932283D01*
X145800001Y-120024123D01*
X145790000Y-120024123D01*
X145672946Y-120047407D01*
X145573712Y-120113712D01*
X145507407Y-120212946D01*
X145484123Y-120330000D01*
X145484123Y-121230000D01*
X145507407Y-121347054D01*
X145573712Y-121446288D01*
X145672946Y-121512593D01*
X145790000Y-121535877D01*
X146590000Y-121535877D01*
X146707054Y-121512593D01*
X146806288Y-121446288D01*
X146872593Y-121347054D01*
X146895877Y-121230000D01*
X146895877Y-120330000D01*
X146872593Y-120212946D01*
X146806288Y-120113712D01*
X146707054Y-120047407D01*
X146600000Y-120026112D01*
X146600000Y-119932283D01*
X146657016Y-119920942D01*
X146827217Y-119807217D01*
X146940942Y-119637016D01*
X146980877Y-119436250D01*
X146980877Y-118998750D01*
X146974910Y-118968750D01*
X149149123Y-118968750D01*
X149149123Y-119406250D01*
X149189058Y-119607016D01*
X149302783Y-119777217D01*
X149472984Y-119890942D01*
X149530000Y-119902283D01*
X149530001Y-120024123D01*
X149500000Y-120024123D01*
X149382946Y-120047407D01*
X149283712Y-120113712D01*
X149217407Y-120212946D01*
X149194123Y-120330000D01*
X149194123Y-121230000D01*
X149217407Y-121347054D01*
X149283712Y-121446288D01*
X149382946Y-121512593D01*
X149500000Y-121535877D01*
X150300000Y-121535877D01*
X150417054Y-121512593D01*
X150516288Y-121446288D01*
X150582593Y-121347054D01*
X150605877Y-121230000D01*
X150605877Y-120330000D01*
X150582593Y-120212946D01*
X150516288Y-120113712D01*
X150417054Y-120047407D01*
X150330000Y-120030091D01*
X150330000Y-119902283D01*
X150387016Y-119890942D01*
X150557217Y-119777217D01*
X150670942Y-119607016D01*
X150710877Y-119406250D01*
X150710877Y-118968750D01*
X150670942Y-118767984D01*
X150557217Y-118597783D01*
X150387016Y-118484058D01*
X150186250Y-118444123D01*
X149673750Y-118444123D01*
X149472984Y-118484058D01*
X149302783Y-118597783D01*
X149189058Y-118767984D01*
X149149123Y-118968750D01*
X146974910Y-118968750D01*
X146940942Y-118797984D01*
X146827217Y-118627783D01*
X146657016Y-118514058D01*
X146456250Y-118474123D01*
X145943750Y-118474123D01*
X145742984Y-118514058D01*
X145572783Y-118627783D01*
X145459058Y-118797984D01*
X145419123Y-118998750D01*
X143200877Y-118998750D01*
X143200877Y-118978750D01*
X143160942Y-118777984D01*
X143047217Y-118607783D01*
X142877016Y-118494058D01*
X142676250Y-118454123D01*
X142163750Y-118454123D01*
X141962984Y-118494058D01*
X141792783Y-118607783D01*
X141679058Y-118777984D01*
X141639123Y-118978750D01*
X139500877Y-118978750D01*
X139460942Y-118777984D01*
X139347217Y-118607783D01*
X139177016Y-118494058D01*
X138976250Y-118454123D01*
X138463750Y-118454123D01*
X138262984Y-118494058D01*
X138092783Y-118607783D01*
X137979058Y-118777984D01*
X137939123Y-118978750D01*
X135828888Y-118978750D01*
X135795619Y-118811494D01*
X135827499Y-118817836D01*
X135866893Y-118810000D01*
X136082183Y-118810000D01*
X136148450Y-118876267D01*
X136350598Y-118960000D01*
X136569402Y-118960000D01*
X136771550Y-118876267D01*
X136926267Y-118721550D01*
X137010000Y-118519402D01*
X137010000Y-118300598D01*
X137001468Y-118280000D01*
X137219402Y-118280000D01*
X137421550Y-118196267D01*
X137567817Y-118050000D01*
X137984393Y-118050000D01*
X138092783Y-118212217D01*
X138262984Y-118325942D01*
X138463750Y-118365877D01*
X138976250Y-118365877D01*
X139177016Y-118325942D01*
X139347217Y-118212217D01*
X139460942Y-118042016D01*
X139500877Y-117841250D01*
X139500877Y-117480598D01*
X140470000Y-117480598D01*
X140470000Y-117699402D01*
X140553733Y-117901550D01*
X140708450Y-118056267D01*
X140910598Y-118140000D01*
X141129402Y-118140000D01*
X141331550Y-118056267D01*
X141337817Y-118050000D01*
X141684393Y-118050000D01*
X141792783Y-118212217D01*
X141962984Y-118325942D01*
X142163750Y-118365877D01*
X142676250Y-118365877D01*
X142877016Y-118325942D01*
X143047217Y-118212217D01*
X143160942Y-118042016D01*
X143200877Y-117841250D01*
X143200877Y-117480598D01*
X143580000Y-117480598D01*
X143580000Y-117699402D01*
X143663733Y-117901550D01*
X143818450Y-118056267D01*
X144020598Y-118140000D01*
X144239402Y-118140000D01*
X144441550Y-118056267D01*
X144507817Y-117990000D01*
X145444733Y-117990000D01*
X145459058Y-118062016D01*
X145572783Y-118232217D01*
X145742984Y-118345942D01*
X145943750Y-118385877D01*
X146456250Y-118385877D01*
X146657016Y-118345942D01*
X146827217Y-118232217D01*
X146940942Y-118062016D01*
X146980877Y-117861250D01*
X146980877Y-117500598D01*
X147840000Y-117500598D01*
X147840000Y-117719402D01*
X147923733Y-117921550D01*
X148078450Y-118076267D01*
X148280598Y-118160000D01*
X148499402Y-118160000D01*
X148701550Y-118076267D01*
X148765317Y-118012500D01*
X149185176Y-118012500D01*
X149189058Y-118032016D01*
X149302783Y-118202217D01*
X149472984Y-118315942D01*
X149673750Y-118355877D01*
X150186250Y-118355877D01*
X150387016Y-118315942D01*
X150557217Y-118202217D01*
X150670942Y-118032016D01*
X150710877Y-117831250D01*
X150710877Y-117393750D01*
X150670942Y-117192984D01*
X150557217Y-117022783D01*
X150387016Y-116909058D01*
X150186250Y-116869123D01*
X149673750Y-116869123D01*
X149472984Y-116909058D01*
X149302783Y-117022783D01*
X149189058Y-117192984D01*
X149185176Y-117212500D01*
X148770317Y-117212500D01*
X148701550Y-117143733D01*
X148499402Y-117060000D01*
X148280598Y-117060000D01*
X148078450Y-117143733D01*
X147923733Y-117298450D01*
X147840000Y-117500598D01*
X146980877Y-117500598D01*
X146980877Y-117423750D01*
X146940942Y-117222984D01*
X146827217Y-117052783D01*
X146657016Y-116939058D01*
X146456250Y-116899123D01*
X145943750Y-116899123D01*
X145742984Y-116939058D01*
X145572783Y-117052783D01*
X145481097Y-117190000D01*
X144507817Y-117190000D01*
X144441550Y-117123733D01*
X144239402Y-117040000D01*
X144020598Y-117040000D01*
X143818450Y-117123733D01*
X143663733Y-117278450D01*
X143580000Y-117480598D01*
X143200877Y-117480598D01*
X143200877Y-117403750D01*
X143160942Y-117202984D01*
X143047217Y-117032783D01*
X142877016Y-116919058D01*
X142676250Y-116879123D01*
X142163750Y-116879123D01*
X141962984Y-116919058D01*
X141792783Y-117032783D01*
X141679058Y-117202984D01*
X141669706Y-117250000D01*
X141457817Y-117250000D01*
X141331550Y-117123733D01*
X141129402Y-117040000D01*
X140910598Y-117040000D01*
X140708450Y-117123733D01*
X140553733Y-117278450D01*
X140470000Y-117480598D01*
X139500877Y-117480598D01*
X139500877Y-117403750D01*
X139460942Y-117202984D01*
X139347217Y-117032783D01*
X139177016Y-116919058D01*
X138976250Y-116879123D01*
X138463750Y-116879123D01*
X138262984Y-116919058D01*
X138092783Y-117032783D01*
X137979058Y-117202984D01*
X137969706Y-117250000D01*
X137388396Y-117250000D01*
X137219402Y-117180000D01*
X137000598Y-117180000D01*
X136926175Y-117210827D01*
X136863929Y-117223209D01*
X136811159Y-117258469D01*
X136798450Y-117263733D01*
X136788723Y-117273460D01*
X136731617Y-117311617D01*
X136693460Y-117368723D01*
X136643733Y-117418450D01*
X136560000Y-117620598D01*
X136560000Y-117839402D01*
X136568532Y-117860000D01*
X136350598Y-117860000D01*
X136148450Y-117943733D01*
X136082183Y-118010000D01*
X135993185Y-118010000D01*
X135830877Y-117847692D01*
X135830877Y-117413750D01*
X135790942Y-117212984D01*
X135677217Y-117042783D01*
X135507016Y-116929058D01*
X135306250Y-116889123D01*
X134793750Y-116889123D01*
X134592984Y-116929058D01*
X134422783Y-117042783D01*
X134309058Y-117212984D01*
X134269123Y-117413750D01*
X133386492Y-117413750D01*
X133378384Y-117401616D01*
X133246072Y-117313209D01*
X133129394Y-117290000D01*
X133090000Y-117282164D01*
X133050606Y-117290000D01*
X132206316Y-117290000D01*
X132200942Y-117262984D01*
X132087217Y-117092783D01*
X131917016Y-116979058D01*
X131716250Y-116939123D01*
X131203750Y-116939123D01*
X131002984Y-116979058D01*
X130832783Y-117092783D01*
X130719058Y-117262984D01*
X130679123Y-117463750D01*
X128520877Y-117463750D01*
X128520877Y-117393750D01*
X128480942Y-117192984D01*
X128367217Y-117022783D01*
X128197016Y-116909058D01*
X127996250Y-116869123D01*
X127483750Y-116869123D01*
X127282984Y-116909058D01*
X127112783Y-117022783D01*
X126999058Y-117192984D01*
X126959123Y-117393750D01*
X124830877Y-117393750D01*
X124830877Y-117383750D01*
X124790942Y-117182984D01*
X124677217Y-117012783D01*
X124507016Y-116899058D01*
X124306250Y-116859123D01*
X123793750Y-116859123D01*
X123592984Y-116899058D01*
X123422783Y-117012783D01*
X123309058Y-117182984D01*
X123269123Y-117383750D01*
X123269123Y-117817692D01*
X123158786Y-117928029D01*
X123139402Y-117920000D01*
X122920598Y-117920000D01*
X122718450Y-118003733D01*
X122563733Y-118158450D01*
X122480000Y-118360598D01*
X121240000Y-118360598D01*
X121240000Y-106371795D01*
X173650000Y-106371795D01*
X173650000Y-107028205D01*
X173901198Y-107634650D01*
X174365350Y-108098802D01*
X174971795Y-108350000D01*
X175628205Y-108350000D01*
X176234650Y-108098802D01*
X176698802Y-107634650D01*
X176950000Y-107028205D01*
X176950000Y-106371795D01*
X176698802Y-105765350D01*
X176234650Y-105301198D01*
X175628205Y-105050000D01*
X174971795Y-105050000D01*
X174365350Y-105301198D01*
X173901198Y-105765350D01*
X173650000Y-106371795D01*
X121240000Y-106371795D01*
X121240000Y-98798750D01*
X169029123Y-98798750D01*
X169029123Y-99236250D01*
X169069058Y-99437016D01*
X169182783Y-99607217D01*
X169352984Y-99720942D01*
X169410000Y-99732283D01*
X169410001Y-100420602D01*
X169402164Y-100460000D01*
X169433209Y-100616071D01*
X169433210Y-100616072D01*
X169521617Y-100748384D01*
X169555016Y-100770700D01*
X169720000Y-100935685D01*
X169720000Y-101029402D01*
X169803733Y-101231550D01*
X169958450Y-101386267D01*
X170160598Y-101470000D01*
X170379402Y-101470000D01*
X170581550Y-101386267D01*
X170736267Y-101231550D01*
X170820000Y-101029402D01*
X170820000Y-100810598D01*
X170736267Y-100608450D01*
X170581550Y-100453733D01*
X170379402Y-100370000D01*
X170285685Y-100370000D01*
X170210000Y-100294315D01*
X170210000Y-99732283D01*
X170267016Y-99720942D01*
X170437217Y-99607217D01*
X170550942Y-99437016D01*
X170590877Y-99236250D01*
X170590877Y-98798750D01*
X170550942Y-98597984D01*
X170437217Y-98427783D01*
X170267016Y-98314058D01*
X170066250Y-98274123D01*
X169553750Y-98274123D01*
X169352984Y-98314058D01*
X169182783Y-98427783D01*
X169069058Y-98597984D01*
X169029123Y-98798750D01*
X121240000Y-98798750D01*
X121240000Y-95410598D01*
X168890000Y-95410598D01*
X168890000Y-95629402D01*
X168973733Y-95831550D01*
X169128450Y-95986267D01*
X169330598Y-96070000D01*
X169410000Y-96070000D01*
X169410001Y-96727717D01*
X169352984Y-96739058D01*
X169182783Y-96852783D01*
X169069058Y-97022984D01*
X169029123Y-97223750D01*
X169029123Y-97661250D01*
X169069058Y-97862016D01*
X169182783Y-98032217D01*
X169352984Y-98145942D01*
X169553750Y-98185877D01*
X170066250Y-98185877D01*
X170267016Y-98145942D01*
X170437217Y-98032217D01*
X170550942Y-97862016D01*
X170590877Y-97661250D01*
X170590877Y-97223750D01*
X170550942Y-97022984D01*
X170437217Y-96852783D01*
X170267016Y-96739058D01*
X170210000Y-96727717D01*
X170210000Y-95929393D01*
X170217836Y-95889999D01*
X170186791Y-95733928D01*
X170098384Y-95601616D01*
X170064984Y-95579300D01*
X169990000Y-95504315D01*
X169990000Y-95410598D01*
X169906267Y-95208450D01*
X169751550Y-95053733D01*
X169549402Y-94970000D01*
X169330598Y-94970000D01*
X169128450Y-95053733D01*
X168973733Y-95208450D01*
X168890000Y-95410598D01*
X121240000Y-95410598D01*
X121240000Y-85409409D01*
X121281437Y-85617725D01*
X121401936Y-85798064D01*
X121582275Y-85918563D01*
X121795000Y-85960877D01*
X122605000Y-85960877D01*
X122817725Y-85918563D01*
X122998064Y-85798064D01*
X123118563Y-85617725D01*
X123160877Y-85405000D01*
X123160877Y-84810039D01*
X123785000Y-84810039D01*
X123785000Y-85189961D01*
X123930390Y-85540964D01*
X124199036Y-85809610D01*
X124550039Y-85955000D01*
X124929961Y-85955000D01*
X125280964Y-85809610D01*
X125549610Y-85540964D01*
X125695000Y-85189961D01*
X125695000Y-84810039D01*
X126325000Y-84810039D01*
X126325000Y-85189961D01*
X126470390Y-85540964D01*
X126739036Y-85809610D01*
X127090039Y-85955000D01*
X127469961Y-85955000D01*
X127820964Y-85809610D01*
X128089610Y-85540964D01*
X128235000Y-85189961D01*
X128235000Y-84810039D01*
X128865000Y-84810039D01*
X128865000Y-85189961D01*
X129010390Y-85540964D01*
X129279036Y-85809610D01*
X129630039Y-85955000D01*
X130009961Y-85955000D01*
X130360964Y-85809610D01*
X130629610Y-85540964D01*
X130775000Y-85189961D01*
X130775000Y-84810039D01*
X130629610Y-84459036D01*
X130360964Y-84190390D01*
X130009961Y-84045000D01*
X129630039Y-84045000D01*
X129279036Y-84190390D01*
X129010390Y-84459036D01*
X128865000Y-84810039D01*
X128235000Y-84810039D01*
X128089610Y-84459036D01*
X127820964Y-84190390D01*
X127469961Y-84045000D01*
X127090039Y-84045000D01*
X126739036Y-84190390D01*
X126470390Y-84459036D01*
X126325000Y-84810039D01*
X125695000Y-84810039D01*
X125549610Y-84459036D01*
X125280964Y-84190390D01*
X124929961Y-84045000D01*
X124550039Y-84045000D01*
X124199036Y-84190390D01*
X123930390Y-84459036D01*
X123785000Y-84810039D01*
X123160877Y-84810039D01*
X123160877Y-84595000D01*
X123118563Y-84382275D01*
X122998064Y-84201936D01*
X122817725Y-84081437D01*
X122605000Y-84039123D01*
X121795000Y-84039123D01*
X121741632Y-84049739D01*
X122376371Y-83415000D01*
X122389961Y-83415000D01*
X122740964Y-83269610D01*
X122750574Y-83260000D01*
X124189426Y-83260000D01*
X124199036Y-83269610D01*
X124550039Y-83415000D01*
X124929961Y-83415000D01*
X125280964Y-83269610D01*
X125549610Y-83000964D01*
X125695000Y-82649961D01*
X125695000Y-82270039D01*
X128865000Y-82270039D01*
X128865000Y-82649961D01*
X129010390Y-83000964D01*
X129279036Y-83269610D01*
X129630039Y-83415000D01*
X130009961Y-83415000D01*
X130360964Y-83269610D01*
X130629610Y-83000964D01*
X130775000Y-82649961D01*
X130775000Y-82270039D01*
X131405000Y-82270039D01*
X131405000Y-82649961D01*
X131550390Y-83000964D01*
X131819036Y-83269610D01*
X132170039Y-83415000D01*
X132549961Y-83415000D01*
X132900964Y-83269610D01*
X133169610Y-83000964D01*
X133200000Y-82927596D01*
X133200000Y-83660606D01*
X133192164Y-83700000D01*
X133200000Y-83739393D01*
X133223209Y-83856071D01*
X133311616Y-83988384D01*
X133345019Y-84010703D01*
X134003390Y-84669074D01*
X133945000Y-84810039D01*
X133945000Y-85189961D01*
X134090390Y-85540964D01*
X134359036Y-85809610D01*
X134710039Y-85955000D01*
X135089961Y-85955000D01*
X135440964Y-85809610D01*
X135709610Y-85540964D01*
X135855000Y-85189961D01*
X135855000Y-84810039D01*
X136485000Y-84810039D01*
X136485000Y-85189961D01*
X136630390Y-85540964D01*
X136899036Y-85809610D01*
X137250039Y-85955000D01*
X137629961Y-85955000D01*
X137980964Y-85809610D01*
X138249610Y-85540964D01*
X138395000Y-85189961D01*
X138395000Y-84810039D01*
X139025000Y-84810039D01*
X139025000Y-85189961D01*
X139170390Y-85540964D01*
X139439036Y-85809610D01*
X139790039Y-85955000D01*
X140169961Y-85955000D01*
X140520964Y-85809610D01*
X140789610Y-85540964D01*
X140935000Y-85189961D01*
X140935000Y-84810039D01*
X141565000Y-84810039D01*
X141565000Y-85189961D01*
X141710390Y-85540964D01*
X141979036Y-85809610D01*
X142330039Y-85955000D01*
X142709961Y-85955000D01*
X143060964Y-85809610D01*
X143329610Y-85540964D01*
X143475000Y-85189961D01*
X143475000Y-84810039D01*
X144105000Y-84810039D01*
X144105000Y-85189961D01*
X144250390Y-85540964D01*
X144519036Y-85809610D01*
X144870039Y-85955000D01*
X145249961Y-85955000D01*
X145600964Y-85809610D01*
X145869610Y-85540964D01*
X146015000Y-85189961D01*
X146015000Y-84810039D01*
X146645000Y-84810039D01*
X146645000Y-85189961D01*
X146790390Y-85540964D01*
X147059036Y-85809610D01*
X147410039Y-85955000D01*
X147789961Y-85955000D01*
X148140964Y-85809610D01*
X148409610Y-85540964D01*
X148555000Y-85189961D01*
X148555000Y-84810039D01*
X149185000Y-84810039D01*
X149185000Y-85189961D01*
X149330390Y-85540964D01*
X149599036Y-85809610D01*
X149950039Y-85955000D01*
X150329961Y-85955000D01*
X150680964Y-85809610D01*
X150949610Y-85540964D01*
X151095000Y-85189961D01*
X151095000Y-84810039D01*
X154265000Y-84810039D01*
X154265000Y-85189961D01*
X154410390Y-85540964D01*
X154679036Y-85809610D01*
X155030039Y-85955000D01*
X155409961Y-85955000D01*
X155760964Y-85809610D01*
X156029610Y-85540964D01*
X156175000Y-85189961D01*
X156175000Y-84810039D01*
X156805000Y-84810039D01*
X156805000Y-85189961D01*
X156950390Y-85540964D01*
X157219036Y-85809610D01*
X157570039Y-85955000D01*
X157949961Y-85955000D01*
X158300964Y-85809610D01*
X158569610Y-85540964D01*
X158715000Y-85189961D01*
X158715000Y-84810039D01*
X159345000Y-84810039D01*
X159345000Y-85189961D01*
X159490390Y-85540964D01*
X159759036Y-85809610D01*
X160110039Y-85955000D01*
X160489961Y-85955000D01*
X160840964Y-85809610D01*
X161109610Y-85540964D01*
X161255000Y-85189961D01*
X161255000Y-84810039D01*
X161885000Y-84810039D01*
X161885000Y-85189961D01*
X162030390Y-85540964D01*
X162299036Y-85809610D01*
X162650039Y-85955000D01*
X163029961Y-85955000D01*
X163380964Y-85809610D01*
X163649610Y-85540964D01*
X163795000Y-85189961D01*
X163795000Y-84810039D01*
X164425000Y-84810039D01*
X164425000Y-85189961D01*
X164570390Y-85540964D01*
X164839036Y-85809610D01*
X165190039Y-85955000D01*
X165569961Y-85955000D01*
X165920964Y-85809610D01*
X166189610Y-85540964D01*
X166335000Y-85189961D01*
X166335000Y-84810039D01*
X166965000Y-84810039D01*
X166965000Y-85189961D01*
X167110390Y-85540964D01*
X167379036Y-85809610D01*
X167730039Y-85955000D01*
X168109961Y-85955000D01*
X168460964Y-85809610D01*
X168729610Y-85540964D01*
X168875000Y-85189961D01*
X168875000Y-84810039D01*
X168729610Y-84459036D01*
X168460964Y-84190390D01*
X168109961Y-84045000D01*
X167730039Y-84045000D01*
X167379036Y-84190390D01*
X167110390Y-84459036D01*
X166965000Y-84810039D01*
X166335000Y-84810039D01*
X166189610Y-84459036D01*
X165920964Y-84190390D01*
X165569961Y-84045000D01*
X165190039Y-84045000D01*
X164839036Y-84190390D01*
X164570390Y-84459036D01*
X164425000Y-84810039D01*
X163795000Y-84810039D01*
X163649610Y-84459036D01*
X163380964Y-84190390D01*
X163029961Y-84045000D01*
X162650039Y-84045000D01*
X162299036Y-84190390D01*
X162030390Y-84459036D01*
X161885000Y-84810039D01*
X161255000Y-84810039D01*
X161109610Y-84459036D01*
X160840964Y-84190390D01*
X160489961Y-84045000D01*
X160110039Y-84045000D01*
X159759036Y-84190390D01*
X159490390Y-84459036D01*
X159345000Y-84810039D01*
X158715000Y-84810039D01*
X158569610Y-84459036D01*
X158300964Y-84190390D01*
X157949961Y-84045000D01*
X157570039Y-84045000D01*
X157219036Y-84190390D01*
X156950390Y-84459036D01*
X156805000Y-84810039D01*
X156175000Y-84810039D01*
X156029610Y-84459036D01*
X155760964Y-84190390D01*
X155409961Y-84045000D01*
X155030039Y-84045000D01*
X154679036Y-84190390D01*
X154410390Y-84459036D01*
X154265000Y-84810039D01*
X151095000Y-84810039D01*
X150949610Y-84459036D01*
X150680964Y-84190390D01*
X150329961Y-84045000D01*
X149950039Y-84045000D01*
X149599036Y-84190390D01*
X149330390Y-84459036D01*
X149185000Y-84810039D01*
X148555000Y-84810039D01*
X148409610Y-84459036D01*
X148140964Y-84190390D01*
X147789961Y-84045000D01*
X147410039Y-84045000D01*
X147059036Y-84190390D01*
X146790390Y-84459036D01*
X146645000Y-84810039D01*
X146015000Y-84810039D01*
X145869610Y-84459036D01*
X145600964Y-84190390D01*
X145249961Y-84045000D01*
X144870039Y-84045000D01*
X144519036Y-84190390D01*
X144250390Y-84459036D01*
X144105000Y-84810039D01*
X143475000Y-84810039D01*
X143329610Y-84459036D01*
X143060964Y-84190390D01*
X142709961Y-84045000D01*
X142330039Y-84045000D01*
X141979036Y-84190390D01*
X141710390Y-84459036D01*
X141565000Y-84810039D01*
X140935000Y-84810039D01*
X140789610Y-84459036D01*
X140520964Y-84190390D01*
X140169961Y-84045000D01*
X139790039Y-84045000D01*
X139439036Y-84190390D01*
X139170390Y-84459036D01*
X139025000Y-84810039D01*
X138395000Y-84810039D01*
X138249610Y-84459036D01*
X137980964Y-84190390D01*
X137629961Y-84045000D01*
X137250039Y-84045000D01*
X136899036Y-84190390D01*
X136630390Y-84459036D01*
X136485000Y-84810039D01*
X135855000Y-84810039D01*
X135709610Y-84459036D01*
X135440964Y-84190390D01*
X135089961Y-84045000D01*
X134710039Y-84045000D01*
X134569074Y-84103390D01*
X134000000Y-83534316D01*
X134000000Y-82782743D01*
X134090390Y-83000964D01*
X134359036Y-83269610D01*
X134710039Y-83415000D01*
X135089961Y-83415000D01*
X135440964Y-83269610D01*
X135709610Y-83000964D01*
X135855000Y-82649961D01*
X135855000Y-82270039D01*
X139025000Y-82270039D01*
X139025000Y-82649961D01*
X139170390Y-83000964D01*
X139439036Y-83269610D01*
X139790039Y-83415000D01*
X140169961Y-83415000D01*
X140520964Y-83269610D01*
X140789610Y-83000964D01*
X140935000Y-82649961D01*
X140935000Y-82270039D01*
X141565000Y-82270039D01*
X141565000Y-82649961D01*
X141710390Y-83000964D01*
X141979036Y-83269610D01*
X142330039Y-83415000D01*
X142709961Y-83415000D01*
X143060964Y-83269610D01*
X143329610Y-83000964D01*
X143475000Y-82649961D01*
X143475000Y-82270039D01*
X146645000Y-82270039D01*
X146645000Y-82649961D01*
X146790390Y-83000964D01*
X147059036Y-83269610D01*
X147410039Y-83415000D01*
X147789961Y-83415000D01*
X148140964Y-83269610D01*
X148409610Y-83000964D01*
X148555000Y-82649961D01*
X148555000Y-82270039D01*
X149185000Y-82270039D01*
X149185000Y-82649961D01*
X149330390Y-83000964D01*
X149599036Y-83269610D01*
X149950039Y-83415000D01*
X150329961Y-83415000D01*
X150680964Y-83269610D01*
X150949610Y-83000964D01*
X151095000Y-82649961D01*
X151095000Y-82270039D01*
X151725000Y-82270039D01*
X151725000Y-82649961D01*
X151870390Y-83000964D01*
X152139036Y-83269610D01*
X152490039Y-83415000D01*
X152869961Y-83415000D01*
X153220964Y-83269610D01*
X153489610Y-83000964D01*
X153635000Y-82649961D01*
X153635000Y-82270039D01*
X154265000Y-82270039D01*
X154265000Y-82649961D01*
X154410390Y-83000964D01*
X154679036Y-83269610D01*
X155030039Y-83415000D01*
X155409961Y-83415000D01*
X155760964Y-83269610D01*
X156029610Y-83000964D01*
X156175000Y-82649961D01*
X156175000Y-82270039D01*
X159345000Y-82270039D01*
X159345000Y-82649961D01*
X159490390Y-83000964D01*
X159759036Y-83269610D01*
X160110039Y-83415000D01*
X160489961Y-83415000D01*
X160840964Y-83269610D01*
X161109610Y-83000964D01*
X161255000Y-82649961D01*
X161255000Y-82270039D01*
X164425000Y-82270039D01*
X164425000Y-82649961D01*
X164570390Y-83000964D01*
X164839036Y-83269610D01*
X165190039Y-83415000D01*
X165569961Y-83415000D01*
X165920964Y-83269610D01*
X166189610Y-83000964D01*
X166335000Y-82649961D01*
X166335000Y-82270039D01*
X166965000Y-82270039D01*
X166965000Y-82649961D01*
X167110390Y-83000964D01*
X167379036Y-83269610D01*
X167730039Y-83415000D01*
X168109961Y-83415000D01*
X168460964Y-83269610D01*
X168729610Y-83000964D01*
X168875000Y-82649961D01*
X168875000Y-82270039D01*
X169505000Y-82270039D01*
X169505000Y-82649961D01*
X169650390Y-83000964D01*
X169919036Y-83269610D01*
X170270039Y-83415000D01*
X170649961Y-83415000D01*
X170754267Y-83371795D01*
X173650000Y-83371795D01*
X173650000Y-84028205D01*
X173901198Y-84634650D01*
X174365350Y-85098802D01*
X174971795Y-85350000D01*
X175628205Y-85350000D01*
X176234650Y-85098802D01*
X176698802Y-84634650D01*
X176950000Y-84028205D01*
X176950000Y-83371795D01*
X176698802Y-82765350D01*
X176234650Y-82301198D01*
X175628205Y-82050000D01*
X174971795Y-82050000D01*
X174365350Y-82301198D01*
X173901198Y-82765350D01*
X173650000Y-83371795D01*
X170754267Y-83371795D01*
X171000964Y-83269610D01*
X171269610Y-83000964D01*
X171415000Y-82649961D01*
X171415000Y-82270039D01*
X171269610Y-81919036D01*
X171000964Y-81650390D01*
X170649961Y-81505000D01*
X170270039Y-81505000D01*
X169919036Y-81650390D01*
X169650390Y-81919036D01*
X169505000Y-82270039D01*
X168875000Y-82270039D01*
X168729610Y-81919036D01*
X168460964Y-81650390D01*
X168109961Y-81505000D01*
X167730039Y-81505000D01*
X167379036Y-81650390D01*
X167110390Y-81919036D01*
X166965000Y-82270039D01*
X166335000Y-82270039D01*
X166189610Y-81919036D01*
X165920964Y-81650390D01*
X165569961Y-81505000D01*
X165190039Y-81505000D01*
X164839036Y-81650390D01*
X164570390Y-81919036D01*
X164425000Y-82270039D01*
X161255000Y-82270039D01*
X161109610Y-81919036D01*
X160840964Y-81650390D01*
X160489961Y-81505000D01*
X160110039Y-81505000D01*
X159759036Y-81650390D01*
X159490390Y-81919036D01*
X159345000Y-82270039D01*
X156175000Y-82270039D01*
X156029610Y-81919036D01*
X155760964Y-81650390D01*
X155409961Y-81505000D01*
X155030039Y-81505000D01*
X154679036Y-81650390D01*
X154410390Y-81919036D01*
X154265000Y-82270039D01*
X153635000Y-82270039D01*
X153489610Y-81919036D01*
X153220964Y-81650390D01*
X152869961Y-81505000D01*
X152490039Y-81505000D01*
X152139036Y-81650390D01*
X151870390Y-81919036D01*
X151725000Y-82270039D01*
X151095000Y-82270039D01*
X150949610Y-81919036D01*
X150680964Y-81650390D01*
X150329961Y-81505000D01*
X149950039Y-81505000D01*
X149599036Y-81650390D01*
X149330390Y-81919036D01*
X149185000Y-82270039D01*
X148555000Y-82270039D01*
X148409610Y-81919036D01*
X148140964Y-81650390D01*
X147789961Y-81505000D01*
X147410039Y-81505000D01*
X147059036Y-81650390D01*
X146790390Y-81919036D01*
X146645000Y-82270039D01*
X143475000Y-82270039D01*
X143329610Y-81919036D01*
X143060964Y-81650390D01*
X142709961Y-81505000D01*
X142330039Y-81505000D01*
X141979036Y-81650390D01*
X141710390Y-81919036D01*
X141565000Y-82270039D01*
X140935000Y-82270039D01*
X140789610Y-81919036D01*
X140520964Y-81650390D01*
X140169961Y-81505000D01*
X139790039Y-81505000D01*
X139439036Y-81650390D01*
X139170390Y-81919036D01*
X139025000Y-82270039D01*
X135855000Y-82270039D01*
X135709610Y-81919036D01*
X135440964Y-81650390D01*
X135089961Y-81505000D01*
X134710039Y-81505000D01*
X134359036Y-81650390D01*
X134090390Y-81919036D01*
X134000000Y-82137257D01*
X134000000Y-78939392D01*
X134007836Y-78899999D01*
X133979206Y-78756071D01*
X133976791Y-78743928D01*
X133888384Y-78611616D01*
X133854984Y-78589299D01*
X133850000Y-78584315D01*
X133850000Y-78490598D01*
X133766267Y-78288450D01*
X133611550Y-78133733D01*
X133409402Y-78050000D01*
X133190598Y-78050000D01*
X132988450Y-78133733D01*
X132833733Y-78288450D01*
X132750000Y-78490598D01*
X132750000Y-78709402D01*
X132833733Y-78911550D01*
X132988450Y-79066267D01*
X133190598Y-79150000D01*
X133200001Y-79150000D01*
X133200000Y-81992405D01*
X133169610Y-81919036D01*
X132900964Y-81650390D01*
X132549961Y-81505000D01*
X132170039Y-81505000D01*
X131819036Y-81650390D01*
X131550390Y-81919036D01*
X131405000Y-82270039D01*
X130775000Y-82270039D01*
X130716610Y-82129074D01*
X132104985Y-80740700D01*
X132138384Y-80718384D01*
X132226791Y-80586072D01*
X132247909Y-80479908D01*
X132316267Y-80411550D01*
X132400000Y-80209402D01*
X132400000Y-79990598D01*
X132316267Y-79788450D01*
X132161550Y-79633733D01*
X131959402Y-79550000D01*
X131740598Y-79550000D01*
X131538450Y-79633733D01*
X131383733Y-79788450D01*
X131300000Y-79990598D01*
X131300000Y-80209402D01*
X131360018Y-80354297D01*
X130150926Y-81563390D01*
X130009961Y-81505000D01*
X129630039Y-81505000D01*
X129279036Y-81650390D01*
X129010390Y-81919036D01*
X128865000Y-82270039D01*
X125695000Y-82270039D01*
X125549610Y-81919036D01*
X125280964Y-81650390D01*
X124929961Y-81505000D01*
X124550039Y-81505000D01*
X124199036Y-81650390D01*
X124189426Y-81660000D01*
X122750574Y-81660000D01*
X122740964Y-81650390D01*
X122389961Y-81505000D01*
X122010039Y-81505000D01*
X121659036Y-81650390D01*
X121390390Y-81919036D01*
X121245000Y-82270039D01*
X121245000Y-82283629D01*
X119930026Y-83598604D01*
X119863234Y-83643233D01*
X119818605Y-83710025D01*
X119818603Y-83710027D01*
X119686418Y-83907856D01*
X119624329Y-84220000D01*
X118870555Y-84220000D01*
X118950000Y-84028205D01*
X118950000Y-83371795D01*
X118698802Y-82765350D01*
X118234650Y-82301198D01*
X117628205Y-82050000D01*
X116971795Y-82050000D01*
X116365350Y-82301198D01*
X115901198Y-82765350D01*
X115650000Y-83371795D01*
X113850000Y-83371795D01*
X113850000Y-77130000D01*
X115677471Y-77130000D01*
X115766724Y-77578707D01*
X116020897Y-77959103D01*
X116401293Y-78213276D01*
X116736739Y-78280000D01*
X116963261Y-78280000D01*
X117298707Y-78213276D01*
X117679103Y-77959103D01*
X117933276Y-77578707D01*
X117970509Y-77391523D01*
X127680000Y-77391523D01*
X127680000Y-77948477D01*
X127893137Y-78463037D01*
X128286963Y-78856863D01*
X128801523Y-79070000D01*
X129358477Y-79070000D01*
X129873037Y-78856863D01*
X130266863Y-78463037D01*
X130480000Y-77948477D01*
X130480000Y-77391523D01*
X151180000Y-77391523D01*
X151180000Y-77948477D01*
X151393137Y-78463037D01*
X151786963Y-78856863D01*
X152301523Y-79070000D01*
X152858477Y-79070000D01*
X153373037Y-78856863D01*
X153766863Y-78463037D01*
X153980000Y-77948477D01*
X153980000Y-77391523D01*
X153766863Y-76876963D01*
X153373037Y-76483137D01*
X152858477Y-76270000D01*
X152301523Y-76270000D01*
X151786963Y-76483137D01*
X151393137Y-76876963D01*
X151180000Y-77391523D01*
X130480000Y-77391523D01*
X130266863Y-76876963D01*
X129873037Y-76483137D01*
X129358477Y-76270000D01*
X128801523Y-76270000D01*
X128286963Y-76483137D01*
X127893137Y-76876963D01*
X127680000Y-77391523D01*
X117970509Y-77391523D01*
X118022529Y-77130000D01*
X117933276Y-76681293D01*
X117679103Y-76300897D01*
X117298707Y-76046724D01*
X116963261Y-75980000D01*
X116736739Y-75980000D01*
X116401293Y-76046724D01*
X116020897Y-76300897D01*
X115766724Y-76681293D01*
X115677471Y-77130000D01*
X113850000Y-77130000D01*
X113850000Y-74590000D01*
X115677471Y-74590000D01*
X115766724Y-75038707D01*
X116020897Y-75419103D01*
X116401293Y-75673276D01*
X116736739Y-75740000D01*
X116963261Y-75740000D01*
X117298707Y-75673276D01*
X117679103Y-75419103D01*
X117933276Y-75038707D01*
X118022529Y-74590000D01*
X117933276Y-74141293D01*
X117679103Y-73760897D01*
X117298707Y-73506724D01*
X116963261Y-73440000D01*
X116736739Y-73440000D01*
X116401293Y-73506724D01*
X116020897Y-73760897D01*
X115766724Y-74141293D01*
X115677471Y-74590000D01*
X113850000Y-74590000D01*
X113850000Y-70990000D01*
X121003838Y-70990000D01*
X121067868Y-71311899D01*
X121250209Y-71584791D01*
X121310386Y-71625000D01*
X121250209Y-71665209D01*
X121067868Y-71938101D01*
X121003838Y-72260000D01*
X121067868Y-72581899D01*
X121250209Y-72854791D01*
X121523101Y-73037132D01*
X121763749Y-73085000D01*
X122376251Y-73085000D01*
X122616899Y-73037132D01*
X122691995Y-72986954D01*
X161279000Y-72986954D01*
X161279000Y-73482246D01*
X161468540Y-73939836D01*
X161818764Y-74290060D01*
X162276354Y-74479600D01*
X162771646Y-74479600D01*
X163229236Y-74290060D01*
X163579460Y-73939836D01*
X163769000Y-73482246D01*
X163769000Y-73011360D01*
X166100000Y-73011360D01*
X166100000Y-73508640D01*
X166290301Y-73968068D01*
X166641932Y-74319699D01*
X167101360Y-74510000D01*
X167598640Y-74510000D01*
X168058068Y-74319699D01*
X168409699Y-73968068D01*
X168600000Y-73508640D01*
X168600000Y-73011360D01*
X168409699Y-72551932D01*
X168058068Y-72200301D01*
X167598640Y-72010000D01*
X167101360Y-72010000D01*
X166641932Y-72200301D01*
X166290301Y-72551932D01*
X166100000Y-73011360D01*
X163769000Y-73011360D01*
X163769000Y-72986954D01*
X163579460Y-72529364D01*
X163229236Y-72179140D01*
X162771646Y-71989600D01*
X162276354Y-71989600D01*
X161818764Y-72179140D01*
X161468540Y-72529364D01*
X161279000Y-72986954D01*
X122691995Y-72986954D01*
X122889791Y-72854791D01*
X123072132Y-72581899D01*
X123136162Y-72260000D01*
X123072132Y-71938101D01*
X122889791Y-71665209D01*
X122829614Y-71625000D01*
X122889791Y-71584791D01*
X123072132Y-71311899D01*
X123136162Y-70990000D01*
X123072132Y-70668101D01*
X122940674Y-70471360D01*
X166100000Y-70471360D01*
X166100000Y-70968640D01*
X166290301Y-71428068D01*
X166641932Y-71779699D01*
X167101360Y-71970000D01*
X167598640Y-71970000D01*
X168058068Y-71779699D01*
X168096407Y-71741360D01*
X168640000Y-71741360D01*
X168640000Y-72238640D01*
X168830301Y-72698068D01*
X169181932Y-73049699D01*
X169641360Y-73240000D01*
X170138640Y-73240000D01*
X170598068Y-73049699D01*
X170770673Y-72877094D01*
X174315000Y-72877094D01*
X174315000Y-73642906D01*
X174608064Y-74350425D01*
X175149575Y-74891936D01*
X175857094Y-75185000D01*
X176622906Y-75185000D01*
X177330425Y-74891936D01*
X177871936Y-74350425D01*
X178165000Y-73642906D01*
X178165000Y-72877094D01*
X177871936Y-72169575D01*
X177330425Y-71628064D01*
X176622906Y-71335000D01*
X175857094Y-71335000D01*
X175149575Y-71628064D01*
X174608064Y-72169575D01*
X174315000Y-72877094D01*
X170770673Y-72877094D01*
X170949699Y-72698068D01*
X171140000Y-72238640D01*
X171140000Y-71741360D01*
X170949699Y-71281932D01*
X170598068Y-70930301D01*
X170138640Y-70740000D01*
X169641360Y-70740000D01*
X169181932Y-70930301D01*
X168830301Y-71281932D01*
X168640000Y-71741360D01*
X168096407Y-71741360D01*
X168409699Y-71428068D01*
X168600000Y-70968640D01*
X168600000Y-70471360D01*
X168409699Y-70011932D01*
X168058068Y-69660301D01*
X167598640Y-69470000D01*
X167101360Y-69470000D01*
X166641932Y-69660301D01*
X166290301Y-70011932D01*
X166100000Y-70471360D01*
X122940674Y-70471360D01*
X122889791Y-70395209D01*
X122616899Y-70212868D01*
X122376251Y-70165000D01*
X121763749Y-70165000D01*
X121523101Y-70212868D01*
X121250209Y-70395209D01*
X121067868Y-70668101D01*
X121003838Y-70990000D01*
X113850000Y-70990000D01*
X113850000Y-68010000D01*
X115677471Y-68010000D01*
X115766724Y-68458707D01*
X116020897Y-68839103D01*
X116401293Y-69093276D01*
X116736739Y-69160000D01*
X116963261Y-69160000D01*
X117298707Y-69093276D01*
X117679103Y-68839103D01*
X117933276Y-68458707D01*
X118022529Y-68010000D01*
X117978888Y-67790598D01*
X156870000Y-67790598D01*
X156870000Y-68009402D01*
X156953733Y-68211550D01*
X156998849Y-68256666D01*
X156967192Y-68288322D01*
X156883459Y-68490470D01*
X156883459Y-68709274D01*
X156967192Y-68911422D01*
X157121909Y-69066139D01*
X157324057Y-69149872D01*
X157542861Y-69149872D01*
X157745009Y-69066139D01*
X157899726Y-68911422D01*
X157912052Y-68881665D01*
X168697781Y-68881665D01*
X169346101Y-69529987D01*
X169368416Y-69563384D01*
X169500728Y-69651791D01*
X169617406Y-69675000D01*
X169617407Y-69675000D01*
X169656799Y-69682836D01*
X169696192Y-69675000D01*
X171553806Y-69675000D01*
X171593200Y-69682836D01*
X171632594Y-69675000D01*
X171749272Y-69651791D01*
X171881584Y-69563384D01*
X171903903Y-69529981D01*
X172954995Y-68478890D01*
X172988394Y-68456574D01*
X173076801Y-68324262D01*
X173100010Y-68207584D01*
X173100010Y-68207583D01*
X173107846Y-68168190D01*
X173100010Y-68128796D01*
X173100010Y-66313703D01*
X173107846Y-66274310D01*
X173094272Y-66206071D01*
X173076801Y-66118239D01*
X172988394Y-65985927D01*
X172954997Y-65963612D01*
X172376401Y-65385018D01*
X172354083Y-65351616D01*
X172221771Y-65263209D01*
X172105093Y-65240000D01*
X172065699Y-65232164D01*
X172026305Y-65240000D01*
X170787767Y-65240000D01*
X170949699Y-65078068D01*
X171140000Y-64618640D01*
X171140000Y-64121360D01*
X171012394Y-63813292D01*
X171100686Y-63725000D01*
X171403806Y-63725000D01*
X171443200Y-63732836D01*
X171482594Y-63725000D01*
X171599272Y-63701791D01*
X171731584Y-63613384D01*
X171753902Y-63579982D01*
X172179987Y-63153899D01*
X172213384Y-63131584D01*
X172301791Y-62999272D01*
X172325000Y-62882594D01*
X172325000Y-62882593D01*
X172332836Y-62843201D01*
X172325000Y-62803808D01*
X172325000Y-61447094D01*
X174315000Y-61447094D01*
X174315000Y-62212906D01*
X174608064Y-62920425D01*
X175149575Y-63461936D01*
X175857094Y-63755000D01*
X176622906Y-63755000D01*
X177330425Y-63461936D01*
X177871936Y-62920425D01*
X178165000Y-62212906D01*
X178165000Y-61447094D01*
X177871936Y-60739575D01*
X177330425Y-60198064D01*
X176622906Y-59905000D01*
X175857094Y-59905000D01*
X175149575Y-60198064D01*
X174608064Y-60739575D01*
X174315000Y-61447094D01*
X172325000Y-61447094D01*
X172325000Y-60963796D01*
X172332836Y-60924402D01*
X172318710Y-60853384D01*
X172301791Y-60768330D01*
X172213384Y-60636018D01*
X172179984Y-60613702D01*
X171971349Y-60405067D01*
X171965047Y-60373384D01*
X171943390Y-60264509D01*
X171854983Y-60132197D01*
X171821586Y-60109883D01*
X171091720Y-59380018D01*
X171069402Y-59346616D01*
X170937090Y-59258209D01*
X170820412Y-59235000D01*
X170781018Y-59227164D01*
X170741624Y-59235000D01*
X160066193Y-59235000D01*
X160026799Y-59227164D01*
X159870728Y-59258209D01*
X159738416Y-59346616D01*
X159716099Y-59380016D01*
X158931115Y-60165001D01*
X158131407Y-60165001D01*
X158116267Y-60128450D01*
X157961550Y-59973733D01*
X157759402Y-59890000D01*
X157540598Y-59890000D01*
X157338450Y-59973733D01*
X157183733Y-60128450D01*
X157100000Y-60330598D01*
X157100000Y-60549402D01*
X157183733Y-60751550D01*
X157222185Y-60790002D01*
X157183733Y-60828453D01*
X157100000Y-61030601D01*
X157100000Y-61249405D01*
X157183733Y-61451553D01*
X157338450Y-61606270D01*
X157540598Y-61690003D01*
X157759402Y-61690003D01*
X157961550Y-61606270D01*
X158116267Y-61451553D01*
X158131407Y-61415001D01*
X159243805Y-61415001D01*
X159283199Y-61422837D01*
X159322593Y-61415001D01*
X159439271Y-61391792D01*
X159571583Y-61303385D01*
X159593902Y-61269982D01*
X160378885Y-60485000D01*
X170428933Y-60485000D01*
X170518056Y-60574123D01*
X168940000Y-60574123D01*
X168822946Y-60597407D01*
X168723712Y-60663712D01*
X168657407Y-60762946D01*
X168634123Y-60880000D01*
X168634123Y-62780000D01*
X168657407Y-62897054D01*
X168723712Y-62996288D01*
X168822946Y-63062593D01*
X168940000Y-63085877D01*
X170580191Y-63085877D01*
X170594314Y-63100000D01*
X170446708Y-63247606D01*
X170138640Y-63120000D01*
X169641360Y-63120000D01*
X169181932Y-63310301D01*
X168830301Y-63661932D01*
X168640000Y-64121360D01*
X168640000Y-64618640D01*
X168830301Y-65078068D01*
X168992233Y-65240000D01*
X168537305Y-65240000D01*
X168409699Y-64931932D01*
X168058068Y-64580301D01*
X167598640Y-64390000D01*
X167101360Y-64390000D01*
X166641932Y-64580301D01*
X166290301Y-64931932D01*
X166100000Y-65391360D01*
X166100000Y-65888640D01*
X166290301Y-66348068D01*
X166641932Y-66699699D01*
X167101360Y-66890000D01*
X167598640Y-66890000D01*
X168058068Y-66699699D01*
X168409699Y-66348068D01*
X168537305Y-66040000D01*
X168992233Y-66040000D01*
X168830301Y-66201932D01*
X168640000Y-66661360D01*
X168640000Y-67158640D01*
X168830301Y-67618068D01*
X168843898Y-67631665D01*
X157904167Y-67631665D01*
X157886267Y-67588450D01*
X157731550Y-67433733D01*
X157529402Y-67350000D01*
X157310598Y-67350000D01*
X157108450Y-67433733D01*
X156953733Y-67588450D01*
X156870000Y-67790598D01*
X117978888Y-67790598D01*
X117933276Y-67561293D01*
X117679103Y-67180897D01*
X117298707Y-66926724D01*
X116963261Y-66860000D01*
X116736739Y-66860000D01*
X116401293Y-66926724D01*
X116020897Y-67180897D01*
X115766724Y-67561293D01*
X115677471Y-68010000D01*
X113850000Y-68010000D01*
X113850000Y-65470000D01*
X115677471Y-65470000D01*
X115766724Y-65918707D01*
X116020897Y-66299103D01*
X116401293Y-66553276D01*
X116736739Y-66620000D01*
X116963261Y-66620000D01*
X117298707Y-66553276D01*
X117679103Y-66299103D01*
X117933276Y-65918707D01*
X118022529Y-65470000D01*
X117933276Y-65021293D01*
X117679103Y-64640897D01*
X117298707Y-64386724D01*
X117246574Y-64376354D01*
X161279000Y-64376354D01*
X161279000Y-64871646D01*
X161468540Y-65329236D01*
X161818764Y-65679460D01*
X162276354Y-65869000D01*
X162771646Y-65869000D01*
X163229236Y-65679460D01*
X163579460Y-65329236D01*
X163769000Y-64871646D01*
X163769000Y-64376354D01*
X163579460Y-63918764D01*
X163229236Y-63568540D01*
X162771646Y-63379000D01*
X162276354Y-63379000D01*
X161818764Y-63568540D01*
X161468540Y-63918764D01*
X161279000Y-64376354D01*
X117246574Y-64376354D01*
X116963261Y-64320000D01*
X116736739Y-64320000D01*
X116401293Y-64386724D01*
X116020897Y-64640897D01*
X115766724Y-65021293D01*
X115677471Y-65470000D01*
X113850000Y-65470000D01*
X113850000Y-62851360D01*
X166100000Y-62851360D01*
X166100000Y-63348640D01*
X166290301Y-63808068D01*
X166641932Y-64159699D01*
X167101360Y-64350000D01*
X167598640Y-64350000D01*
X168058068Y-64159699D01*
X168409699Y-63808068D01*
X168600000Y-63348640D01*
X168600000Y-62851360D01*
X168409699Y-62391932D01*
X168058068Y-62040301D01*
X167598640Y-61850000D01*
X167101360Y-61850000D01*
X166641932Y-62040301D01*
X166290301Y-62391932D01*
X166100000Y-62851360D01*
X113850000Y-62851360D01*
X113850000Y-61610000D01*
X121857471Y-61610000D01*
X121946724Y-62058707D01*
X122200897Y-62439103D01*
X122581293Y-62693276D01*
X122916739Y-62760000D01*
X123143261Y-62760000D01*
X123478707Y-62693276D01*
X123859103Y-62439103D01*
X124113276Y-62058707D01*
X124202529Y-61610000D01*
X124113276Y-61161293D01*
X123859103Y-60780897D01*
X123478707Y-60526724D01*
X123143261Y-60460000D01*
X122916739Y-60460000D01*
X122581293Y-60526724D01*
X122200897Y-60780897D01*
X121946724Y-61161293D01*
X121857471Y-61610000D01*
X113850000Y-61610000D01*
X113850000Y-59070000D01*
X121857471Y-59070000D01*
X121946724Y-59518707D01*
X122200897Y-59899103D01*
X122581293Y-60153276D01*
X122916739Y-60220000D01*
X123143261Y-60220000D01*
X123478707Y-60153276D01*
X123859103Y-59899103D01*
X124113276Y-59518707D01*
X124202529Y-59070000D01*
X124113276Y-58621293D01*
X123859103Y-58240897D01*
X123478707Y-57986724D01*
X123143261Y-57920000D01*
X122916739Y-57920000D01*
X122581293Y-57986724D01*
X122200897Y-58240897D01*
X121946724Y-58621293D01*
X121857471Y-59070000D01*
X113850000Y-59070000D01*
X113850000Y-54520332D01*
X113923382Y-53890916D01*
X114013907Y-53641523D01*
X127680000Y-53641523D01*
X127680000Y-54198477D01*
X127893137Y-54713037D01*
X128286963Y-55106863D01*
X128801523Y-55320000D01*
X129358477Y-55320000D01*
X129873037Y-55106863D01*
X130266863Y-54713037D01*
X130480000Y-54198477D01*
X130480000Y-53641523D01*
X130266863Y-53126963D01*
X129873037Y-52733137D01*
X129358477Y-52520000D01*
X128801523Y-52520000D01*
X128286963Y-52733137D01*
X127893137Y-53126963D01*
X127680000Y-53641523D01*
X114013907Y-53641523D01*
X114132611Y-53314500D01*
X114468831Y-52801680D01*
X114914005Y-52379962D01*
X115444263Y-52071964D01*
X116035732Y-51892825D01*
X116515583Y-51850000D01*
X134372183Y-51850000D01*
X132949400Y-53272784D01*
G04 #@! TD*
M02*
