M48
;DRILL file {KiCad (5.0.1-3-g963ef8bb5)} date Montag, 24. Dezember 2018 um 15:41:15
;FORMAT={-:-/ absolute / metric / decimal}
FMAT,2
METRIC,TZ
T1C0.300
T2C0.600
T3C0.710
T4C0.750
T5C0.900
T6C1.000
T7C1.400
T8C1.600
T9C3.200
%
G90
G05
M71
T1
X120.25Y-72.85
X120.25Y-74.55
X120.25Y-76.
X120.25Y-77.55
X120.25Y-79.15
X120.25Y-80.75
X122.4Y-65.7
X122.5Y-64.
X122.9Y-76.
X122.9Y-77.5
X122.9Y-79.
X122.9Y-80.75
X123.03Y-118.47
X123.5Y-65.
X124.Y-63.5
X124.Y-73.5
X124.Y-76.
X124.Y-77.5
X124.Y-79.
X124.Y-80.75
X124.5Y-66.
X125.Y-64.5
X125.1Y-74.6
X125.5Y-52.5
X125.5Y-54.
X125.5Y-55.5
X125.5Y-57.3
X125.5Y-58.5
X125.5Y-59.5
X125.5Y-67.
X125.5Y-76.
X125.5Y-77.5
X125.5Y-79.
X125.5Y-80.75
X126.Y-65.5
X126.4Y-74.5
X126.5Y-68.5
X126.5Y-70.
X126.5Y-71.5
X126.5Y-73.
X127.Y-52.5
X127.Y-55.5
X127.Y-57.3
X127.Y-66.5
X127.Y-80.75
X127.5Y-65.
X128.Y-58.5
X128.Y-59.5
X128.Y-68.
X128.Y-69.5
X128.Y-71.
X128.Y-72.5
X128.Y-74.
X128.Y-79.
X128.5Y-66.
X128.5Y-76.
X129.2Y-57.3
X129.45Y-80.75
X129.5Y-67.
X129.5Y-68.5
X129.5Y-70.
X129.5Y-71.5
X129.5Y-73.
X129.5Y-74.5
X129.75Y-118.87
X130.Y-58.5
X130.1Y-60.1
X130.6Y-55.8
X131.Y-52.5
X131.Y-57.5
X131.4Y-60.1
X131.85Y-80.1
X132.Y-54.9
X132.Y-58.5
X132.05Y-91.85
X133.Y-52.5
X133.25Y-90.5
X133.3Y-78.6
X133.5Y-59.
X133.55Y-93.95
X133.6Y-57.5
X133.75Y-91.95
X133.79Y-118.51
X134.Y-56.1
X134.3Y-76.1
X134.3Y-77.6
X134.3Y-79.5
X134.3Y-80.7
X134.35Y-89.45
X134.5Y-54.9
X134.5Y-90.95
X135.Y-53.2
X135.4Y-57.5
X135.6Y-76.
X135.7Y-77.6
X135.7Y-79.5
X135.7Y-80.7
X135.7Y-89.
X135.7Y-90.15
X135.7Y-92.8
X135.7Y-94.5
X135.7Y-96.
X135.7Y-97.7
X135.7Y-99.3
X135.7Y-101.
X135.7Y-102.7
X135.7Y-104.3
X135.7Y-106.
X135.789Y-91.389
X136.Y-56.1
X136.46Y-118.41
X136.6Y-98.5
X136.6Y-100.2
X136.6Y-101.8
X136.9Y-78.8
X137.Y-76.
X137.1Y-104.4
X137.11Y-117.73
X137.2Y-89.
X137.2Y-90.15
X137.2Y-91.3
X137.3Y-57.5
X137.3Y-80.7
X137.4Y-97.1
X137.6Y-77.6
X138.Y-56.1
X138.5Y-91.3
X138.5Y-92.8
X138.5Y-94.5
X138.5Y-96.
X138.6Y-88.85
X138.6Y-90.15
X138.8Y-75.8
X138.8Y-77.
X138.8Y-78.3
X138.8Y-79.5
X138.8Y-80.7
X139.Y-57.5
X139.Y-59.
X140.Y-56.
X140.Y-88.85
X140.Y-90.15
X140.Y-91.3
X140.5Y-57.5
X140.5Y-77.1
X140.5Y-78.3
X140.5Y-79.5
X140.5Y-80.7
X140.6Y-75.9
X141.Y-52.5
X141.Y-55.
X141.02Y-117.59
X141.5Y-56.5
X141.5Y-88.85
X141.5Y-90.15
X141.5Y-91.3
X142.5Y-55.7
X142.6Y-75.9
X142.6Y-77.1
X142.6Y-78.3
X142.6Y-79.5
X142.6Y-80.7
X143.Y-88.85
X143.Y-90.15
X143.Y-91.3
X143.5Y-52.5
X144.Y-55.5
X144.13Y-117.59
X144.5Y-74.45
X144.5Y-75.9
X144.5Y-77.1
X144.5Y-78.3
X144.5Y-79.5
X144.5Y-80.7
X144.5Y-88.85
X144.5Y-90.15
X144.5Y-91.3
X145.5Y-55.5
X146.Y-52.5
X146.Y-74.45
X146.05Y-88.85
X146.05Y-90.15
X146.1Y-91.3
X146.4Y-75.9
X146.4Y-77.1
X146.4Y-78.3
X146.4Y-79.5
X146.4Y-80.7
X147.Y-55.5
X147.5Y-52.5
X147.5Y-54.
X147.6Y-88.7
X147.6Y-91.3
X147.7Y-74.45
X147.75Y-90.15
X148.1Y-75.9
X148.21Y-77.05
X148.39Y-117.61
X148.5Y-78.3
X148.5Y-79.5
X148.5Y-80.7
X148.5Y-87.8
X148.766Y-73.466
X149.1Y-91.3
X149.2Y-89.85
X149.3Y-74.7
X149.3Y-76.3
X149.4Y-86.8
X149.9Y-71.4
X149.9Y-72.6
X149.9Y-77.5
X150.2Y-79.5
X150.2Y-80.7
X150.4Y-75.2
X150.4Y-88.7
X150.7Y-73.8
X150.7Y-91.3
X151.Y-76.3
X151.4Y-87.8
X151.7Y-71.4
X151.7Y-72.6
X151.8Y-80.1
X152.3Y-74.9
X152.3Y-86.8
X152.3Y-91.3
X152.7Y-73.8
X153.2Y-80.1
X153.2Y-90.2
X153.7Y-71.4
X153.7Y-72.6
X153.8Y-88.4
X153.8Y-91.3
X154.1Y-74.95
X154.1Y-76.1
X154.3Y-73.8
X154.5Y-80.1
X154.6Y-81.4
X154.6Y-86.8
X154.7Y-90.2
X155.2Y-76.9
X155.5Y-88.5
X155.5Y-91.3
X155.751Y-74.049
X155.9Y-71.4
X155.9Y-72.6
X155.9Y-79.7
X155.9Y-81.5
X155.95Y-86.798
X155.996Y-76.004
X156.4Y-78.1
X156.8Y-75.2
X156.8Y-90.25
X157.1Y-80.2
X157.126Y-86.674
X157.196Y-77.204
X157.3Y-74.
X157.3Y-79.
X157.3Y-88.5
X157.42Y-67.9
X157.433Y-68.6
X157.65Y-60.44
X157.65Y-61.14
X158.Y-76.3
X158.1Y-80.1
X158.1Y-86.7
X158.346Y-78.354
X158.6Y-75.3
X158.8Y-88.1
X158.8Y-89.25
X158.8Y-90.25
X159.2Y-77.6
X159.3Y-81.1
X159.3Y-86.3
X159.4Y-83.8
X159.7Y-79.9
X160.Y-76.7
X160.Y-86.95
X160.17Y-126.93
X160.3Y-78.7
X160.3Y-88.1
X160.3Y-89.25
X160.3Y-90.25
X160.38Y-115.68
X160.39Y-116.59
X161.Y-81.1
X161.Y-83.8
X161.14Y-99.26
X161.23Y-98.2
X161.3Y-116.6
X161.31Y-115.68
X161.5Y-78.2
X161.5Y-79.9
X161.5Y-86.9
X162.1Y-88.1
X162.1Y-89.25
X162.1Y-90.25
X162.21Y-115.68
X162.21Y-116.6
X162.3Y-98.23
X162.6Y-79.3
X163.3Y-86.9
X163.61Y-97.08
X163.62Y-98.2
X163.65Y-99.27
X163.9Y-88.1
X163.9Y-89.25
X163.9Y-90.25
X164.75Y-97.06
X164.83Y-99.25
X164.84Y-98.15
X165.35Y-89.6
X165.5Y-86.6
X165.8Y-88.1
X165.98Y-98.18
X165.99Y-96.98
X166.04Y-99.28
X166.416Y-104.81
X166.42Y-102.62
X166.42Y-103.36
X166.42Y-104.1
X167.21Y-98.12
X167.24Y-97.02
X167.25Y-99.24
X167.3Y-86.6
X168.4Y-87.3
X168.43Y-97.02
X168.45Y-99.29
X168.47Y-98.09
X169.14Y-91.61
X169.16Y-90.63
X169.16Y-92.66
X169.16Y-93.75
X169.44Y-95.52
X170.27Y-100.92
X170.31Y-90.63
X170.88Y-98.08
X170.9Y-96.51
X170.92Y-94.61
X171.2Y-87.4
X172.02Y-92.88
X172.41Y-99.42
X172.43Y-98.04
X172.44Y-94.61
X172.45Y-96.51
X172.93Y-92.86
X173.76Y-91.78
X173.79Y-90.63
X173.94Y-98.03
X173.94Y-99.39
X173.96Y-94.61
X173.96Y-96.51
X175.27Y-94.62
X175.29Y-99.41
X175.3Y-96.5
X175.3Y-98.04
X176.55Y-98.01
X176.55Y-99.39
X176.57Y-96.51
X176.6Y-94.58
T2
X120.2Y-65.27
X127.32Y-99.88
X131.225Y-61.85
X132.38Y-97.79
X132.56Y-99.72
X133.2Y-72.1
X133.62Y-96.06
X134.05Y-101.9
X135.138Y-59.72
X135.5Y-63.
X135.5Y-64.5
X135.5Y-66.5
X135.5Y-70.5
X137.Y-65.
X137.25Y-71.
X137.5Y-66.5
X137.7Y-105.45
X140.Y-64.
X140.Y-66.5
X140.8Y-60.025
X141.52Y-98.17
X141.54Y-99.66
X141.61Y-101.24
X142.5Y-64.05
X142.5Y-66.5
X143.075Y-70.975
X143.15Y-103.62
X143.26Y-105.75
X143.81Y-99.68
X143.85Y-98.15
X144.09Y-101.51
X144.8Y-58.21
X145.5Y-67.5
X145.7Y-105.77
X145.73Y-101.74
X145.76Y-103.93
X146.Y-69.
X146.575Y-72.825
X146.625Y-61.5
X148.1Y-71.8
X148.22Y-100.89
X148.87Y-103.96
X148.87Y-105.8
X149.35Y-102.16
X149.82Y-99.42
X149.96Y-105.8
X150.58Y-103.54
X151.Y-100.84
X151.94Y-58.19
X153.26Y-100.56
X153.27Y-98.63
X153.98Y-56.47
X154.6Y-70.
X158.4Y-73.
X160.6Y-75.3
X162.5Y-77.1
X164.2Y-77.5
X164.2Y-80.6
X164.4Y-79.08
X166.4Y-81.1
X166.7Y-77.4
X166.7Y-79.08
X168.5Y-79.2
X170.2Y-80.9
X171.3Y-52.6
T3
X122.2Y-82.46
X122.2Y-85.
X124.74Y-82.46
X124.74Y-85.
X127.28Y-82.46
X127.28Y-85.
X129.82Y-82.46
X129.82Y-85.
X132.36Y-82.46
X132.36Y-85.
X134.9Y-82.46
X134.9Y-85.
X137.44Y-82.46
X137.44Y-85.
X139.98Y-82.46
X139.98Y-85.
X142.52Y-82.46
X142.52Y-85.
X145.06Y-82.46
X145.06Y-85.
X147.6Y-82.46
X147.6Y-85.
X150.14Y-82.46
X150.14Y-85.
X152.68Y-82.46
X152.68Y-85.
X155.22Y-82.46
X155.22Y-85.
X157.76Y-82.46
X157.76Y-85.
X160.3Y-82.46
X160.3Y-85.
X162.84Y-82.46
X162.84Y-85.
X165.38Y-82.46
X165.38Y-85.
X167.92Y-82.46
X167.92Y-85.
X170.46Y-82.46
X170.46Y-85.
T4
X122.07Y-70.99
X122.07Y-72.26
X122.07Y-73.53
T5
X162.524Y-62.084
X162.524Y-64.624
X162.524Y-73.235
X162.549Y-70.695
X164.81Y-71.99
X167.35Y-63.1
X167.35Y-65.64
X167.35Y-70.72
X167.35Y-73.26
X169.89Y-61.83
X169.89Y-64.37
X169.89Y-66.91
X169.89Y-71.99
T6
X116.85Y-72.05
X116.85Y-74.59
X116.85Y-77.13
X123.84Y-124.88
X126.38Y-124.88
X128.92Y-124.88
X131.46Y-124.88
X134.Y-124.88
X136.54Y-124.88
X139.08Y-124.88
X141.62Y-124.88
X144.16Y-124.88
X146.7Y-124.88
X123.03Y-53.99
X123.03Y-56.53
X123.03Y-59.07
X123.03Y-61.61
X137.02Y-53.42
X139.56Y-53.42
X142.1Y-53.42
X144.64Y-53.42
X116.85Y-62.93
X116.85Y-65.47
X116.85Y-68.01
X153.79Y-124.9
X156.33Y-124.9
T7
X163.01Y-123.62
X168.09Y-123.62
T8
X173.167Y-59.798
X173.192Y-75.292
T9
X175.5Y-55.
X117.Y-124.5
X175.5Y-124.5
X117.Y-55.
T0
M30
