G04 #@! TF.GenerationSoftware,KiCad,Pcbnew,(5.0.1-3-g963ef8bb5)*
G04 #@! TF.CreationDate,2018-12-24T15:41:03+01:00*
G04 #@! TF.ProjectId,heizungsregler,6865697A756E67737265676C65722E6B,rev?*
G04 #@! TF.SameCoordinates,Original*
G04 #@! TF.FileFunction,Soldermask,Bot*
G04 #@! TF.FilePolarity,Negative*
%FSLAX46Y46*%
G04 Gerber Fmt 4.6, Leading zero omitted, Abs format (unit mm)*
G04 Created by KiCad (PCBNEW (5.0.1-3-g963ef8bb5)) date Montag, 24. Dezember 2018 um 15:41:03*
%MOMM*%
%LPD*%
G01*
G04 APERTURE LIST*
%ADD10C,0.100000*%
G04 APERTURE END LIST*
D10*
G36*
X176046253Y-121753801D02*
X176316730Y-121807602D01*
X176513821Y-121889240D01*
X176826296Y-122018671D01*
X177284899Y-122325100D01*
X177674900Y-122715101D01*
X177981329Y-123173704D01*
X178192398Y-123683271D01*
X178300000Y-124224223D01*
X178300000Y-124775777D01*
X178263239Y-124960589D01*
X178192398Y-125316730D01*
X178149622Y-125420000D01*
X177981329Y-125826296D01*
X177674900Y-126284899D01*
X177284899Y-126674900D01*
X176826296Y-126981329D01*
X176527799Y-127104970D01*
X176316730Y-127192398D01*
X176046253Y-127246199D01*
X175775777Y-127300000D01*
X175224223Y-127300000D01*
X174953747Y-127246199D01*
X174683270Y-127192398D01*
X174472201Y-127104970D01*
X174173704Y-126981329D01*
X173715101Y-126674900D01*
X173325100Y-126284899D01*
X173018671Y-125826296D01*
X172850378Y-125420000D01*
X172807602Y-125316730D01*
X172736761Y-124960589D01*
X172700000Y-124775777D01*
X172700000Y-124224223D01*
X172807602Y-123683271D01*
X173018671Y-123173704D01*
X173325100Y-122715101D01*
X173715101Y-122325100D01*
X174173704Y-122018671D01*
X174486179Y-121889240D01*
X174683270Y-121807602D01*
X174953747Y-121753801D01*
X175224223Y-121700000D01*
X175775777Y-121700000D01*
X176046253Y-121753801D01*
X176046253Y-121753801D01*
G37*
G36*
X117546253Y-121753801D02*
X117816730Y-121807602D01*
X118013821Y-121889240D01*
X118326296Y-122018671D01*
X118784899Y-122325100D01*
X119174900Y-122715101D01*
X119481329Y-123173704D01*
X119692398Y-123683271D01*
X119800000Y-124224223D01*
X119800000Y-124775777D01*
X119763239Y-124960589D01*
X119692398Y-125316730D01*
X119649622Y-125420000D01*
X119481329Y-125826296D01*
X119174900Y-126284899D01*
X118784899Y-126674900D01*
X118326296Y-126981329D01*
X118027799Y-127104970D01*
X117816730Y-127192398D01*
X117546253Y-127246199D01*
X117275777Y-127300000D01*
X116724223Y-127300000D01*
X116453747Y-127246199D01*
X116183270Y-127192398D01*
X115972201Y-127104970D01*
X115673704Y-126981329D01*
X115215101Y-126674900D01*
X114825100Y-126284899D01*
X114518671Y-125826296D01*
X114350378Y-125420000D01*
X114307602Y-125316730D01*
X114236761Y-124960589D01*
X114200000Y-124775777D01*
X114200000Y-124224223D01*
X114307602Y-123683271D01*
X114518671Y-123173704D01*
X114825100Y-122715101D01*
X115215101Y-122325100D01*
X115673704Y-122018671D01*
X115986179Y-121889240D01*
X116183270Y-121807602D01*
X116453747Y-121753801D01*
X116724223Y-121700000D01*
X117275777Y-121700000D01*
X117546253Y-121753801D01*
X117546253Y-121753801D01*
G37*
G36*
X157180000Y-125750000D02*
X155480000Y-125750000D01*
X155480000Y-124050000D01*
X157180000Y-124050000D01*
X157180000Y-125750000D01*
X157180000Y-125750000D01*
G37*
G36*
X153956630Y-124062299D02*
X154116855Y-124110903D01*
X154264520Y-124189831D01*
X154393949Y-124296051D01*
X154500169Y-124425480D01*
X154579097Y-124573145D01*
X154627701Y-124733370D01*
X154644112Y-124900000D01*
X154627701Y-125066630D01*
X154579097Y-125226855D01*
X154500169Y-125374520D01*
X154393949Y-125503949D01*
X154264520Y-125610169D01*
X154116855Y-125689097D01*
X153956630Y-125737701D01*
X153831752Y-125750000D01*
X153748248Y-125750000D01*
X153623370Y-125737701D01*
X153463145Y-125689097D01*
X153315480Y-125610169D01*
X153186051Y-125503949D01*
X153079831Y-125374520D01*
X153000903Y-125226855D01*
X152952299Y-125066630D01*
X152935888Y-124900000D01*
X152952299Y-124733370D01*
X153000903Y-124573145D01*
X153079831Y-124425480D01*
X153186051Y-124296051D01*
X153315480Y-124189831D01*
X153463145Y-124110903D01*
X153623370Y-124062299D01*
X153748248Y-124050000D01*
X153831752Y-124050000D01*
X153956630Y-124062299D01*
X153956630Y-124062299D01*
G37*
G36*
X136706630Y-124042299D02*
X136866855Y-124090903D01*
X137014520Y-124169831D01*
X137143949Y-124276051D01*
X137250169Y-124405480D01*
X137329097Y-124553145D01*
X137377701Y-124713370D01*
X137394112Y-124880000D01*
X137377701Y-125046630D01*
X137329097Y-125206855D01*
X137250169Y-125354520D01*
X137143949Y-125483949D01*
X137014520Y-125590169D01*
X136866855Y-125669097D01*
X136706630Y-125717701D01*
X136581752Y-125730000D01*
X136498248Y-125730000D01*
X136373370Y-125717701D01*
X136213145Y-125669097D01*
X136065480Y-125590169D01*
X135936051Y-125483949D01*
X135829831Y-125354520D01*
X135750903Y-125206855D01*
X135702299Y-125046630D01*
X135685888Y-124880000D01*
X135702299Y-124713370D01*
X135750903Y-124553145D01*
X135829831Y-124405480D01*
X135936051Y-124276051D01*
X136065480Y-124169831D01*
X136213145Y-124090903D01*
X136373370Y-124042299D01*
X136498248Y-124030000D01*
X136581752Y-124030000D01*
X136706630Y-124042299D01*
X136706630Y-124042299D01*
G37*
G36*
X134166630Y-124042299D02*
X134326855Y-124090903D01*
X134474520Y-124169831D01*
X134603949Y-124276051D01*
X134710169Y-124405480D01*
X134789097Y-124553145D01*
X134837701Y-124713370D01*
X134854112Y-124880000D01*
X134837701Y-125046630D01*
X134789097Y-125206855D01*
X134710169Y-125354520D01*
X134603949Y-125483949D01*
X134474520Y-125590169D01*
X134326855Y-125669097D01*
X134166630Y-125717701D01*
X134041752Y-125730000D01*
X133958248Y-125730000D01*
X133833370Y-125717701D01*
X133673145Y-125669097D01*
X133525480Y-125590169D01*
X133396051Y-125483949D01*
X133289831Y-125354520D01*
X133210903Y-125206855D01*
X133162299Y-125046630D01*
X133145888Y-124880000D01*
X133162299Y-124713370D01*
X133210903Y-124553145D01*
X133289831Y-124405480D01*
X133396051Y-124276051D01*
X133525480Y-124169831D01*
X133673145Y-124090903D01*
X133833370Y-124042299D01*
X133958248Y-124030000D01*
X134041752Y-124030000D01*
X134166630Y-124042299D01*
X134166630Y-124042299D01*
G37*
G36*
X131626630Y-124042299D02*
X131786855Y-124090903D01*
X131934520Y-124169831D01*
X132063949Y-124276051D01*
X132170169Y-124405480D01*
X132249097Y-124553145D01*
X132297701Y-124713370D01*
X132314112Y-124880000D01*
X132297701Y-125046630D01*
X132249097Y-125206855D01*
X132170169Y-125354520D01*
X132063949Y-125483949D01*
X131934520Y-125590169D01*
X131786855Y-125669097D01*
X131626630Y-125717701D01*
X131501752Y-125730000D01*
X131418248Y-125730000D01*
X131293370Y-125717701D01*
X131133145Y-125669097D01*
X130985480Y-125590169D01*
X130856051Y-125483949D01*
X130749831Y-125354520D01*
X130670903Y-125206855D01*
X130622299Y-125046630D01*
X130605888Y-124880000D01*
X130622299Y-124713370D01*
X130670903Y-124553145D01*
X130749831Y-124405480D01*
X130856051Y-124276051D01*
X130985480Y-124169831D01*
X131133145Y-124090903D01*
X131293370Y-124042299D01*
X131418248Y-124030000D01*
X131501752Y-124030000D01*
X131626630Y-124042299D01*
X131626630Y-124042299D01*
G37*
G36*
X129086630Y-124042299D02*
X129246855Y-124090903D01*
X129394520Y-124169831D01*
X129523949Y-124276051D01*
X129630169Y-124405480D01*
X129709097Y-124553145D01*
X129757701Y-124713370D01*
X129774112Y-124880000D01*
X129757701Y-125046630D01*
X129709097Y-125206855D01*
X129630169Y-125354520D01*
X129523949Y-125483949D01*
X129394520Y-125590169D01*
X129246855Y-125669097D01*
X129086630Y-125717701D01*
X128961752Y-125730000D01*
X128878248Y-125730000D01*
X128753370Y-125717701D01*
X128593145Y-125669097D01*
X128445480Y-125590169D01*
X128316051Y-125483949D01*
X128209831Y-125354520D01*
X128130903Y-125206855D01*
X128082299Y-125046630D01*
X128065888Y-124880000D01*
X128082299Y-124713370D01*
X128130903Y-124553145D01*
X128209831Y-124405480D01*
X128316051Y-124276051D01*
X128445480Y-124169831D01*
X128593145Y-124090903D01*
X128753370Y-124042299D01*
X128878248Y-124030000D01*
X128961752Y-124030000D01*
X129086630Y-124042299D01*
X129086630Y-124042299D01*
G37*
G36*
X126546630Y-124042299D02*
X126706855Y-124090903D01*
X126854520Y-124169831D01*
X126983949Y-124276051D01*
X127090169Y-124405480D01*
X127169097Y-124553145D01*
X127217701Y-124713370D01*
X127234112Y-124880000D01*
X127217701Y-125046630D01*
X127169097Y-125206855D01*
X127090169Y-125354520D01*
X126983949Y-125483949D01*
X126854520Y-125590169D01*
X126706855Y-125669097D01*
X126546630Y-125717701D01*
X126421752Y-125730000D01*
X126338248Y-125730000D01*
X126213370Y-125717701D01*
X126053145Y-125669097D01*
X125905480Y-125590169D01*
X125776051Y-125483949D01*
X125669831Y-125354520D01*
X125590903Y-125206855D01*
X125542299Y-125046630D01*
X125525888Y-124880000D01*
X125542299Y-124713370D01*
X125590903Y-124553145D01*
X125669831Y-124405480D01*
X125776051Y-124276051D01*
X125905480Y-124169831D01*
X126053145Y-124090903D01*
X126213370Y-124042299D01*
X126338248Y-124030000D01*
X126421752Y-124030000D01*
X126546630Y-124042299D01*
X126546630Y-124042299D01*
G37*
G36*
X124690000Y-125730000D02*
X122990000Y-125730000D01*
X122990000Y-124030000D01*
X124690000Y-124030000D01*
X124690000Y-125730000D01*
X124690000Y-125730000D01*
G37*
G36*
X146866630Y-124042299D02*
X147026855Y-124090903D01*
X147174520Y-124169831D01*
X147303949Y-124276051D01*
X147410169Y-124405480D01*
X147489097Y-124553145D01*
X147537701Y-124713370D01*
X147554112Y-124880000D01*
X147537701Y-125046630D01*
X147489097Y-125206855D01*
X147410169Y-125354520D01*
X147303949Y-125483949D01*
X147174520Y-125590169D01*
X147026855Y-125669097D01*
X146866630Y-125717701D01*
X146741752Y-125730000D01*
X146658248Y-125730000D01*
X146533370Y-125717701D01*
X146373145Y-125669097D01*
X146225480Y-125590169D01*
X146096051Y-125483949D01*
X145989831Y-125354520D01*
X145910903Y-125206855D01*
X145862299Y-125046630D01*
X145845888Y-124880000D01*
X145862299Y-124713370D01*
X145910903Y-124553145D01*
X145989831Y-124405480D01*
X146096051Y-124276051D01*
X146225480Y-124169831D01*
X146373145Y-124090903D01*
X146533370Y-124042299D01*
X146658248Y-124030000D01*
X146741752Y-124030000D01*
X146866630Y-124042299D01*
X146866630Y-124042299D01*
G37*
G36*
X144326630Y-124042299D02*
X144486855Y-124090903D01*
X144634520Y-124169831D01*
X144763949Y-124276051D01*
X144870169Y-124405480D01*
X144949097Y-124553145D01*
X144997701Y-124713370D01*
X145014112Y-124880000D01*
X144997701Y-125046630D01*
X144949097Y-125206855D01*
X144870169Y-125354520D01*
X144763949Y-125483949D01*
X144634520Y-125590169D01*
X144486855Y-125669097D01*
X144326630Y-125717701D01*
X144201752Y-125730000D01*
X144118248Y-125730000D01*
X143993370Y-125717701D01*
X143833145Y-125669097D01*
X143685480Y-125590169D01*
X143556051Y-125483949D01*
X143449831Y-125354520D01*
X143370903Y-125206855D01*
X143322299Y-125046630D01*
X143305888Y-124880000D01*
X143322299Y-124713370D01*
X143370903Y-124553145D01*
X143449831Y-124405480D01*
X143556051Y-124276051D01*
X143685480Y-124169831D01*
X143833145Y-124090903D01*
X143993370Y-124042299D01*
X144118248Y-124030000D01*
X144201752Y-124030000D01*
X144326630Y-124042299D01*
X144326630Y-124042299D01*
G37*
G36*
X141786630Y-124042299D02*
X141946855Y-124090903D01*
X142094520Y-124169831D01*
X142223949Y-124276051D01*
X142330169Y-124405480D01*
X142409097Y-124553145D01*
X142457701Y-124713370D01*
X142474112Y-124880000D01*
X142457701Y-125046630D01*
X142409097Y-125206855D01*
X142330169Y-125354520D01*
X142223949Y-125483949D01*
X142094520Y-125590169D01*
X141946855Y-125669097D01*
X141786630Y-125717701D01*
X141661752Y-125730000D01*
X141578248Y-125730000D01*
X141453370Y-125717701D01*
X141293145Y-125669097D01*
X141145480Y-125590169D01*
X141016051Y-125483949D01*
X140909831Y-125354520D01*
X140830903Y-125206855D01*
X140782299Y-125046630D01*
X140765888Y-124880000D01*
X140782299Y-124713370D01*
X140830903Y-124553145D01*
X140909831Y-124405480D01*
X141016051Y-124276051D01*
X141145480Y-124169831D01*
X141293145Y-124090903D01*
X141453370Y-124042299D01*
X141578248Y-124030000D01*
X141661752Y-124030000D01*
X141786630Y-124042299D01*
X141786630Y-124042299D01*
G37*
G36*
X139246630Y-124042299D02*
X139406855Y-124090903D01*
X139554520Y-124169831D01*
X139683949Y-124276051D01*
X139790169Y-124405480D01*
X139869097Y-124553145D01*
X139917701Y-124713370D01*
X139934112Y-124880000D01*
X139917701Y-125046630D01*
X139869097Y-125206855D01*
X139790169Y-125354520D01*
X139683949Y-125483949D01*
X139554520Y-125590169D01*
X139406855Y-125669097D01*
X139246630Y-125717701D01*
X139121752Y-125730000D01*
X139038248Y-125730000D01*
X138913370Y-125717701D01*
X138753145Y-125669097D01*
X138605480Y-125590169D01*
X138476051Y-125483949D01*
X138369831Y-125354520D01*
X138290903Y-125206855D01*
X138242299Y-125046630D01*
X138225888Y-124880000D01*
X138242299Y-124713370D01*
X138290903Y-124553145D01*
X138369831Y-124405480D01*
X138476051Y-124276051D01*
X138605480Y-124169831D01*
X138753145Y-124090903D01*
X138913370Y-124042299D01*
X139038248Y-124030000D01*
X139121752Y-124030000D01*
X139246630Y-124042299D01*
X139246630Y-124042299D01*
G37*
G36*
X168293875Y-121835048D02*
X168489915Y-121894516D01*
X168670589Y-121991088D01*
X168828949Y-122121051D01*
X168828950Y-122121053D01*
X168828952Y-122121054D01*
X168869663Y-122170661D01*
X168958912Y-122279411D01*
X169055484Y-122460084D01*
X169114952Y-122656124D01*
X169130000Y-122808909D01*
X169130000Y-124431091D01*
X169114952Y-124583876D01*
X169055484Y-124779916D01*
X168958912Y-124960589D01*
X168828949Y-125118949D01*
X168670589Y-125248912D01*
X168489916Y-125345484D01*
X168293876Y-125404952D01*
X168090000Y-125425032D01*
X167886125Y-125404952D01*
X167690085Y-125345484D01*
X167509412Y-125248912D01*
X167351052Y-125118949D01*
X167221089Y-124960589D01*
X167124517Y-124779916D01*
X167104331Y-124713371D01*
X167065048Y-124583877D01*
X167050000Y-124431084D01*
X167050000Y-122808910D01*
X167065048Y-122656125D01*
X167124516Y-122460085D01*
X167221088Y-122279411D01*
X167351051Y-122121051D01*
X167351053Y-122121050D01*
X167351054Y-122121048D01*
X167413258Y-122069999D01*
X167509411Y-121991088D01*
X167690084Y-121894516D01*
X167886124Y-121835048D01*
X168090000Y-121814968D01*
X168293875Y-121835048D01*
X168293875Y-121835048D01*
G37*
G36*
X163925081Y-121823572D02*
X163954055Y-121832361D01*
X163980760Y-121846635D01*
X164004160Y-121865840D01*
X164023365Y-121889240D01*
X164037639Y-121915945D01*
X164046428Y-121944919D01*
X164050000Y-121981187D01*
X164050000Y-125258813D01*
X164046428Y-125295081D01*
X164037639Y-125324055D01*
X164023365Y-125350760D01*
X164004160Y-125374160D01*
X163980760Y-125393365D01*
X163954055Y-125407639D01*
X163925081Y-125416428D01*
X163888813Y-125420000D01*
X162131187Y-125420000D01*
X162094919Y-125416428D01*
X162065945Y-125407639D01*
X162039240Y-125393365D01*
X162015840Y-125374160D01*
X161996635Y-125350760D01*
X161982361Y-125324055D01*
X161973572Y-125295081D01*
X161970000Y-125258813D01*
X161970000Y-121981187D01*
X161973572Y-121944919D01*
X161982361Y-121915945D01*
X161996635Y-121889240D01*
X162015840Y-121865840D01*
X162039240Y-121846635D01*
X162065945Y-121832361D01*
X162094919Y-121823572D01*
X162131187Y-121820000D01*
X163888813Y-121820000D01*
X163925081Y-121823572D01*
X163925081Y-121823572D01*
G37*
G36*
X151250000Y-123230000D02*
X150450000Y-123230000D01*
X150450000Y-122330000D01*
X151250000Y-122330000D01*
X151250000Y-123230000D01*
X151250000Y-123230000D01*
G37*
G36*
X147540000Y-123230000D02*
X146740000Y-123230000D01*
X146740000Y-122330000D01*
X147540000Y-122330000D01*
X147540000Y-123230000D01*
X147540000Y-123230000D01*
G37*
G36*
X136450000Y-123220000D02*
X135650000Y-123220000D01*
X135650000Y-122320000D01*
X136450000Y-122320000D01*
X136450000Y-123220000D01*
X136450000Y-123220000D01*
G37*
G36*
X143830000Y-123210000D02*
X143030000Y-123210000D01*
X143030000Y-122310000D01*
X143830000Y-122310000D01*
X143830000Y-123210000D01*
X143830000Y-123210000D01*
G37*
G36*
X140130000Y-123210000D02*
X139330000Y-123210000D01*
X139330000Y-122310000D01*
X140130000Y-122310000D01*
X140130000Y-123210000D01*
X140130000Y-123210000D01*
G37*
G36*
X132800000Y-123210000D02*
X132000000Y-123210000D01*
X132000000Y-122310000D01*
X132800000Y-122310000D01*
X132800000Y-123210000D01*
X132800000Y-123210000D01*
G37*
G36*
X125430000Y-123180000D02*
X124630000Y-123180000D01*
X124630000Y-122280000D01*
X125430000Y-122280000D01*
X125430000Y-123180000D01*
X125430000Y-123180000D01*
G37*
G36*
X129110000Y-123180000D02*
X128310000Y-123180000D01*
X128310000Y-122280000D01*
X129110000Y-122280000D01*
X129110000Y-123180000D01*
X129110000Y-123180000D01*
G37*
G36*
X152200000Y-121230000D02*
X151400000Y-121230000D01*
X151400000Y-120330000D01*
X152200000Y-120330000D01*
X152200000Y-121230000D01*
X152200000Y-121230000D01*
G37*
G36*
X150300000Y-121230000D02*
X149500000Y-121230000D01*
X149500000Y-120330000D01*
X150300000Y-120330000D01*
X150300000Y-121230000D01*
X150300000Y-121230000D01*
G37*
G36*
X148490000Y-121230000D02*
X147690000Y-121230000D01*
X147690000Y-120330000D01*
X148490000Y-120330000D01*
X148490000Y-121230000D01*
X148490000Y-121230000D01*
G37*
G36*
X146590000Y-121230000D02*
X145790000Y-121230000D01*
X145790000Y-120330000D01*
X146590000Y-120330000D01*
X146590000Y-121230000D01*
X146590000Y-121230000D01*
G37*
G36*
X137400000Y-121220000D02*
X136600000Y-121220000D01*
X136600000Y-120320000D01*
X137400000Y-120320000D01*
X137400000Y-121220000D01*
X137400000Y-121220000D01*
G37*
G36*
X135500000Y-121220000D02*
X134700000Y-121220000D01*
X134700000Y-120320000D01*
X135500000Y-120320000D01*
X135500000Y-121220000D01*
X135500000Y-121220000D01*
G37*
G36*
X131850000Y-121210000D02*
X131050000Y-121210000D01*
X131050000Y-120310000D01*
X131850000Y-120310000D01*
X131850000Y-121210000D01*
X131850000Y-121210000D01*
G37*
G36*
X141080000Y-121210000D02*
X140280000Y-121210000D01*
X140280000Y-120310000D01*
X141080000Y-120310000D01*
X141080000Y-121210000D01*
X141080000Y-121210000D01*
G37*
G36*
X142880000Y-121210000D02*
X142080000Y-121210000D01*
X142080000Y-120310000D01*
X142880000Y-120310000D01*
X142880000Y-121210000D01*
X142880000Y-121210000D01*
G37*
G36*
X139180000Y-121210000D02*
X138380000Y-121210000D01*
X138380000Y-120310000D01*
X139180000Y-120310000D01*
X139180000Y-121210000D01*
X139180000Y-121210000D01*
G37*
G36*
X144780000Y-121210000D02*
X143980000Y-121210000D01*
X143980000Y-120310000D01*
X144780000Y-120310000D01*
X144780000Y-121210000D01*
X144780000Y-121210000D01*
G37*
G36*
X133750000Y-121210000D02*
X132950000Y-121210000D01*
X132950000Y-120310000D01*
X133750000Y-120310000D01*
X133750000Y-121210000D01*
X133750000Y-121210000D01*
G37*
G36*
X124480000Y-121180000D02*
X123680000Y-121180000D01*
X123680000Y-120280000D01*
X124480000Y-120280000D01*
X124480000Y-121180000D01*
X124480000Y-121180000D01*
G37*
G36*
X126380000Y-121180000D02*
X125580000Y-121180000D01*
X125580000Y-120280000D01*
X126380000Y-120280000D01*
X126380000Y-121180000D01*
X126380000Y-121180000D01*
G37*
G36*
X130060000Y-121180000D02*
X129260000Y-121180000D01*
X129260000Y-120280000D01*
X130060000Y-120280000D01*
X130060000Y-121180000D01*
X130060000Y-121180000D01*
G37*
G36*
X128160000Y-121180000D02*
X127360000Y-121180000D01*
X127360000Y-120280000D01*
X128160000Y-120280000D01*
X128160000Y-121180000D01*
X128160000Y-121180000D01*
G37*
G36*
X131809116Y-118823595D02*
X131838313Y-118832452D01*
X131865218Y-118846833D01*
X131888808Y-118866192D01*
X131908167Y-118889782D01*
X131922548Y-118916687D01*
X131931405Y-118945884D01*
X131935000Y-118982390D01*
X131935000Y-119532610D01*
X131931405Y-119569116D01*
X131922548Y-119598313D01*
X131908167Y-119625218D01*
X131888808Y-119648808D01*
X131865218Y-119668167D01*
X131838313Y-119682548D01*
X131809116Y-119691405D01*
X131772610Y-119695000D01*
X131147390Y-119695000D01*
X131110884Y-119691405D01*
X131081687Y-119682548D01*
X131054782Y-119668167D01*
X131031192Y-119648808D01*
X131011833Y-119625218D01*
X130997452Y-119598313D01*
X130988595Y-119569116D01*
X130985000Y-119532610D01*
X130985000Y-118982390D01*
X130988595Y-118945884D01*
X130997452Y-118916687D01*
X131011833Y-118889782D01*
X131031192Y-118866192D01*
X131054782Y-118846833D01*
X131081687Y-118832452D01*
X131110884Y-118823595D01*
X131147390Y-118820000D01*
X131772610Y-118820000D01*
X131809116Y-118823595D01*
X131809116Y-118823595D01*
G37*
G36*
X146549116Y-118783595D02*
X146578313Y-118792452D01*
X146605218Y-118806833D01*
X146628808Y-118826192D01*
X146648167Y-118849782D01*
X146662548Y-118876687D01*
X146671405Y-118905884D01*
X146675000Y-118942390D01*
X146675000Y-119492610D01*
X146671405Y-119529116D01*
X146662548Y-119558313D01*
X146648167Y-119585218D01*
X146628808Y-119608808D01*
X146605218Y-119628167D01*
X146578313Y-119642548D01*
X146549116Y-119651405D01*
X146512610Y-119655000D01*
X145887390Y-119655000D01*
X145850884Y-119651405D01*
X145821687Y-119642548D01*
X145794782Y-119628167D01*
X145771192Y-119608808D01*
X145751833Y-119585218D01*
X145737452Y-119558313D01*
X145728595Y-119529116D01*
X145725000Y-119492610D01*
X145725000Y-118942390D01*
X145728595Y-118905884D01*
X145737452Y-118876687D01*
X145751833Y-118849782D01*
X145771192Y-118826192D01*
X145794782Y-118806833D01*
X145821687Y-118792452D01*
X145850884Y-118783595D01*
X145887390Y-118780000D01*
X146512610Y-118780000D01*
X146549116Y-118783595D01*
X146549116Y-118783595D01*
G37*
G36*
X135399116Y-118773595D02*
X135428313Y-118782452D01*
X135455218Y-118796833D01*
X135478808Y-118816192D01*
X135498167Y-118839782D01*
X135512548Y-118866687D01*
X135521405Y-118895884D01*
X135525000Y-118932390D01*
X135525000Y-119482610D01*
X135521405Y-119519116D01*
X135512548Y-119548313D01*
X135498167Y-119575218D01*
X135478808Y-119598808D01*
X135455218Y-119618167D01*
X135428313Y-119632548D01*
X135399116Y-119641405D01*
X135362610Y-119645000D01*
X134737390Y-119645000D01*
X134700884Y-119641405D01*
X134671687Y-119632548D01*
X134644782Y-119618167D01*
X134621192Y-119598808D01*
X134601833Y-119575218D01*
X134587452Y-119548313D01*
X134578595Y-119519116D01*
X134575000Y-119482610D01*
X134575000Y-118932390D01*
X134578595Y-118895884D01*
X134587452Y-118866687D01*
X134601833Y-118839782D01*
X134621192Y-118816192D01*
X134644782Y-118796833D01*
X134671687Y-118782452D01*
X134700884Y-118773595D01*
X134737390Y-118770000D01*
X135362610Y-118770000D01*
X135399116Y-118773595D01*
X135399116Y-118773595D01*
G37*
G36*
X142769116Y-118763595D02*
X142798313Y-118772452D01*
X142825218Y-118786833D01*
X142848808Y-118806192D01*
X142868167Y-118829782D01*
X142882548Y-118856687D01*
X142891405Y-118885884D01*
X142895000Y-118922390D01*
X142895000Y-119472610D01*
X142891405Y-119509116D01*
X142882548Y-119538313D01*
X142868167Y-119565218D01*
X142848808Y-119588808D01*
X142825218Y-119608167D01*
X142798313Y-119622548D01*
X142769116Y-119631405D01*
X142732610Y-119635000D01*
X142107390Y-119635000D01*
X142070884Y-119631405D01*
X142041687Y-119622548D01*
X142014782Y-119608167D01*
X141991192Y-119588808D01*
X141971833Y-119565218D01*
X141957452Y-119538313D01*
X141948595Y-119509116D01*
X141945000Y-119472610D01*
X141945000Y-118922390D01*
X141948595Y-118885884D01*
X141957452Y-118856687D01*
X141971833Y-118829782D01*
X141991192Y-118806192D01*
X142014782Y-118786833D01*
X142041687Y-118772452D01*
X142070884Y-118763595D01*
X142107390Y-118760000D01*
X142732610Y-118760000D01*
X142769116Y-118763595D01*
X142769116Y-118763595D01*
G37*
G36*
X139069116Y-118763595D02*
X139098313Y-118772452D01*
X139125218Y-118786833D01*
X139148808Y-118806192D01*
X139168167Y-118829782D01*
X139182548Y-118856687D01*
X139191405Y-118885884D01*
X139195000Y-118922390D01*
X139195000Y-119472610D01*
X139191405Y-119509116D01*
X139182548Y-119538313D01*
X139168167Y-119565218D01*
X139148808Y-119588808D01*
X139125218Y-119608167D01*
X139098313Y-119622548D01*
X139069116Y-119631405D01*
X139032610Y-119635000D01*
X138407390Y-119635000D01*
X138370884Y-119631405D01*
X138341687Y-119622548D01*
X138314782Y-119608167D01*
X138291192Y-119588808D01*
X138271833Y-119565218D01*
X138257452Y-119538313D01*
X138248595Y-119509116D01*
X138245000Y-119472610D01*
X138245000Y-118922390D01*
X138248595Y-118885884D01*
X138257452Y-118856687D01*
X138271833Y-118829782D01*
X138291192Y-118806192D01*
X138314782Y-118786833D01*
X138341687Y-118772452D01*
X138370884Y-118763595D01*
X138407390Y-118760000D01*
X139032610Y-118760000D01*
X139069116Y-118763595D01*
X139069116Y-118763595D01*
G37*
G36*
X128089116Y-118753595D02*
X128118313Y-118762452D01*
X128145218Y-118776833D01*
X128168808Y-118796192D01*
X128188167Y-118819782D01*
X128202548Y-118846687D01*
X128211405Y-118875884D01*
X128215000Y-118912390D01*
X128215000Y-119462610D01*
X128211405Y-119499116D01*
X128202548Y-119528313D01*
X128188167Y-119555218D01*
X128168808Y-119578808D01*
X128145218Y-119598167D01*
X128118313Y-119612548D01*
X128089116Y-119621405D01*
X128052610Y-119625000D01*
X127427390Y-119625000D01*
X127390884Y-119621405D01*
X127361687Y-119612548D01*
X127334782Y-119598167D01*
X127311192Y-119578808D01*
X127291833Y-119555218D01*
X127277452Y-119528313D01*
X127268595Y-119499116D01*
X127265000Y-119462610D01*
X127265000Y-118912390D01*
X127268595Y-118875884D01*
X127277452Y-118846687D01*
X127291833Y-118819782D01*
X127311192Y-118796192D01*
X127334782Y-118776833D01*
X127361687Y-118762452D01*
X127390884Y-118753595D01*
X127427390Y-118750000D01*
X128052610Y-118750000D01*
X128089116Y-118753595D01*
X128089116Y-118753595D01*
G37*
G36*
X150279116Y-118753595D02*
X150308313Y-118762452D01*
X150335218Y-118776833D01*
X150358808Y-118796192D01*
X150378167Y-118819782D01*
X150392548Y-118846687D01*
X150401405Y-118875884D01*
X150405000Y-118912390D01*
X150405000Y-119462610D01*
X150401405Y-119499116D01*
X150392548Y-119528313D01*
X150378167Y-119555218D01*
X150358808Y-119578808D01*
X150335218Y-119598167D01*
X150308313Y-119612548D01*
X150279116Y-119621405D01*
X150242610Y-119625000D01*
X149617390Y-119625000D01*
X149580884Y-119621405D01*
X149551687Y-119612548D01*
X149524782Y-119598167D01*
X149501192Y-119578808D01*
X149481833Y-119555218D01*
X149467452Y-119528313D01*
X149458595Y-119499116D01*
X149455000Y-119462610D01*
X149455000Y-118912390D01*
X149458595Y-118875884D01*
X149467452Y-118846687D01*
X149481833Y-118819782D01*
X149501192Y-118796192D01*
X149524782Y-118776833D01*
X149551687Y-118762452D01*
X149580884Y-118753595D01*
X149617390Y-118750000D01*
X150242610Y-118750000D01*
X150279116Y-118753595D01*
X150279116Y-118753595D01*
G37*
G36*
X124399116Y-118743595D02*
X124428313Y-118752452D01*
X124455218Y-118766833D01*
X124478808Y-118786192D01*
X124498167Y-118809782D01*
X124512548Y-118836687D01*
X124521405Y-118865884D01*
X124525000Y-118902390D01*
X124525000Y-119452610D01*
X124521405Y-119489116D01*
X124512548Y-119518313D01*
X124498167Y-119545218D01*
X124478808Y-119568808D01*
X124455218Y-119588167D01*
X124428313Y-119602548D01*
X124399116Y-119611405D01*
X124362610Y-119615000D01*
X123737390Y-119615000D01*
X123700884Y-119611405D01*
X123671687Y-119602548D01*
X123644782Y-119588167D01*
X123621192Y-119568808D01*
X123601833Y-119545218D01*
X123587452Y-119518313D01*
X123578595Y-119489116D01*
X123575000Y-119452610D01*
X123575000Y-118902390D01*
X123578595Y-118865884D01*
X123587452Y-118836687D01*
X123601833Y-118809782D01*
X123621192Y-118786192D01*
X123644782Y-118766833D01*
X123671687Y-118752452D01*
X123700884Y-118743595D01*
X123737390Y-118740000D01*
X124362610Y-118740000D01*
X124399116Y-118743595D01*
X124399116Y-118743595D01*
G37*
G36*
X131809116Y-117248595D02*
X131838313Y-117257452D01*
X131865218Y-117271833D01*
X131888808Y-117291192D01*
X131908167Y-117314782D01*
X131922548Y-117341687D01*
X131931405Y-117370884D01*
X131935000Y-117407390D01*
X131935000Y-117957610D01*
X131931405Y-117994116D01*
X131922548Y-118023313D01*
X131908167Y-118050218D01*
X131888808Y-118073808D01*
X131865218Y-118093167D01*
X131838313Y-118107548D01*
X131809116Y-118116405D01*
X131772610Y-118120000D01*
X131147390Y-118120000D01*
X131110884Y-118116405D01*
X131081687Y-118107548D01*
X131054782Y-118093167D01*
X131031192Y-118073808D01*
X131011833Y-118050218D01*
X130997452Y-118023313D01*
X130988595Y-117994116D01*
X130985000Y-117957610D01*
X130985000Y-117407390D01*
X130988595Y-117370884D01*
X130997452Y-117341687D01*
X131011833Y-117314782D01*
X131031192Y-117291192D01*
X131054782Y-117271833D01*
X131081687Y-117257452D01*
X131110884Y-117248595D01*
X131147390Y-117245000D01*
X131772610Y-117245000D01*
X131809116Y-117248595D01*
X131809116Y-117248595D01*
G37*
G36*
X146549116Y-117208595D02*
X146578313Y-117217452D01*
X146605218Y-117231833D01*
X146628808Y-117251192D01*
X146648167Y-117274782D01*
X146662548Y-117301687D01*
X146671405Y-117330884D01*
X146675000Y-117367390D01*
X146675000Y-117917610D01*
X146671405Y-117954116D01*
X146662548Y-117983313D01*
X146648167Y-118010218D01*
X146628808Y-118033808D01*
X146605218Y-118053167D01*
X146578313Y-118067548D01*
X146549116Y-118076405D01*
X146512610Y-118080000D01*
X145887390Y-118080000D01*
X145850884Y-118076405D01*
X145821687Y-118067548D01*
X145794782Y-118053167D01*
X145771192Y-118033808D01*
X145751833Y-118010218D01*
X145737452Y-117983313D01*
X145728595Y-117954116D01*
X145725000Y-117917610D01*
X145725000Y-117367390D01*
X145728595Y-117330884D01*
X145737452Y-117301687D01*
X145751833Y-117274782D01*
X145771192Y-117251192D01*
X145794782Y-117231833D01*
X145821687Y-117217452D01*
X145850884Y-117208595D01*
X145887390Y-117205000D01*
X146512610Y-117205000D01*
X146549116Y-117208595D01*
X146549116Y-117208595D01*
G37*
G36*
X135399116Y-117198595D02*
X135428313Y-117207452D01*
X135455218Y-117221833D01*
X135478808Y-117241192D01*
X135498167Y-117264782D01*
X135512548Y-117291687D01*
X135521405Y-117320884D01*
X135525000Y-117357390D01*
X135525000Y-117907610D01*
X135521405Y-117944116D01*
X135512548Y-117973313D01*
X135498167Y-118000218D01*
X135478808Y-118023808D01*
X135455218Y-118043167D01*
X135428313Y-118057548D01*
X135399116Y-118066405D01*
X135362610Y-118070000D01*
X134737390Y-118070000D01*
X134700884Y-118066405D01*
X134671687Y-118057548D01*
X134644782Y-118043167D01*
X134621192Y-118023808D01*
X134601833Y-118000218D01*
X134587452Y-117973313D01*
X134578595Y-117944116D01*
X134575000Y-117907610D01*
X134575000Y-117357390D01*
X134578595Y-117320884D01*
X134587452Y-117291687D01*
X134601833Y-117264782D01*
X134621192Y-117241192D01*
X134644782Y-117221833D01*
X134671687Y-117207452D01*
X134700884Y-117198595D01*
X134737390Y-117195000D01*
X135362610Y-117195000D01*
X135399116Y-117198595D01*
X135399116Y-117198595D01*
G37*
G36*
X142769116Y-117188595D02*
X142798313Y-117197452D01*
X142825218Y-117211833D01*
X142848808Y-117231192D01*
X142868167Y-117254782D01*
X142882548Y-117281687D01*
X142891405Y-117310884D01*
X142895000Y-117347390D01*
X142895000Y-117897610D01*
X142891405Y-117934116D01*
X142882548Y-117963313D01*
X142868167Y-117990218D01*
X142848808Y-118013808D01*
X142825218Y-118033167D01*
X142798313Y-118047548D01*
X142769116Y-118056405D01*
X142732610Y-118060000D01*
X142107390Y-118060000D01*
X142070884Y-118056405D01*
X142041687Y-118047548D01*
X142014782Y-118033167D01*
X141991192Y-118013808D01*
X141971833Y-117990218D01*
X141957452Y-117963313D01*
X141948595Y-117934116D01*
X141945000Y-117897610D01*
X141945000Y-117347390D01*
X141948595Y-117310884D01*
X141957452Y-117281687D01*
X141971833Y-117254782D01*
X141991192Y-117231192D01*
X142014782Y-117211833D01*
X142041687Y-117197452D01*
X142070884Y-117188595D01*
X142107390Y-117185000D01*
X142732610Y-117185000D01*
X142769116Y-117188595D01*
X142769116Y-117188595D01*
G37*
G36*
X139069116Y-117188595D02*
X139098313Y-117197452D01*
X139125218Y-117211833D01*
X139148808Y-117231192D01*
X139168167Y-117254782D01*
X139182548Y-117281687D01*
X139191405Y-117310884D01*
X139195000Y-117347390D01*
X139195000Y-117897610D01*
X139191405Y-117934116D01*
X139182548Y-117963313D01*
X139168167Y-117990218D01*
X139148808Y-118013808D01*
X139125218Y-118033167D01*
X139098313Y-118047548D01*
X139069116Y-118056405D01*
X139032610Y-118060000D01*
X138407390Y-118060000D01*
X138370884Y-118056405D01*
X138341687Y-118047548D01*
X138314782Y-118033167D01*
X138291192Y-118013808D01*
X138271833Y-117990218D01*
X138257452Y-117963313D01*
X138248595Y-117934116D01*
X138245000Y-117897610D01*
X138245000Y-117347390D01*
X138248595Y-117310884D01*
X138257452Y-117281687D01*
X138271833Y-117254782D01*
X138291192Y-117231192D01*
X138314782Y-117211833D01*
X138341687Y-117197452D01*
X138370884Y-117188595D01*
X138407390Y-117185000D01*
X139032610Y-117185000D01*
X139069116Y-117188595D01*
X139069116Y-117188595D01*
G37*
G36*
X150279116Y-117178595D02*
X150308313Y-117187452D01*
X150335218Y-117201833D01*
X150358808Y-117221192D01*
X150378167Y-117244782D01*
X150392548Y-117271687D01*
X150401405Y-117300884D01*
X150405000Y-117337390D01*
X150405000Y-117887610D01*
X150401405Y-117924116D01*
X150392548Y-117953313D01*
X150378167Y-117980218D01*
X150358808Y-118003808D01*
X150335218Y-118023167D01*
X150308313Y-118037548D01*
X150279116Y-118046405D01*
X150242610Y-118050000D01*
X149617390Y-118050000D01*
X149580884Y-118046405D01*
X149551687Y-118037548D01*
X149524782Y-118023167D01*
X149501192Y-118003808D01*
X149481833Y-117980218D01*
X149467452Y-117953313D01*
X149458595Y-117924116D01*
X149455000Y-117887610D01*
X149455000Y-117337390D01*
X149458595Y-117300884D01*
X149467452Y-117271687D01*
X149481833Y-117244782D01*
X149501192Y-117221192D01*
X149524782Y-117201833D01*
X149551687Y-117187452D01*
X149580884Y-117178595D01*
X149617390Y-117175000D01*
X150242610Y-117175000D01*
X150279116Y-117178595D01*
X150279116Y-117178595D01*
G37*
G36*
X128089116Y-117178595D02*
X128118313Y-117187452D01*
X128145218Y-117201833D01*
X128168808Y-117221192D01*
X128188167Y-117244782D01*
X128202548Y-117271687D01*
X128211405Y-117300884D01*
X128215000Y-117337390D01*
X128215000Y-117887610D01*
X128211405Y-117924116D01*
X128202548Y-117953313D01*
X128188167Y-117980218D01*
X128168808Y-118003808D01*
X128145218Y-118023167D01*
X128118313Y-118037548D01*
X128089116Y-118046405D01*
X128052610Y-118050000D01*
X127427390Y-118050000D01*
X127390884Y-118046405D01*
X127361687Y-118037548D01*
X127334782Y-118023167D01*
X127311192Y-118003808D01*
X127291833Y-117980218D01*
X127277452Y-117953313D01*
X127268595Y-117924116D01*
X127265000Y-117887610D01*
X127265000Y-117337390D01*
X127268595Y-117300884D01*
X127277452Y-117271687D01*
X127291833Y-117244782D01*
X127311192Y-117221192D01*
X127334782Y-117201833D01*
X127361687Y-117187452D01*
X127390884Y-117178595D01*
X127427390Y-117175000D01*
X128052610Y-117175000D01*
X128089116Y-117178595D01*
X128089116Y-117178595D01*
G37*
G36*
X124399116Y-117168595D02*
X124428313Y-117177452D01*
X124455218Y-117191833D01*
X124478808Y-117211192D01*
X124498167Y-117234782D01*
X124512548Y-117261687D01*
X124521405Y-117290884D01*
X124525000Y-117327390D01*
X124525000Y-117877610D01*
X124521405Y-117914116D01*
X124512548Y-117943313D01*
X124498167Y-117970218D01*
X124478808Y-117993808D01*
X124455218Y-118013167D01*
X124428313Y-118027548D01*
X124399116Y-118036405D01*
X124362610Y-118040000D01*
X123737390Y-118040000D01*
X123700884Y-118036405D01*
X123671687Y-118027548D01*
X123644782Y-118013167D01*
X123621192Y-117993808D01*
X123601833Y-117970218D01*
X123587452Y-117943313D01*
X123578595Y-117914116D01*
X123575000Y-117877610D01*
X123575000Y-117327390D01*
X123578595Y-117290884D01*
X123587452Y-117261687D01*
X123601833Y-117234782D01*
X123621192Y-117211192D01*
X123644782Y-117191833D01*
X123671687Y-117177452D01*
X123700884Y-117168595D01*
X123737390Y-117165000D01*
X124362610Y-117165000D01*
X124399116Y-117168595D01*
X124399116Y-117168595D01*
G37*
G36*
X117693778Y-105401879D02*
X117939466Y-105503646D01*
X118160578Y-105651389D01*
X118348611Y-105839422D01*
X118496354Y-106060534D01*
X118598121Y-106306222D01*
X118650000Y-106567035D01*
X118650000Y-106832965D01*
X118598121Y-107093778D01*
X118496354Y-107339466D01*
X118348611Y-107560578D01*
X118160578Y-107748611D01*
X117939466Y-107896354D01*
X117693778Y-107998121D01*
X117432965Y-108050000D01*
X117167035Y-108050000D01*
X116906222Y-107998121D01*
X116660534Y-107896354D01*
X116439422Y-107748611D01*
X116251389Y-107560578D01*
X116103646Y-107339466D01*
X116001879Y-107093778D01*
X115950000Y-106832965D01*
X115950000Y-106567035D01*
X116001879Y-106306222D01*
X116103646Y-106060534D01*
X116251389Y-105839422D01*
X116439422Y-105651389D01*
X116660534Y-105503646D01*
X116906222Y-105401879D01*
X117167035Y-105350000D01*
X117432965Y-105350000D01*
X117693778Y-105401879D01*
X117693778Y-105401879D01*
G37*
G36*
X175693778Y-105401879D02*
X175939466Y-105503646D01*
X176160578Y-105651389D01*
X176348611Y-105839422D01*
X176496354Y-106060534D01*
X176598121Y-106306222D01*
X176650000Y-106567035D01*
X176650000Y-106832965D01*
X176598121Y-107093778D01*
X176496354Y-107339466D01*
X176348611Y-107560578D01*
X176160578Y-107748611D01*
X175939466Y-107896354D01*
X175693778Y-107998121D01*
X175432965Y-108050000D01*
X175167035Y-108050000D01*
X174906222Y-107998121D01*
X174660534Y-107896354D01*
X174439422Y-107748611D01*
X174251389Y-107560578D01*
X174103646Y-107339466D01*
X174001879Y-107093778D01*
X173950000Y-106832965D01*
X173950000Y-106567035D01*
X174001879Y-106306222D01*
X174103646Y-106060534D01*
X174251389Y-105839422D01*
X174439422Y-105651389D01*
X174660534Y-105503646D01*
X174906222Y-105401879D01*
X175167035Y-105350000D01*
X175432965Y-105350000D01*
X175693778Y-105401879D01*
X175693778Y-105401879D01*
G37*
G36*
X170159116Y-98583595D02*
X170188313Y-98592452D01*
X170215218Y-98606833D01*
X170238808Y-98626192D01*
X170258167Y-98649782D01*
X170272548Y-98676687D01*
X170281405Y-98705884D01*
X170285000Y-98742390D01*
X170285000Y-99292610D01*
X170281405Y-99329116D01*
X170272548Y-99358313D01*
X170258167Y-99385218D01*
X170238808Y-99408808D01*
X170215218Y-99428167D01*
X170188313Y-99442548D01*
X170159116Y-99451405D01*
X170122610Y-99455000D01*
X169497390Y-99455000D01*
X169460884Y-99451405D01*
X169431687Y-99442548D01*
X169404782Y-99428167D01*
X169381192Y-99408808D01*
X169361833Y-99385218D01*
X169347452Y-99358313D01*
X169338595Y-99329116D01*
X169335000Y-99292610D01*
X169335000Y-98742390D01*
X169338595Y-98705884D01*
X169347452Y-98676687D01*
X169361833Y-98649782D01*
X169381192Y-98626192D01*
X169404782Y-98606833D01*
X169431687Y-98592452D01*
X169460884Y-98583595D01*
X169497390Y-98580000D01*
X170122610Y-98580000D01*
X170159116Y-98583595D01*
X170159116Y-98583595D01*
G37*
G36*
X170159116Y-97008595D02*
X170188313Y-97017452D01*
X170215218Y-97031833D01*
X170238808Y-97051192D01*
X170258167Y-97074782D01*
X170272548Y-97101687D01*
X170281405Y-97130884D01*
X170285000Y-97167390D01*
X170285000Y-97717610D01*
X170281405Y-97754116D01*
X170272548Y-97783313D01*
X170258167Y-97810218D01*
X170238808Y-97833808D01*
X170215218Y-97853167D01*
X170188313Y-97867548D01*
X170159116Y-97876405D01*
X170122610Y-97880000D01*
X169497390Y-97880000D01*
X169460884Y-97876405D01*
X169431687Y-97867548D01*
X169404782Y-97853167D01*
X169381192Y-97833808D01*
X169361833Y-97810218D01*
X169347452Y-97783313D01*
X169338595Y-97754116D01*
X169335000Y-97717610D01*
X169335000Y-97167390D01*
X169338595Y-97130884D01*
X169347452Y-97101687D01*
X169361833Y-97074782D01*
X169381192Y-97051192D01*
X169404782Y-97031833D01*
X169431687Y-97017452D01*
X169460884Y-97008595D01*
X169497390Y-97005000D01*
X170122610Y-97005000D01*
X170159116Y-97008595D01*
X170159116Y-97008595D01*
G37*
G36*
X145251056Y-84370171D02*
X145367063Y-84418223D01*
X145370259Y-84419547D01*
X145477538Y-84491228D01*
X145568772Y-84582462D01*
X145640453Y-84689741D01*
X145689829Y-84808944D01*
X145715000Y-84935487D01*
X145715000Y-85064513D01*
X145689829Y-85191056D01*
X145640453Y-85310259D01*
X145568772Y-85417538D01*
X145477538Y-85508772D01*
X145424975Y-85543893D01*
X145370259Y-85580453D01*
X145251056Y-85629829D01*
X145124513Y-85655000D01*
X144995487Y-85655000D01*
X144868944Y-85629829D01*
X144749741Y-85580453D01*
X144695025Y-85543893D01*
X144642462Y-85508772D01*
X144551228Y-85417538D01*
X144479547Y-85310259D01*
X144430171Y-85191056D01*
X144405000Y-85064513D01*
X144405000Y-84935487D01*
X144430171Y-84808944D01*
X144479547Y-84689741D01*
X144551228Y-84582462D01*
X144642462Y-84491228D01*
X144749741Y-84419547D01*
X144752937Y-84418223D01*
X144868944Y-84370171D01*
X144995487Y-84345000D01*
X145124513Y-84345000D01*
X145251056Y-84370171D01*
X145251056Y-84370171D01*
G37*
G36*
X132551056Y-84370171D02*
X132667063Y-84418223D01*
X132670259Y-84419547D01*
X132777538Y-84491228D01*
X132868772Y-84582462D01*
X132940453Y-84689741D01*
X132989829Y-84808944D01*
X133015000Y-84935487D01*
X133015000Y-85064513D01*
X132989829Y-85191056D01*
X132940453Y-85310259D01*
X132868772Y-85417538D01*
X132777538Y-85508772D01*
X132724975Y-85543893D01*
X132670259Y-85580453D01*
X132551056Y-85629829D01*
X132424513Y-85655000D01*
X132295487Y-85655000D01*
X132168944Y-85629829D01*
X132049741Y-85580453D01*
X131995025Y-85543893D01*
X131942462Y-85508772D01*
X131851228Y-85417538D01*
X131779547Y-85310259D01*
X131730171Y-85191056D01*
X131705000Y-85064513D01*
X131705000Y-84935487D01*
X131730171Y-84808944D01*
X131779547Y-84689741D01*
X131851228Y-84582462D01*
X131942462Y-84491228D01*
X132049741Y-84419547D01*
X132052937Y-84418223D01*
X132168944Y-84370171D01*
X132295487Y-84345000D01*
X132424513Y-84345000D01*
X132551056Y-84370171D01*
X132551056Y-84370171D01*
G37*
G36*
X165571056Y-84370171D02*
X165687063Y-84418223D01*
X165690259Y-84419547D01*
X165797538Y-84491228D01*
X165888772Y-84582462D01*
X165960453Y-84689741D01*
X166009829Y-84808944D01*
X166035000Y-84935487D01*
X166035000Y-85064513D01*
X166009829Y-85191056D01*
X165960453Y-85310259D01*
X165888772Y-85417538D01*
X165797538Y-85508772D01*
X165744975Y-85543893D01*
X165690259Y-85580453D01*
X165571056Y-85629829D01*
X165444513Y-85655000D01*
X165315487Y-85655000D01*
X165188944Y-85629829D01*
X165069741Y-85580453D01*
X165015025Y-85543893D01*
X164962462Y-85508772D01*
X164871228Y-85417538D01*
X164799547Y-85310259D01*
X164750171Y-85191056D01*
X164725000Y-85064513D01*
X164725000Y-84935487D01*
X164750171Y-84808944D01*
X164799547Y-84689741D01*
X164871228Y-84582462D01*
X164962462Y-84491228D01*
X165069741Y-84419547D01*
X165072937Y-84418223D01*
X165188944Y-84370171D01*
X165315487Y-84345000D01*
X165444513Y-84345000D01*
X165571056Y-84370171D01*
X165571056Y-84370171D01*
G37*
G36*
X122715867Y-84348911D02*
X122748152Y-84358705D01*
X122777907Y-84374609D01*
X122803987Y-84396013D01*
X122825391Y-84422093D01*
X122841295Y-84451848D01*
X122851089Y-84484133D01*
X122855000Y-84523848D01*
X122855000Y-85476152D01*
X122851089Y-85515867D01*
X122841295Y-85548152D01*
X122825391Y-85577907D01*
X122803987Y-85603987D01*
X122777907Y-85625391D01*
X122748152Y-85641295D01*
X122715867Y-85651089D01*
X122676152Y-85655000D01*
X121723848Y-85655000D01*
X121684133Y-85651089D01*
X121651848Y-85641295D01*
X121622093Y-85625391D01*
X121596013Y-85603987D01*
X121574609Y-85577907D01*
X121558705Y-85548152D01*
X121548911Y-85515867D01*
X121545000Y-85476152D01*
X121545000Y-84523848D01*
X121548911Y-84484133D01*
X121558705Y-84451848D01*
X121574609Y-84422093D01*
X121596013Y-84396013D01*
X121622093Y-84374609D01*
X121651848Y-84358705D01*
X121684133Y-84348911D01*
X121723848Y-84345000D01*
X122676152Y-84345000D01*
X122715867Y-84348911D01*
X122715867Y-84348911D01*
G37*
G36*
X124931056Y-84370171D02*
X125047063Y-84418223D01*
X125050259Y-84419547D01*
X125157538Y-84491228D01*
X125248772Y-84582462D01*
X125320453Y-84689741D01*
X125369829Y-84808944D01*
X125395000Y-84935487D01*
X125395000Y-85064513D01*
X125369829Y-85191056D01*
X125320453Y-85310259D01*
X125248772Y-85417538D01*
X125157538Y-85508772D01*
X125104975Y-85543893D01*
X125050259Y-85580453D01*
X124931056Y-85629829D01*
X124804513Y-85655000D01*
X124675487Y-85655000D01*
X124548944Y-85629829D01*
X124429741Y-85580453D01*
X124375025Y-85543893D01*
X124322462Y-85508772D01*
X124231228Y-85417538D01*
X124159547Y-85310259D01*
X124110171Y-85191056D01*
X124085000Y-85064513D01*
X124085000Y-84935487D01*
X124110171Y-84808944D01*
X124159547Y-84689741D01*
X124231228Y-84582462D01*
X124322462Y-84491228D01*
X124429741Y-84419547D01*
X124432937Y-84418223D01*
X124548944Y-84370171D01*
X124675487Y-84345000D01*
X124804513Y-84345000D01*
X124931056Y-84370171D01*
X124931056Y-84370171D01*
G37*
G36*
X127471056Y-84370171D02*
X127587063Y-84418223D01*
X127590259Y-84419547D01*
X127697538Y-84491228D01*
X127788772Y-84582462D01*
X127860453Y-84689741D01*
X127909829Y-84808944D01*
X127935000Y-84935487D01*
X127935000Y-85064513D01*
X127909829Y-85191056D01*
X127860453Y-85310259D01*
X127788772Y-85417538D01*
X127697538Y-85508772D01*
X127644975Y-85543893D01*
X127590259Y-85580453D01*
X127471056Y-85629829D01*
X127344513Y-85655000D01*
X127215487Y-85655000D01*
X127088944Y-85629829D01*
X126969741Y-85580453D01*
X126915025Y-85543893D01*
X126862462Y-85508772D01*
X126771228Y-85417538D01*
X126699547Y-85310259D01*
X126650171Y-85191056D01*
X126625000Y-85064513D01*
X126625000Y-84935487D01*
X126650171Y-84808944D01*
X126699547Y-84689741D01*
X126771228Y-84582462D01*
X126862462Y-84491228D01*
X126969741Y-84419547D01*
X126972937Y-84418223D01*
X127088944Y-84370171D01*
X127215487Y-84345000D01*
X127344513Y-84345000D01*
X127471056Y-84370171D01*
X127471056Y-84370171D01*
G37*
G36*
X168111056Y-84370171D02*
X168227063Y-84418223D01*
X168230259Y-84419547D01*
X168337538Y-84491228D01*
X168428772Y-84582462D01*
X168500453Y-84689741D01*
X168549829Y-84808944D01*
X168575000Y-84935487D01*
X168575000Y-85064513D01*
X168549829Y-85191056D01*
X168500453Y-85310259D01*
X168428772Y-85417538D01*
X168337538Y-85508772D01*
X168284975Y-85543893D01*
X168230259Y-85580453D01*
X168111056Y-85629829D01*
X167984513Y-85655000D01*
X167855487Y-85655000D01*
X167728944Y-85629829D01*
X167609741Y-85580453D01*
X167555025Y-85543893D01*
X167502462Y-85508772D01*
X167411228Y-85417538D01*
X167339547Y-85310259D01*
X167290171Y-85191056D01*
X167265000Y-85064513D01*
X167265000Y-84935487D01*
X167290171Y-84808944D01*
X167339547Y-84689741D01*
X167411228Y-84582462D01*
X167502462Y-84491228D01*
X167609741Y-84419547D01*
X167612937Y-84418223D01*
X167728944Y-84370171D01*
X167855487Y-84345000D01*
X167984513Y-84345000D01*
X168111056Y-84370171D01*
X168111056Y-84370171D01*
G37*
G36*
X157951056Y-84370171D02*
X158067063Y-84418223D01*
X158070259Y-84419547D01*
X158177538Y-84491228D01*
X158268772Y-84582462D01*
X158340453Y-84689741D01*
X158389829Y-84808944D01*
X158415000Y-84935487D01*
X158415000Y-85064513D01*
X158389829Y-85191056D01*
X158340453Y-85310259D01*
X158268772Y-85417538D01*
X158177538Y-85508772D01*
X158124975Y-85543893D01*
X158070259Y-85580453D01*
X157951056Y-85629829D01*
X157824513Y-85655000D01*
X157695487Y-85655000D01*
X157568944Y-85629829D01*
X157449741Y-85580453D01*
X157395025Y-85543893D01*
X157342462Y-85508772D01*
X157251228Y-85417538D01*
X157179547Y-85310259D01*
X157130171Y-85191056D01*
X157105000Y-85064513D01*
X157105000Y-84935487D01*
X157130171Y-84808944D01*
X157179547Y-84689741D01*
X157251228Y-84582462D01*
X157342462Y-84491228D01*
X157449741Y-84419547D01*
X157452937Y-84418223D01*
X157568944Y-84370171D01*
X157695487Y-84345000D01*
X157824513Y-84345000D01*
X157951056Y-84370171D01*
X157951056Y-84370171D01*
G37*
G36*
X170651056Y-84370171D02*
X170767063Y-84418223D01*
X170770259Y-84419547D01*
X170877538Y-84491228D01*
X170968772Y-84582462D01*
X171040453Y-84689741D01*
X171089829Y-84808944D01*
X171115000Y-84935487D01*
X171115000Y-85064513D01*
X171089829Y-85191056D01*
X171040453Y-85310259D01*
X170968772Y-85417538D01*
X170877538Y-85508772D01*
X170824975Y-85543893D01*
X170770259Y-85580453D01*
X170651056Y-85629829D01*
X170524513Y-85655000D01*
X170395487Y-85655000D01*
X170268944Y-85629829D01*
X170149741Y-85580453D01*
X170095025Y-85543893D01*
X170042462Y-85508772D01*
X169951228Y-85417538D01*
X169879547Y-85310259D01*
X169830171Y-85191056D01*
X169805000Y-85064513D01*
X169805000Y-84935487D01*
X169830171Y-84808944D01*
X169879547Y-84689741D01*
X169951228Y-84582462D01*
X170042462Y-84491228D01*
X170149741Y-84419547D01*
X170152937Y-84418223D01*
X170268944Y-84370171D01*
X170395487Y-84345000D01*
X170524513Y-84345000D01*
X170651056Y-84370171D01*
X170651056Y-84370171D01*
G37*
G36*
X163031056Y-84370171D02*
X163147063Y-84418223D01*
X163150259Y-84419547D01*
X163257538Y-84491228D01*
X163348772Y-84582462D01*
X163420453Y-84689741D01*
X163469829Y-84808944D01*
X163495000Y-84935487D01*
X163495000Y-85064513D01*
X163469829Y-85191056D01*
X163420453Y-85310259D01*
X163348772Y-85417538D01*
X163257538Y-85508772D01*
X163204975Y-85543893D01*
X163150259Y-85580453D01*
X163031056Y-85629829D01*
X162904513Y-85655000D01*
X162775487Y-85655000D01*
X162648944Y-85629829D01*
X162529741Y-85580453D01*
X162475025Y-85543893D01*
X162422462Y-85508772D01*
X162331228Y-85417538D01*
X162259547Y-85310259D01*
X162210171Y-85191056D01*
X162185000Y-85064513D01*
X162185000Y-84935487D01*
X162210171Y-84808944D01*
X162259547Y-84689741D01*
X162331228Y-84582462D01*
X162422462Y-84491228D01*
X162529741Y-84419547D01*
X162532937Y-84418223D01*
X162648944Y-84370171D01*
X162775487Y-84345000D01*
X162904513Y-84345000D01*
X163031056Y-84370171D01*
X163031056Y-84370171D01*
G37*
G36*
X160491056Y-84370171D02*
X160607063Y-84418223D01*
X160610259Y-84419547D01*
X160717538Y-84491228D01*
X160808772Y-84582462D01*
X160880453Y-84689741D01*
X160929829Y-84808944D01*
X160955000Y-84935487D01*
X160955000Y-85064513D01*
X160929829Y-85191056D01*
X160880453Y-85310259D01*
X160808772Y-85417538D01*
X160717538Y-85508772D01*
X160664975Y-85543893D01*
X160610259Y-85580453D01*
X160491056Y-85629829D01*
X160364513Y-85655000D01*
X160235487Y-85655000D01*
X160108944Y-85629829D01*
X159989741Y-85580453D01*
X159935025Y-85543893D01*
X159882462Y-85508772D01*
X159791228Y-85417538D01*
X159719547Y-85310259D01*
X159670171Y-85191056D01*
X159645000Y-85064513D01*
X159645000Y-84935487D01*
X159670171Y-84808944D01*
X159719547Y-84689741D01*
X159791228Y-84582462D01*
X159882462Y-84491228D01*
X159989741Y-84419547D01*
X159992937Y-84418223D01*
X160108944Y-84370171D01*
X160235487Y-84345000D01*
X160364513Y-84345000D01*
X160491056Y-84370171D01*
X160491056Y-84370171D01*
G37*
G36*
X155411056Y-84370171D02*
X155527063Y-84418223D01*
X155530259Y-84419547D01*
X155637538Y-84491228D01*
X155728772Y-84582462D01*
X155800453Y-84689741D01*
X155849829Y-84808944D01*
X155875000Y-84935487D01*
X155875000Y-85064513D01*
X155849829Y-85191056D01*
X155800453Y-85310259D01*
X155728772Y-85417538D01*
X155637538Y-85508772D01*
X155584975Y-85543893D01*
X155530259Y-85580453D01*
X155411056Y-85629829D01*
X155284513Y-85655000D01*
X155155487Y-85655000D01*
X155028944Y-85629829D01*
X154909741Y-85580453D01*
X154855025Y-85543893D01*
X154802462Y-85508772D01*
X154711228Y-85417538D01*
X154639547Y-85310259D01*
X154590171Y-85191056D01*
X154565000Y-85064513D01*
X154565000Y-84935487D01*
X154590171Y-84808944D01*
X154639547Y-84689741D01*
X154711228Y-84582462D01*
X154802462Y-84491228D01*
X154909741Y-84419547D01*
X154912937Y-84418223D01*
X155028944Y-84370171D01*
X155155487Y-84345000D01*
X155284513Y-84345000D01*
X155411056Y-84370171D01*
X155411056Y-84370171D01*
G37*
G36*
X152871056Y-84370171D02*
X152987063Y-84418223D01*
X152990259Y-84419547D01*
X153097538Y-84491228D01*
X153188772Y-84582462D01*
X153260453Y-84689741D01*
X153309829Y-84808944D01*
X153335000Y-84935487D01*
X153335000Y-85064513D01*
X153309829Y-85191056D01*
X153260453Y-85310259D01*
X153188772Y-85417538D01*
X153097538Y-85508772D01*
X153044975Y-85543893D01*
X152990259Y-85580453D01*
X152871056Y-85629829D01*
X152744513Y-85655000D01*
X152615487Y-85655000D01*
X152488944Y-85629829D01*
X152369741Y-85580453D01*
X152315025Y-85543893D01*
X152262462Y-85508772D01*
X152171228Y-85417538D01*
X152099547Y-85310259D01*
X152050171Y-85191056D01*
X152025000Y-85064513D01*
X152025000Y-84935487D01*
X152050171Y-84808944D01*
X152099547Y-84689741D01*
X152171228Y-84582462D01*
X152262462Y-84491228D01*
X152369741Y-84419547D01*
X152372937Y-84418223D01*
X152488944Y-84370171D01*
X152615487Y-84345000D01*
X152744513Y-84345000D01*
X152871056Y-84370171D01*
X152871056Y-84370171D01*
G37*
G36*
X150331056Y-84370171D02*
X150447063Y-84418223D01*
X150450259Y-84419547D01*
X150557538Y-84491228D01*
X150648772Y-84582462D01*
X150720453Y-84689741D01*
X150769829Y-84808944D01*
X150795000Y-84935487D01*
X150795000Y-85064513D01*
X150769829Y-85191056D01*
X150720453Y-85310259D01*
X150648772Y-85417538D01*
X150557538Y-85508772D01*
X150504975Y-85543893D01*
X150450259Y-85580453D01*
X150331056Y-85629829D01*
X150204513Y-85655000D01*
X150075487Y-85655000D01*
X149948944Y-85629829D01*
X149829741Y-85580453D01*
X149775025Y-85543893D01*
X149722462Y-85508772D01*
X149631228Y-85417538D01*
X149559547Y-85310259D01*
X149510171Y-85191056D01*
X149485000Y-85064513D01*
X149485000Y-84935487D01*
X149510171Y-84808944D01*
X149559547Y-84689741D01*
X149631228Y-84582462D01*
X149722462Y-84491228D01*
X149829741Y-84419547D01*
X149832937Y-84418223D01*
X149948944Y-84370171D01*
X150075487Y-84345000D01*
X150204513Y-84345000D01*
X150331056Y-84370171D01*
X150331056Y-84370171D01*
G37*
G36*
X147791056Y-84370171D02*
X147907063Y-84418223D01*
X147910259Y-84419547D01*
X148017538Y-84491228D01*
X148108772Y-84582462D01*
X148180453Y-84689741D01*
X148229829Y-84808944D01*
X148255000Y-84935487D01*
X148255000Y-85064513D01*
X148229829Y-85191056D01*
X148180453Y-85310259D01*
X148108772Y-85417538D01*
X148017538Y-85508772D01*
X147964975Y-85543893D01*
X147910259Y-85580453D01*
X147791056Y-85629829D01*
X147664513Y-85655000D01*
X147535487Y-85655000D01*
X147408944Y-85629829D01*
X147289741Y-85580453D01*
X147235025Y-85543893D01*
X147182462Y-85508772D01*
X147091228Y-85417538D01*
X147019547Y-85310259D01*
X146970171Y-85191056D01*
X146945000Y-85064513D01*
X146945000Y-84935487D01*
X146970171Y-84808944D01*
X147019547Y-84689741D01*
X147091228Y-84582462D01*
X147182462Y-84491228D01*
X147289741Y-84419547D01*
X147292937Y-84418223D01*
X147408944Y-84370171D01*
X147535487Y-84345000D01*
X147664513Y-84345000D01*
X147791056Y-84370171D01*
X147791056Y-84370171D01*
G37*
G36*
X142711056Y-84370171D02*
X142827063Y-84418223D01*
X142830259Y-84419547D01*
X142937538Y-84491228D01*
X143028772Y-84582462D01*
X143100453Y-84689741D01*
X143149829Y-84808944D01*
X143175000Y-84935487D01*
X143175000Y-85064513D01*
X143149829Y-85191056D01*
X143100453Y-85310259D01*
X143028772Y-85417538D01*
X142937538Y-85508772D01*
X142884975Y-85543893D01*
X142830259Y-85580453D01*
X142711056Y-85629829D01*
X142584513Y-85655000D01*
X142455487Y-85655000D01*
X142328944Y-85629829D01*
X142209741Y-85580453D01*
X142155025Y-85543893D01*
X142102462Y-85508772D01*
X142011228Y-85417538D01*
X141939547Y-85310259D01*
X141890171Y-85191056D01*
X141865000Y-85064513D01*
X141865000Y-84935487D01*
X141890171Y-84808944D01*
X141939547Y-84689741D01*
X142011228Y-84582462D01*
X142102462Y-84491228D01*
X142209741Y-84419547D01*
X142212937Y-84418223D01*
X142328944Y-84370171D01*
X142455487Y-84345000D01*
X142584513Y-84345000D01*
X142711056Y-84370171D01*
X142711056Y-84370171D01*
G37*
G36*
X130011056Y-84370171D02*
X130127063Y-84418223D01*
X130130259Y-84419547D01*
X130237538Y-84491228D01*
X130328772Y-84582462D01*
X130400453Y-84689741D01*
X130449829Y-84808944D01*
X130475000Y-84935487D01*
X130475000Y-85064513D01*
X130449829Y-85191056D01*
X130400453Y-85310259D01*
X130328772Y-85417538D01*
X130237538Y-85508772D01*
X130184975Y-85543893D01*
X130130259Y-85580453D01*
X130011056Y-85629829D01*
X129884513Y-85655000D01*
X129755487Y-85655000D01*
X129628944Y-85629829D01*
X129509741Y-85580453D01*
X129455025Y-85543893D01*
X129402462Y-85508772D01*
X129311228Y-85417538D01*
X129239547Y-85310259D01*
X129190171Y-85191056D01*
X129165000Y-85064513D01*
X129165000Y-84935487D01*
X129190171Y-84808944D01*
X129239547Y-84689741D01*
X129311228Y-84582462D01*
X129402462Y-84491228D01*
X129509741Y-84419547D01*
X129512937Y-84418223D01*
X129628944Y-84370171D01*
X129755487Y-84345000D01*
X129884513Y-84345000D01*
X130011056Y-84370171D01*
X130011056Y-84370171D01*
G37*
G36*
X140171056Y-84370171D02*
X140287063Y-84418223D01*
X140290259Y-84419547D01*
X140397538Y-84491228D01*
X140488772Y-84582462D01*
X140560453Y-84689741D01*
X140609829Y-84808944D01*
X140635000Y-84935487D01*
X140635000Y-85064513D01*
X140609829Y-85191056D01*
X140560453Y-85310259D01*
X140488772Y-85417538D01*
X140397538Y-85508772D01*
X140344975Y-85543893D01*
X140290259Y-85580453D01*
X140171056Y-85629829D01*
X140044513Y-85655000D01*
X139915487Y-85655000D01*
X139788944Y-85629829D01*
X139669741Y-85580453D01*
X139615025Y-85543893D01*
X139562462Y-85508772D01*
X139471228Y-85417538D01*
X139399547Y-85310259D01*
X139350171Y-85191056D01*
X139325000Y-85064513D01*
X139325000Y-84935487D01*
X139350171Y-84808944D01*
X139399547Y-84689741D01*
X139471228Y-84582462D01*
X139562462Y-84491228D01*
X139669741Y-84419547D01*
X139672937Y-84418223D01*
X139788944Y-84370171D01*
X139915487Y-84345000D01*
X140044513Y-84345000D01*
X140171056Y-84370171D01*
X140171056Y-84370171D01*
G37*
G36*
X135091056Y-84370171D02*
X135207063Y-84418223D01*
X135210259Y-84419547D01*
X135317538Y-84491228D01*
X135408772Y-84582462D01*
X135480453Y-84689741D01*
X135529829Y-84808944D01*
X135555000Y-84935487D01*
X135555000Y-85064513D01*
X135529829Y-85191056D01*
X135480453Y-85310259D01*
X135408772Y-85417538D01*
X135317538Y-85508772D01*
X135264975Y-85543893D01*
X135210259Y-85580453D01*
X135091056Y-85629829D01*
X134964513Y-85655000D01*
X134835487Y-85655000D01*
X134708944Y-85629829D01*
X134589741Y-85580453D01*
X134535025Y-85543893D01*
X134482462Y-85508772D01*
X134391228Y-85417538D01*
X134319547Y-85310259D01*
X134270171Y-85191056D01*
X134245000Y-85064513D01*
X134245000Y-84935487D01*
X134270171Y-84808944D01*
X134319547Y-84689741D01*
X134391228Y-84582462D01*
X134482462Y-84491228D01*
X134589741Y-84419547D01*
X134592937Y-84418223D01*
X134708944Y-84370171D01*
X134835487Y-84345000D01*
X134964513Y-84345000D01*
X135091056Y-84370171D01*
X135091056Y-84370171D01*
G37*
G36*
X137631056Y-84370171D02*
X137747063Y-84418223D01*
X137750259Y-84419547D01*
X137857538Y-84491228D01*
X137948772Y-84582462D01*
X138020453Y-84689741D01*
X138069829Y-84808944D01*
X138095000Y-84935487D01*
X138095000Y-85064513D01*
X138069829Y-85191056D01*
X138020453Y-85310259D01*
X137948772Y-85417538D01*
X137857538Y-85508772D01*
X137804975Y-85543893D01*
X137750259Y-85580453D01*
X137631056Y-85629829D01*
X137504513Y-85655000D01*
X137375487Y-85655000D01*
X137248944Y-85629829D01*
X137129741Y-85580453D01*
X137075025Y-85543893D01*
X137022462Y-85508772D01*
X136931228Y-85417538D01*
X136859547Y-85310259D01*
X136810171Y-85191056D01*
X136785000Y-85064513D01*
X136785000Y-84935487D01*
X136810171Y-84808944D01*
X136859547Y-84689741D01*
X136931228Y-84582462D01*
X137022462Y-84491228D01*
X137129741Y-84419547D01*
X137132937Y-84418223D01*
X137248944Y-84370171D01*
X137375487Y-84345000D01*
X137504513Y-84345000D01*
X137631056Y-84370171D01*
X137631056Y-84370171D01*
G37*
G36*
X175693778Y-82401879D02*
X175939466Y-82503646D01*
X176160578Y-82651389D01*
X176348611Y-82839422D01*
X176496354Y-83060534D01*
X176598121Y-83306222D01*
X176650000Y-83567035D01*
X176650000Y-83832965D01*
X176598121Y-84093778D01*
X176496354Y-84339466D01*
X176348611Y-84560578D01*
X176160578Y-84748611D01*
X175939466Y-84896354D01*
X175693778Y-84998121D01*
X175432965Y-85050000D01*
X175167035Y-85050000D01*
X174906222Y-84998121D01*
X174660534Y-84896354D01*
X174439422Y-84748611D01*
X174251389Y-84560578D01*
X174103646Y-84339466D01*
X174001879Y-84093778D01*
X173950000Y-83832965D01*
X173950000Y-83567035D01*
X174001879Y-83306222D01*
X174103646Y-83060534D01*
X174251389Y-82839422D01*
X174439422Y-82651389D01*
X174660534Y-82503646D01*
X174906222Y-82401879D01*
X175167035Y-82350000D01*
X175432965Y-82350000D01*
X175693778Y-82401879D01*
X175693778Y-82401879D01*
G37*
G36*
X117693778Y-82401879D02*
X117939466Y-82503646D01*
X118160578Y-82651389D01*
X118348611Y-82839422D01*
X118496354Y-83060534D01*
X118598121Y-83306222D01*
X118650000Y-83567035D01*
X118650000Y-83832965D01*
X118598121Y-84093778D01*
X118496354Y-84339466D01*
X118348611Y-84560578D01*
X118160578Y-84748611D01*
X117939466Y-84896354D01*
X117693778Y-84998121D01*
X117432965Y-85050000D01*
X117167035Y-85050000D01*
X116906222Y-84998121D01*
X116660534Y-84896354D01*
X116439422Y-84748611D01*
X116251389Y-84560578D01*
X116103646Y-84339466D01*
X116001879Y-84093778D01*
X115950000Y-83832965D01*
X115950000Y-83567035D01*
X116001879Y-83306222D01*
X116103646Y-83060534D01*
X116251389Y-82839422D01*
X116439422Y-82651389D01*
X116660534Y-82503646D01*
X116906222Y-82401879D01*
X117167035Y-82350000D01*
X117432965Y-82350000D01*
X117693778Y-82401879D01*
X117693778Y-82401879D01*
G37*
G36*
X122391056Y-81830171D02*
X122510259Y-81879547D01*
X122617539Y-81951229D01*
X122708771Y-82042461D01*
X122780453Y-82149741D01*
X122829829Y-82268944D01*
X122855000Y-82395487D01*
X122855000Y-82524513D01*
X122829829Y-82651056D01*
X122780453Y-82770259D01*
X122708771Y-82877539D01*
X122617539Y-82968771D01*
X122510259Y-83040453D01*
X122391056Y-83089829D01*
X122264513Y-83115000D01*
X122135487Y-83115000D01*
X122008944Y-83089829D01*
X121889741Y-83040453D01*
X121782461Y-82968771D01*
X121691229Y-82877539D01*
X121619547Y-82770259D01*
X121570171Y-82651056D01*
X121545000Y-82524513D01*
X121545000Y-82395487D01*
X121570171Y-82268944D01*
X121619547Y-82149741D01*
X121691229Y-82042461D01*
X121782461Y-81951229D01*
X121889741Y-81879547D01*
X122008944Y-81830171D01*
X122135487Y-81805000D01*
X122264513Y-81805000D01*
X122391056Y-81830171D01*
X122391056Y-81830171D01*
G37*
G36*
X168111056Y-81830171D02*
X168230259Y-81879547D01*
X168337539Y-81951229D01*
X168428771Y-82042461D01*
X168500453Y-82149741D01*
X168549829Y-82268944D01*
X168575000Y-82395487D01*
X168575000Y-82524513D01*
X168549829Y-82651056D01*
X168500453Y-82770259D01*
X168428771Y-82877539D01*
X168337539Y-82968771D01*
X168230259Y-83040453D01*
X168111056Y-83089829D01*
X167984513Y-83115000D01*
X167855487Y-83115000D01*
X167728944Y-83089829D01*
X167609741Y-83040453D01*
X167502461Y-82968771D01*
X167411229Y-82877539D01*
X167339547Y-82770259D01*
X167290171Y-82651056D01*
X167265000Y-82524513D01*
X167265000Y-82395487D01*
X167290171Y-82268944D01*
X167339547Y-82149741D01*
X167411229Y-82042461D01*
X167502461Y-81951229D01*
X167609741Y-81879547D01*
X167728944Y-81830171D01*
X167855487Y-81805000D01*
X167984513Y-81805000D01*
X168111056Y-81830171D01*
X168111056Y-81830171D01*
G37*
G36*
X124931056Y-81830171D02*
X125050259Y-81879547D01*
X125157539Y-81951229D01*
X125248771Y-82042461D01*
X125320453Y-82149741D01*
X125369829Y-82268944D01*
X125395000Y-82395487D01*
X125395000Y-82524513D01*
X125369829Y-82651056D01*
X125320453Y-82770259D01*
X125248771Y-82877539D01*
X125157539Y-82968771D01*
X125050259Y-83040453D01*
X124931056Y-83089829D01*
X124804513Y-83115000D01*
X124675487Y-83115000D01*
X124548944Y-83089829D01*
X124429741Y-83040453D01*
X124322461Y-82968771D01*
X124231229Y-82877539D01*
X124159547Y-82770259D01*
X124110171Y-82651056D01*
X124085000Y-82524513D01*
X124085000Y-82395487D01*
X124110171Y-82268944D01*
X124159547Y-82149741D01*
X124231229Y-82042461D01*
X124322461Y-81951229D01*
X124429741Y-81879547D01*
X124548944Y-81830171D01*
X124675487Y-81805000D01*
X124804513Y-81805000D01*
X124931056Y-81830171D01*
X124931056Y-81830171D01*
G37*
G36*
X127471056Y-81830171D02*
X127590259Y-81879547D01*
X127697539Y-81951229D01*
X127788771Y-82042461D01*
X127860453Y-82149741D01*
X127909829Y-82268944D01*
X127935000Y-82395487D01*
X127935000Y-82524513D01*
X127909829Y-82651056D01*
X127860453Y-82770259D01*
X127788771Y-82877539D01*
X127697539Y-82968771D01*
X127590259Y-83040453D01*
X127471056Y-83089829D01*
X127344513Y-83115000D01*
X127215487Y-83115000D01*
X127088944Y-83089829D01*
X126969741Y-83040453D01*
X126862461Y-82968771D01*
X126771229Y-82877539D01*
X126699547Y-82770259D01*
X126650171Y-82651056D01*
X126625000Y-82524513D01*
X126625000Y-82395487D01*
X126650171Y-82268944D01*
X126699547Y-82149741D01*
X126771229Y-82042461D01*
X126862461Y-81951229D01*
X126969741Y-81879547D01*
X127088944Y-81830171D01*
X127215487Y-81805000D01*
X127344513Y-81805000D01*
X127471056Y-81830171D01*
X127471056Y-81830171D01*
G37*
G36*
X130011056Y-81830171D02*
X130130259Y-81879547D01*
X130237539Y-81951229D01*
X130328771Y-82042461D01*
X130400453Y-82149741D01*
X130449829Y-82268944D01*
X130475000Y-82395487D01*
X130475000Y-82524513D01*
X130449829Y-82651056D01*
X130400453Y-82770259D01*
X130328771Y-82877539D01*
X130237539Y-82968771D01*
X130130259Y-83040453D01*
X130011056Y-83089829D01*
X129884513Y-83115000D01*
X129755487Y-83115000D01*
X129628944Y-83089829D01*
X129509741Y-83040453D01*
X129402461Y-82968771D01*
X129311229Y-82877539D01*
X129239547Y-82770259D01*
X129190171Y-82651056D01*
X129165000Y-82524513D01*
X129165000Y-82395487D01*
X129190171Y-82268944D01*
X129239547Y-82149741D01*
X129311229Y-82042461D01*
X129402461Y-81951229D01*
X129509741Y-81879547D01*
X129628944Y-81830171D01*
X129755487Y-81805000D01*
X129884513Y-81805000D01*
X130011056Y-81830171D01*
X130011056Y-81830171D01*
G37*
G36*
X132551056Y-81830171D02*
X132670259Y-81879547D01*
X132777539Y-81951229D01*
X132868771Y-82042461D01*
X132940453Y-82149741D01*
X132989829Y-82268944D01*
X133015000Y-82395487D01*
X133015000Y-82524513D01*
X132989829Y-82651056D01*
X132940453Y-82770259D01*
X132868771Y-82877539D01*
X132777539Y-82968771D01*
X132670259Y-83040453D01*
X132551056Y-83089829D01*
X132424513Y-83115000D01*
X132295487Y-83115000D01*
X132168944Y-83089829D01*
X132049741Y-83040453D01*
X131942461Y-82968771D01*
X131851229Y-82877539D01*
X131779547Y-82770259D01*
X131730171Y-82651056D01*
X131705000Y-82524513D01*
X131705000Y-82395487D01*
X131730171Y-82268944D01*
X131779547Y-82149741D01*
X131851229Y-82042461D01*
X131942461Y-81951229D01*
X132049741Y-81879547D01*
X132168944Y-81830171D01*
X132295487Y-81805000D01*
X132424513Y-81805000D01*
X132551056Y-81830171D01*
X132551056Y-81830171D01*
G37*
G36*
X135091056Y-81830171D02*
X135210259Y-81879547D01*
X135317539Y-81951229D01*
X135408771Y-82042461D01*
X135480453Y-82149741D01*
X135529829Y-82268944D01*
X135555000Y-82395487D01*
X135555000Y-82524513D01*
X135529829Y-82651056D01*
X135480453Y-82770259D01*
X135408771Y-82877539D01*
X135317539Y-82968771D01*
X135210259Y-83040453D01*
X135091056Y-83089829D01*
X134964513Y-83115000D01*
X134835487Y-83115000D01*
X134708944Y-83089829D01*
X134589741Y-83040453D01*
X134482461Y-82968771D01*
X134391229Y-82877539D01*
X134319547Y-82770259D01*
X134270171Y-82651056D01*
X134245000Y-82524513D01*
X134245000Y-82395487D01*
X134270171Y-82268944D01*
X134319547Y-82149741D01*
X134391229Y-82042461D01*
X134482461Y-81951229D01*
X134589741Y-81879547D01*
X134708944Y-81830171D01*
X134835487Y-81805000D01*
X134964513Y-81805000D01*
X135091056Y-81830171D01*
X135091056Y-81830171D01*
G37*
G36*
X137631056Y-81830171D02*
X137750259Y-81879547D01*
X137857539Y-81951229D01*
X137948771Y-82042461D01*
X138020453Y-82149741D01*
X138069829Y-82268944D01*
X138095000Y-82395487D01*
X138095000Y-82524513D01*
X138069829Y-82651056D01*
X138020453Y-82770259D01*
X137948771Y-82877539D01*
X137857539Y-82968771D01*
X137750259Y-83040453D01*
X137631056Y-83089829D01*
X137504513Y-83115000D01*
X137375487Y-83115000D01*
X137248944Y-83089829D01*
X137129741Y-83040453D01*
X137022461Y-82968771D01*
X136931229Y-82877539D01*
X136859547Y-82770259D01*
X136810171Y-82651056D01*
X136785000Y-82524513D01*
X136785000Y-82395487D01*
X136810171Y-82268944D01*
X136859547Y-82149741D01*
X136931229Y-82042461D01*
X137022461Y-81951229D01*
X137129741Y-81879547D01*
X137248944Y-81830171D01*
X137375487Y-81805000D01*
X137504513Y-81805000D01*
X137631056Y-81830171D01*
X137631056Y-81830171D01*
G37*
G36*
X140171056Y-81830171D02*
X140290259Y-81879547D01*
X140397539Y-81951229D01*
X140488771Y-82042461D01*
X140560453Y-82149741D01*
X140609829Y-82268944D01*
X140635000Y-82395487D01*
X140635000Y-82524513D01*
X140609829Y-82651056D01*
X140560453Y-82770259D01*
X140488771Y-82877539D01*
X140397539Y-82968771D01*
X140290259Y-83040453D01*
X140171056Y-83089829D01*
X140044513Y-83115000D01*
X139915487Y-83115000D01*
X139788944Y-83089829D01*
X139669741Y-83040453D01*
X139562461Y-82968771D01*
X139471229Y-82877539D01*
X139399547Y-82770259D01*
X139350171Y-82651056D01*
X139325000Y-82524513D01*
X139325000Y-82395487D01*
X139350171Y-82268944D01*
X139399547Y-82149741D01*
X139471229Y-82042461D01*
X139562461Y-81951229D01*
X139669741Y-81879547D01*
X139788944Y-81830171D01*
X139915487Y-81805000D01*
X140044513Y-81805000D01*
X140171056Y-81830171D01*
X140171056Y-81830171D01*
G37*
G36*
X142711056Y-81830171D02*
X142830259Y-81879547D01*
X142937539Y-81951229D01*
X143028771Y-82042461D01*
X143100453Y-82149741D01*
X143149829Y-82268944D01*
X143175000Y-82395487D01*
X143175000Y-82524513D01*
X143149829Y-82651056D01*
X143100453Y-82770259D01*
X143028771Y-82877539D01*
X142937539Y-82968771D01*
X142830259Y-83040453D01*
X142711056Y-83089829D01*
X142584513Y-83115000D01*
X142455487Y-83115000D01*
X142328944Y-83089829D01*
X142209741Y-83040453D01*
X142102461Y-82968771D01*
X142011229Y-82877539D01*
X141939547Y-82770259D01*
X141890171Y-82651056D01*
X141865000Y-82524513D01*
X141865000Y-82395487D01*
X141890171Y-82268944D01*
X141939547Y-82149741D01*
X142011229Y-82042461D01*
X142102461Y-81951229D01*
X142209741Y-81879547D01*
X142328944Y-81830171D01*
X142455487Y-81805000D01*
X142584513Y-81805000D01*
X142711056Y-81830171D01*
X142711056Y-81830171D01*
G37*
G36*
X145251056Y-81830171D02*
X145370259Y-81879547D01*
X145477539Y-81951229D01*
X145568771Y-82042461D01*
X145640453Y-82149741D01*
X145689829Y-82268944D01*
X145715000Y-82395487D01*
X145715000Y-82524513D01*
X145689829Y-82651056D01*
X145640453Y-82770259D01*
X145568771Y-82877539D01*
X145477539Y-82968771D01*
X145370259Y-83040453D01*
X145251056Y-83089829D01*
X145124513Y-83115000D01*
X144995487Y-83115000D01*
X144868944Y-83089829D01*
X144749741Y-83040453D01*
X144642461Y-82968771D01*
X144551229Y-82877539D01*
X144479547Y-82770259D01*
X144430171Y-82651056D01*
X144405000Y-82524513D01*
X144405000Y-82395487D01*
X144430171Y-82268944D01*
X144479547Y-82149741D01*
X144551229Y-82042461D01*
X144642461Y-81951229D01*
X144749741Y-81879547D01*
X144868944Y-81830171D01*
X144995487Y-81805000D01*
X145124513Y-81805000D01*
X145251056Y-81830171D01*
X145251056Y-81830171D01*
G37*
G36*
X147791056Y-81830171D02*
X147910259Y-81879547D01*
X148017539Y-81951229D01*
X148108771Y-82042461D01*
X148180453Y-82149741D01*
X148229829Y-82268944D01*
X148255000Y-82395487D01*
X148255000Y-82524513D01*
X148229829Y-82651056D01*
X148180453Y-82770259D01*
X148108771Y-82877539D01*
X148017539Y-82968771D01*
X147910259Y-83040453D01*
X147791056Y-83089829D01*
X147664513Y-83115000D01*
X147535487Y-83115000D01*
X147408944Y-83089829D01*
X147289741Y-83040453D01*
X147182461Y-82968771D01*
X147091229Y-82877539D01*
X147019547Y-82770259D01*
X146970171Y-82651056D01*
X146945000Y-82524513D01*
X146945000Y-82395487D01*
X146970171Y-82268944D01*
X147019547Y-82149741D01*
X147091229Y-82042461D01*
X147182461Y-81951229D01*
X147289741Y-81879547D01*
X147408944Y-81830171D01*
X147535487Y-81805000D01*
X147664513Y-81805000D01*
X147791056Y-81830171D01*
X147791056Y-81830171D01*
G37*
G36*
X150331056Y-81830171D02*
X150450259Y-81879547D01*
X150557539Y-81951229D01*
X150648771Y-82042461D01*
X150720453Y-82149741D01*
X150769829Y-82268944D01*
X150795000Y-82395487D01*
X150795000Y-82524513D01*
X150769829Y-82651056D01*
X150720453Y-82770259D01*
X150648771Y-82877539D01*
X150557539Y-82968771D01*
X150450259Y-83040453D01*
X150331056Y-83089829D01*
X150204513Y-83115000D01*
X150075487Y-83115000D01*
X149948944Y-83089829D01*
X149829741Y-83040453D01*
X149722461Y-82968771D01*
X149631229Y-82877539D01*
X149559547Y-82770259D01*
X149510171Y-82651056D01*
X149485000Y-82524513D01*
X149485000Y-82395487D01*
X149510171Y-82268944D01*
X149559547Y-82149741D01*
X149631229Y-82042461D01*
X149722461Y-81951229D01*
X149829741Y-81879547D01*
X149948944Y-81830171D01*
X150075487Y-81805000D01*
X150204513Y-81805000D01*
X150331056Y-81830171D01*
X150331056Y-81830171D01*
G37*
G36*
X152871056Y-81830171D02*
X152990259Y-81879547D01*
X153097539Y-81951229D01*
X153188771Y-82042461D01*
X153260453Y-82149741D01*
X153309829Y-82268944D01*
X153335000Y-82395487D01*
X153335000Y-82524513D01*
X153309829Y-82651056D01*
X153260453Y-82770259D01*
X153188771Y-82877539D01*
X153097539Y-82968771D01*
X152990259Y-83040453D01*
X152871056Y-83089829D01*
X152744513Y-83115000D01*
X152615487Y-83115000D01*
X152488944Y-83089829D01*
X152369741Y-83040453D01*
X152262461Y-82968771D01*
X152171229Y-82877539D01*
X152099547Y-82770259D01*
X152050171Y-82651056D01*
X152025000Y-82524513D01*
X152025000Y-82395487D01*
X152050171Y-82268944D01*
X152099547Y-82149741D01*
X152171229Y-82042461D01*
X152262461Y-81951229D01*
X152369741Y-81879547D01*
X152488944Y-81830171D01*
X152615487Y-81805000D01*
X152744513Y-81805000D01*
X152871056Y-81830171D01*
X152871056Y-81830171D01*
G37*
G36*
X155411056Y-81830171D02*
X155530259Y-81879547D01*
X155637539Y-81951229D01*
X155728771Y-82042461D01*
X155800453Y-82149741D01*
X155849829Y-82268944D01*
X155875000Y-82395487D01*
X155875000Y-82524513D01*
X155849829Y-82651056D01*
X155800453Y-82770259D01*
X155728771Y-82877539D01*
X155637539Y-82968771D01*
X155530259Y-83040453D01*
X155411056Y-83089829D01*
X155284513Y-83115000D01*
X155155487Y-83115000D01*
X155028944Y-83089829D01*
X154909741Y-83040453D01*
X154802461Y-82968771D01*
X154711229Y-82877539D01*
X154639547Y-82770259D01*
X154590171Y-82651056D01*
X154565000Y-82524513D01*
X154565000Y-82395487D01*
X154590171Y-82268944D01*
X154639547Y-82149741D01*
X154711229Y-82042461D01*
X154802461Y-81951229D01*
X154909741Y-81879547D01*
X155028944Y-81830171D01*
X155155487Y-81805000D01*
X155284513Y-81805000D01*
X155411056Y-81830171D01*
X155411056Y-81830171D01*
G37*
G36*
X157951056Y-81830171D02*
X158070259Y-81879547D01*
X158177539Y-81951229D01*
X158268771Y-82042461D01*
X158340453Y-82149741D01*
X158389829Y-82268944D01*
X158415000Y-82395487D01*
X158415000Y-82524513D01*
X158389829Y-82651056D01*
X158340453Y-82770259D01*
X158268771Y-82877539D01*
X158177539Y-82968771D01*
X158070259Y-83040453D01*
X157951056Y-83089829D01*
X157824513Y-83115000D01*
X157695487Y-83115000D01*
X157568944Y-83089829D01*
X157449741Y-83040453D01*
X157342461Y-82968771D01*
X157251229Y-82877539D01*
X157179547Y-82770259D01*
X157130171Y-82651056D01*
X157105000Y-82524513D01*
X157105000Y-82395487D01*
X157130171Y-82268944D01*
X157179547Y-82149741D01*
X157251229Y-82042461D01*
X157342461Y-81951229D01*
X157449741Y-81879547D01*
X157568944Y-81830171D01*
X157695487Y-81805000D01*
X157824513Y-81805000D01*
X157951056Y-81830171D01*
X157951056Y-81830171D01*
G37*
G36*
X160491056Y-81830171D02*
X160610259Y-81879547D01*
X160717539Y-81951229D01*
X160808771Y-82042461D01*
X160880453Y-82149741D01*
X160929829Y-82268944D01*
X160955000Y-82395487D01*
X160955000Y-82524513D01*
X160929829Y-82651056D01*
X160880453Y-82770259D01*
X160808771Y-82877539D01*
X160717539Y-82968771D01*
X160610259Y-83040453D01*
X160491056Y-83089829D01*
X160364513Y-83115000D01*
X160235487Y-83115000D01*
X160108944Y-83089829D01*
X159989741Y-83040453D01*
X159882461Y-82968771D01*
X159791229Y-82877539D01*
X159719547Y-82770259D01*
X159670171Y-82651056D01*
X159645000Y-82524513D01*
X159645000Y-82395487D01*
X159670171Y-82268944D01*
X159719547Y-82149741D01*
X159791229Y-82042461D01*
X159882461Y-81951229D01*
X159989741Y-81879547D01*
X160108944Y-81830171D01*
X160235487Y-81805000D01*
X160364513Y-81805000D01*
X160491056Y-81830171D01*
X160491056Y-81830171D01*
G37*
G36*
X163031056Y-81830171D02*
X163150259Y-81879547D01*
X163257539Y-81951229D01*
X163348771Y-82042461D01*
X163420453Y-82149741D01*
X163469829Y-82268944D01*
X163495000Y-82395487D01*
X163495000Y-82524513D01*
X163469829Y-82651056D01*
X163420453Y-82770259D01*
X163348771Y-82877539D01*
X163257539Y-82968771D01*
X163150259Y-83040453D01*
X163031056Y-83089829D01*
X162904513Y-83115000D01*
X162775487Y-83115000D01*
X162648944Y-83089829D01*
X162529741Y-83040453D01*
X162422461Y-82968771D01*
X162331229Y-82877539D01*
X162259547Y-82770259D01*
X162210171Y-82651056D01*
X162185000Y-82524513D01*
X162185000Y-82395487D01*
X162210171Y-82268944D01*
X162259547Y-82149741D01*
X162331229Y-82042461D01*
X162422461Y-81951229D01*
X162529741Y-81879547D01*
X162648944Y-81830171D01*
X162775487Y-81805000D01*
X162904513Y-81805000D01*
X163031056Y-81830171D01*
X163031056Y-81830171D01*
G37*
G36*
X165571056Y-81830171D02*
X165690259Y-81879547D01*
X165797539Y-81951229D01*
X165888771Y-82042461D01*
X165960453Y-82149741D01*
X166009829Y-82268944D01*
X166035000Y-82395487D01*
X166035000Y-82524513D01*
X166009829Y-82651056D01*
X165960453Y-82770259D01*
X165888771Y-82877539D01*
X165797539Y-82968771D01*
X165690259Y-83040453D01*
X165571056Y-83089829D01*
X165444513Y-83115000D01*
X165315487Y-83115000D01*
X165188944Y-83089829D01*
X165069741Y-83040453D01*
X164962461Y-82968771D01*
X164871229Y-82877539D01*
X164799547Y-82770259D01*
X164750171Y-82651056D01*
X164725000Y-82524513D01*
X164725000Y-82395487D01*
X164750171Y-82268944D01*
X164799547Y-82149741D01*
X164871229Y-82042461D01*
X164962461Y-81951229D01*
X165069741Y-81879547D01*
X165188944Y-81830171D01*
X165315487Y-81805000D01*
X165444513Y-81805000D01*
X165571056Y-81830171D01*
X165571056Y-81830171D01*
G37*
G36*
X170651056Y-81830171D02*
X170770259Y-81879547D01*
X170877539Y-81951229D01*
X170968771Y-82042461D01*
X171040453Y-82149741D01*
X171089829Y-82268944D01*
X171115000Y-82395487D01*
X171115000Y-82524513D01*
X171089829Y-82651056D01*
X171040453Y-82770259D01*
X170968771Y-82877539D01*
X170877539Y-82968771D01*
X170770259Y-83040453D01*
X170651056Y-83089829D01*
X170524513Y-83115000D01*
X170395487Y-83115000D01*
X170268944Y-83089829D01*
X170149741Y-83040453D01*
X170042461Y-82968771D01*
X169951229Y-82877539D01*
X169879547Y-82770259D01*
X169830171Y-82651056D01*
X169805000Y-82524513D01*
X169805000Y-82395487D01*
X169830171Y-82268944D01*
X169879547Y-82149741D01*
X169951229Y-82042461D01*
X170042461Y-81951229D01*
X170149741Y-81879547D01*
X170268944Y-81830171D01*
X170395487Y-81805000D01*
X170524513Y-81805000D01*
X170651056Y-81830171D01*
X170651056Y-81830171D01*
G37*
G36*
X152900857Y-76612272D02*
X153101042Y-76695191D01*
X153281213Y-76815578D01*
X153434422Y-76968787D01*
X153554809Y-77148958D01*
X153637728Y-77349143D01*
X153680000Y-77561658D01*
X153680000Y-77778342D01*
X153637728Y-77990857D01*
X153554809Y-78191042D01*
X153434422Y-78371213D01*
X153281213Y-78524422D01*
X153101042Y-78644809D01*
X152900857Y-78727728D01*
X152688342Y-78770000D01*
X152471658Y-78770000D01*
X152259143Y-78727728D01*
X152058958Y-78644809D01*
X151878787Y-78524422D01*
X151725578Y-78371213D01*
X151605191Y-78191042D01*
X151522272Y-77990857D01*
X151480000Y-77778342D01*
X151480000Y-77561658D01*
X151522272Y-77349143D01*
X151605191Y-77148958D01*
X151725578Y-76968787D01*
X151878787Y-76815578D01*
X152058958Y-76695191D01*
X152259143Y-76612272D01*
X152471658Y-76570000D01*
X152688342Y-76570000D01*
X152900857Y-76612272D01*
X152900857Y-76612272D01*
G37*
G36*
X129400857Y-76612272D02*
X129601042Y-76695191D01*
X129781213Y-76815578D01*
X129934422Y-76968787D01*
X130054809Y-77148958D01*
X130137728Y-77349143D01*
X130180000Y-77561658D01*
X130180000Y-77778342D01*
X130137728Y-77990857D01*
X130054809Y-78191042D01*
X129934422Y-78371213D01*
X129781213Y-78524422D01*
X129601042Y-78644809D01*
X129400857Y-78727728D01*
X129188342Y-78770000D01*
X128971658Y-78770000D01*
X128759143Y-78727728D01*
X128558958Y-78644809D01*
X128378787Y-78524422D01*
X128225578Y-78371213D01*
X128105191Y-78191042D01*
X128022272Y-77990857D01*
X127980000Y-77778342D01*
X127980000Y-77561658D01*
X128022272Y-77349143D01*
X128105191Y-77148958D01*
X128225578Y-76968787D01*
X128378787Y-76815578D01*
X128558958Y-76695191D01*
X128759143Y-76612272D01*
X128971658Y-76570000D01*
X129188342Y-76570000D01*
X129400857Y-76612272D01*
X129400857Y-76612272D01*
G37*
G36*
X117016630Y-76292299D02*
X117176855Y-76340903D01*
X117324520Y-76419831D01*
X117453949Y-76526051D01*
X117560169Y-76655480D01*
X117639097Y-76803145D01*
X117687701Y-76963370D01*
X117704112Y-77130000D01*
X117687701Y-77296630D01*
X117639097Y-77456855D01*
X117560169Y-77604520D01*
X117453949Y-77733949D01*
X117324520Y-77840169D01*
X117176855Y-77919097D01*
X117016630Y-77967701D01*
X116891752Y-77980000D01*
X116808248Y-77980000D01*
X116683370Y-77967701D01*
X116523145Y-77919097D01*
X116375480Y-77840169D01*
X116246051Y-77733949D01*
X116139831Y-77604520D01*
X116060903Y-77456855D01*
X116012299Y-77296630D01*
X115995888Y-77130000D01*
X116012299Y-76963370D01*
X116060903Y-76803145D01*
X116139831Y-76655480D01*
X116246051Y-76526051D01*
X116375480Y-76419831D01*
X116523145Y-76340903D01*
X116683370Y-76292299D01*
X116808248Y-76280000D01*
X116891752Y-76280000D01*
X117016630Y-76292299D01*
X117016630Y-76292299D01*
G37*
G36*
X173571196Y-74041958D02*
X173807780Y-74139954D01*
X174020705Y-74282226D01*
X174201774Y-74463295D01*
X174344046Y-74676220D01*
X174442042Y-74912804D01*
X174492000Y-75163960D01*
X174492000Y-75420040D01*
X174442042Y-75671196D01*
X174344046Y-75907780D01*
X174201774Y-76120705D01*
X174020705Y-76301774D01*
X173807780Y-76444046D01*
X173571196Y-76542042D01*
X173320040Y-76592000D01*
X173063960Y-76592000D01*
X172812804Y-76542042D01*
X172576220Y-76444046D01*
X172363295Y-76301774D01*
X172182226Y-76120705D01*
X172039954Y-75907780D01*
X171941958Y-75671196D01*
X171892000Y-75420040D01*
X171892000Y-75163960D01*
X171941958Y-74912804D01*
X172039954Y-74676220D01*
X172182226Y-74463295D01*
X172363295Y-74282226D01*
X172576220Y-74139954D01*
X172812804Y-74041958D01*
X173063960Y-73992000D01*
X173320040Y-73992000D01*
X173571196Y-74041958D01*
X173571196Y-74041958D01*
G37*
G36*
X117016630Y-73752299D02*
X117176855Y-73800903D01*
X117324520Y-73879831D01*
X117453949Y-73986051D01*
X117560169Y-74115480D01*
X117639097Y-74263145D01*
X117687701Y-74423370D01*
X117704112Y-74590000D01*
X117687701Y-74756630D01*
X117639097Y-74916855D01*
X117560169Y-75064520D01*
X117453949Y-75193949D01*
X117324520Y-75300169D01*
X117176855Y-75379097D01*
X117016630Y-75427701D01*
X116891752Y-75440000D01*
X116808248Y-75440000D01*
X116683370Y-75427701D01*
X116523145Y-75379097D01*
X116375480Y-75300169D01*
X116246051Y-75193949D01*
X116139831Y-75064520D01*
X116060903Y-74916855D01*
X116012299Y-74756630D01*
X115995888Y-74590000D01*
X116012299Y-74423370D01*
X116060903Y-74263145D01*
X116139831Y-74115480D01*
X116246051Y-73986051D01*
X116375480Y-73879831D01*
X116523145Y-73800903D01*
X116683370Y-73752299D01*
X116808248Y-73740000D01*
X116891752Y-73740000D01*
X117016630Y-73752299D01*
X117016630Y-73752299D01*
G37*
G36*
X176713992Y-71697447D02*
X176713994Y-71697448D01*
X176713995Y-71697448D01*
X177009726Y-71819943D01*
X177124201Y-71896433D01*
X177275880Y-71997782D01*
X177502218Y-72224120D01*
X177502220Y-72224123D01*
X177680057Y-72490274D01*
X177802552Y-72786005D01*
X177802553Y-72786008D01*
X177865000Y-73099950D01*
X177865000Y-73420050D01*
X177807327Y-73709994D01*
X177802552Y-73733995D01*
X177680057Y-74029726D01*
X177663169Y-74055000D01*
X177502218Y-74295880D01*
X177275880Y-74522218D01*
X177275877Y-74522220D01*
X177009726Y-74700057D01*
X176713995Y-74822552D01*
X176713994Y-74822552D01*
X176713992Y-74822553D01*
X176400050Y-74885000D01*
X176079950Y-74885000D01*
X175766008Y-74822553D01*
X175766006Y-74822552D01*
X175766005Y-74822552D01*
X175470274Y-74700057D01*
X175204123Y-74522220D01*
X175204120Y-74522218D01*
X174977782Y-74295880D01*
X174816831Y-74055000D01*
X174799943Y-74029726D01*
X174677448Y-73733995D01*
X174672674Y-73709994D01*
X174615000Y-73420050D01*
X174615000Y-73099950D01*
X174677447Y-72786008D01*
X174677448Y-72786005D01*
X174799943Y-72490274D01*
X174977780Y-72224123D01*
X174977782Y-72224120D01*
X175204120Y-71997782D01*
X175355799Y-71896433D01*
X175470274Y-71819943D01*
X175766005Y-71697448D01*
X175766006Y-71697448D01*
X175766008Y-71697447D01*
X176079950Y-71635000D01*
X176400050Y-71635000D01*
X176713992Y-71697447D01*
X176713992Y-71697447D01*
G37*
G36*
X167489451Y-72319127D02*
X167627105Y-72346508D01*
X167799994Y-72418121D01*
X167955590Y-72522087D01*
X168087913Y-72654410D01*
X168191879Y-72810006D01*
X168263492Y-72982895D01*
X168300000Y-73166433D01*
X168300000Y-73353567D01*
X168263492Y-73537105D01*
X168191879Y-73709994D01*
X168087913Y-73865590D01*
X167955590Y-73997913D01*
X167799994Y-74101879D01*
X167627105Y-74173492D01*
X167489452Y-74200873D01*
X167443568Y-74210000D01*
X167256432Y-74210000D01*
X167210549Y-74200873D01*
X167072895Y-74173492D01*
X166900006Y-74101879D01*
X166744410Y-73997913D01*
X166612087Y-73865590D01*
X166508121Y-73709994D01*
X166436508Y-73537105D01*
X166400000Y-73353567D01*
X166400000Y-73166433D01*
X166436508Y-72982895D01*
X166508121Y-72810006D01*
X166612087Y-72654410D01*
X166744410Y-72522087D01*
X166900006Y-72418121D01*
X167072895Y-72346508D01*
X167210549Y-72319127D01*
X167256432Y-72310000D01*
X167443568Y-72310000D01*
X167489451Y-72319127D01*
X167489451Y-72319127D01*
G37*
G36*
X162799646Y-72325916D02*
X162971625Y-72397152D01*
X163035742Y-72439994D01*
X163126405Y-72500573D01*
X163258027Y-72632195D01*
X163258029Y-72632198D01*
X163361448Y-72786975D01*
X163432684Y-72958954D01*
X163469000Y-73141526D01*
X163469000Y-73327674D01*
X163432684Y-73510246D01*
X163361448Y-73682225D01*
X163314626Y-73752299D01*
X163258027Y-73837005D01*
X163126405Y-73968627D01*
X163126402Y-73968629D01*
X162971625Y-74072048D01*
X162866768Y-74115481D01*
X162799646Y-74143284D01*
X162617074Y-74179600D01*
X162430926Y-74179600D01*
X162248354Y-74143284D01*
X162181232Y-74115481D01*
X162076375Y-74072048D01*
X161921598Y-73968629D01*
X161921595Y-73968627D01*
X161789973Y-73837005D01*
X161733374Y-73752299D01*
X161686552Y-73682225D01*
X161615316Y-73510246D01*
X161579000Y-73327674D01*
X161579000Y-73141526D01*
X161615316Y-72958954D01*
X161686552Y-72786975D01*
X161789971Y-72632198D01*
X161789973Y-72632195D01*
X161921595Y-72500573D01*
X162012258Y-72439994D01*
X162076375Y-72397152D01*
X162248354Y-72325916D01*
X162430926Y-72289600D01*
X162617074Y-72289600D01*
X162799646Y-72325916D01*
X162799646Y-72325916D01*
G37*
G36*
X122397914Y-70472596D02*
X122397917Y-70472597D01*
X122397918Y-70472597D01*
X122496881Y-70502617D01*
X122588086Y-70551367D01*
X122668027Y-70616973D01*
X122733633Y-70696914D01*
X122782383Y-70788119D01*
X122812403Y-70887082D01*
X122812404Y-70887086D01*
X122822540Y-70990000D01*
X122812404Y-71092914D01*
X122812403Y-71092917D01*
X122812403Y-71092918D01*
X122782383Y-71191881D01*
X122733633Y-71283086D01*
X122668027Y-71363027D01*
X122588086Y-71428633D01*
X122496881Y-71477383D01*
X122404580Y-71505382D01*
X122381941Y-71514760D01*
X122361567Y-71528374D01*
X122344240Y-71545701D01*
X122330626Y-71566075D01*
X122321248Y-71588714D01*
X122316468Y-71612748D01*
X122316468Y-71637252D01*
X122321248Y-71661286D01*
X122330626Y-71683925D01*
X122344240Y-71704299D01*
X122361567Y-71721626D01*
X122381941Y-71735240D01*
X122404579Y-71744618D01*
X122496881Y-71772617D01*
X122588086Y-71821367D01*
X122668027Y-71886973D01*
X122733633Y-71966914D01*
X122782383Y-72058119D01*
X122812403Y-72157082D01*
X122812404Y-72157086D01*
X122822540Y-72260000D01*
X122812404Y-72362914D01*
X122812403Y-72362917D01*
X122812403Y-72362918D01*
X122782383Y-72461881D01*
X122733633Y-72553086D01*
X122668027Y-72633027D01*
X122588086Y-72698633D01*
X122545632Y-72721325D01*
X122496882Y-72747383D01*
X122454029Y-72760382D01*
X122431389Y-72769760D01*
X122411015Y-72783374D01*
X122393688Y-72800701D01*
X122380074Y-72821075D01*
X122370696Y-72843714D01*
X122365916Y-72867748D01*
X122365916Y-72892252D01*
X122370696Y-72916285D01*
X122380074Y-72938925D01*
X122393688Y-72959299D01*
X122411015Y-72976626D01*
X122431389Y-72990240D01*
X122454028Y-72999618D01*
X122478062Y-73004398D01*
X122490314Y-73005000D01*
X122820000Y-73005000D01*
X122820000Y-74055000D01*
X121320000Y-74055000D01*
X121320000Y-73005000D01*
X121649686Y-73005000D01*
X121674072Y-73002598D01*
X121697521Y-72995485D01*
X121719132Y-72983934D01*
X121738074Y-72968388D01*
X121753620Y-72949446D01*
X121765171Y-72927835D01*
X121772284Y-72904386D01*
X121774686Y-72880000D01*
X121772284Y-72855614D01*
X121765171Y-72832165D01*
X121753620Y-72810554D01*
X121738074Y-72791612D01*
X121719132Y-72776066D01*
X121697521Y-72764515D01*
X121685971Y-72760382D01*
X121643118Y-72747383D01*
X121594368Y-72721325D01*
X121551914Y-72698633D01*
X121471973Y-72633027D01*
X121406367Y-72553086D01*
X121357617Y-72461881D01*
X121327597Y-72362918D01*
X121327597Y-72362917D01*
X121327596Y-72362914D01*
X121317460Y-72260000D01*
X121327596Y-72157086D01*
X121327597Y-72157082D01*
X121357617Y-72058119D01*
X121406367Y-71966914D01*
X121471973Y-71886973D01*
X121551914Y-71821367D01*
X121643119Y-71772617D01*
X121735421Y-71744618D01*
X121758059Y-71735240D01*
X121778433Y-71721626D01*
X121795760Y-71704299D01*
X121809374Y-71683925D01*
X121818752Y-71661286D01*
X121823532Y-71637252D01*
X121823532Y-71612748D01*
X121818752Y-71588714D01*
X121809374Y-71566075D01*
X121795760Y-71545701D01*
X121778433Y-71528374D01*
X121758059Y-71514760D01*
X121735420Y-71505382D01*
X121643119Y-71477383D01*
X121551914Y-71428633D01*
X121471973Y-71363027D01*
X121406367Y-71283086D01*
X121357617Y-71191881D01*
X121327597Y-71092918D01*
X121327597Y-71092917D01*
X121327596Y-71092914D01*
X121317460Y-70990000D01*
X121327596Y-70887086D01*
X121327597Y-70887082D01*
X121357617Y-70788119D01*
X121406367Y-70696914D01*
X121471973Y-70616973D01*
X121551914Y-70551367D01*
X121643119Y-70502617D01*
X121742082Y-70472597D01*
X121742083Y-70472597D01*
X121742086Y-70472596D01*
X121819208Y-70465000D01*
X122320792Y-70465000D01*
X122397914Y-70472596D01*
X122397914Y-70472596D01*
G37*
G36*
X170029452Y-71049127D02*
X170167105Y-71076508D01*
X170339994Y-71148121D01*
X170495590Y-71252087D01*
X170627913Y-71384410D01*
X170731879Y-71540006D01*
X170803492Y-71712895D01*
X170840000Y-71896433D01*
X170840000Y-72083567D01*
X170803492Y-72267105D01*
X170731879Y-72439994D01*
X170627913Y-72595590D01*
X170495590Y-72727913D01*
X170339994Y-72831879D01*
X170167105Y-72903492D01*
X170029451Y-72930873D01*
X169983568Y-72940000D01*
X169796432Y-72940000D01*
X169750549Y-72930873D01*
X169612895Y-72903492D01*
X169440006Y-72831879D01*
X169284410Y-72727913D01*
X169152087Y-72595590D01*
X169048121Y-72439994D01*
X168976508Y-72267105D01*
X168940000Y-72083567D01*
X168940000Y-71896433D01*
X168976508Y-71712895D01*
X169048121Y-71540006D01*
X169152087Y-71384410D01*
X169284410Y-71252087D01*
X169440006Y-71148121D01*
X169612895Y-71076508D01*
X169750548Y-71049127D01*
X169796432Y-71040000D01*
X169983568Y-71040000D01*
X170029452Y-71049127D01*
X170029452Y-71049127D01*
G37*
G36*
X164949452Y-71049127D02*
X165087105Y-71076508D01*
X165259994Y-71148121D01*
X165415590Y-71252087D01*
X165547913Y-71384410D01*
X165651879Y-71540006D01*
X165723492Y-71712895D01*
X165760000Y-71896433D01*
X165760000Y-72083567D01*
X165723492Y-72267105D01*
X165651879Y-72439994D01*
X165547913Y-72595590D01*
X165415590Y-72727913D01*
X165259994Y-72831879D01*
X165087105Y-72903492D01*
X164949451Y-72930873D01*
X164903568Y-72940000D01*
X164716432Y-72940000D01*
X164670549Y-72930873D01*
X164532895Y-72903492D01*
X164360006Y-72831879D01*
X164204410Y-72727913D01*
X164072087Y-72595590D01*
X163968121Y-72439994D01*
X163896508Y-72267105D01*
X163860000Y-72083567D01*
X163860000Y-71896433D01*
X163896508Y-71712895D01*
X163968121Y-71540006D01*
X164072087Y-71384410D01*
X164204410Y-71252087D01*
X164360006Y-71148121D01*
X164532895Y-71076508D01*
X164670548Y-71049127D01*
X164716432Y-71040000D01*
X164903568Y-71040000D01*
X164949452Y-71049127D01*
X164949452Y-71049127D01*
G37*
G36*
X117700000Y-72900000D02*
X116000000Y-72900000D01*
X116000000Y-71200000D01*
X117700000Y-71200000D01*
X117700000Y-72900000D01*
X117700000Y-72900000D01*
G37*
G36*
X167489451Y-69779127D02*
X167627105Y-69806508D01*
X167799994Y-69878121D01*
X167955590Y-69982087D01*
X168087913Y-70114410D01*
X168191879Y-70270006D01*
X168263492Y-70442895D01*
X168300000Y-70626433D01*
X168300000Y-70813567D01*
X168263492Y-70997105D01*
X168191879Y-71169994D01*
X168087913Y-71325590D01*
X167955590Y-71457913D01*
X167799994Y-71561879D01*
X167627105Y-71633492D01*
X167489452Y-71660873D01*
X167443568Y-71670000D01*
X167256432Y-71670000D01*
X167210548Y-71660873D01*
X167072895Y-71633492D01*
X166900006Y-71561879D01*
X166744410Y-71457913D01*
X166612087Y-71325590D01*
X166508121Y-71169994D01*
X166436508Y-70997105D01*
X166400000Y-70813567D01*
X166400000Y-70626433D01*
X166436508Y-70442895D01*
X166508121Y-70270006D01*
X166612087Y-70114410D01*
X166744410Y-69982087D01*
X166900006Y-69878121D01*
X167072895Y-69806508D01*
X167210549Y-69779127D01*
X167256432Y-69770000D01*
X167443568Y-69770000D01*
X167489451Y-69779127D01*
X167489451Y-69779127D01*
G37*
G36*
X162825046Y-69785916D02*
X162997025Y-69857152D01*
X163150760Y-69959875D01*
X163151805Y-69960573D01*
X163283427Y-70092195D01*
X163283429Y-70092198D01*
X163386848Y-70246975D01*
X163458084Y-70418954D01*
X163494400Y-70601526D01*
X163494400Y-70787674D01*
X163458084Y-70970246D01*
X163386848Y-71142225D01*
X163313440Y-71252087D01*
X163283427Y-71297005D01*
X163151805Y-71428627D01*
X163151802Y-71428629D01*
X162997025Y-71532048D01*
X162860221Y-71588714D01*
X162825046Y-71603284D01*
X162642474Y-71639600D01*
X162456326Y-71639600D01*
X162273754Y-71603284D01*
X162238579Y-71588714D01*
X162101775Y-71532048D01*
X161946998Y-71428629D01*
X161946995Y-71428627D01*
X161815373Y-71297005D01*
X161785360Y-71252087D01*
X161711952Y-71142225D01*
X161640716Y-70970246D01*
X161604400Y-70787674D01*
X161604400Y-70601526D01*
X161640716Y-70418954D01*
X161711952Y-70246975D01*
X161815371Y-70092198D01*
X161815373Y-70092195D01*
X161946995Y-69960573D01*
X161948040Y-69959875D01*
X162101775Y-69857152D01*
X162273754Y-69785916D01*
X162456326Y-69749600D01*
X162642474Y-69749600D01*
X162825046Y-69785916D01*
X162825046Y-69785916D01*
G37*
G36*
X117016630Y-67172299D02*
X117176855Y-67220903D01*
X117324520Y-67299831D01*
X117453949Y-67406051D01*
X117560169Y-67535480D01*
X117639097Y-67683145D01*
X117687701Y-67843370D01*
X117704112Y-68010000D01*
X117687701Y-68176630D01*
X117639097Y-68336855D01*
X117560169Y-68484520D01*
X117453949Y-68613949D01*
X117324520Y-68720169D01*
X117176855Y-68799097D01*
X117016630Y-68847701D01*
X116891752Y-68860000D01*
X116808248Y-68860000D01*
X116683370Y-68847701D01*
X116523145Y-68799097D01*
X116375480Y-68720169D01*
X116246051Y-68613949D01*
X116139831Y-68484520D01*
X116060903Y-68336855D01*
X116012299Y-68176630D01*
X115995888Y-68010000D01*
X116012299Y-67843370D01*
X116060903Y-67683145D01*
X116139831Y-67535480D01*
X116246051Y-67406051D01*
X116375480Y-67299831D01*
X116523145Y-67220903D01*
X116683370Y-67172299D01*
X116808248Y-67160000D01*
X116891752Y-67160000D01*
X117016630Y-67172299D01*
X117016630Y-67172299D01*
G37*
G36*
X170029451Y-65969127D02*
X170167105Y-65996508D01*
X170339994Y-66068121D01*
X170495590Y-66172087D01*
X170627913Y-66304410D01*
X170731879Y-66460006D01*
X170803492Y-66632895D01*
X170840000Y-66816433D01*
X170840000Y-67003567D01*
X170803492Y-67187105D01*
X170731879Y-67359994D01*
X170627913Y-67515590D01*
X170495590Y-67647913D01*
X170339994Y-67751879D01*
X170167105Y-67823492D01*
X170029451Y-67850873D01*
X169983568Y-67860000D01*
X169796432Y-67860000D01*
X169750549Y-67850873D01*
X169612895Y-67823492D01*
X169440006Y-67751879D01*
X169284410Y-67647913D01*
X169152087Y-67515590D01*
X169048121Y-67359994D01*
X168976508Y-67187105D01*
X168940000Y-67003567D01*
X168940000Y-66816433D01*
X168976508Y-66632895D01*
X169048121Y-66460006D01*
X169152087Y-66304410D01*
X169284410Y-66172087D01*
X169440006Y-66068121D01*
X169612895Y-65996508D01*
X169750549Y-65969127D01*
X169796432Y-65960000D01*
X169983568Y-65960000D01*
X170029451Y-65969127D01*
X170029451Y-65969127D01*
G37*
G36*
X167489451Y-64699127D02*
X167627105Y-64726508D01*
X167799994Y-64798121D01*
X167955590Y-64902087D01*
X168087913Y-65034410D01*
X168191879Y-65190006D01*
X168263492Y-65362895D01*
X168300000Y-65546433D01*
X168300000Y-65733567D01*
X168263492Y-65917105D01*
X168191879Y-66089994D01*
X168087913Y-66245590D01*
X167955590Y-66377913D01*
X167799994Y-66481879D01*
X167627105Y-66553492D01*
X167489451Y-66580873D01*
X167443568Y-66590000D01*
X167256432Y-66590000D01*
X167210549Y-66580873D01*
X167072895Y-66553492D01*
X166900006Y-66481879D01*
X166744410Y-66377913D01*
X166612087Y-66245590D01*
X166508121Y-66089994D01*
X166436508Y-65917105D01*
X166400000Y-65733567D01*
X166400000Y-65546433D01*
X166436508Y-65362895D01*
X166508121Y-65190006D01*
X166612087Y-65034410D01*
X166744410Y-64902087D01*
X166900006Y-64798121D01*
X167072895Y-64726508D01*
X167210549Y-64699127D01*
X167256432Y-64690000D01*
X167443568Y-64690000D01*
X167489451Y-64699127D01*
X167489451Y-64699127D01*
G37*
G36*
X117016630Y-64632299D02*
X117176855Y-64680903D01*
X117324520Y-64759831D01*
X117453949Y-64866051D01*
X117560169Y-64995480D01*
X117639097Y-65143145D01*
X117687701Y-65303370D01*
X117704112Y-65470000D01*
X117687701Y-65636630D01*
X117639097Y-65796855D01*
X117560169Y-65944520D01*
X117453949Y-66073949D01*
X117324520Y-66180169D01*
X117176855Y-66259097D01*
X117016630Y-66307701D01*
X116891752Y-66320000D01*
X116808248Y-66320000D01*
X116683370Y-66307701D01*
X116523145Y-66259097D01*
X116375480Y-66180169D01*
X116246051Y-66073949D01*
X116139831Y-65944520D01*
X116060903Y-65796855D01*
X116012299Y-65636630D01*
X115995888Y-65470000D01*
X116012299Y-65303370D01*
X116060903Y-65143145D01*
X116139831Y-64995480D01*
X116246051Y-64866051D01*
X116375480Y-64759831D01*
X116523145Y-64680903D01*
X116683370Y-64632299D01*
X116808248Y-64620000D01*
X116891752Y-64620000D01*
X117016630Y-64632299D01*
X117016630Y-64632299D01*
G37*
G36*
X162799646Y-63715316D02*
X162971625Y-63786552D01*
X163125360Y-63889275D01*
X163126405Y-63889973D01*
X163258027Y-64021595D01*
X163258029Y-64021598D01*
X163361448Y-64176375D01*
X163432684Y-64348354D01*
X163469000Y-64530926D01*
X163469000Y-64717074D01*
X163432684Y-64899646D01*
X163361448Y-65071625D01*
X163282348Y-65190006D01*
X163258027Y-65226405D01*
X163126405Y-65358027D01*
X163126402Y-65358029D01*
X162971625Y-65461448D01*
X162799646Y-65532684D01*
X162617074Y-65569000D01*
X162430926Y-65569000D01*
X162248354Y-65532684D01*
X162076375Y-65461448D01*
X161921598Y-65358029D01*
X161921595Y-65358027D01*
X161789973Y-65226405D01*
X161765652Y-65190006D01*
X161686552Y-65071625D01*
X161615316Y-64899646D01*
X161579000Y-64717074D01*
X161579000Y-64530926D01*
X161615316Y-64348354D01*
X161686552Y-64176375D01*
X161789971Y-64021598D01*
X161789973Y-64021595D01*
X161921595Y-63889973D01*
X161922640Y-63889275D01*
X162076375Y-63786552D01*
X162248354Y-63715316D01*
X162430926Y-63679000D01*
X162617074Y-63679000D01*
X162799646Y-63715316D01*
X162799646Y-63715316D01*
G37*
G36*
X170029451Y-63429127D02*
X170167105Y-63456508D01*
X170339994Y-63528121D01*
X170495590Y-63632087D01*
X170627913Y-63764410D01*
X170731879Y-63920006D01*
X170803492Y-64092895D01*
X170840000Y-64276433D01*
X170840000Y-64463567D01*
X170803492Y-64647105D01*
X170731879Y-64819994D01*
X170627913Y-64975590D01*
X170495590Y-65107913D01*
X170339994Y-65211879D01*
X170167105Y-65283492D01*
X170029452Y-65310873D01*
X169983568Y-65320000D01*
X169796432Y-65320000D01*
X169750548Y-65310873D01*
X169612895Y-65283492D01*
X169440006Y-65211879D01*
X169284410Y-65107913D01*
X169152087Y-64975590D01*
X169048121Y-64819994D01*
X168976508Y-64647105D01*
X168940000Y-64463567D01*
X168940000Y-64276433D01*
X168976508Y-64092895D01*
X169048121Y-63920006D01*
X169152087Y-63764410D01*
X169284410Y-63632087D01*
X169440006Y-63528121D01*
X169612895Y-63456508D01*
X169750549Y-63429127D01*
X169796432Y-63420000D01*
X169983568Y-63420000D01*
X170029451Y-63429127D01*
X170029451Y-63429127D01*
G37*
G36*
X167489452Y-62159127D02*
X167627105Y-62186508D01*
X167799994Y-62258121D01*
X167955590Y-62362087D01*
X168087913Y-62494410D01*
X168191879Y-62650006D01*
X168263492Y-62822895D01*
X168300000Y-63006433D01*
X168300000Y-63193567D01*
X168263492Y-63377105D01*
X168191879Y-63549994D01*
X168087913Y-63705590D01*
X167955590Y-63837913D01*
X167799994Y-63941879D01*
X167627105Y-64013492D01*
X167489452Y-64040873D01*
X167443568Y-64050000D01*
X167256432Y-64050000D01*
X167210548Y-64040873D01*
X167072895Y-64013492D01*
X166900006Y-63941879D01*
X166744410Y-63837913D01*
X166612087Y-63705590D01*
X166508121Y-63549994D01*
X166436508Y-63377105D01*
X166400000Y-63193567D01*
X166400000Y-63006433D01*
X166436508Y-62822895D01*
X166508121Y-62650006D01*
X166612087Y-62494410D01*
X166744410Y-62362087D01*
X166900006Y-62258121D01*
X167072895Y-62186508D01*
X167210548Y-62159127D01*
X167256432Y-62150000D01*
X167443568Y-62150000D01*
X167489452Y-62159127D01*
X167489452Y-62159127D01*
G37*
G36*
X117700000Y-63780000D02*
X116000000Y-63780000D01*
X116000000Y-62080000D01*
X117700000Y-62080000D01*
X117700000Y-63780000D01*
X117700000Y-63780000D01*
G37*
G36*
X176713992Y-60267447D02*
X176713994Y-60267448D01*
X176713995Y-60267448D01*
X177009726Y-60389943D01*
X177009727Y-60389944D01*
X177275880Y-60567782D01*
X177502218Y-60794120D01*
X177502220Y-60794123D01*
X177680057Y-61060274D01*
X177800053Y-61349973D01*
X177802553Y-61356008D01*
X177865000Y-61669950D01*
X177865000Y-61990050D01*
X177820464Y-62213949D01*
X177802552Y-62303995D01*
X177680057Y-62599726D01*
X177680056Y-62599727D01*
X177502218Y-62865880D01*
X177275880Y-63092218D01*
X177275877Y-63092220D01*
X177009726Y-63270057D01*
X176713995Y-63392552D01*
X176713994Y-63392552D01*
X176713992Y-63392553D01*
X176400050Y-63455000D01*
X176079950Y-63455000D01*
X175766008Y-63392553D01*
X175766006Y-63392552D01*
X175766005Y-63392552D01*
X175470274Y-63270057D01*
X175204123Y-63092220D01*
X175204120Y-63092218D01*
X174977782Y-62865880D01*
X174799944Y-62599727D01*
X174799943Y-62599726D01*
X174677448Y-62303995D01*
X174659537Y-62213949D01*
X174615000Y-61990050D01*
X174615000Y-61669950D01*
X174677447Y-61356008D01*
X174679947Y-61349973D01*
X174799943Y-61060274D01*
X174977780Y-60794123D01*
X174977782Y-60794120D01*
X175204120Y-60567782D01*
X175470273Y-60389944D01*
X175470274Y-60389943D01*
X175766005Y-60267448D01*
X175766006Y-60267448D01*
X175766008Y-60267447D01*
X176079950Y-60205000D01*
X176400050Y-60205000D01*
X176713992Y-60267447D01*
X176713992Y-60267447D01*
G37*
G36*
X162799646Y-61175316D02*
X162971625Y-61246552D01*
X163125360Y-61349275D01*
X163126405Y-61349973D01*
X163258027Y-61481595D01*
X163258029Y-61481598D01*
X163361448Y-61636375D01*
X163432684Y-61808354D01*
X163469000Y-61990926D01*
X163469000Y-62177074D01*
X163432684Y-62359646D01*
X163361448Y-62531625D01*
X163282348Y-62650006D01*
X163258027Y-62686405D01*
X163126405Y-62818027D01*
X163126402Y-62818029D01*
X162971625Y-62921448D01*
X162799646Y-62992684D01*
X162617074Y-63029000D01*
X162430926Y-63029000D01*
X162248354Y-62992684D01*
X162076375Y-62921448D01*
X161921598Y-62818029D01*
X161921595Y-62818027D01*
X161789973Y-62686405D01*
X161765652Y-62650006D01*
X161686552Y-62531625D01*
X161615316Y-62359646D01*
X161579000Y-62177074D01*
X161579000Y-61990926D01*
X161615316Y-61808354D01*
X161686552Y-61636375D01*
X161789971Y-61481598D01*
X161789973Y-61481595D01*
X161921595Y-61349973D01*
X161922640Y-61349275D01*
X162076375Y-61246552D01*
X162248354Y-61175316D01*
X162430926Y-61139000D01*
X162617074Y-61139000D01*
X162799646Y-61175316D01*
X162799646Y-61175316D01*
G37*
G36*
X170840000Y-62780000D02*
X168940000Y-62780000D01*
X168940000Y-60880000D01*
X170840000Y-60880000D01*
X170840000Y-62780000D01*
X170840000Y-62780000D01*
G37*
G36*
X123196630Y-60772299D02*
X123356855Y-60820903D01*
X123504520Y-60899831D01*
X123633949Y-61006051D01*
X123740169Y-61135480D01*
X123819097Y-61283145D01*
X123867701Y-61443370D01*
X123884112Y-61610000D01*
X123867701Y-61776630D01*
X123819097Y-61936855D01*
X123740169Y-62084520D01*
X123633949Y-62213949D01*
X123504520Y-62320169D01*
X123356855Y-62399097D01*
X123196630Y-62447701D01*
X123071752Y-62460000D01*
X122988248Y-62460000D01*
X122863370Y-62447701D01*
X122703145Y-62399097D01*
X122555480Y-62320169D01*
X122426051Y-62213949D01*
X122319831Y-62084520D01*
X122240903Y-61936855D01*
X122192299Y-61776630D01*
X122175888Y-61610000D01*
X122192299Y-61443370D01*
X122240903Y-61283145D01*
X122319831Y-61135480D01*
X122426051Y-61006051D01*
X122555480Y-60899831D01*
X122703145Y-60820903D01*
X122863370Y-60772299D01*
X122988248Y-60760000D01*
X123071752Y-60760000D01*
X123196630Y-60772299D01*
X123196630Y-60772299D01*
G37*
G36*
X173545796Y-58547958D02*
X173782380Y-58645954D01*
X173995305Y-58788226D01*
X174176374Y-58969295D01*
X174318646Y-59182220D01*
X174416642Y-59418804D01*
X174466600Y-59669960D01*
X174466600Y-59926040D01*
X174416642Y-60177196D01*
X174318646Y-60413780D01*
X174176374Y-60626705D01*
X173995305Y-60807774D01*
X173782380Y-60950046D01*
X173545796Y-61048042D01*
X173294640Y-61098000D01*
X173038560Y-61098000D01*
X172787404Y-61048042D01*
X172550820Y-60950046D01*
X172337895Y-60807774D01*
X172156826Y-60626705D01*
X172014554Y-60413780D01*
X171916558Y-60177196D01*
X171866600Y-59926040D01*
X171866600Y-59669960D01*
X171916558Y-59418804D01*
X172014554Y-59182220D01*
X172156826Y-58969295D01*
X172337895Y-58788226D01*
X172550820Y-58645954D01*
X172787404Y-58547958D01*
X173038560Y-58498000D01*
X173294640Y-58498000D01*
X173545796Y-58547958D01*
X173545796Y-58547958D01*
G37*
G36*
X123196630Y-58232299D02*
X123356855Y-58280903D01*
X123504520Y-58359831D01*
X123633949Y-58466051D01*
X123740169Y-58595480D01*
X123819097Y-58743145D01*
X123867701Y-58903370D01*
X123884112Y-59070000D01*
X123867701Y-59236630D01*
X123819097Y-59396855D01*
X123740169Y-59544520D01*
X123633949Y-59673949D01*
X123504520Y-59780169D01*
X123356855Y-59859097D01*
X123196630Y-59907701D01*
X123071752Y-59920000D01*
X122988248Y-59920000D01*
X122863370Y-59907701D01*
X122703145Y-59859097D01*
X122555480Y-59780169D01*
X122426051Y-59673949D01*
X122319831Y-59544520D01*
X122240903Y-59396855D01*
X122192299Y-59236630D01*
X122175888Y-59070000D01*
X122192299Y-58903370D01*
X122240903Y-58743145D01*
X122319831Y-58595480D01*
X122426051Y-58466051D01*
X122555480Y-58359831D01*
X122703145Y-58280903D01*
X122863370Y-58232299D01*
X122988248Y-58220000D01*
X123071752Y-58220000D01*
X123196630Y-58232299D01*
X123196630Y-58232299D01*
G37*
G36*
X176046253Y-52253801D02*
X176316730Y-52307602D01*
X176527799Y-52395030D01*
X176826296Y-52518671D01*
X177284899Y-52825100D01*
X177674900Y-53215101D01*
X177981329Y-53673704D01*
X178072793Y-53894519D01*
X178192398Y-54183270D01*
X178300000Y-54724224D01*
X178300000Y-55275776D01*
X178192398Y-55816730D01*
X178147115Y-55926052D01*
X177981329Y-56326296D01*
X177674900Y-56784899D01*
X177284899Y-57174900D01*
X176826296Y-57481329D01*
X176527799Y-57604970D01*
X176316730Y-57692398D01*
X176046253Y-57746199D01*
X175775777Y-57800000D01*
X175224223Y-57800000D01*
X174953747Y-57746199D01*
X174683270Y-57692398D01*
X174472201Y-57604970D01*
X174173704Y-57481329D01*
X173715101Y-57174900D01*
X173325100Y-56784899D01*
X173018671Y-56326296D01*
X172852885Y-55926052D01*
X172807602Y-55816730D01*
X172700000Y-55275776D01*
X172700000Y-54724224D01*
X172807602Y-54183270D01*
X172927207Y-53894519D01*
X173018671Y-53673704D01*
X173325100Y-53215101D01*
X173715101Y-52825100D01*
X174173704Y-52518671D01*
X174472201Y-52395030D01*
X174683270Y-52307602D01*
X174953747Y-52253801D01*
X175224223Y-52200000D01*
X175775777Y-52200000D01*
X176046253Y-52253801D01*
X176046253Y-52253801D01*
G37*
G36*
X117546253Y-52253801D02*
X117816730Y-52307602D01*
X118027799Y-52395030D01*
X118326296Y-52518671D01*
X118784899Y-52825100D01*
X119174900Y-53215101D01*
X119481329Y-53673704D01*
X119572793Y-53894519D01*
X119692398Y-54183270D01*
X119800000Y-54724224D01*
X119800000Y-55275776D01*
X119692398Y-55816730D01*
X119647115Y-55926052D01*
X119481329Y-56326296D01*
X119174900Y-56784899D01*
X118784899Y-57174900D01*
X118326296Y-57481329D01*
X118027799Y-57604970D01*
X117816730Y-57692398D01*
X117546253Y-57746199D01*
X117275777Y-57800000D01*
X116724223Y-57800000D01*
X116453747Y-57746199D01*
X116183270Y-57692398D01*
X115972201Y-57604970D01*
X115673704Y-57481329D01*
X115215101Y-57174900D01*
X114825100Y-56784899D01*
X114518671Y-56326296D01*
X114352885Y-55926052D01*
X114307602Y-55816730D01*
X114200000Y-55275776D01*
X114200000Y-54724224D01*
X114307602Y-54183270D01*
X114427207Y-53894519D01*
X114518671Y-53673704D01*
X114825100Y-53215101D01*
X115215101Y-52825100D01*
X115673704Y-52518671D01*
X115972201Y-52395030D01*
X116183270Y-52307602D01*
X116453747Y-52253801D01*
X116724223Y-52200000D01*
X117275777Y-52200000D01*
X117546253Y-52253801D01*
X117546253Y-52253801D01*
G37*
G36*
X123196630Y-55692299D02*
X123356855Y-55740903D01*
X123504520Y-55819831D01*
X123633949Y-55926051D01*
X123740169Y-56055480D01*
X123819097Y-56203145D01*
X123867701Y-56363370D01*
X123884112Y-56530000D01*
X123867701Y-56696630D01*
X123819097Y-56856855D01*
X123740169Y-57004520D01*
X123633949Y-57133949D01*
X123504520Y-57240169D01*
X123356855Y-57319097D01*
X123196630Y-57367701D01*
X123071752Y-57380000D01*
X122988248Y-57380000D01*
X122863370Y-57367701D01*
X122703145Y-57319097D01*
X122555480Y-57240169D01*
X122426051Y-57133949D01*
X122319831Y-57004520D01*
X122240903Y-56856855D01*
X122192299Y-56696630D01*
X122175888Y-56530000D01*
X122192299Y-56363370D01*
X122240903Y-56203145D01*
X122319831Y-56055480D01*
X122426051Y-55926051D01*
X122555480Y-55819831D01*
X122703145Y-55740903D01*
X122863370Y-55692299D01*
X122988248Y-55680000D01*
X123071752Y-55680000D01*
X123196630Y-55692299D01*
X123196630Y-55692299D01*
G37*
G36*
X152900857Y-52862272D02*
X153101042Y-52945191D01*
X153281213Y-53065578D01*
X153434422Y-53218787D01*
X153434424Y-53218790D01*
X153434425Y-53218791D01*
X153554807Y-53398955D01*
X153554809Y-53398958D01*
X153637728Y-53599143D01*
X153680000Y-53811658D01*
X153680000Y-54028342D01*
X153637728Y-54240857D01*
X153554809Y-54441042D01*
X153434422Y-54621213D01*
X153281213Y-54774422D01*
X153101042Y-54894809D01*
X152900857Y-54977728D01*
X152688342Y-55020000D01*
X152471658Y-55020000D01*
X152259143Y-54977728D01*
X152058958Y-54894809D01*
X151878787Y-54774422D01*
X151725578Y-54621213D01*
X151605191Y-54441042D01*
X151522272Y-54240857D01*
X151480000Y-54028342D01*
X151480000Y-53811658D01*
X151522272Y-53599143D01*
X151605191Y-53398958D01*
X151605193Y-53398955D01*
X151725575Y-53218791D01*
X151725576Y-53218790D01*
X151725578Y-53218787D01*
X151878787Y-53065578D01*
X152058958Y-52945191D01*
X152259143Y-52862272D01*
X152471658Y-52820000D01*
X152688342Y-52820000D01*
X152900857Y-52862272D01*
X152900857Y-52862272D01*
G37*
G36*
X129400857Y-52862272D02*
X129601042Y-52945191D01*
X129781213Y-53065578D01*
X129934422Y-53218787D01*
X129934424Y-53218790D01*
X129934425Y-53218791D01*
X130054807Y-53398955D01*
X130054809Y-53398958D01*
X130137728Y-53599143D01*
X130180000Y-53811658D01*
X130180000Y-54028342D01*
X130137728Y-54240857D01*
X130054809Y-54441042D01*
X129934422Y-54621213D01*
X129781213Y-54774422D01*
X129601042Y-54894809D01*
X129400857Y-54977728D01*
X129188342Y-55020000D01*
X128971658Y-55020000D01*
X128759143Y-54977728D01*
X128558958Y-54894809D01*
X128378787Y-54774422D01*
X128225578Y-54621213D01*
X128105191Y-54441042D01*
X128022272Y-54240857D01*
X127980000Y-54028342D01*
X127980000Y-53811658D01*
X128022272Y-53599143D01*
X128105191Y-53398958D01*
X128105193Y-53398955D01*
X128225575Y-53218791D01*
X128225576Y-53218790D01*
X128225578Y-53218787D01*
X128378787Y-53065578D01*
X128558958Y-52945191D01*
X128759143Y-52862272D01*
X128971658Y-52820000D01*
X129188342Y-52820000D01*
X129400857Y-52862272D01*
X129400857Y-52862272D01*
G37*
G36*
X123880000Y-54840000D02*
X122180000Y-54840000D01*
X122180000Y-53140000D01*
X123880000Y-53140000D01*
X123880000Y-54840000D01*
X123880000Y-54840000D01*
G37*
G36*
X144806630Y-52582299D02*
X144966855Y-52630903D01*
X145114520Y-52709831D01*
X145243949Y-52816051D01*
X145350169Y-52945480D01*
X145429097Y-53093145D01*
X145477701Y-53253370D01*
X145494112Y-53420000D01*
X145477701Y-53586630D01*
X145429097Y-53746855D01*
X145350169Y-53894520D01*
X145243949Y-54023949D01*
X145114520Y-54130169D01*
X144966855Y-54209097D01*
X144806630Y-54257701D01*
X144681752Y-54270000D01*
X144598248Y-54270000D01*
X144473370Y-54257701D01*
X144313145Y-54209097D01*
X144165480Y-54130169D01*
X144036051Y-54023949D01*
X143929831Y-53894520D01*
X143850903Y-53746855D01*
X143802299Y-53586630D01*
X143785888Y-53420000D01*
X143802299Y-53253370D01*
X143850903Y-53093145D01*
X143929831Y-52945480D01*
X144036051Y-52816051D01*
X144165480Y-52709831D01*
X144313145Y-52630903D01*
X144473370Y-52582299D01*
X144598248Y-52570000D01*
X144681752Y-52570000D01*
X144806630Y-52582299D01*
X144806630Y-52582299D01*
G37*
G36*
X142266630Y-52582299D02*
X142426855Y-52630903D01*
X142574520Y-52709831D01*
X142703949Y-52816051D01*
X142810169Y-52945480D01*
X142889097Y-53093145D01*
X142937701Y-53253370D01*
X142954112Y-53420000D01*
X142937701Y-53586630D01*
X142889097Y-53746855D01*
X142810169Y-53894520D01*
X142703949Y-54023949D01*
X142574520Y-54130169D01*
X142426855Y-54209097D01*
X142266630Y-54257701D01*
X142141752Y-54270000D01*
X142058248Y-54270000D01*
X141933370Y-54257701D01*
X141773145Y-54209097D01*
X141625480Y-54130169D01*
X141496051Y-54023949D01*
X141389831Y-53894520D01*
X141310903Y-53746855D01*
X141262299Y-53586630D01*
X141245888Y-53420000D01*
X141262299Y-53253370D01*
X141310903Y-53093145D01*
X141389831Y-52945480D01*
X141496051Y-52816051D01*
X141625480Y-52709831D01*
X141773145Y-52630903D01*
X141933370Y-52582299D01*
X142058248Y-52570000D01*
X142141752Y-52570000D01*
X142266630Y-52582299D01*
X142266630Y-52582299D01*
G37*
G36*
X139726630Y-52582299D02*
X139886855Y-52630903D01*
X140034520Y-52709831D01*
X140163949Y-52816051D01*
X140270169Y-52945480D01*
X140349097Y-53093145D01*
X140397701Y-53253370D01*
X140414112Y-53420000D01*
X140397701Y-53586630D01*
X140349097Y-53746855D01*
X140270169Y-53894520D01*
X140163949Y-54023949D01*
X140034520Y-54130169D01*
X139886855Y-54209097D01*
X139726630Y-54257701D01*
X139601752Y-54270000D01*
X139518248Y-54270000D01*
X139393370Y-54257701D01*
X139233145Y-54209097D01*
X139085480Y-54130169D01*
X138956051Y-54023949D01*
X138849831Y-53894520D01*
X138770903Y-53746855D01*
X138722299Y-53586630D01*
X138705888Y-53420000D01*
X138722299Y-53253370D01*
X138770903Y-53093145D01*
X138849831Y-52945480D01*
X138956051Y-52816051D01*
X139085480Y-52709831D01*
X139233145Y-52630903D01*
X139393370Y-52582299D01*
X139518248Y-52570000D01*
X139601752Y-52570000D01*
X139726630Y-52582299D01*
X139726630Y-52582299D01*
G37*
G36*
X137870000Y-54270000D02*
X136170000Y-54270000D01*
X136170000Y-52570000D01*
X137870000Y-52570000D01*
X137870000Y-54270000D01*
X137870000Y-54270000D01*
G37*
M02*
